<?xml version="1.0" encoding="utf-8"?>
<!-- Generator: Adobe Illustrator 16.0.0, SVG Export Plug-In . SVG Version: 6.00 Build 0)  -->
<!DOCTYPE svg PUBLIC "-//W3C//DTD SVG 1.1//EN" "http://www.w3.org/Graphics/SVG/1.1/DTD/svg11.dtd">
<svg version="1.1" id="Capa_1" xmlns="http://www.w3.org/2000/svg" xmlns:xlink="http://www.w3.org/1999/xlink" x="0px" y="0px"
	 width="55.031px" height="26.076px" viewBox="0 0 55.031 26.076" enable-background="new 0 0 55.031 26.076" xml:space="preserve">
<g>
	<path fill="#5BBFBE" d="M49.189,9.271c-1.891,0-3.431-1.539-3.431-3.427c0-1.895,1.54-3.428,3.431-3.428
		c1.889,0,3.429,1.533,3.429,3.428C52.618,7.732,51.078,9.271,49.189,9.271L49.189,9.271z M34.797,23.664
		c-1.893,0-3.429-1.538-3.429-3.428c0-1.894,1.536-3.432,3.429-3.432c1.886,0,3.424,1.538,3.424,3.432
		C38.221,22.126,36.683,23.664,34.797,23.664L34.797,23.664z M16.811,5.845c0-1.895,1.538-3.428,3.426-3.428
		c1.892,0,3.428,1.533,3.428,3.428c0,1.888-1.536,3.427-3.428,3.427C18.349,9.271,16.811,7.732,16.811,5.845L16.811,5.845z
		 M5.844,23.664c-1.889,0-3.427-1.538-3.427-3.428c0-1.894,1.538-3.426,3.427-3.426c1.896,0,3.429,1.532,3.429,3.426
		C9.272,22.126,7.739,23.664,5.844,23.664L5.844,23.664z M49.189,0c-3.223,0-5.845,2.623-5.845,5.845
		c0,1.175,0.352,2.267,0.946,3.185l-6.312,6.314c-0.914-0.601-2.01-0.951-3.183-0.951c-1.22,0-2.351,0.373-3.286,1.015l-6.376-6.378
		c0.597-0.918,0.945-2.01,0.945-3.185C26.08,2.623,23.459,0,20.236,0c-3.221,0-5.839,2.623-5.839,5.845
		c0,1.175,0.349,2.267,0.942,3.185l-6.308,6.314c-0.915-0.601-2.01-0.951-3.188-0.951C2.626,14.393,0,17.014,0,20.236
		c0,3.219,2.626,5.84,5.844,5.84c3.224,0,5.846-2.621,5.846-5.84c0-1.179-0.348-2.271-0.949-3.188l6.312-6.312
		c0.92,0.602,2.009,0.948,3.185,0.948c1.178,0,2.271-0.347,3.191-0.948l6.408,6.413c-0.557,0.896-0.884,1.952-0.884,3.086
		c0,3.219,2.62,5.84,5.845,5.84c3.219,0,5.843-2.621,5.843-5.84c0-1.179-0.354-2.271-0.948-3.188l6.312-6.312
		c0.915,0.602,2.013,0.948,3.187,0.948c3.22,0,5.842-2.624,5.842-5.841C55.031,2.623,52.409,0,49.189,0L49.189,0z"/>
	<path fill="#5BBFBE" d="M17.293,14.834l-2.453,2.457c-0.477,0.47-0.477,1.238,0,1.708c0.234,0.236,0.54,0.354,0.852,0.354
		c0.31,0,0.619-0.118,0.854-0.354l2.455-2.457c0.472-0.471,0.472-1.235,0-1.708C18.529,14.365,17.765,14.365,17.293,14.834
		L17.293,14.834z"/>
	<path fill="#5BBFBE" d="M36.881,11.639c0.314,0,0.62-0.114,0.857-0.351l2.454-2.458c0.476-0.474,0.476-1.237,0-1.706
		c-0.471-0.473-1.236-0.473-1.706,0L36.03,9.578c-0.468,0.472-0.468,1.237,0,1.71C36.27,11.524,36.575,11.639,36.881,11.639
		L36.881,11.639z"/>
</g>
</svg>
