<?xml version="1.0" encoding="utf-8"?>
<!-- Generator: Adobe Illustrator 16.0.0, SVG Export Plug-In . SVG Version: 6.00 Build 0)  -->
<!DOCTYPE svg PUBLIC "-//W3C//DTD SVG 1.1//EN" "http://www.w3.org/Graphics/SVG/1.1/DTD/svg11.dtd">
<svg version="1.1" id="Capa_1" xmlns="http://www.w3.org/2000/svg" xmlns:xlink="http://www.w3.org/1999/xlink" x="0px" y="0px"
	 width="31.691px" height="38.977px" viewBox="0 0 31.691 38.977" enable-background="new 0 0 31.691 38.977" xml:space="preserve">
<g>
	<path fill-rule="evenodd" clip-rule="evenodd" fill="#5BBFBE" d="M31.689,19.519c0.002,5.606,0.002,11.21,0,16.813
		c0,1.729-0.902,2.641-2.627,2.645c-8.807,0-17.611,0-26.418,0c-1.695,0-2.643-0.957-2.643-2.655C0,25.133,0,13.938,0,2.749
		c0-1.812,0.938-2.745,2.75-2.745c8.787,0,17.572,0,26.355-0.004c1.613-0.003,2.584,0.954,2.584,2.579
		C31.691,8.226,31.689,13.874,31.689,19.519z M1.195,19.444c0,5.584,0,11.17,0.002,16.757c0,1.179,0.396,1.575,1.576,1.575
		c8.705,0,17.408,0,26.115,0c1.26,0,1.643-0.382,1.643-1.642c0.002-2.64,0.002-5.275,0.002-7.913
		c0.002-8.437,0.002-16.878-0.002-25.318c0-1.245-0.412-1.707-1.533-1.707c-8.727-0.004-17.453,0-26.178,0.003
		c-1.213,0-1.625,0.416-1.625,1.609C1.195,8.353,1.195,13.896,1.195,19.444z"/>
	<path fill-rule="evenodd" clip-rule="evenodd" fill="#5BBFBE" d="M25.887,15.197c0,0.39,0,0.751,0,1.149c-3.902,0-7.783,0-11.701,0
		c0-0.393,0-0.753,0-1.149C18.094,15.197,21.977,15.197,25.887,15.197z"/>
	<path fill-rule="evenodd" clip-rule="evenodd" fill="#5BBFBE" d="M25.891,23.127c0,0.466,0,0.807,0,1.188c-3.9,0-7.777,0-11.684,0
		c-0.021-0.137-0.053-0.251-0.055-0.369c-0.039-0.819-0.035-0.822,0.766-0.822c3.402,0,6.805,0.003,10.207,0.003
		C25.365,23.127,25.604,23.127,25.891,23.127z"/>
	<path fill-rule="evenodd" clip-rule="evenodd" fill="#5BBFBE" d="M10.633,23.697c0.004,1.333-1.029,2.385-2.348,2.382
		c-1.281-0.004-2.314-1.051-2.314-2.346c0-1.305,1.014-2.337,2.314-2.354C9.562,21.36,10.623,22.409,10.633,23.697z M8.273,24.848
		C8.9,24.86,9.4,24.382,9.426,23.753c0.025-0.581-0.52-1.163-1.098-1.163c-0.615,0-1.131,0.498-1.145,1.11
		C7.168,24.329,7.652,24.837,8.273,24.848z"/>
	<path fill-rule="evenodd" clip-rule="evenodd" fill="#5BBFBE" d="M9.686,10.292c-0.453-0.518-0.867-0.993-1.361-1.56
		C7.857,9.31,7.447,9.81,6.988,10.378c-0.363-0.466-0.596-0.764-0.906-1.16C6.473,8.899,6.979,8.493,7.59,7.992
		C6.957,7.458,6.465,7.041,5.955,6.616C6.34,6.258,6.613,6,6.955,5.683c0.398,0.441,0.828,0.92,1.33,1.48
		c0.498-0.577,0.926-1.064,1.379-1.586c0.34,0.376,0.586,0.648,0.914,1.016C10.102,6.97,9.598,7.372,9.02,7.831
		c0.637,0.554,1.111,0.964,1.643,1.425C10.293,9.646,10.025,9.932,9.686,10.292z"/>
	<path fill-rule="evenodd" clip-rule="evenodd" fill="#5BBFBE" d="M6.869,18.497c-0.508-0.858-1.029-1.746-1.592-2.69
		c0.352-0.213,0.658-0.396,1.025-0.616c0.297,0.466,0.584,0.918,0.924,1.452c1.039-1.092,2.039-2.146,3.088-3.247
		c0.34,0.387,0.578,0.659,0.783,0.891C9.719,15.66,8.316,17.056,6.869,18.497z"/>
	<path fill-rule="evenodd" clip-rule="evenodd" fill="#5BBFBE" d="M15.34,7.382c0,0.374,0,0.711,0,1.114c-0.367,0-0.732,0-1.146,0
		c0-0.36,0-0.71,0-1.114C14.568,7.382,14.938,7.382,15.34,7.382z"/>
	<path fill-rule="evenodd" clip-rule="evenodd" fill="#5BBFBE" d="M19.459,8.483c0-0.341,0-0.695,0-1.102c0.383,0,0.748,0,1.148,0
		c0,0.358,0,0.695,0,1.102C20.248,8.483,19.871,8.483,19.459,8.483z"/>
	<path fill-rule="evenodd" clip-rule="evenodd" fill="#5BBFBE" d="M25.889,7.382c0,0.391,0,0.732,0,1.121c-0.377,0-0.744,0-1.152,0
		c0-0.367,0-0.721,0-1.121C25.113,7.382,25.467,7.382,25.889,7.382z"/>
	<path fill-rule="evenodd" clip-rule="evenodd" fill="#5BBFBE" d="M16.799,7.372c0.387,0,0.742,0,1.143,0c0,0.371,0,0.742,0,1.141
		c-0.375,0-0.746,0-1.143,0C16.799,8.12,16.799,7.767,16.799,7.372z"/>
	<path fill-rule="evenodd" clip-rule="evenodd" fill="#5BBFBE" d="M22.1,7.369c0.43,0,0.766,0,1.129,0c0,0.387,0,0.741,0,1.138
		c-0.383,0-0.734,0-1.129,0C22.1,8.123,22.1,7.76,22.1,7.369z"/>
	<polygon fill-rule="evenodd" clip-rule="evenodd" fill="#5BBFBE" points="7.146,31.08 7.844,32.495 9.404,32.722 8.273,33.821 
		8.541,35.375 7.146,34.642 5.75,35.375 6.018,33.821 4.889,32.722 6.447,32.495 	"/>
	<polygon fill-rule="evenodd" clip-rule="evenodd" fill="#5BBFBE" points="13.236,31.08 13.936,32.495 15.494,32.722 14.363,33.821 
		14.633,35.375 13.236,34.642 11.842,35.375 12.105,33.821 10.979,32.722 12.537,32.495 	"/>
	<polygon fill-rule="evenodd" clip-rule="evenodd" fill="#5BBFBE" points="19.326,31.08 20.025,32.495 21.584,32.722 20.453,33.821 
		20.721,35.375 19.326,34.642 17.934,35.375 18.197,33.821 17.068,32.722 18.631,32.495 	"/>
	<polygon fill-rule="evenodd" clip-rule="evenodd" fill="#5BBFBE" points="25.416,31.08 26.115,32.495 27.674,32.722 26.545,33.821 
		26.811,35.375 25.416,34.642 24.02,35.375 24.287,33.821 23.158,32.722 24.719,32.495 	"/>
</g>
</svg>
