<?xml version="1.0" encoding="utf-8"?>
<!-- Generator: Adobe Illustrator 16.0.0, SVG Export Plug-In . SVG Version: 6.00 Build 0)  -->
<!DOCTYPE svg PUBLIC "-//W3C//DTD SVG 1.1//EN" "http://www.w3.org/Graphics/SVG/1.1/DTD/svg11.dtd">
<svg version="1.1" id="Capa_1" xmlns="http://www.w3.org/2000/svg" xmlns:xlink="http://www.w3.org/1999/xlink" x="0px" y="0px"
	 width="103.367px" height="64.791px" viewBox="0 0 103.367 64.791" enable-background="new 0 0 103.367 64.791"
	 xml:space="preserve">
<g>
	<path fill="#126975" d="M21.977,32.27v6.676H6.676H0V32.27V0.055h6.676V32.27H21.977z"/>
	<path fill="#126975" d="M18.713,0h6.676v6.676h-6.676V0z M18.713,38.945V11.127h6.676v27.818H18.713z"/>
	<path fill="#28B2C0" d="M37.392,20.062c0.466,0.115,1.243,0.389,2.333,0.816c1.09,0.43,2.209,1.021,3.357,1.781
		c1.146,0.758,2.148,1.701,3.005,2.83c0.855,1.129,1.284,2.471,1.284,4.027c0,1.361-0.225,2.607-0.672,3.734
		c-0.447,1.129-1.1,2.121-1.955,2.977c-0.855,0.857-1.906,1.518-3.15,1.984c-1.246,0.467-2.646,0.701-4.202,0.701
		c-2.374,0-4.583-0.43-6.625-1.285c-2.043-0.855-3.688-1.906-4.933-3.15l4.846-4.846c1.011,1.207,2.09,1.986,3.238,2.336
		c1.147,0.35,2.11,0.525,2.889,0.525c1.206,0,2.102-0.234,2.686-0.701c0.583-0.467,0.875-1.029,0.875-1.693
		c0-0.467-0.195-0.875-0.583-1.225c-0.39-0.35-0.847-0.643-1.372-0.875c-0.525-0.234-1.061-0.418-1.605-0.555
		s-0.992-0.264-1.342-0.379c-0.467-0.156-1.255-0.428-2.363-0.818c-1.109-0.389-2.238-0.953-3.385-1.691
		c-1.149-0.738-2.151-1.674-3.007-2.803c-0.856-1.127-1.284-2.488-1.284-4.084c0-1.635,0.281-3.045,0.847-4.232
		c0.563-1.186,1.313-2.168,2.247-2.947c0.934-0.777,2.003-1.352,3.209-1.721c1.207-0.369,2.452-0.555,3.736-0.555
		c1.984,0,3.666,0.232,5.048,0.699s2.519,0.975,3.415,1.518c1.011,0.662,1.867,1.402,2.568,2.219l-4.902,4.902
		c-0.779-1.012-1.635-1.75-2.569-2.219c-0.935-0.467-1.926-0.699-2.976-0.699c-0.818,0-1.625,0.195-2.422,0.584
		c-0.799,0.389-1.197,1.012-1.197,1.867c0,0.467,0.176,0.867,0.525,1.195c0.351,0.332,0.777,0.605,1.284,0.818
		c0.505,0.213,1.04,0.398,1.604,0.555S36.924,19.945,37.392,20.062z"/>
	<path fill="#28B2C0" d="M76.678,8.914v29.795h-7.004V23.564c0-2.334-0.816-4.32-2.451-5.953c-1.634-1.635-3.619-2.453-5.953-2.453
		c-1.129,0-2.209,0.215-3.239,0.645c-1.03,0.428-1.936,1.031-2.714,1.809c-1.635,1.633-2.451,3.619-2.451,5.953
		c0,2.295,0.816,4.26,2.451,5.895c0.778,0.816,1.684,1.43,2.714,1.838s2.11,0.613,3.239,0.613c1.168,0,2.217-0.193,3.152-0.584
		l2.51,6.244c-1.791,0.895-3.873,1.344-6.246,1.344c-2.14,0-4.113-0.4-5.924-1.197c-1.809-0.797-3.376-1.896-4.697-3.297
		c-1.324-1.4-2.355-3.035-3.094-4.902c-0.74-1.869-1.109-3.852-1.109-5.953c0-2.141,0.369-4.145,1.109-6.012
		c0.738-1.867,1.77-3.502,3.094-4.902c1.321-1.4,2.889-2.5,4.697-3.297c1.811-0.799,3.784-1.197,5.924-1.197
		c1.906,0,3.599,0.291,5.078,0.875c1.479,0.584,2.781,1.324,3.91,2.219V8.914H76.678z"/>
	<path fill="#126975" d="M95.604,27.066H80.314c0.387,0.895,0.951,1.691,1.691,2.393c0.816,0.816,1.73,1.43,2.742,1.838
		c1.014,0.408,2.082,0.613,3.211,0.613c1.596,0,3.015-0.369,4.261-1.109l7.296,2.918c-1.402,1.635-3.094,2.91-5.078,3.822
		c-1.984,0.914-4.145,1.373-6.479,1.373c-2.141,0-4.145-0.4-6.012-1.197s-3.502-1.896-4.902-3.297s-2.5-3.035-3.298-4.902
		c-0.798-1.869-1.196-3.852-1.196-5.953c0-2.141,0.398-4.145,1.196-6.012s1.897-3.502,3.298-4.902s3.035-2.5,4.902-3.297
		c1.867-0.799,3.871-1.197,6.012-1.197c2.139,0,4.145,0.398,6.012,1.197c1.867,0.797,3.501,1.896,4.902,3.297
		c1.4,1.4,2.499,3.035,3.298,4.902c0.796,1.867,1.196,3.871,1.196,6.012c0,1.246-0.137,2.412-0.408,3.502H95.604z M87.959,15.158
		c-2.257,0-4.242,0.818-5.953,2.453c-0.74,0.738-1.305,1.557-1.691,2.451h15.289c-0.388-0.895-0.953-1.713-1.691-2.451
		C92.277,15.977,90.293,15.158,87.959,15.158z"/>
	<g>
		<path fill="#585858" d="M0.033,47.434h0.66v5.234H3.67v0.535H0.033V47.434z"/>
		<path fill="#585858" d="M7.163,50.689v1.805c0,0.486,0.066,0.635,0.066,0.635v0.074H6.842c-0.091,0-0.312-0.23-0.321-0.312
			c-0.289,0.246-0.634,0.371-1.048,0.371c-0.684,0-1.203-0.355-1.203-1.057c0-0.732,0.561-1.152,1.617-1.152
			c0.263,0,0.477,0.023,0.634,0.049v-0.395c0-0.486-0.321-0.711-0.808-0.711c-0.363,0-0.717,0.133-0.948,0.365
			c-0.116,0-0.38-0.273-0.38-0.381c0.355-0.346,0.792-0.527,1.377-0.527C6.661,49.453,7.163,49.873,7.163,50.689z M5.621,52.742
			c0.33,0,0.652-0.123,0.899-0.371v-0.799c-0.165-0.025-0.396-0.049-0.626-0.049c-0.693,0-0.982,0.246-0.982,0.633
			C4.912,52.553,5.201,52.742,5.621,52.742z"/>
		<path fill="#585858" d="M8.094,47.186h0.734c0.09,0,0.265,0.174,0.265,0.264v2.375c0.255-0.223,0.585-0.371,1.013-0.371
			c1.031,0,1.789,0.809,1.789,1.896c0,1.055-0.709,1.912-2.044,1.912c-0.478,0-0.965-0.107-1.401-0.363v-5.193H8.094
			c-0.082,0-0.254-0.172-0.254-0.256C7.84,47.359,8.012,47.186,8.094,47.186z M9.957,50.021c-0.338,0-0.65,0.115-0.864,0.305v2.26
			c0.237,0.082,0.519,0.123,0.766,0.123c0.882,0,1.36-0.553,1.36-1.344S10.724,50.021,9.957,50.021z"/>
		<path fill="#585858" d="M14.623,49.453c1.113,0,1.929,0.809,1.929,1.912c0,1.088-0.815,1.896-1.929,1.896
			s-1.928-0.809-1.928-1.896C12.695,50.262,13.51,49.453,14.623,49.453z M14.623,52.699c0.741,0,1.244-0.543,1.244-1.334
			c0-0.801-0.503-1.344-1.244-1.344c-0.742,0-1.245,0.543-1.245,1.344C13.378,52.156,13.881,52.699,14.623,52.699z"/>
		<path fill="#585858" d="M18.233,50.137c0.362-0.395,0.841-0.658,1.417-0.658v0.559c-0.485,0-1.071,0.24-1.417,0.693v2.473H17.59
			v-2.975c0-0.486-0.065-0.637-0.065-0.637V49.52h0.387c0.091,0,0.322,0.23,0.322,0.322V50.137z"/>
		<path fill="#585858" d="M23.228,50.689v1.805c0,0.486,0.065,0.635,0.065,0.635v0.074h-0.387c-0.092,0-0.313-0.23-0.322-0.312
			c-0.288,0.246-0.633,0.371-1.047,0.371c-0.684,0-1.202-0.355-1.202-1.057c0-0.732,0.562-1.152,1.616-1.152
			c0.262,0,0.478,0.023,0.633,0.049v-0.395c0-0.486-0.32-0.711-0.807-0.711c-0.362,0-0.717,0.133-0.948,0.365
			c-0.114,0-0.378-0.273-0.378-0.381c0.354-0.346,0.791-0.527,1.376-0.527C22.725,49.453,23.228,49.873,23.228,50.689z
			 M21.688,52.742c0.328,0,0.649-0.123,0.896-0.371v-0.799c-0.164-0.025-0.395-0.049-0.625-0.049c-0.693,0-0.981,0.246-0.981,0.633
			C20.978,52.553,21.266,52.742,21.688,52.742z"/>
		<path fill="#585858" d="M24.258,49.52h0.494v-1.121l0.43-0.238h0.182v1.359h1.219v0.518h-1.219v2.193
			c0,0.314,0.139,0.479,0.461,0.479c0.223,0,0.438-0.066,0.602-0.24c0.1,0,0.33,0.24,0.33,0.34
			c-0.306,0.305-0.627,0.453-1.064,0.453c-0.602,0-0.972-0.305-0.972-0.932v-2.293h-0.462c-0.082,0-0.256-0.172-0.256-0.264
			C24.002,49.693,24.176,49.52,24.258,49.52z"/>
		<path fill="#585858" d="M29.319,49.453c1.112,0,1.929,0.809,1.929,1.912c0,1.088-0.816,1.896-1.929,1.896
			c-1.113,0-1.929-0.809-1.929-1.896C27.391,50.262,28.206,49.453,29.319,49.453z M29.319,52.699c0.741,0,1.245-0.543,1.245-1.334
			c0-0.801-0.504-1.344-1.245-1.344c-0.743,0-1.245,0.543-1.245,1.344C28.074,52.156,28.576,52.699,29.319,52.699z"/>
		<path fill="#585858" d="M32.93,50.137c0.362-0.395,0.84-0.658,1.418-0.658v0.559c-0.486,0-1.072,0.24-1.418,0.693v2.473h-0.644
			v-2.975c0-0.486-0.065-0.637-0.065-0.637V49.52h0.387c0.09,0,0.322,0.23,0.322,0.322V50.137z"/>
		<path fill="#585858" d="M35.031,49.52h1.005c0.083,0,0.256,0.174,0.256,0.254v3.43h-0.636v-3.166h-0.625
			c-0.084,0-0.265-0.172-0.265-0.264C34.767,49.693,34.947,49.52,35.031,49.52z M35.83,47.748c0.148,0,0.462,0.312,0.462,0.461
			c0,0.146-0.313,0.461-0.462,0.461s-0.461-0.314-0.461-0.461C35.369,48.061,35.682,47.748,35.83,47.748z"/>
		<path fill="#585858" d="M39.292,49.453c1.112,0,1.929,0.809,1.929,1.912c0,1.088-0.816,1.896-1.929,1.896
			s-1.929-0.809-1.929-1.896C37.363,50.262,38.18,49.453,39.292,49.453z M39.292,52.699c0.741,0,1.244-0.543,1.244-1.334
			c0-0.801-0.503-1.344-1.244-1.344c-0.742,0-1.245,0.543-1.245,1.344C38.047,52.156,38.55,52.699,39.292,52.699z"/>
		<path fill="#585858" d="M46.604,47.186h0.74c0.084,0,0.258,0.174,0.258,0.264v5.045c0,0.486,0.074,0.635,0.074,0.635v0.074h-0.396
			c-0.09,0-0.297-0.213-0.313-0.305c-0.264,0.223-0.593,0.363-1.022,0.363c-1.021,0-1.787-0.809-1.787-1.889
			c0-1.121,0.823-1.92,1.969-1.92c0.305,0,0.594,0.066,0.841,0.182v-1.93h-0.362c-0.084,0-0.256-0.172-0.256-0.256
			C46.348,47.359,46.52,47.186,46.604,47.186z M46.102,52.699c0.338,0,0.641-0.105,0.864-0.305v-2.158
			c-0.224-0.139-0.511-0.223-0.815-0.223c-0.809,0-1.311,0.551-1.311,1.352C44.84,52.148,45.326,52.699,46.102,52.699z"/>
		<path fill="#585858" d="M49.314,51.562c0.05,0.701,0.543,1.137,1.327,1.137c0.388,0,0.784-0.098,1.038-0.311
			c0.1,0,0.347,0.246,0.347,0.354c-0.337,0.346-0.856,0.52-1.401,0.52c-1.17,0-1.979-0.793-1.979-1.922
			c0-1.088,0.759-1.887,1.863-1.887c1.047,0,1.648,0.725,1.648,1.822c0,0.09-0.197,0.287-0.281,0.287H49.314z M49.314,51.076h2.209
			c0-0.609-0.354-1.062-1.038-1.062C49.842,50.014,49.364,50.426,49.314,51.076z"/>
		<path fill="#585858" d="M57.557,53.203h-2.324c-0.091,0-0.264-0.172-0.264-0.264c0-0.082,0.173-0.256,0.264-0.256h0.832v-4.73
			h-0.832c-0.091,0-0.264-0.174-0.264-0.256c0-0.09,0.173-0.264,0.264-0.264h2.324c0.083,0,0.264,0.174,0.264,0.264
			c0,0.082-0.181,0.256-0.264,0.256h-0.832v4.73h0.832c0.083,0,0.264,0.174,0.264,0.256C57.82,53.031,57.64,53.203,57.557,53.203z"
			/>
		<path fill="#585858" d="M59.379,49.922c0.348-0.279,0.8-0.469,1.318-0.469c0.857,0,1.303,0.504,1.303,1.318v2.432h-0.643v-2.432
			c0-0.494-0.28-0.75-0.816-0.75c-0.396,0-0.857,0.141-1.162,0.404v2.777h-0.643v-2.975c0-0.486-0.067-0.637-0.067-0.637V49.52
			h0.388c0.091,0,0.322,0.23,0.322,0.322V49.922z"/>
		<path fill="#585858" d="M64.834,53.203h-0.51l-1.615-3.461c0-0.049,0.461-0.264,0.568-0.264l1.311,2.916l1.303-2.916
			c0.107,0,0.568,0.215,0.568,0.264L64.834,53.203z"/>
		<path fill="#585858" d="M67.604,51.562c0.05,0.701,0.544,1.137,1.327,1.137c0.388,0,0.783-0.098,1.039-0.311
			c0.098,0,0.346,0.246,0.346,0.354c-0.338,0.346-0.857,0.52-1.401,0.52c-1.17,0-1.978-0.793-1.978-1.922
			c0-1.088,0.758-1.887,1.863-1.887c1.045,0,1.646,0.725,1.646,1.822c0,0.09-0.197,0.287-0.279,0.287H67.604z M67.604,51.076h2.21
			c0-0.609-0.355-1.062-1.039-1.062C68.132,50.014,67.654,50.426,67.604,51.076z"/>
		<path fill="#585858" d="M73.26,52.23c0-0.305-0.314-0.42-0.867-0.643c-0.758-0.305-1.088-0.535-1.088-1.096
			c0-0.645,0.445-1.039,1.27-1.039c0.527,0,0.865,0.164,1.162,0.461c0,0.1-0.264,0.363-0.362,0.363
			c-0.173-0.18-0.462-0.289-0.8-0.289c-0.42,0-0.668,0.182-0.668,0.471s0.248,0.387,0.816,0.617c0.76,0.322,1.146,0.545,1.146,1.121
			c0,0.676-0.512,1.064-1.344,1.064c-0.494,0-0.932-0.141-1.303-0.512c0-0.098,0.271-0.371,0.371-0.371
			c0.223,0.23,0.545,0.355,0.924,0.355C72.945,52.734,73.26,52.561,73.26,52.23z"/>
		<path fill="#585858" d="M74.619,49.52h0.494v-1.121l0.429-0.238h0.181v1.359h1.221v0.518h-1.221v2.193
			c0,0.314,0.141,0.479,0.463,0.479c0.223,0,0.437-0.066,0.602-0.24c0.099,0,0.328,0.24,0.328,0.34
			c-0.305,0.305-0.625,0.453-1.061,0.453c-0.604,0-0.975-0.305-0.975-0.932v-2.293h-0.461c-0.082,0-0.256-0.172-0.256-0.264
			C74.363,49.693,74.537,49.52,74.619,49.52z"/>
		<path fill="#585858" d="M77.768,49.52h1.006c0.082,0,0.256,0.174,0.256,0.254v3.43h-0.637v-3.166h-0.625
			c-0.082,0-0.264-0.172-0.264-0.264C77.504,49.693,77.686,49.52,77.768,49.52z M78.567,47.748c0.148,0,0.462,0.312,0.462,0.461
			c0,0.146-0.313,0.461-0.462,0.461c-0.149,0-0.462-0.314-0.462-0.461C78.105,48.061,78.418,47.748,78.567,47.748z"/>
		<path fill="#585858" d="M82.91,52.898c-0.264,0.223-0.594,0.363-1.021,0.363c-1.022,0-1.789-0.801-1.789-1.889
			c0-1.055,0.718-1.92,2.044-1.92c0.479,0,0.973,0.115,1.401,0.371v3.609c0,1.096-0.75,1.689-1.804,1.689
			c-0.578,0-1.057-0.18-1.427-0.533c0-0.109,0.264-0.371,0.37-0.371c0.257,0.236,0.651,0.336,1.022,0.336
			c0.75,0,1.203-0.387,1.203-1.121V52.898z M82.045,52.699c0.338,0,0.643-0.105,0.865-0.305v-2.248
			c-0.246-0.084-0.52-0.133-0.767-0.133c-0.882,0-1.36,0.551-1.36,1.344C80.783,52.148,81.27,52.699,82.045,52.699z"/>
		<path fill="#585858" d="M87.502,50.689v1.805c0,0.486,0.066,0.635,0.066,0.635v0.074H87.18c-0.09,0-0.312-0.23-0.32-0.312
			c-0.289,0.246-0.635,0.371-1.048,0.371c-0.684,0-1.202-0.355-1.202-1.057c0-0.732,0.56-1.152,1.615-1.152
			c0.264,0,0.477,0.023,0.635,0.049v-0.395c0-0.486-0.322-0.711-0.809-0.711c-0.361,0-0.717,0.133-0.947,0.365
			c-0.115,0-0.379-0.273-0.379-0.381c0.354-0.346,0.791-0.527,1.377-0.527C86.999,49.453,87.502,49.873,87.502,50.689z
			 M85.961,52.742c0.33,0,0.65-0.123,0.898-0.371v-0.799c-0.166-0.025-0.396-0.049-0.627-0.049c-0.693,0-0.98,0.246-0.98,0.633
			C85.252,52.553,85.539,52.742,85.961,52.742z"/>
		<path fill="#585858" d="M91.797,50.73c0,0.082-0.174,0.264-0.256,0.264s-0.264-0.182-0.264-0.264v-0.479
			c0,0-0.256-0.238-0.768-0.238c-0.799,0-1.303,0.561-1.303,1.352c0,0.766,0.486,1.328,1.32,1.328c0.338,0,0.732-0.092,0.988-0.314
			c0.107,0,0.371,0.264,0.371,0.371c-0.346,0.33-0.832,0.512-1.385,0.512c-1.162,0-1.961-0.801-1.961-1.904
			c0-1.096,0.807-1.904,1.961-1.904c0.783,0,1.295,0.379,1.295,0.553V50.73z"/>
		<path fill="#585858" d="M92.695,49.52h1.006c0.082,0,0.254,0.174,0.254,0.254v3.43h-0.634v-3.166h-0.626
			c-0.083,0-0.266-0.172-0.266-0.264C92.43,49.693,92.612,49.52,92.695,49.52z M93.494,47.748c0.148,0,0.461,0.312,0.461,0.461
			c0,0.146-0.312,0.461-0.461,0.461s-0.461-0.314-0.461-0.461C93.033,48.061,93.346,47.748,93.494,47.748z"/>
		<path fill="#585858" d="M96.955,49.453c1.113,0,1.93,0.809,1.93,1.912c0,1.088-0.816,1.896-1.93,1.896s-1.929-0.809-1.929-1.896
			C95.026,50.262,95.842,49.453,96.955,49.453z M96.955,52.699c0.742,0,1.246-0.543,1.246-1.334c0-0.801-0.504-1.344-1.246-1.344
			c-0.741,0-1.244,0.543-1.244,1.344C95.711,52.156,96.214,52.699,96.955,52.699z M97.418,47.564c0.123,0,0.387,0.256,0.387,0.381
			l-1.113,0.988c-0.082,0-0.256-0.174-0.256-0.264L97.418,47.564z"/>
		<path fill="#585858" d="M100.566,49.922c0.346-0.279,0.799-0.469,1.318-0.469c0.857,0,1.303,0.504,1.303,1.318v2.432h-0.643
			v-2.432c0-0.494-0.281-0.75-0.817-0.75c-0.396,0-0.856,0.141-1.161,0.404v2.777h-0.645v-2.975c0-0.486-0.064-0.637-0.064-0.637
			V49.52h0.387c0.09,0,0.322,0.23,0.322,0.322V49.922z"/>
		<path fill="#585858" d="M1.018,62.014c0.354,0.297,0.85,0.42,1.318,0.42c0.808,0,1.353-0.363,1.353-0.98
			c0-0.52-0.438-0.684-1.484-1.154c-1.112-0.494-1.656-0.84-1.656-1.672c0-0.916,0.667-1.518,1.854-1.518
			c0.717,0,1.27,0.221,1.689,0.619v0.973c0,0.09-0.182,0.27-0.264,0.27c-0.092,0-0.271-0.18-0.271-0.27v-0.627
			c-0.298-0.24-0.676-0.396-1.171-0.396c-0.759,0-1.203,0.387-1.203,0.906c0,0.496,0.429,0.727,1.417,1.18
			c1.295,0.609,1.723,0.891,1.723,1.648c0,1.014-0.749,1.582-1.994,1.582c-0.685,0-1.303-0.164-1.847-0.617v-0.965
			c0-0.092,0.173-0.273,0.255-0.273c0.092,0,0.281,0.182,0.281,0.273V62.014z"/>
		<path fill="#585858" d="M7.134,59.186c1.112,0,1.928,0.809,1.928,1.914c0,1.088-0.815,1.895-1.928,1.895
			c-1.113,0-1.931-0.807-1.931-1.895C5.203,59.994,6.021,59.186,7.134,59.186z M7.134,62.434c0.741,0,1.244-0.545,1.244-1.334
			c0-0.801-0.503-1.346-1.244-1.346c-0.743,0-1.246,0.545-1.246,1.346C5.888,61.889,6.391,62.434,7.134,62.434z"/>
		<path fill="#585858" d="M13.109,60.463c0,0.082-0.174,0.264-0.256,0.264s-0.264-0.182-0.264-0.264v-0.477
			c0,0-0.256-0.238-0.767-0.238c-0.801,0-1.302,0.559-1.302,1.352c0,0.766,0.486,1.326,1.318,1.326c0.338,0,0.733-0.09,0.988-0.314
			c0.107,0,0.372,0.266,0.372,0.373c-0.347,0.328-0.833,0.51-1.386,0.51c-1.162,0-1.961-0.799-1.961-1.904
			c0-1.096,0.808-1.904,1.961-1.904c0.783,0,1.295,0.381,1.295,0.553V60.463z"/>
		<path fill="#585858" d="M14.008,59.252h1.006c0.082,0,0.256,0.174,0.256,0.256v3.43h-0.636v-3.166h-0.626
			c-0.083,0-0.264-0.174-0.264-0.264C13.744,59.426,13.925,59.252,14.008,59.252z M14.807,57.48c0.149,0,0.463,0.314,0.463,0.461
			c0,0.148-0.313,0.461-0.463,0.461c-0.147,0-0.461-0.312-0.461-0.461C14.346,57.795,14.659,57.48,14.807,57.48z"/>
		<path fill="#585858" d="M19.25,60.422v1.807c0,0.486,0.066,0.635,0.066,0.635v0.074h-0.388c-0.091,0-0.313-0.232-0.321-0.312
			c-0.289,0.246-0.635,0.369-1.047,0.369c-0.686,0-1.203-0.354-1.203-1.055c0-0.734,0.561-1.154,1.615-1.154
			c0.264,0,0.479,0.025,0.635,0.051v-0.396c0-0.486-0.321-0.709-0.809-0.709c-0.362,0-0.717,0.131-0.947,0.363
			c-0.115,0-0.379-0.273-0.379-0.381c0.354-0.346,0.791-0.527,1.377-0.527C18.748,59.186,19.25,59.607,19.25,60.422z M17.709,62.477
			c0.33,0,0.65-0.125,0.898-0.371v-0.801c-0.165-0.025-0.396-0.049-0.627-0.049c-0.693,0-0.98,0.248-0.98,0.633
			C17,62.287,17.287,62.477,17.709,62.477z"/>
		<path fill="#585858" d="M20.156,56.92h1.006c0.09,0,0.264,0.174,0.264,0.264v5.754h-0.643v-5.498h-0.627
			c-0.082,0-0.256-0.174-0.256-0.256C19.9,57.094,20.074,56.92,20.156,56.92z"/>
		<path fill="#585858" d="M30.113,62.715c0,0.057-0.47,0.279-0.576,0.279l-0.743-1.682h-2.942l-0.74,1.682
			c-0.1,0-0.578-0.23-0.578-0.279l2.275-5.029h-0.438c-0.082,0-0.264-0.172-0.264-0.256c0-0.09,0.182-0.264,0.264-0.264h1.252
			L30.113,62.715z M26.082,60.777h2.49l-1.254-2.803L26.082,60.777z"/>
		<path fill="#585858" d="M31.68,62.83v1.961h-0.644v-4.83c0-0.486-0.065-0.635-0.065-0.635v-0.074h0.387
			c0.082,0,0.298,0.207,0.322,0.305c0.255-0.223,0.584-0.371,1.014-0.371c1.029,0,1.789,0.809,1.789,1.896
			c0,1.121-0.816,1.912-1.963,1.912C32.215,62.994,31.926,62.938,31.68,62.83z M32.545,59.754c-0.338,0-0.651,0.117-0.865,0.307
			v2.168c0.223,0.131,0.502,0.213,0.815,0.213c0.808,0,1.312-0.553,1.312-1.352C33.807,60.307,33.312,59.754,32.545,59.754z"/>
		<path fill="#585858" d="M35.148,56.92h1.007c0.091,0,0.263,0.174,0.263,0.264v5.754h-0.643v-5.498h-0.627
			c-0.082,0-0.255-0.174-0.255-0.256C34.894,57.094,35.066,56.92,35.148,56.92z"/>
		<path fill="#585858" d="M37.523,59.252h1.006c0.082,0,0.255,0.174,0.255,0.256v3.43h-0.635v-3.166h-0.626
			c-0.082,0-0.264-0.174-0.264-0.264C37.26,59.426,37.441,59.252,37.523,59.252z M38.322,57.48c0.148,0,0.462,0.314,0.462,0.461
			c0,0.148-0.313,0.461-0.462,0.461s-0.461-0.312-0.461-0.461C37.861,57.795,38.174,57.48,38.322,57.48z"/>
		<path fill="#585858" d="M43.111,60.463c0,0.082-0.173,0.264-0.256,0.264c-0.082,0-0.264-0.182-0.264-0.264v-0.477
			c0,0-0.256-0.238-0.767-0.238c-0.8,0-1.303,0.559-1.303,1.352c0,0.766,0.486,1.326,1.319,1.326c0.338,0,0.734-0.09,0.988-0.314
			c0.108,0,0.371,0.266,0.371,0.373c-0.346,0.328-0.832,0.51-1.385,0.51c-1.162,0-1.961-0.799-1.961-1.904
			c0-1.096,0.808-1.904,1.961-1.904c0.785,0,1.295,0.381,1.295,0.553V60.463z"/>
		<path fill="#585858" d="M46.902,60.422v1.807c0,0.486,0.066,0.635,0.066,0.635v0.074h-0.388c-0.091,0-0.313-0.232-0.321-0.312
			c-0.289,0.246-0.635,0.369-1.047,0.369c-0.684,0-1.203-0.354-1.203-1.055c0-0.734,0.561-1.154,1.615-1.154
			c0.264,0,0.479,0.025,0.635,0.051v-0.396c0-0.486-0.321-0.709-0.809-0.709c-0.361,0-0.717,0.131-0.947,0.363
			c-0.115,0-0.379-0.273-0.379-0.381c0.355-0.346,0.791-0.527,1.377-0.527C46.4,59.186,46.902,59.607,46.902,60.422z M45.361,62.477
			c0.33,0,0.65-0.125,0.898-0.371v-0.801c-0.164-0.025-0.396-0.049-0.626-0.049c-0.692,0-0.979,0.248-0.979,0.633
			C44.654,62.287,44.941,62.477,45.361,62.477z"/>
		<path fill="#585858" d="M50.389,56.92h0.742c0.082,0,0.256,0.174,0.256,0.264v5.045c0,0.486,0.074,0.635,0.074,0.635v0.074h-0.396
			c-0.091,0-0.296-0.215-0.313-0.307c-0.264,0.225-0.593,0.363-1.022,0.363c-1.021,0-1.788-0.807-1.788-1.887
			c0-1.121,0.824-1.922,1.97-1.922c0.306,0,0.595,0.066,0.841,0.182v-1.928h-0.363c-0.082,0-0.256-0.174-0.256-0.256
			C50.133,57.094,50.307,56.92,50.389,56.92z M49.887,62.434c0.338,0,0.643-0.107,0.865-0.305v-2.16
			c-0.223-0.139-0.511-0.221-0.815-0.221c-0.809,0-1.312,0.551-1.312,1.352C48.625,61.881,49.111,62.434,49.887,62.434z"/>
		<path fill="#585858" d="M55.344,60.422v1.807c0,0.486,0.064,0.635,0.064,0.635v0.074h-0.387c-0.09,0-0.314-0.232-0.321-0.312
			c-0.288,0.246-0.635,0.369-1.048,0.369c-0.684,0-1.201-0.354-1.201-1.055c0-0.734,0.559-1.154,1.614-1.154
			c0.265,0,0.479,0.025,0.635,0.051v-0.396c0-0.486-0.321-0.709-0.808-0.709c-0.363,0-0.718,0.131-0.948,0.363
			c-0.115,0-0.378-0.273-0.378-0.381c0.354-0.346,0.79-0.527,1.375-0.527C54.84,59.186,55.344,59.607,55.344,60.422z M53.803,62.477
			c0.329,0,0.65-0.125,0.897-0.371v-0.801c-0.165-0.025-0.396-0.049-0.626-0.049c-0.692,0-0.981,0.248-0.981,0.633
			C53.093,62.287,53.382,62.477,53.803,62.477z"/>
		<path fill="#585858" d="M61.435,60.422v1.807c0,0.486,0.065,0.635,0.065,0.635v0.074h-0.387c-0.091,0-0.313-0.232-0.322-0.312
			c-0.288,0.246-0.635,0.369-1.047,0.369c-0.684,0-1.203-0.354-1.203-1.055c0-0.734,0.561-1.154,1.615-1.154
			c0.264,0,0.479,0.025,0.635,0.051v-0.396c0-0.486-0.32-0.709-0.808-0.709c-0.363,0-0.718,0.131-0.948,0.363
			c-0.115,0-0.379-0.273-0.379-0.381c0.354-0.346,0.791-0.527,1.377-0.527C60.932,59.186,61.435,59.607,61.435,60.422z
			 M59.893,62.477c0.33,0,0.65-0.125,0.898-0.371v-0.801c-0.164-0.025-0.396-0.049-0.626-0.049c-0.692,0-0.981,0.248-0.981,0.633
			C59.184,62.287,59.473,62.477,59.893,62.477z"/>
		<path fill="#585858" d="M64.484,56.92h1.006c0.09,0,0.263,0.174,0.263,0.264v5.754H65.11v-5.498h-0.626
			c-0.084,0-0.256-0.174-0.256-0.256C64.229,57.094,64.4,56.92,64.484,56.92z"/>
		<path fill="#585858" d="M69.75,60.422v1.807c0,0.486,0.066,0.635,0.066,0.635v0.074H69.43c-0.092,0-0.314-0.232-0.322-0.312
			c-0.289,0.246-0.635,0.369-1.047,0.369c-0.684,0-1.203-0.354-1.203-1.055c0-0.734,0.561-1.154,1.615-1.154
			c0.264,0,0.479,0.025,0.635,0.051v-0.396c0-0.486-0.32-0.709-0.807-0.709c-0.363,0-0.718,0.131-0.949,0.363
			c-0.115,0-0.379-0.273-0.379-0.381c0.354-0.346,0.791-0.527,1.377-0.527C69.248,59.186,69.75,59.607,69.75,60.422z M68.209,62.477
			c0.33,0,0.65-0.125,0.898-0.371v-0.801c-0.164-0.025-0.395-0.049-0.625-0.049c-0.694,0-0.982,0.248-0.982,0.633
			C67.5,62.287,67.788,62.477,68.209,62.477z"/>
		<path fill="#585858" d="M72.98,57.166h4.279v0.537h-3.107v2.027h2.777v0.545h-2.777V62.4h3.148v0.537h-3.809v-5.252H72.98
			c-0.09,0-0.263-0.172-0.263-0.256C72.718,57.34,72.891,57.166,72.98,57.166z"/>
		<path fill="#585858" d="M83.186,62.938v-2.564c0-0.387-0.264-0.619-0.742-0.619c-0.379,0-0.766,0.15-1.029,0.404
			c0.008,0.066,0.016,0.141,0.016,0.215v2.564h-0.635v-2.564c0-0.387-0.263-0.619-0.75-0.619c-0.371,0-0.75,0.133-1.005,0.381v2.803
			h-0.644v-2.977c0-0.486-0.065-0.635-0.065-0.635v-0.074h0.386c0.092,0,0.323,0.23,0.323,0.322v0.057
			c0.304-0.271,0.7-0.445,1.178-0.445c0.536,0,0.907,0.207,1.081,0.568c0.32-0.328,0.758-0.568,1.317-0.568
			c0.792,0,1.212,0.453,1.212,1.188v2.564H83.186z"/>
		<path fill="#585858" d="M85.758,62.83v1.961h-0.645v-4.83c0-0.486-0.064-0.635-0.064-0.635v-0.074h0.387
			c0.082,0,0.297,0.207,0.322,0.305c0.255-0.223,0.584-0.371,1.014-0.371c1.029,0,1.789,0.809,1.789,1.896
			c0,1.121-0.816,1.912-1.962,1.912C86.293,62.994,86.004,62.938,85.758,62.83z M86.623,59.754c-0.338,0-0.652,0.117-0.865,0.307
			v2.168c0.223,0.131,0.502,0.213,0.815,0.213c0.808,0,1.31-0.553,1.31-1.352C87.883,60.307,87.389,59.754,86.623,59.754z"/>
		<path fill="#585858" d="M90.25,59.871c0.361-0.396,0.84-0.66,1.418-0.66v0.561c-0.486,0-1.072,0.24-1.418,0.691v2.475h-0.644
			v-2.977c0-0.486-0.065-0.635-0.065-0.635v-0.074h0.387c0.092,0,0.322,0.23,0.322,0.322V59.871z"/>
		<path fill="#585858" d="M92.895,61.297c0.051,0.699,0.545,1.137,1.328,1.137c0.387,0,0.782-0.098,1.037-0.312
			c0.1,0,0.347,0.246,0.347,0.355c-0.337,0.344-0.856,0.518-1.401,0.518c-1.17,0-1.979-0.791-1.979-1.92
			c0-1.088,0.76-1.889,1.863-1.889c1.047,0,1.648,0.727,1.648,1.822c0,0.092-0.197,0.289-0.279,0.289H92.895z M92.895,60.811h2.21
			c0-0.611-0.354-1.062-1.04-1.062C93.423,59.748,92.945,60.158,92.895,60.811z"/>
		<path fill="#585858" d="M98.549,61.965c0-0.307-0.312-0.422-0.865-0.645c-0.758-0.303-1.088-0.535-1.088-1.096
			c0-0.643,0.445-1.039,1.27-1.039c0.527,0,0.865,0.166,1.162,0.463c0,0.1-0.264,0.363-0.363,0.363
			c-0.172-0.182-0.461-0.289-0.799-0.289c-0.42,0-0.668,0.182-0.668,0.469c0,0.289,0.248,0.389,0.816,0.619
			c0.758,0.32,1.146,0.543,1.146,1.121c0,0.674-0.512,1.062-1.345,1.062c-0.494,0-0.932-0.139-1.302-0.51
			c0-0.1,0.271-0.373,0.37-0.373c0.224,0.232,0.544,0.355,0.924,0.355C98.236,62.467,98.549,62.295,98.549,61.965z"/>
		<path fill="#585858" d="M102.895,60.422v1.807c0,0.486,0.064,0.635,0.064,0.635v0.074h-0.387c-0.092,0-0.314-0.232-0.322-0.312
			c-0.287,0.246-0.634,0.369-1.047,0.369c-0.684,0-1.202-0.354-1.202-1.055c0-0.734,0.56-1.154,1.615-1.154
			c0.263,0,0.478,0.025,0.634,0.051v-0.396c0-0.486-0.321-0.709-0.807-0.709c-0.363,0-0.719,0.131-0.949,0.363
			c-0.115,0-0.379-0.273-0.379-0.381c0.355-0.346,0.791-0.527,1.377-0.527C102.391,59.186,102.895,59.607,102.895,60.422z
			 M101.352,62.477c0.329,0,0.651-0.125,0.898-0.371v-0.801c-0.164-0.025-0.396-0.049-0.626-0.049c-0.692,0-0.98,0.248-0.98,0.633
			C100.644,62.287,100.932,62.477,101.352,62.477z"/>
	</g>
</g>
</svg>
