<?xml version="1.0" encoding="utf-8"?>
<!-- Generator: Adobe Illustrator 16.0.0, SVG Export Plug-In . SVG Version: 6.00 Build 0)  -->
<!DOCTYPE svg PUBLIC "-//W3C//DTD SVG 1.1//EN" "http://www.w3.org/Graphics/SVG/1.1/DTD/svg11.dtd">
<svg version="1.1" id="Capa_1" xmlns="http://www.w3.org/2000/svg" xmlns:xlink="http://www.w3.org/1999/xlink" x="0px" y="0px"
	 width="52.752px" height="52.751px" viewBox="0 0 52.752 52.751" enable-background="new 0 0 52.752 52.751" xml:space="preserve">
<g>
	<g>
		<g>
			<circle fill="#71898E" cx="26.375" cy="26.375" r="26.375"/>
		</g>
	</g>
	<path fill="#FFFFFF" d="M38.914,16.006c0.002-0.239-0.092-0.471-0.26-0.642c-0.17-0.169-0.398-0.266-0.639-0.266l-3.965-0.008
		c-0.09,0-0.174,0.017-0.252,0.041l-0.766-0.003c-0.141,0-0.283,0.012-0.451,0.031L20.088,15.14
		c-0.166-0.019-0.311-0.028-0.451-0.03l-0.645-0.002c-0.08-0.022-0.164-0.039-0.254-0.039l-3.963-0.006
		c-0.242,0-0.473,0.096-0.641,0.264c-0.166,0.171-0.262,0.404-0.26,0.642c0.004,0.312,0.111,7.145,3.973,8.053v0.044
		c0,0.028,0.004,0.063,0.01,0.096c0.143,4.173,3.395,7.654,7.512,8.122l-0.012,6.815l-3.379-0.006c-0.248,0-0.449,0.203-0.449,0.449
		v0.98c-0.002,0.251,0.199,0.448,0.445,0.451l8.639,0.013c0.248,0.001,0.447-0.2,0.449-0.449l0.002-0.98
		c0-0.247-0.199-0.451-0.447-0.451l-3.381-0.004l0.01-6.815c4.074-0.441,7.225-3.703,7.518-7.802c0.051-0.069,0.08-0.161,0.08-0.253
		v-0.166C38.777,23.233,38.908,16.319,38.914,16.006L38.914,16.006z M17.832,22.096c-1.506-0.839-1.965-3.738-2.104-5.236
		l2.111,0.002L17.832,22.096z M34.936,22.122l0.008-5.233l2.115,0.002C36.918,18.39,36.451,21.29,34.936,22.122L34.936,22.122z
		 M34.936,22.122"/>
</g>
</svg>
