<?xml version="1.0" encoding="utf-8"?>
<!-- Generator: Adobe Illustrator 16.0.0, SVG Export Plug-In . SVG Version: 6.00 Build 0)  -->
<!DOCTYPE svg PUBLIC "-//W3C//DTD SVG 1.1//EN" "http://www.w3.org/Graphics/SVG/1.1/DTD/svg11.dtd">
<svg version="1.1" id="Capa_1" xmlns="http://www.w3.org/2000/svg" xmlns:xlink="http://www.w3.org/1999/xlink" x="0px" y="0px"
	 width="39.615px" height="39.614px" viewBox="0 0 39.615 39.614" enable-background="new 0 0 39.615 39.614" xml:space="preserve">
<g>
	<path fill="#5BBFBE" d="M2.558,28.753h9.584v9.584H2.558V28.753L2.558,28.753z M26.196,17.89v17.251h-1.277v1.277h1.277v1.919
		H13.419v-1.919h10.223v-1.277H13.419V17.89H26.196L26.196,17.89z M37.058,28.753v9.584h-9.582v-9.584H37.058L37.058,28.753z
		 M38.337,38.337V27.476H27.476V16.613H12.142v10.862H1.278v10.861H0.001v1.277h39.613v-1.277H38.337L38.337,38.337z"/>
	<polygon fill="#5BBFBE" points="19.167,26.194 20.446,26.194 20.446,19.167 17.89,19.167 17.89,20.445 19.167,20.445 
		19.167,26.194 	"/>
	<path fill="#5BBFBE" d="M8.499,34.238c0.672-0.403,1.086-1.135,1.086-1.973c0-1.232-1.004-2.234-2.238-2.234
		c-1.232,0-2.236,1.002-2.236,2.234v0.958h1.277v-0.958c0-0.527,0.434-0.958,0.959-0.958c0.531,0,0.963,0.431,0.963,1.014
		c0,0.332-0.182,0.648-0.469,0.818l-2.73,1.64v1.639h4.475v-1.277H6.991L8.499,34.238L8.499,34.238z"/>
	<path fill="#5BBFBE" d="M32.585,35.141h-2.553v1.277h2.553c1.059,0,1.92-0.859,1.92-1.917c0-0.488-0.188-0.938-0.49-1.277
		c0.303-0.338,0.49-0.784,0.49-1.277c0-1.056-0.861-1.915-1.92-1.915h-2.553v1.276h2.553c0.354,0,0.643,0.288,0.643,0.639
		c0,0.354-0.289,0.639-0.643,0.639h-1.277v1.278h1.277c0.354,0,0.643,0.285,0.643,0.638C33.228,34.855,32.938,35.141,32.585,35.141
		L32.585,35.141z"/>
	<path fill="#5BBFBE" d="M10.224,5.75c0.352,0,0.639,0.287,0.639,0.638c0,0.354-0.287,0.641-0.639,0.641S9.585,6.742,9.585,6.388
		C9.585,6.037,9.872,5.75,10.224,5.75L10.224,5.75z M15.208,9.585c1.105,0,2.111-0.654,2.561-1.665l1.826-4.108
		c0.068,0.009,0.139,0.021,0.211,0.021c0.076,0,0.146-0.012,0.217-0.021l1.826,4.108c0.447,1.011,1.453,1.665,2.561,1.665
		c0.432,0,0.865-0.103,1.252-0.296l2.645-1.323c0.08,0.054,0.162,0.097,0.248,0.14l-1.236,3.396h-4.314v1.277h3.852l-0.465,1.279
		H13.228l-0.465-1.279h3.852v-1.277h-4.316l-1.232-3.396c0.082-0.043,0.166-0.086,0.244-0.14l2.643,1.323
		C14.341,9.482,14.774,9.585,15.208,9.585L15.208,9.585z M19.806,1.277c0.355,0,0.641,0.285,0.641,0.64
		c0,0.353-0.285,0.641-0.641,0.641c-0.35,0-0.639-0.288-0.639-0.641C19.167,1.562,19.456,1.277,19.806,1.277L19.806,1.277z
		 M29.392,5.75c0.354,0,0.641,0.287,0.641,0.638c0,0.354-0.287,0.641-0.641,0.641c-0.352,0-0.639-0.286-0.639-0.641
		C28.753,6.037,29.04,5.75,29.392,5.75L29.392,5.75z M9.753,8.238l2.578,7.097h14.951l2.58-7.097c0.83-0.21,1.445-0.955,1.445-1.851
		c0-1.054-0.857-1.914-1.916-1.914c-1.057,0-1.916,0.86-1.916,1.914c0,0.184,0.033,0.355,0.08,0.524l-2.467,1.233
		c-0.211,0.104-0.447,0.159-0.68,0.159c-0.602,0-1.15-0.355-1.393-0.904l-1.842-4.143c0.342-0.347,0.549-0.818,0.549-1.341
		C21.724,0.859,20.864,0,19.806,0c-1.055,0-1.916,0.859-1.916,1.917c0,0.522,0.211,0.994,0.553,1.341L16.599,7.4
		c-0.242,0.549-0.791,0.904-1.391,0.904c-0.238,0-0.475-0.055-0.682-0.159l-2.465-1.233c0.045-0.169,0.08-0.341,0.08-0.524
		c0-1.054-0.861-1.914-1.918-1.914S8.31,5.334,8.31,6.388C8.31,7.283,8.925,8.028,9.753,8.238L9.753,8.238z"/>
	<path fill="#5BBFBE" d="M19.806,9.585c0.264,0,0.641,0.495,0.641,1.277c0,0.779-0.377,1.278-0.641,1.278
		c-0.258,0-0.639-0.499-0.639-1.278C19.167,10.08,19.548,9.585,19.806,9.585L19.806,9.585z M19.806,13.418
		c1.078,0,1.918-1.122,1.918-2.556c0-1.436-0.84-2.558-1.918-2.558c-1.072,0-1.916,1.122-1.916,2.558
		C17.89,12.296,18.733,13.418,19.806,13.418L19.806,13.418z"/>
</g>
</svg>
