<?xml version="1.0" encoding="utf-8"?>
<!-- Generator: Adobe Illustrator 16.0.0, SVG Export Plug-In . SVG Version: 6.00 Build 0)  -->
<!DOCTYPE svg PUBLIC "-//W3C//DTD SVG 1.1//EN" "http://www.w3.org/Graphics/SVG/1.1/DTD/svg11.dtd">
<svg version="1.1" id="Capa_1" xmlns="http://www.w3.org/2000/svg" xmlns:xlink="http://www.w3.org/1999/xlink" x="0px" y="0px"
	 width="52.752px" height="52.751px" viewBox="0 0 52.752 52.751" enable-background="new 0 0 52.752 52.751" xml:space="preserve">
<g>
	<g>
		<g>
			<circle fill="#71898E" cx="26.376" cy="26.375" r="26.375"/>
		</g>
	</g>
	<path fill="#FFFFFF" d="M15.837,16.458c-2.571,2.614-4.169,6.189-4.204,10.13v0.252c0.035,3.94,1.633,7.516,4.204,10.131
		l0.179,0.178c2.614,2.571,6.188,4.169,10.129,4.202h0.252c3.941-0.033,7.516-1.631,10.132-4.202l0.178-0.178
		c2.26-2.299,3.768-5.338,4.123-8.715c0.063,0.006,0.126,0.009,0.19,0.009c0.898,0,1.656-0.602,1.895-1.425h0.078
		c0.07,0,0.127-0.056,0.127-0.125c0-0.07-0.057-0.127-0.127-0.127h-0.025c0.016-0.098,0.025-0.194,0.025-0.296
		c0-1.09-0.883-1.975-1.973-1.975c-0.104,0-0.203,0.012-0.303,0.026c-0.497-3.045-1.938-5.777-4.011-7.886l-0.178-0.179
		c-2.616-2.571-6.19-4.168-10.132-4.202h-0.252c-3.94,0.034-7.515,1.631-10.129,4.202L15.837,16.458L15.837,16.458z M11.887,26.588
		c0.033-3.871,1.603-7.383,4.129-9.953l1.856,1.858c-0.181,0.298-0.286,0.646-0.286,1.02c0,0.785,0.459,1.463,1.123,1.779
		l-0.613,5.296H11.887L11.887,26.588z M19.352,26.84h1.117c0.033,1.506,0.642,2.871,1.613,3.886l-0.799,0.798l-1.166-1.493
		c0.201-0.312,0.32-0.682,0.32-1.079c0-0.785-0.459-1.463-1.124-1.779L19.352,26.84z M30.646,31.269
		c-0.08,0.215-0.125,0.448-0.125,0.69c0,0.353,0.092,0.682,0.254,0.968l-3.746,4.19c-0.195-0.084-0.41-0.134-0.633-0.146v-4.455
		c1.507-0.032,2.871-0.64,3.887-1.611L30.646,31.269L30.646,31.269z M32.494,29.986c-0.75,0-1.403,0.419-1.735,1.035l-0.298-0.296
		c0.973-1.015,1.58-2.382,1.612-3.886h6.968l-5.346,3.556C33.361,30.14,32.946,29.986,32.494,29.986L32.494,29.986z M39.05,26.191
		c-0.001,0.033-0.005,0.067-0.005,0.101c0,0.102,0.01,0.198,0.025,0.296h-6.997c-0.031-1.468-0.61-2.803-1.539-3.809L39.05,26.191
		L39.05,26.191z M26.145,26.41l-3.707-3.707c0.604-0.578,1.336-1.02,2.148-1.279c0.33,0.526,0.902,0.886,1.559,0.924V26.41z
		 M29.917,22.532c0.064,0.055,0.127,0.111,0.188,0.171l-3.709,3.706v-4.064c0.543-0.035,1.025-0.291,1.358-0.68L29.917,22.532z
		 M30.283,22.881c0.926,0.969,1.506,2.271,1.537,3.707h-5.245L30.283,22.881z M31.82,26.84c-0.031,1.436-0.611,2.738-1.537,3.707
		l-3.708-3.707H31.82z M30.105,30.726c-0.971,0.927-2.272,1.506-3.709,1.538v-5.245L30.105,30.726z M26.145,32.264
		c-1.436-0.032-2.737-0.611-3.707-1.538l3.707-3.707V32.264z M22.26,30.547c-0.927-0.969-1.507-2.271-1.538-3.707h5.245
		L22.26,30.547z M20.722,26.588c0.031-1.437,0.611-2.738,1.538-3.707l3.707,3.707H20.722z M20.789,21.053
		c0.224-0.18,0.408-0.406,0.538-0.668l2.999,0.389c0.031,0.147,0.079,0.291,0.141,0.425c-0.835,0.272-1.587,0.731-2.207,1.326
		L20.789,21.053z M26.145,36.968c-0.184,0.011-0.36,0.048-0.529,0.104l-4.176-5.348l0.82-0.82c1.015,0.972,2.381,1.579,3.885,1.611
		V36.968z M19.381,26.588l0.598-5.146c0.215-0.048,0.418-0.131,0.6-0.242l1.504,1.503c-0.972,1.015-1.58,2.379-1.613,3.885H19.381z
		 M16.193,16.458c2.57-2.526,6.08-4.096,9.952-4.129v6.081c-0.727,0.043-1.347,0.478-1.653,1.097l-2.999-0.387
		c-0.183-0.902-0.979-1.581-1.934-1.581c-0.625,0-1.18,0.291-1.542,0.742L16.193,16.458L16.193,16.458z M26.396,12.329
		c3.872,0.033,7.383,1.603,9.953,4.129l-5.195,5.194l-2.924-1.173c0-0.032,0.004-0.065,0.004-0.101c0-1.043-0.811-1.895-1.838-1.966
		V12.329L26.396,12.329z M36.528,16.635c2.038,2.077,3.455,4.766,3.941,7.764c-0.372,0.108-0.699,0.32-0.945,0.607l-8.114-3.252
		L36.528,16.635L36.528,16.635z M40.58,28.214c-0.347,3.325-1.829,6.315-4.052,8.578l-3.096-3.095
		c0.617-0.334,1.036-0.986,1.036-1.736c0-0.174-0.026-0.342-0.067-0.502l5.417-3.603C40.04,28.026,40.299,28.149,40.58,28.214
		L40.58,28.214z M36.35,36.971c-2.57,2.523-6.081,4.096-9.953,4.128v-0.195c1.027-0.071,1.838-0.923,1.838-1.968
		c0-0.351-0.093-0.682-0.253-0.966l3.744-4.19c0.235,0.1,0.495,0.154,0.769,0.154c0.243,0,0.477-0.046,0.692-0.126L36.35,36.971
		L36.35,36.971z M26.145,41.099c-3.871-0.032-7.381-1.604-9.951-4.128l4.337-4.338l4.079,5.226
		c-0.204,0.311-0.322,0.679-0.322,1.077c0,1.051,0.822,1.908,1.857,1.969V41.099L26.145,41.099z M16.016,36.792
		c-2.526-2.57-4.096-6.081-4.129-9.952h6.18l-0.021,0.183c-0.888,0.192-1.555,0.983-1.555,1.929c0,1.091,0.885,1.974,1.975,1.974
		c0.227,0,0.441-0.04,0.646-0.109l1.263,1.618L16.016,36.792L16.016,36.792z M16.016,36.792"/>
</g>
</svg>
