<?xml version="1.0" encoding="utf-8"?>
<!-- Generator: Adobe Illustrator 16.0.0, SVG Export Plug-In . SVG Version: 6.00 Build 0)  -->
<!DOCTYPE svg PUBLIC "-//W3C//DTD SVG 1.1//EN" "http://www.w3.org/Graphics/SVG/1.1/DTD/svg11.dtd">
<svg version="1.1" id="Capa_1" xmlns="http://www.w3.org/2000/svg" xmlns:xlink="http://www.w3.org/1999/xlink" x="0px" y="0px"
	 width="92.273px" height="77.36px" viewBox="0 0 92.273 77.36" enable-background="new 0 0 92.273 77.36" xml:space="preserve">
<g>
	<defs>
		<rect id="SVGID_1_" x="-1378.573" y="-421.356" width="1290.001" height="60"/>
	</defs>
	<clipPath id="SVGID_2_">
		<use xlink:href="#SVGID_1_"  overflow="visible"/>
	</clipPath>
	<g clip-path="url(#SVGID_2_)">
		<g>
			<defs>
				<rect id="SVGID_4_" x="-1403.469" y="-762.356" width="1339" height="1051"/>
			</defs>
			<clipPath id="SVGID_3_">
				<use xlink:href="#SVGID_4_"  overflow="visible"/>
			</clipPath>
			<g opacity="0.7" clip-path="url(#SVGID_3_)">
				<g opacity="0.35">
					<g>
					</g>
					<g>
					</g>
				</g>
			</g>
		</g>
	</g>
</g>
<g>
	<path fill="#FFFFFF" d="M46.901,30.183v-0.955c0-0.753-0.609-1.363-1.363-1.363c-0.752,0-1.361,0.61-1.361,1.363v0.986
		c-2.425,0.637-4.22,2.869-4.22,5.518s1.795,4.881,4.22,5.518v5.727c-1.182-0.598-2.304-1.707-2.706-2.185
		c-0.486-0.577-1.344-0.651-1.92-0.167c-0.578,0.484-0.652,1.344-0.166,1.92c0.258,0.309,2.283,2.639,4.792,3.352v1.011
		c0,0.753,0.609,1.362,1.361,1.362c0.754,0,1.363-0.609,1.363-1.362v-0.964c2.479-0.598,4.326-2.855,4.326-5.54
		s-1.848-4.941-4.326-5.54v-5.84c1.23,0.461,2.348,1.406,2.768,1.839c0.52,0.544,1.381,0.562,1.924,0.042
		c0.545-0.52,0.564-1.383,0.043-1.927C51.39,32.718,49.431,30.744,46.901,30.183L46.901,30.183z M42.681,35.732
		c0-1.115,0.604-2.087,1.496-2.596v5.192C43.284,37.82,42.681,36.847,42.681,35.732L42.681,35.732z M48.503,44.403
		c0,1.158-0.654,2.161-1.602,2.651v-5.301C47.849,42.244,48.503,43.246,48.503,44.403L48.503,44.403z M48.503,44.403"/>
	<path fill="#FFFFFF" d="M67.415,49.001c-1.473,0-2.82,0.545-3.854,1.443l-3.893-2.594c1.277-2.31,2.006-4.963,2.006-7.783
		c0-3.381-1.047-6.521-2.828-9.115l2.623-2.102c0.92,0.594,2.012,0.939,3.184,0.939c3.244,0,5.885-2.641,5.885-5.885
		s-2.641-5.885-5.885-5.885s-5.883,2.641-5.883,5.885c0,1.083,0.295,2.098,0.807,2.971l-2.459,1.967
		c-2.934-3.027-7.039-4.912-11.58-4.912c-3.96,0-7.591,1.436-10.401,3.812l-5.223-5.175c0.525-0.88,0.826-1.907,0.826-3.005
		c0-3.245-2.639-5.884-5.883-5.884s-5.883,2.639-5.883,5.884c0,3.244,2.639,5.884,5.883,5.884c1.162,0,2.244-0.34,3.158-0.923
		l5.193,5.146c-2.373,2.811-3.805,6.439-3.805,10.396c0,3.435,1.08,6.622,2.916,9.241l-4.928,4.108
		c-0.59-0.305-1.258-0.477-1.969-0.477c-2.381,0-4.318,1.937-4.318,4.316c0,2.381,1.938,4.318,4.318,4.318
		c2.383,0,4.316-1.938,4.316-4.318c0-0.676-0.154-1.317-0.434-1.888l4.76-3.969c2.928,2.964,6.99,4.803,11.472,4.803
		c2.109,0,4.125-0.407,5.971-1.146l1.215,2.429c-0.662,0.656-1.07,1.566-1.07,2.57c0,1.998,1.625,3.624,3.623,3.624
		s3.623-1.626,3.623-3.624s-1.625-3.623-3.623-3.623c-0.012,0-0.021,0.001-0.031,0.001l-1.299-2.599
		c1.609-0.988,3.035-2.25,4.209-3.721l3.814,2.545c-0.281,0.687-0.438,1.438-0.438,2.226c0,3.244,2.639,5.884,5.883,5.884
		s5.885-2.64,5.885-5.884C73.3,51.64,70.659,49.001,67.415,49.001L67.415,49.001z M64.653,20.748c1.742,0,3.16,1.417,3.16,3.158
		c0,1.742-1.418,3.159-3.16,3.159c-1.74,0-3.158-1.417-3.158-3.159C61.495,22.165,62.913,20.748,64.653,20.748L64.653,20.748z
		 M25.424,58.85c-0.879,0-1.592-0.714-1.592-1.593c0-0.877,0.713-1.592,1.592-1.592s1.592,0.715,1.592,1.592
		C27.016,58.136,26.303,58.85,25.424,58.85L25.424,58.85z M56.173,60.056c0,0.495-0.4,0.898-0.898,0.898
		c-0.494,0-0.896-0.404-0.896-0.898c0-0.495,0.402-0.898,0.896-0.898C55.772,59.158,56.173,59.561,56.173,60.056L56.173,60.056z
		 M24.857,22.722c-1.742,0-3.158-1.416-3.158-3.158s1.416-3.158,3.158-3.158s3.158,1.416,3.158,3.158S26.6,22.722,24.857,22.722
		L24.857,22.722z M45.538,53.478c-7.394,0-13.409-6.017-13.409-13.41c0-7.395,6.016-13.412,13.409-13.412
		c7.395,0,13.41,6.018,13.41,13.412C58.948,47.461,52.933,53.478,45.538,53.478L45.538,53.478z M67.415,58.043
		c-1.742,0-3.16-1.417-3.16-3.158s1.418-3.159,3.16-3.159s3.158,1.418,3.158,3.159S69.157,58.043,67.415,58.043L67.415,58.043z
		 M67.415,58.043"/>
</g>
</svg>
