<?xml version="1.0" encoding="utf-8"?>
<!-- Generator: Adobe Illustrator 16.0.0, SVG Export Plug-In . SVG Version: 6.00 Build 0)  -->
<!DOCTYPE svg PUBLIC "-//W3C//DTD SVG 1.1//EN" "http://www.w3.org/Graphics/SVG/1.1/DTD/svg11.dtd">
<svg version="1.1" id="Capa_1" xmlns="http://www.w3.org/2000/svg" xmlns:xlink="http://www.w3.org/1999/xlink" x="0px" y="0px"
	 width="146.953px" height="146.961px" viewBox="0 0 146.953 146.961" enable-background="new 0 0 146.953 146.961"
	 xml:space="preserve">
<g>
	<g>
		<circle fill="#5FB0C0" cx="73.475" cy="73.481" r="45.786"/>
		<path fill="#5FB0C0" d="M73.475,0C32.959,0,0,32.963,0,73.479s32.959,73.482,73.475,73.482s73.479-32.967,73.479-73.482
			S113.99,0,73.475,0z M73.475,143.518c-38.623,0-70.041-31.418-70.041-70.039c0-38.619,31.418-70.037,70.041-70.037
			s70.043,31.418,70.043,70.037C143.518,112.1,112.098,143.518,73.475,143.518z"/>
	</g>
</g>
<path fill="#FFFFFF" d="M95.665,81.504c0-2.205-1.493-4.07-3.521-4.637v-8.148c2.028-0.566,3.521-2.43,3.521-4.637
	s-1.493-4.068-3.521-4.637v-4.721H73.769V51.73c2.028-0.566,3.521-2.43,3.521-4.635c0-2.656-2.161-4.814-4.815-4.814
	c-2.654,0-4.814,2.158-4.814,4.814c0,2.205,1.492,4.068,3.52,4.635v2.994H52.804v4.721c-2.027,0.568-3.519,2.432-3.519,4.637
	c0,2.207,1.492,4.07,3.519,4.637v8.148c-2.027,0.566-3.519,2.432-3.519,4.637c0,2.654,2.16,4.814,4.814,4.814
	c2.655,0,4.814-2.16,4.814-4.814c0-2.205-1.493-4.07-3.521-4.637v-8.148c2.028-0.566,3.521-2.43,3.521-4.637
	s-1.493-4.068-3.521-4.637v-2.131H71.18v2.131c-2.027,0.568-3.52,2.43-3.52,4.637c0,2.656,2.161,4.814,4.814,4.814
	c2.655,0,4.815-2.158,4.815-4.814c0-2.205-1.493-4.068-3.521-4.637v-2.131h15.786v2.131c-2.028,0.568-3.519,2.43-3.519,4.637
	s1.491,4.07,3.519,4.637v8.148c-2.028,0.566-3.519,2.432-3.519,4.637c0,2.207,1.491,4.068,3.519,4.637v2.168H75.68v4.102
	c-2.029,0.566-3.52,2.43-3.52,4.637c0,2.654,2.158,4.814,4.813,4.814c2.655,0,4.814-2.16,4.814-4.814c0-2.207-1.49-4.07-3.519-4.637
	v-1.512h11.286v1.512c-2.028,0.566-3.519,2.43-3.519,4.637c0,2.654,2.16,4.814,4.814,4.814s4.814-2.16,4.814-4.814
	c0-2.207-1.493-4.07-3.521-4.637v-6.27C94.171,85.572,95.665,83.709,95.665,81.504L95.665,81.504z M70.249,47.096
	c0-1.227,0.999-2.227,2.227-2.227c1.226,0,2.225,0.998,2.225,2.227c0,1.227-0.999,2.225-2.225,2.225
	C71.248,49.32,70.249,48.322,70.249,47.096L70.249,47.096z M56.324,81.504c0,1.227-0.999,2.225-2.225,2.225
	c-1.226,0-2.225-0.998-2.225-2.225s0.996-2.227,2.225-2.227C55.326,79.277,56.324,80.277,56.324,81.504L56.324,81.504z
	 M56.324,64.082c0,1.229-0.999,2.227-2.225,2.227c-1.226,0-2.225-0.998-2.225-2.227c0-1.227,0.996-2.225,2.225-2.225
	C55.326,61.857,56.324,62.855,56.324,64.082L56.324,64.082z M74.7,64.082c0,1.229-0.999,2.227-2.226,2.227
	c-1.227,0-2.225-0.998-2.225-2.227c0-1.227,0.999-2.225,2.225-2.225C73.702,61.857,74.7,62.855,74.7,64.082L74.7,64.082z
	 M79.199,97.047c0,1.227-0.997,2.225-2.227,2.225c-1.226,0-2.225-0.998-2.225-2.225c0-1.229,0.999-2.225,2.225-2.225
	C78.202,94.822,79.199,95.818,79.199,97.047L79.199,97.047z M88.625,64.082c0-1.227,0.999-2.225,2.225-2.225
	c1.228,0,2.225,0.998,2.225,2.225c0,1.229-0.998,2.227-2.225,2.227C89.624,66.309,88.625,65.311,88.625,64.082L88.625,64.082z
	 M88.625,81.504c0-1.227,0.999-2.227,2.225-2.227c1.228,0,2.225,1,2.225,2.227s-0.998,2.225-2.225,2.225
	C89.624,83.729,88.625,82.73,88.625,81.504L88.625,81.504z M93.075,97.047c0,1.227-0.998,2.225-2.225,2.225
	c-1.227,0-2.225-0.998-2.225-2.225c0-1.229,0.996-2.225,2.225-2.225C92.078,94.822,93.075,95.818,93.075,97.047L93.075,97.047z
	 M93.075,97.047"/>
</svg>
