<?xml version="1.0" encoding="utf-8"?>
<!-- Generator: Adobe Illustrator 16.0.0, SVG Export Plug-In . SVG Version: 6.00 Build 0)  -->
<!DOCTYPE svg PUBLIC "-//W3C//DTD SVG 1.1//EN" "http://www.w3.org/Graphics/SVG/1.1/DTD/svg11.dtd">
<svg version="1.1" id="Capa_1" xmlns="http://www.w3.org/2000/svg" xmlns:xlink="http://www.w3.org/1999/xlink" x="0px" y="0px"
	 width="43.088px" height="46.869px" viewBox="0 0 43.088 46.869" enable-background="new 0 0 43.088 46.869" xml:space="preserve">
<path fill="#CADD90" d="M21.544,42.767c-10.66,0-19.333-8.672-19.333-19.332c0-10.661,8.673-19.333,19.333-19.333
	s19.333,8.673,19.333,19.333C40.877,34.095,32.204,42.767,21.544,42.767z"/>
<path fill="#B0D186" d="M32.607,35.799c-10.66,0-19.332-8.674-19.332-19.333c0-4.462,1.533-8.564,4.082-11.841
	C9.748,7.226,4.252,14.431,4.252,22.911c0,10.66,8.674,19.332,19.334,19.332c6.197,0,11.709-2.943,15.25-7.492
	C36.877,35.418,34.789,35.799,32.607,35.799z"/>
<path fill="#FFFFFF" d="M18.21,32.101c-0.342,0-0.682-0.131-0.943-0.391l-7.999-8c-0.521-0.521-0.521-1.365,0-1.887
	c0.521-0.52,1.365-0.52,1.886,0l7.057,7.059l13.724-13.725c0.521-0.521,1.365-0.521,1.886,0c0.521,0.521,0.521,1.365,0,1.886
	L19.152,31.71C18.894,31.97,18.552,32.101,18.21,32.101z"/>
</svg>
