<?xml version="1.0" encoding="utf-8"?>
<!-- Generator: Adobe Illustrator 16.0.0, SVG Export Plug-In . SVG Version: 6.00 Build 0)  -->
<!DOCTYPE svg PUBLIC "-//W3C//DTD SVG 1.1//EN" "http://www.w3.org/Graphics/SVG/1.1/DTD/svg11.dtd">
<svg version="1.1" id="Capa_1" xmlns="http://www.w3.org/2000/svg" xmlns:xlink="http://www.w3.org/1999/xlink" x="0px" y="0px"
	 width="15.667px" height="16.435px" viewBox="0 0 15.667 16.435" enable-background="new 0 0 15.667 16.435" xml:space="preserve">
<g>
	<defs>
		<rect id="SVGID_98_" x="-865.389" y="176.361" width="1308.429" height="141.999"/>
	</defs>
	<clipPath id="SVGID_2_">
		<use xlink:href="#SVGID_98_"  overflow="visible"/>
	</clipPath>
	<g clip-path="url(#SVGID_2_)">
		
			<linearGradient id="SVGID_3_" gradientUnits="userSpaceOnUse" x1="-757.4648" y1="590.625" x2="-2336.8784" y2="-86.2672" gradientTransform="matrix(-1 0 0 1 -1926.4658 0)">
			<stop  offset="0" style="stop-color:#1180A1"/>
			<stop  offset="0.4909" style="stop-color:#20B6AA"/>
			<stop  offset="1" style="stop-color:#67E4DA"/>
		</linearGradient>
		<rect x="-1024.232" y="-376.419" fill="url(#SVGID_3_)" width="1470" height="1180"/>
		<g>
			<defs>
				<rect id="SVGID_101_" x="-1047.232" y="-385.419" width="1516" height="1189"/>
			</defs>
			<clipPath id="SVGID_5_">
				<use xlink:href="#SVGID_101_"  overflow="visible"/>
			</clipPath>
			<g opacity="0.7" clip-path="url(#SVGID_5_)">
				<g opacity="0.35">
					<g>
						<polygon fill="none" stroke="#FFFFFF" stroke-miterlimit="10" points="38.021,194.802 194.158,-109.699 -218.134,-292.149 
													"/>
						<polygon fill="none" stroke="#FFFFFF" stroke-miterlimit="10" points="-884.967,405.132 38.021,194.802 -211.489,-447.28 
							-1110.226,-71.707 -1111.042,-69.402 						"/>
						<polygon fill="none" stroke="#FFFFFF" stroke-miterlimit="10" points="272.322,346.112 -211.489,-447.28 -253.346,530.231 
							-291.615,789.224 						"/>
						<polygon fill="none" stroke="#FFFFFF" stroke-miterlimit="10" points="-512.137,-124.164 -488.41,-117.694 38.021,194.802 
							-44.294,601.952 						"/>
						<polygon fill="none" stroke="#FFFFFF" stroke-miterlimit="10" points="138.75,578.89 141.664,574.653 38.021,194.802 
							-488.41,-117.694 						"/>
					</g>
					<g>
					</g>
				</g>
				
					<linearGradient id="SVGID_6_" gradientUnits="userSpaceOnUse" x1="-2052.3682" y1="231.3867" x2="-1422.2939" y2="231.3867" gradientTransform="matrix(-1 0 0 1 -1910.7041 0)">
					<stop  offset="0" style="stop-color:#0050AB"/>
					<stop  offset="0.4909" style="stop-color:#26ADF3"/>
					<stop  offset="1" style="stop-color:#67E4DA"/>
				</linearGradient>
				<polygon opacity="0.35" fill="url(#SVGID_6_)" points="141.664,580.468 38.021,194.802 -488.41,-117.694 				"/>
				<polygon opacity="0.3" fill="#FFFFFF" points="198.032,-109.699 -615.955,69.696 38.021,194.802 				"/>
			</g>
		</g>
		<rect x="-1049.088" y="-395.824" opacity="0.5" fill="#009BB5" width="1518.704" height="1199.36"/>
	</g>
</g>
<g>
	<defs>
		<rect id="SVGID_104_" x="42.843" y="-623.761" width="1290" height="140"/>
	</defs>
	<clipPath id="SVGID_8_">
		<use xlink:href="#SVGID_104_"  overflow="visible"/>
	</clipPath>
	<g clip-path="url(#SVGID_8_)">
		<g>
			<defs>
				<rect id="SVGID_107_" x="-136.232" y="-1177.419" width="1494" height="1172"/>
			</defs>
			<clipPath id="SVGID_9_">
				<use xlink:href="#SVGID_107_"  overflow="visible"/>
			</clipPath>
			<g opacity="0.7" clip-path="url(#SVGID_9_)">
				<g opacity="0.35">
					<g>
					</g>
				</g>
			</g>
		</g>
	</g>
</g>
<g>
	<g>
		<path fill="#1E6679" d="M5.833,16.435c-0.511,0-0.995-0.239-1.305-0.648l-4.196-5.541C-0.214,9.525-0.071,8.5,0.649,7.954
			C1.371,7.407,2.396,7.55,2.942,8.271l2.759,3.644l6.94-11.143c0.478-0.767,1.486-1.001,2.254-0.524
			c0.768,0.478,1.001,1.487,0.524,2.254L7.222,15.664c-0.285,0.458-0.776,0.746-1.314,0.77C5.882,16.435,5.857,16.435,5.833,16.435z
			"/>
	</g>
</g>
</svg>
