<?xml version="1.0" encoding="utf-8"?>
<!-- Generator: Adobe Illustrator 16.0.0, SVG Export Plug-In . SVG Version: 6.00 Build 0)  -->
<!DOCTYPE svg PUBLIC "-//W3C//DTD SVG 1.1//EN" "http://www.w3.org/Graphics/SVG/1.1/DTD/svg11.dtd">
<svg version="1.1" id="Capa_1" xmlns="http://www.w3.org/2000/svg" xmlns:xlink="http://www.w3.org/1999/xlink" x="0px" y="0px"
	 width="146.953px" height="146.961px" viewBox="0 0 146.953 146.961" enable-background="new 0 0 146.953 146.961"
	 xml:space="preserve">
<g>
	<g>
		<circle fill="#5FB0C0" cx="73.475" cy="73.481" r="45.786"/>
		<path fill="#5FB0C0" d="M73.475,0C32.959,0,0,32.963,0,73.479s32.959,73.482,73.475,73.482s73.479-32.967,73.479-73.482
			S113.99,0,73.475,0z M73.475,143.518c-38.623,0-70.041-31.418-70.041-70.039c0-38.619,31.418-70.037,70.041-70.037
			s70.043,31.418,70.043,70.037C143.518,112.1,112.098,143.518,73.475,143.518z"/>
	</g>
</g>
<g>
	<circle fill="#FFFFFF" cx="74.912" cy="73.48" r="7.531"/>
	<circle fill="#FFFFFF" cx="56.76" cy="93.007" r="5.677"/>
	<circle fill="#FFFFFF" cx="64.385" cy="49.077" r="5.677"/>
	<path fill="#FFFFFF" d="M100.706,52.262c0-3.137-2.542-5.676-5.679-5.676c-3.133,0-5.675,2.539-5.675,5.676
		c0,3.135,2.542,5.676,5.675,5.676C98.164,57.938,100.706,55.396,100.706,52.262z M91.009,52.262c0-2.22,1.799-4.02,4.019-4.02
		c2.221,0,4.022,1.8,4.022,4.02c0,2.219-1.801,4.019-4.022,4.019C92.808,56.28,91.009,54.48,91.009,52.262z"/>
	<path fill="#FFFFFF" d="M100.706,95.065c0-3.134-2.542-5.675-5.679-5.675c-3.133,0-5.675,2.541-5.675,5.675
		c0,3.136,2.542,5.677,5.675,5.677C98.164,100.742,100.706,98.201,100.706,95.065z M91.009,95.065c0-2.219,1.799-4.019,4.019-4.019
		c2.221,0,4.022,1.8,4.022,4.019c0,2.22-1.801,4.021-4.022,4.021C92.808,99.086,91.009,97.285,91.009,95.065z"/>
	<path fill="#FFFFFF" d="M53.61,63.156c0-3.135-2.542-5.676-5.675-5.676c-3.136,0-5.676,2.541-5.676,5.676s2.541,5.676,5.676,5.676
		C51.068,68.832,53.61,66.291,53.61,63.156z M43.914,63.156c0-2.221,1.801-4.02,4.021-4.02c2.218,0,4.019,1.799,4.019,4.02
		c0,2.22-1.8,4.02-4.019,4.02C45.714,67.176,43.914,65.376,43.914,63.156z"/>
	<path fill="#FFFFFF" d="M64.237,88.247c-0.413,0.411-1.081,0.411-1.491,0l0,0c-0.412-0.413-0.412-1.081,0-1.493l5.43-5.432
		c0.414-0.412,1.079-0.412,1.493,0l0,0c0.412,0.412,0.412,1.079,0,1.491L64.237,88.247z"/>
	<path fill="#FFFFFF" d="M67.494,57.105c-0.229-0.535,0.019-1.155,0.555-1.385l0,0c0.536-0.23,1.155,0.019,1.385,0.552l3.027,7.062
		c0.23,0.535-0.019,1.155-0.555,1.385l0,0c-0.536,0.23-1.155-0.019-1.385-0.553L67.494,57.105z"/>
	<path fill="#FFFFFF" d="M62.375,70.685c-0.541-0.216-0.804-0.831-0.587-1.372l0,0c0.217-0.541,0.831-0.805,1.372-0.588l3.234,1.389
		c0.541,0.217,0.806,0.83,0.589,1.37l0,0c-0.217,0.542-0.831,0.805-1.372,0.588L62.375,70.685z"/>
	<path fill="#FFFFFF" d="M55.848,67.983c-0.542-0.216-0.804-0.831-0.587-1.372l0,0c0.217-0.539,0.83-0.803,1.372-0.588l3.235,1.389
		c0.542,0.217,0.803,0.831,0.588,1.373l0,0c-0.217,0.539-0.831,0.803-1.372,0.588L55.848,67.983z"/>
	<path fill="#FFFFFF" d="M85.966,86.785c-0.409-0.416-0.404-1.082,0.012-1.49l0,0c0.415-0.41,1.082-0.404,1.491,0.01l2.404,2.57
		c0.409,0.416,0.404,1.084-0.01,1.492l0,0c-0.417,0.408-1.085,0.402-1.493-0.014L85.966,86.785z"/>
	<path fill="#FFFFFF" d="M81.071,81.693c-0.411-0.414-0.404-1.082,0.01-1.493l0,0c0.417-0.407,1.084-0.401,1.495,0.013l2.405,2.57
		c0.409,0.415,0.404,1.083-0.013,1.492l0,0c-0.414,0.406-1.083,0.402-1.491-0.014L81.071,81.693z"/>
	<path fill="#FFFFFF" d="M83.28,62.812c0.415-0.408,1.084-0.402,1.493,0.012l0,0c0.409,0.416,0.404,1.084-0.014,1.494l-2.568,2.404
		c-0.414,0.408-1.082,0.404-1.491-0.012l0,0c-0.409-0.414-0.404-1.083,0.011-1.492L83.28,62.812z"/>
	<path fill="#FFFFFF" d="M88.375,57.918c0.414-0.408,1.082-0.404,1.491,0.012l0,0c0.409,0.415,0.401,1.083-0.012,1.492l-2.57,2.406
		c-0.414,0.408-1.083,0.402-1.491-0.014l0,0c-0.409-0.414-0.404-1.082,0.013-1.489L88.375,57.918z"/>
</g>
</svg>
