<?xml version="1.0" encoding="utf-8"?>
<!-- Generator: Adobe Illustrator 16.0.0, SVG Export Plug-In . SVG Version: 6.00 Build 0)  -->
<!DOCTYPE svg PUBLIC "-//W3C//DTD SVG 1.1//EN" "http://www.w3.org/Graphics/SVG/1.1/DTD/svg11.dtd">
<svg version="1.1" id="Capa_1" xmlns="http://www.w3.org/2000/svg" xmlns:xlink="http://www.w3.org/1999/xlink" x="0px" y="0px"
	 width="92.273px" height="77.36px" viewBox="0 0 92.273 77.36" enable-background="new 0 0 92.273 77.36" xml:space="preserve">
<g>
	<defs>
		<rect id="SVGID_1_" x="-1378.573" y="-421.356" width="1290.001" height="60"/>
	</defs>
	<clipPath id="SVGID_2_">
		<use xlink:href="#SVGID_1_"  overflow="visible"/>
	</clipPath>
	<g clip-path="url(#SVGID_2_)">
		<g>
			<defs>
				<rect id="SVGID_4_" x="-1403.469" y="-762.356" width="1339" height="1051"/>
			</defs>
			<clipPath id="SVGID_3_">
				<use xlink:href="#SVGID_4_"  overflow="visible"/>
			</clipPath>
			<g opacity="0.7" clip-path="url(#SVGID_3_)">
				<g opacity="0.35">
					<g>
					</g>
					<g>
					</g>
				</g>
			</g>
		</g>
	</g>
</g>
<g>
	<g>
		<path fill-rule="evenodd" clip-rule="evenodd" fill="#FFFFFF" d="M40.826,28.42c1.072,1.734,1.086,3.578,0.75,5.487
			C43.199,32.362,42.828,29.583,40.826,28.42z"/>
		<path fill-rule="evenodd" clip-rule="evenodd" fill="#FFFFFF" d="M48.949,37.653c0.039-1.526,1.303-2.137,2.229-3.125
			C49.254,34.612,48.504,35.594,48.949,37.653z"/>
		<path fill-rule="evenodd" clip-rule="evenodd" fill="#FFFFFF" d="M38.332,33.949c-1.773,1.716-1.248,3.964,1.152,4.876
			C37.951,37.477,37.617,35.852,38.332,33.949z"/>
		<path fill-rule="evenodd" clip-rule="evenodd" fill="#FFFFFF" d="M41.598,46.124c1.93-1.138,2.199-2.975,0.391-4.787
			C42.734,43.309,42.434,44.747,41.598,46.124z"/>
		<path fill-rule="evenodd" clip-rule="evenodd" fill="#FFFFFF" d="M60.805,33.124c-0.629-1.762-3.715-5.19-4.148-6.869
			c-0.83-3.186-4.385-4.891-7.416-3.57c-1.43,0.625-1.988,1.189-2.709,1.921c-0.924,0.94-1.113-0.251-1.477-0.591
			c-3.344-3.112-8.566-1.89-9.701,2.454c-0.549,2.104-3.729,5.395-3.16,5.273c-1.822,3.768-1.682,5.987,0.805,9.259
			c0.965,1.268-0.141,1.83-0.098,3.332c0.002,0.085-0.037,0.139-0.1,0.171c0.418,1.505,0.742,2.534,0.789,2.635
			c0.9,2.021,2.887,2.967,4.176,4.569c2.174,2.71,4.822,3.056,7.51,0.794c0.664-0.56,0.912-0.56,1.564,0.032
			c1.941,1.754,4.281,2.016,6.078,0.551c1.701-1.391,3.441-2.875,4.674-4.658c0.922-1.34,1.402-2.623,1.477-3.077
			c0.271-1.647-1.039-3.329,0.375-4.984C61.229,38.274,61.697,35.641,60.805,33.124z M45.354,48.274
			c-0.023,1.853-1.674,3.039-3.51,2.727c-0.4-0.068-1.646,0.289-0.67-1.084c0.621-0.872-0.74-0.793-1.24-0.95
			c-3.234-1.019-4.861-3.729-3.955-6.837c0.727,0.273,1.438,0.594,2.18,0.801c0.424,0.119,1.049,0.33,1.252-0.275
			c0.227-0.689-0.434-0.711-0.875-0.844c-1.238-0.369-2.324-0.977-3.203-1.943c-2.201-2.427-2.191-6.313,0.053-8.551
			c0.395-0.392,0.818-1.084,1.32-0.053c0.139,0.291,0.469,0.414,0.76,0.211c0.277-0.191,0.295-0.533,0.205-0.825
			c-0.271-0.879-0.365-1.722-0.059-2.644c0.648-1.946,2.188-3.006,4.277-2.808c1.896,0.181,3.445,1.589,3.471,3.544
			C45.432,35.253,45.43,41.766,45.354,48.274z M54.191,41.616c-0.564,0.222-1.883,0.03-1.5,1.05
			c0.332,0.874,1.352,0.042,2.068,0.035c0.557-0.005,1.324-1.411,1.627,0.013c0.207,0.98,0.621,2.545-1.107,2.719
			c-1.547,0.155-1.453,1.343,0.037,0.958c-0.715,1.692-2.096,2.325-3.646,2.688c-0.73,0.171-1.391,0.264-0.539,1.178
			c0.305,0.327,0.162,0.517-0.363,0.688c-1.932,0.63-4.006-0.631-4.031-2.689c-0.082-6.514-0.084-13.027,0.002-19.541
			c0.033-2.277,2.211-3.809,4.582-3.505c2.121,0.274,3.66,2.404,3.328,4.608c-0.213,1.43-0.213,1.426,1.07,1.006
			c0.625-0.203,0.844,0.359,1.131,0.674C59.803,34.75,58.4,39.967,54.191,41.616z"/>
		<path fill-rule="evenodd" clip-rule="evenodd" fill="#FFFFFF" d="M49.328,27.866c1.219,0.384,1.889,1.074,2.213,2.244
			c0.807-0.9,0.295-1.5-0.154-1.994C50.928,27.609,50.336,27.182,49.328,27.866z"/>
		<path fill-rule="evenodd" clip-rule="evenodd" fill="#FFFFFF" d="M54.637,34.264c0.887,1.924,0.197,3.284-0.951,4.582
			c1.355-0.229,1.889-1.153,2.096-2.305C55.977,35.465,55.777,35.068,54.637,34.264z"/>
	</g>
	<path fill-rule="evenodd" clip-rule="evenodd" fill="#FFFFFF" d="M67.354,34.485c-2.225-1.284-2.377,0.232-2.264,1.268
		c1.439,0.918,2.258,1.969,2.252,3.082c-0.01,3.18-6.705,5.792-15.49,6.286c-0.211,0.708,0.389,1.375,0.799,1.731
		c9.98-0.7,17.543-4.084,17.557-8.187C70.213,37.145,69.164,35.72,67.354,34.485z"/>
	<path fill-rule="evenodd" clip-rule="evenodd" fill="#FFFFFF" d="M34.131,44.668c0.021-0.252,0.068-0.539,0.125-0.846
		c-5.311-1.192-9.633-3.053-9.625-5.125c0.008-1.803,3.502-3.41,7.672-4.566c0.137-0.978,0.463-1.863,0.695-2.41
		c-6.598,1.504-10.92,3.981-10.932,6.801c-0.012,3.006,4.877,5.648,12.207,7.152C34.164,45.391,34.098,45.063,34.131,44.668z"/>
	<path fill-rule="evenodd" clip-rule="evenodd" fill="#FFFFFF" d="M31.896,26.48c-0.121-3.032,0.727-8.651,2.404-9.401
		c2.861-1.277,8.01,2.543,12.65,8.239c0.898,0.21,1.699-0.304,2.199-0.757c-5.846-7.371-11.871-11.616-16.346-9.699
		c-2.479,1.061-3.959,7.058-3.725,11.344C29.781,26.617,30.969,27.112,31.896,26.48z"/>
	<path fill-rule="evenodd" clip-rule="evenodd" fill="#FFFFFF" d="M59.938,50.551c0.959,4.941,0.92,9.359-1.219,10.391
		c-1.666,0.803-4.506-0.88-7.115-3.109c-1.1,0.234-1.916,0.672-2.504,1.141c3.971,3.814,7.83,5.571,10.482,4.294
		c3.234-1.557,3.859-7.231,2.143-14.419C61.027,49.144,60.436,49.795,59.938,50.551z"/>
	<path fill-rule="evenodd" clip-rule="evenodd" fill="#FFFFFF" d="M50.416,20.371c3.307-2.886,6.553-4.794,8.404-3.684
		c2.656,1.595,1.975,8.256-0.875,15.533c0.385,0.643,1.066,1.185,1.648,1.566c3.803-9.278,4.232-17.289,0.52-19.515
		c-2.752-1.65-7.168,0.244-11.799,4.524C48.865,19.489,49.58,20.131,50.416,20.371z"/>
	<path fill-rule="evenodd" clip-rule="evenodd" fill="#FFFFFF" d="M46.828,51.874c-0.084-0.061-0.168-0.096-0.25-0.139
		c-4.451,4.932-9.898,9.358-12.305,7.893c-1.789-1.092-2.84-5.391-2.09-9.524c-0.584-0.818-1.654-1.251-2.385-1.46
		c-1.408,6.22,0.119,11.068,2.871,12.747c3.338,2.032,9.873-1.831,15.521-8.153C47.975,52.924,47.613,52.456,46.828,51.874z"/>
	<circle fill-rule="evenodd" clip-rule="evenodd" fill="#FFFFFF" cx="30.489" cy="26.493" r="2.317"/>
	<circle fill-rule="evenodd" clip-rule="evenodd" fill="#FFFFFF" cx="50.002" cy="19.396" r="2.055"/>
	<circle fill-rule="evenodd" clip-rule="evenodd" fill="#FFFFFF" cx="30.962" cy="50.168" r="2.317"/>
	<circle fill-rule="evenodd" clip-rule="evenodd" fill="#FFFFFF" cx="65.199" cy="34.24" r="2.188"/>
	<circle fill-rule="evenodd" clip-rule="evenodd" fill="#FFFFFF" cx="51.491" cy="46.124" r="1.771"/>
	<circle fill-rule="evenodd" clip-rule="evenodd" fill="#FFFFFF" cx="61.007" cy="49.62" r="1.771"/>
	<circle fill-rule="evenodd" clip-rule="evenodd" fill="#FFFFFF" cx="50.327" cy="58.777" r="2.163"/>
</g>
</svg>
