<?xml version="1.0" encoding="utf-8"?>
<!-- Generator: Adobe Illustrator 16.0.0, SVG Export Plug-In . SVG Version: 6.00 Build 0)  -->
<!DOCTYPE svg PUBLIC "-//W3C//DTD SVG 1.1//EN" "http://www.w3.org/Graphics/SVG/1.1/DTD/svg11.dtd">
<svg version="1.1" id="Capa_1" xmlns="http://www.w3.org/2000/svg" xmlns:xlink="http://www.w3.org/1999/xlink" x="0px" y="0px"
	 width="92.273px" height="77.36px" viewBox="0 0 92.273 77.36" enable-background="new 0 0 92.273 77.36" xml:space="preserve">
<g>
	<defs>
		<rect id="SVGID_1_" x="-1378.573" y="-421.356" width="1290.001" height="60"/>
	</defs>
	<clipPath id="SVGID_2_">
		<use xlink:href="#SVGID_1_"  overflow="visible"/>
	</clipPath>
	<g clip-path="url(#SVGID_2_)">
		<g>
			<defs>
				<rect id="SVGID_4_" x="-1403.469" y="-762.356" width="1339" height="1051"/>
			</defs>
			<clipPath id="SVGID_3_">
				<use xlink:href="#SVGID_4_"  overflow="visible"/>
			</clipPath>
			<g opacity="0.7" clip-path="url(#SVGID_3_)">
				<g opacity="0.35">
					<g>
					</g>
					<g>
					</g>
				</g>
			</g>
		</g>
	</g>
</g>
<g>
	<path fill-rule="evenodd" clip-rule="evenodd" fill="#FFFFFF" d="M47.633,48.935c1.545,1.463,3.123,2.891,4.609,4.41
		c0.465,0.473,0.676,1.193,1.002,1.801c-0.648,0.225-1.295,0.639-1.945,0.646c-5.057,0.054-10.112,0.052-15.167,0.001
		c-0.602-0.005-1.199-0.4-1.799-0.616c0.275-0.577,0.428-1.274,0.852-1.708c1.52-1.562,3.131-3.033,4.707-4.54
		c-0.064-0.151-0.129-0.304-0.193-0.456c-0.539,0-1.076,0-1.615,0c-5.732,0-11.465,0.006-17.199-0.002
		c-2.246-0.004-2.746-0.508-2.748-2.772c-0.004-9.747-0.006-19.494,0.002-29.241c0-2.203,0.568-2.77,2.793-2.771
		c15.221-0.006,30.44-0.006,45.659,0c2.248,0.001,2.789,0.545,2.791,2.742c0.004,5.629-0.027,11.258,0.041,16.887
		c0.006,0.658,0.367,1.516,0.859,1.932c5.111,4.326,5.18,11.516,0.012,15.752c-0.807,0.662-0.893,1.19-0.609,2.082
		c0.709,2.23,1.35,4.484,1.992,6.734c0.547,1.921-0.1,3.359-1.662,3.777c-1.443,0.387-2.672-0.5-3.242-2.375
		c-0.695-2.29-1.412-4.574-2.025-6.888c-0.225-0.851-0.598-1.183-1.475-1.241c-2.922-0.197-5.232-1.574-7.059-3.83
		c-0.248-0.304-0.609-0.722-0.926-0.729c-2.477-0.061-4.955-0.034-7.432-0.034C47.781,48.642,47.707,48.788,47.633,48.935z
		 M65.619,33.096c0-5.172,0-10.353,0-15.57c-14.633,0-29.183,0-43.706,0c0,9.187,0,18.23,0,27.239c10.812,0,21.517,0,32.222,0
		C54.146,37.111,57.232,33.989,65.619,33.096z M64.131,49.938c3.768-0.005,6.777-2.973,6.799-6.709
		c0.023-3.792-3.035-6.829-6.861-6.818c-3.736,0.012-6.717,3.038-6.697,6.796C57.393,46.966,60.381,49.942,64.131,49.938z"/>
	<path fill-rule="evenodd" clip-rule="evenodd" fill="#FFFFFF" d="M37.374,30.786c0-2.441,0.01-4.884-0.004-7.326
		c-0.008-1.041,0.242-1.941,1.449-1.99c1.283-0.053,1.674,0.85,1.676,1.963c0.008,4.936,0.01,9.871,0,14.807
		c-0.002,1.049-0.395,1.911-1.57,1.924c-1.188,0.014-1.557-0.822-1.553-1.896C37.382,35.773,37.374,33.28,37.374,30.786z"/>
	<path fill-rule="evenodd" clip-rule="evenodd" fill="#FFFFFF" d="M48.795,32.521c0,1.869-0.012,3.738,0.004,5.607
		c0.01,1.11-0.281,2.047-1.572,2.033c-1.172-0.013-1.553-0.885-1.555-1.934c-0.006-3.895-0.006-7.787,0-11.682
		c0.002-1.043,0.348-1.919,1.533-1.947c1.303-0.031,1.602,0.888,1.594,2.003C48.785,28.574,48.795,30.548,48.795,32.521z"/>
	<path fill-rule="evenodd" clip-rule="evenodd" fill="#FFFFFF" d="M36.272,34.094c0,1.452,0.008,2.904-0.002,4.356
		c-0.008,1.035-0.529,1.869-1.553,1.658c-0.602-0.123-1.459-1.004-1.486-1.579c-0.146-3.054-0.1-6.118-0.053-9.177
		c0.016-1.004,0.584-1.697,1.674-1.629c1.004,0.062,1.418,0.744,1.418,1.702C36.274,30.981,36.272,32.538,36.272,34.094z"/>
	<path fill-rule="evenodd" clip-rule="evenodd" fill="#FFFFFF" d="M44.645,34.034c0,1.453,0.008,2.906-0.002,4.357
		c-0.006,1.025-0.477,1.754-1.539,1.77s-1.572-0.693-1.576-1.723c-0.014-3.01-0.016-6.02,0.002-9.028
		c0.006-1.036,0.537-1.72,1.607-1.685c1.072,0.036,1.508,0.774,1.508,1.795C44.648,31.024,44.645,32.53,44.645,34.034z"/>
	<path fill-rule="evenodd" clip-rule="evenodd" fill="#FFFFFF" d="M29.007,35.331c0-1.036-0.018-2.072,0.006-3.108
		c0.021-1.035,0.582-1.843,1.592-1.625c0.594,0.128,1.404,0.995,1.453,1.586c0.176,2.11,0.178,4.253-0.002,6.362
		c-0.049,0.584-0.887,1.449-1.482,1.561c-1.008,0.191-1.545-0.638-1.562-1.666C28.993,37.405,29.007,36.368,29.007,35.331z"/>
	<path fill-rule="evenodd" clip-rule="evenodd" fill="#FFFFFF" d="M53.035,37.069c0,0.567,0.199,1.25-0.049,1.676
		c-0.338,0.583-1.014,1.337-1.543,1.336c-0.498-0.002-1.271-0.812-1.428-1.4c-0.246-0.918-0.07-1.947-0.076-2.929
		c-0.008-1.026,0.426-1.745,1.504-1.771c1.072-0.025,1.549,0.686,1.611,1.693c0.029,0.463,0.004,0.93,0.004,1.395
		C53.051,37.069,53.045,37.069,53.035,37.069z"/>
	<path fill-rule="evenodd" clip-rule="evenodd" fill="#FFFFFF" d="M69.518,43.282c-0.287,0.826-0.525,1.674-0.891,2.462
		c-0.098,0.208-0.59,0.231-0.9,0.341c-0.066-0.281-0.275-0.627-0.18-0.834c1.059-2.304,0.539-4.129-1.521-5.586
		c-0.199-0.141-0.176-0.595-0.256-0.904c0.336-0.021,0.715-0.156,1-0.047C68.178,39.253,69.381,41.398,69.518,43.282z"/>
</g>
</svg>
