<?xml version="1.0" encoding="utf-8"?>
<!-- Generator: Adobe Illustrator 16.0.0, SVG Export Plug-In . SVG Version: 6.00 Build 0)  -->
<!DOCTYPE svg PUBLIC "-//W3C//DTD SVG 1.1//EN" "http://www.w3.org/Graphics/SVG/1.1/DTD/svg11.dtd">
<svg version="1.1" id="Capa_1" xmlns="http://www.w3.org/2000/svg" xmlns:xlink="http://www.w3.org/1999/xlink" x="0px" y="0px"
	 width="52.752px" height="52.751px" viewBox="0 0 52.752 52.751" enable-background="new 0 0 52.752 52.751" xml:space="preserve">
<g>
	<g>
		<g>
			<circle fill="#71898E" cx="26.376" cy="26.375" r="26.375"/>
		</g>
	</g>
	<g>
		<g>
			<g>
				<path fill="#FFFFFF" d="M39.634,38.791c-0.122,0-0.243-0.029-0.354-0.088l-6.336-3.357c-0.855,0.183-1.709,0.277-2.541,0.277
					c-6.237,0-11.311-4.708-11.311-10.494s5.073-10.492,11.311-10.492c6.238,0,11.312,4.706,11.312,10.492
					c0,2.858-1.279,5.608-3.518,7.591c-0.106,1.736,1.404,4.201,2.021,5.037c0.187,0.254,0.16,0.596-0.063,0.823
					C40.02,38.717,39.826,38.791,39.634,38.791z M33.053,33.98c0.121,0,0.242,0.03,0.352,0.088l4.364,2.314
					c-0.604-1.215-1.151-2.749-0.954-4.068c0.023-0.152,0.101-0.295,0.227-0.397c2.069-1.74,3.254-4.215,3.254-6.787
					c0-5.059-4.438-9.175-9.891-9.175c-5.454,0-9.891,4.116-9.891,9.175s4.436,9.173,9.889,9.173c0.805,0,1.637-0.096,2.471-0.298
					C32.932,33.988,32.991,33.98,33.053,33.98z"/>
			</g>
		</g>
		<g>
			<g>
				<path fill="#FFFFFF" d="M12.597,38.58c-0.228-0.228-0.252-0.569-0.065-0.823c0.619-0.836,2.128-3.301,2.021-5.037
					c-2.238-1.982-3.516-4.732-3.516-7.591c0-5.786,5.072-10.492,11.311-10.492c6.237,0,11.312,4.706,11.312,10.492
					s-5.075,10.494-11.312,10.494c-0.831,0-1.685-0.095-2.541-0.277l-6.335,3.357c-0.111,0.059-0.233,0.088-0.355,0.088
					C12.925,38.791,12.732,38.717,12.597,38.58z M19.877,34.005c0.834,0.202,1.666,0.298,2.471,0.298
					c5.453,0,9.891-4.114,9.891-9.173s-4.439-9.175-9.891-9.175c-5.453,0-9.891,4.116-9.891,9.175c0,2.572,1.185,5.047,3.254,6.787
					c0.124,0.103,0.203,0.245,0.226,0.397c0.196,1.319-0.351,2.854-0.955,4.068l4.364-2.314c0.111-0.058,0.232-0.088,0.352-0.088
					C19.759,33.98,19.818,33.988,19.877,34.005z"/>
			</g>
		</g>
		<g>
			<g>
				<g>
					<path fill="#FFFFFF" d="M25.177,29.866c-0.104,0-0.19-0.084-0.19-0.188c0-0.105,0.086-0.189,0.19-0.189h2.192
						c0.105,0,0.19,0.084,0.19,0.189c0,0.104-0.085,0.188-0.19,0.188H25.177z"/>
					<path fill="#FFFFFF" d="M25.421,30.615c-0.106,0-0.19-0.084-0.19-0.188c0-0.106,0.084-0.189,0.19-0.189h1.706
						c0.104,0,0.188,0.083,0.188,0.189c0,0.104-0.084,0.188-0.188,0.188H25.421z"/>
					<path fill="#FFFFFF" d="M26.096,28.005c0,0.105-0.083,0.188-0.189,0.188c-0.104,0-0.186-0.082-0.186-0.188
						c-0.003-0.795-0.024-1.387-0.135-1.938c-0.107-0.541-0.303-1.045-0.646-1.665c-0.051-0.094-0.02-0.208,0.071-0.256
						c0.091-0.053,0.206-0.021,0.257,0.073c0.364,0.658,0.572,1.195,0.689,1.775C26.07,26.568,26.094,27.182,26.096,28.005z"/>
					<path fill="#FFFFFF" d="M26.826,28.005c0,0.105-0.084,0.188-0.188,0.188c-0.104,0-0.188-0.082-0.188-0.188
						c0-0.823,0.024-1.437,0.141-2.011c0.114-0.58,0.32-1.117,0.686-1.775c0.052-0.094,0.166-0.126,0.256-0.073
						c0.092,0.048,0.123,0.165,0.074,0.256c-0.346,0.62-0.54,1.124-0.647,1.665C26.85,26.618,26.826,27.21,26.826,28.005z"/>
					<path fill="#FFFFFF" d="M25.047,24.488c-0.102-0.034-0.154-0.138-0.123-0.238c0.033-0.1,0.137-0.151,0.236-0.121
						c0.131,0.041,0.244,0.099,0.351,0.153l0.01,0.003c0.164,0.082,0.3,0.147,0.401,0.065l0.232-0.188
						c0.082-0.063,0.2-0.055,0.266,0.028c0.064,0.079,0.051,0.198-0.029,0.262l-0.232,0.19c-0.287,0.235-0.525,0.122-0.81-0.021
						l-0.006-0.005C25.248,24.57,25.148,24.521,25.047,24.488z"/>
					<path fill="#FFFFFF" d="M26.461,20.207c0,0.104-0.083,0.188-0.188,0.188c-0.105,0-0.189-0.083-0.189-0.188v-0.731
						c0-0.106,0.084-0.19,0.189-0.19c0.104,0,0.188,0.084,0.188,0.19V20.207z"/>
					<path fill="#FFFFFF" d="M27.386,24.129c0.099-0.03,0.204,0.021,0.237,0.121c0.031,0.101-0.023,0.204-0.123,0.238
						c-0.103,0.032-0.203,0.084-0.296,0.128l-0.009,0.005c-0.283,0.144-0.52,0.257-0.81,0.021l-0.231-0.188
						c-0.08-0.065-0.092-0.185-0.027-0.264c0.065-0.083,0.183-0.092,0.264-0.028l0.232,0.189c0.103,0.081,0.236,0.016,0.402-0.062
						l0.011-0.007C27.141,24.228,27.256,24.17,27.386,24.129z"/>
					<path fill="#FFFFFF" d="M28.648,22.219c0.606,0.606,0.982,1.447,0.982,2.373c0,0.364-0.059,0.715-0.164,1.043
						c-0.11,0.339-0.275,0.653-0.482,0.938c-0.346,0.473-0.627,0.785-0.845,1.026c-0.393,0.435-0.564,0.624-0.564,1.261
						c0,0.104-0.085,0.189-0.189,0.189H27.38h-1.097h-1.106c-0.104,0-0.188-0.086-0.188-0.189c0-0.629-0.176-0.822-0.566-1.248l0,0
						H24.42c-0.219-0.241-0.504-0.555-0.859-1.039c-0.205-0.284-0.369-0.601-0.48-0.938c-0.106-0.328-0.166-0.679-0.166-1.043
						c0-0.451,0.094-0.885,0.258-1.282l0.002-0.008c0.172-0.409,0.418-0.777,0.725-1.083c0.311-0.309,0.68-0.556,1.092-0.728l0,0
						c0.396-0.166,0.83-0.257,1.283-0.257c0.452,0,0.887,0.091,1.284,0.257C27.969,21.66,28.338,21.91,28.648,22.219L28.648,22.219z
						 M29.255,24.592c0-0.82-0.335-1.566-0.874-2.105c-0.275-0.276-0.605-0.5-0.968-0.648c-0.35-0.146-0.735-0.225-1.14-0.225
						c-0.405,0-0.791,0.079-1.141,0.225l0,0l0,0c-0.363,0.148-0.692,0.372-0.968,0.648c-0.271,0.273-0.492,0.599-0.642,0.959
						l-0.006,0.01c-0.143,0.348-0.224,0.732-0.224,1.137c0,0.325,0.052,0.633,0.146,0.926c0.098,0.303,0.244,0.581,0.426,0.833
						c0.34,0.465,0.618,0.77,0.833,1.007l0,0c0.421,0.459,0.628,0.688,0.662,1.312h0.919h0.922c0.032-0.628,0.236-0.855,0.658-1.321
						c0.211-0.232,0.481-0.535,0.822-0.997c0.18-0.249,0.326-0.53,0.425-0.833C29.201,25.225,29.255,24.917,29.255,24.592z"/>
					<path fill="#FFFFFF" d="M25.662,31.364c-0.102,0-0.188-0.085-0.188-0.188c0-0.106,0.086-0.19,0.188-0.19h1.221
						c0.104,0,0.188,0.084,0.188,0.19c0,0.104-0.085,0.188-0.188,0.188H25.662z"/>
					<path fill="#FFFFFF" d="M28.587,20.874c-0.05,0.09-0.166,0.123-0.255,0.07c-0.091-0.05-0.121-0.167-0.069-0.254l0.366-0.635
						c0.051-0.089,0.166-0.122,0.256-0.07c0.09,0.054,0.12,0.168,0.07,0.259L28.587,20.874z"/>
					<path fill="#FFFFFF" d="M24.283,20.69c0.052,0.087,0.02,0.204-0.068,0.254c-0.092,0.053-0.206,0.02-0.258-0.07l-0.365-0.63
						c-0.051-0.091-0.02-0.205,0.069-0.259c0.091-0.052,0.204-0.019,0.256,0.07L24.283,20.69z"/>
					<path fill="#FFFFFF" d="M22.638,22.194c0.091,0.052,0.122,0.168,0.069,0.258c-0.05,0.089-0.166,0.118-0.256,0.068l-0.633-0.366
						c-0.092-0.049-0.122-0.168-0.07-0.257s0.166-0.119,0.256-0.067L22.638,22.194z"/>
					<path fill="#FFFFFF" d="M30.095,22.521c-0.089,0.05-0.204,0.021-0.257-0.068c-0.052-0.09-0.02-0.206,0.07-0.258l0.633-0.366
						c0.089-0.05,0.205-0.02,0.257,0.069s0.021,0.208-0.071,0.257L30.095,22.521z"/>
					<path fill="#FFFFFF" d="M24.313,25.338c0.039,0.098-0.007,0.208-0.103,0.247c-0.096,0.04-0.205-0.004-0.246-0.099
						c-0.062-0.153-0.113-0.312-0.146-0.48c-0.033-0.162-0.051-0.328-0.051-0.496c0-0.103,0.086-0.187,0.189-0.187
						c0.105,0,0.188,0.084,0.188,0.187c0,0.147,0.015,0.289,0.044,0.425C24.217,25.075,24.258,25.211,24.313,25.338L24.313,25.338z
						 M24.313,23.682c-0.041,0.096-0.152,0.141-0.247,0.1c-0.095-0.04-0.141-0.149-0.102-0.244c0.062-0.152,0.143-0.293,0.23-0.425
						l0,0v-0.001c0.09-0.137,0.193-0.261,0.306-0.373c0.112-0.11,0.238-0.214,0.374-0.306l0,0c0.13-0.088,0.271-0.165,0.424-0.228
						c0.15-0.066,0.311-0.115,0.477-0.148c0.162-0.032,0.33-0.05,0.498-0.05c0.104,0,0.188,0.083,0.188,0.188
						c0,0.105-0.083,0.189-0.188,0.189c-0.148,0-0.291,0.016-0.425,0.04c-0.141,0.03-0.274,0.071-0.405,0.125
						c-0.125,0.055-0.244,0.119-0.359,0.197l0,0l0,0c-0.111,0.074-0.216,0.162-0.314,0.258c-0.098,0.1-0.186,0.206-0.263,0.318l0,0
						C24.431,23.438,24.365,23.558,24.313,23.682z"/>
				</g>
			</g>
		</g>
	</g>
</g>
</svg>
