<?xml version="1.0" encoding="utf-8"?>
<!-- Generator: Adobe Illustrator 16.0.0, SVG Export Plug-In . SVG Version: 6.00 Build 0)  -->
<!DOCTYPE svg PUBLIC "-//W3C//DTD SVG 1.1//EN" "http://www.w3.org/Graphics/SVG/1.1/DTD/svg11.dtd">
<svg version="1.1" id="Capa_1" xmlns="http://www.w3.org/2000/svg" xmlns:xlink="http://www.w3.org/1999/xlink" x="0px" y="0px"
	 width="52.752px" height="52.751px" viewBox="0 0 52.752 52.751" enable-background="new 0 0 52.752 52.751" xml:space="preserve">
<g>
	<g>
		<g>
			<path fill="#71898E" d="M26.377,0C11.809,0,0,11.808,0,26.373c0,14.568,11.809,26.378,26.377,26.378
				c14.564,0,26.375-11.81,26.375-26.378C52.752,11.808,40.941,0,26.377,0z"/>
		</g>
	</g>
	<path fill="#FFFFFF" d="M26.377,12.195c-9.645,0-17.461,7.819-17.461,17.463c0,2.045,0.369,3.996,1.014,5.82h32.895
		c0.645-1.824,1.014-3.775,1.014-5.82C43.838,20.015,36.02,12.195,26.377,12.195z M23.154,33.15
		c0.482-1.344,1.711-2.328,3.223-2.328s2.74,0.984,3.221,2.328H23.154z M32.039,33.15l-0.275-1.018l6.82-9.815l-9.713,6.761
		c0.027,0.013,0.053,0.034,0.078,0.047c-0.777-0.39-1.643-0.631-2.572-0.631c-2.807,0-5.121,2.008-5.662,4.656h-9.053
		c-0.186-0.771-0.285-1.552-0.35-2.328h3.422c0.645,0,1.166-0.521,1.166-1.164c0-0.645-0.521-1.164-1.166-1.164h-3.432
		c0.254-3.295,1.561-6.3,3.594-8.67l2.426,2.424c0.455,0.457,1.191,0.457,1.646,0c0.455-0.453,0.455-1.19,0-1.645l-2.424-2.424
		c2.369-2.036,5.371-3.342,8.668-3.598v3.434c0,0.645,0.52,1.165,1.164,1.165s1.164-0.521,1.164-1.165v-3.434
		c3.297,0.256,6.299,1.562,8.67,3.598l-2.426,2.424c-0.457,0.454-0.457,1.191,0,1.645c0.455,0.457,1.191,0.457,1.646,0l2.426-2.424
		c2.033,2.37,3.34,5.375,3.594,8.67h-3.434c-0.645,0-1.164,0.52-1.164,1.164c0,0.644,0.52,1.164,1.164,1.164h3.422
		c-0.061,0.776-0.164,1.557-0.35,2.328H32.039z"/>
</g>
</svg>
