<?xml version="1.0" encoding="utf-8"?>
<!-- Generator: Adobe Illustrator 16.0.0, SVG Export Plug-In . SVG Version: 6.00 Build 0)  -->
<!DOCTYPE svg PUBLIC "-//W3C//DTD SVG 1.1//EN" "http://www.w3.org/Graphics/SVG/1.1/DTD/svg11.dtd">
<svg version="1.1" id="Capa_1" xmlns="http://www.w3.org/2000/svg" xmlns:xlink="http://www.w3.org/1999/xlink" x="0px" y="0px"
	 width="46.076px" height="46.076px" viewBox="0 0 46.076 46.076" enable-background="new 0 0 46.076 46.076" xml:space="preserve">
<g>
	<g>
		<g>
			<linearGradient id="SVGID_1_" gradientUnits="userSpaceOnUse" x1="40.1309" y1="12.6338" x2="46.0762" y2="12.6338">
				<stop  offset="0" style="stop-color:#5BBFBE"/>
				<stop  offset="0.0093" style="stop-color:#5BBFBE"/>
				<stop  offset="0.2809" style="stop-color:#5BBFBE"/>
				<stop  offset="0.6685" style="stop-color:#32B8C3"/>
				<stop  offset="0.8876" style="stop-color:#2AB1CC"/>
				<stop  offset="1" style="stop-color:#2AB1CC"/>
			</linearGradient>
			<path fill="url(#SVGID_1_)" d="M40.131,4.459v16.35h5.945V4.459H40.131z M44.591,19.322h-2.974V5.944h2.974V19.322z"/>
			<linearGradient id="SVGID_2_" gradientUnits="userSpaceOnUse" x1="20.0654" y1="16.7217" x2="38.6436" y2="16.7217">
				<stop  offset="0" style="stop-color:#5BBFBE"/>
				<stop  offset="0.0093" style="stop-color:#5BBFBE"/>
				<stop  offset="0.2809" style="stop-color:#5BBFBE"/>
				<stop  offset="0.6685" style="stop-color:#32B8C3"/>
				<stop  offset="0.8876" style="stop-color:#2AB1CC"/>
				<stop  offset="1" style="stop-color:#2AB1CC"/>
			</linearGradient>
			<path fill="url(#SVGID_2_)" d="M32.699,11.977c-0.476-0.425-0.972-0.823-1.487-1.192v-0.38h-0.559
				c-2.896-1.916-6.319-2.972-9.846-2.972h-0.742v18.578h18.578v-0.743c0-1.51-0.199-3.003-0.574-4.459h0.574V7.433h-5.944V11.977z
				 M21.552,24.525V8.936c2.104,0.097,4.152,0.606,6.041,1.469h-2.324v10.404h5.943v-8.126c0.521,0.431,1.021,0.886,1.487,1.381
				v6.745h3.831c0.344,1.212,0.555,2.456,0.611,3.717H21.552z M29.727,11.891v7.432h-2.972v-7.432H29.727z M34.187,8.917h2.972
				v10.405h-2.972V8.917z"/>
			<linearGradient id="SVGID_3_" gradientUnits="userSpaceOnUse" x1="5.792" y1="26.1958" x2="13.1592" y2="26.1958">
				<stop  offset="0" style="stop-color:#5BBFBE"/>
				<stop  offset="0.0093" style="stop-color:#5BBFBE"/>
				<stop  offset="0.2809" style="stop-color:#5BBFBE"/>
				<stop  offset="0.6685" style="stop-color:#32B8C3"/>
				<stop  offset="0.8876" style="stop-color:#2AB1CC"/>
				<stop  offset="1" style="stop-color:#2AB1CC"/>
			</linearGradient>
			<polygon fill="url(#SVGID_3_)" points="5.792,28.829 12.108,22.513 13.159,23.563 6.843,29.879 			"/>
			<linearGradient id="SVGID_4_" gradientUnits="userSpaceOnUse" x1="4.46" y1="23.0381" x2="8.9189" y2="23.0381">
				<stop  offset="0" style="stop-color:#5BBFBE"/>
				<stop  offset="0.0093" style="stop-color:#5BBFBE"/>
				<stop  offset="0.2809" style="stop-color:#5BBFBE"/>
				<stop  offset="0.6685" style="stop-color:#32B8C3"/>
				<stop  offset="0.8876" style="stop-color:#2AB1CC"/>
				<stop  offset="1" style="stop-color:#2AB1CC"/>
			</linearGradient>
			<path fill="url(#SVGID_4_)" d="M8.919,23.038c0-1.229-1.001-2.229-2.23-2.229s-2.229,1-2.229,2.229
				c0,1.229,0.999,2.229,2.229,2.229S8.919,24.267,8.919,23.038z M5.946,23.038c0-0.41,0.332-0.743,0.742-0.743
				s0.743,0.333,0.743,0.743c0,0.411-0.333,0.743-0.743,0.743S5.946,23.449,5.946,23.038z"/>
			<linearGradient id="SVGID_5_" gradientUnits="userSpaceOnUse" x1="10.4043" y1="28.9824" x2="14.8643" y2="28.9824">
				<stop  offset="0" style="stop-color:#5BBFBE"/>
				<stop  offset="0.0093" style="stop-color:#5BBFBE"/>
				<stop  offset="0.2809" style="stop-color:#5BBFBE"/>
				<stop  offset="0.6685" style="stop-color:#32B8C3"/>
				<stop  offset="0.8876" style="stop-color:#2AB1CC"/>
				<stop  offset="1" style="stop-color:#2AB1CC"/>
			</linearGradient>
			<path fill="url(#SVGID_5_)" d="M12.634,26.753c-1.229,0-2.229,1.001-2.229,2.229c0,1.23,1.001,2.229,2.229,2.229
				s2.23-0.999,2.23-2.229C14.864,27.754,13.862,26.753,12.634,26.753z M12.634,29.727c-0.41,0-0.743-0.332-0.743-0.744
				c0-0.41,0.333-0.741,0.743-0.741s0.743,0.331,0.743,0.741C13.377,29.395,13.044,29.727,12.634,29.727z"/>
			<linearGradient id="SVGID_6_" gradientUnits="userSpaceOnUse" x1="0" y1="23.0381" x2="35.7607" y2="23.0381">
				<stop  offset="0" style="stop-color:#5BBFBE"/>
				<stop  offset="0.0093" style="stop-color:#5BBFBE"/>
				<stop  offset="0.2809" style="stop-color:#5BBFBE"/>
				<stop  offset="0.6685" style="stop-color:#32B8C3"/>
				<stop  offset="0.8876" style="stop-color:#2AB1CC"/>
				<stop  offset="1" style="stop-color:#2AB1CC"/>
			</linearGradient>
			<path fill="url(#SVGID_6_)" d="M32.593,38.23c2.008-2.958,3.079-6.394,3.079-9.989v-0.744H18.579V10.404h-0.743
				c-0.733,0-1.481,0.064-2.229,0.158V0H0v10.404h9.354l1.45,1.451C4.3,14.648,0,21.091,0,28.241
				c0,9.833,8.002,17.835,17.836,17.835c4.312,0,8.421-1.559,11.667-4.375l2.299,2.3c0.453,0.451,1.047,0.679,1.641,0.679
				s1.188-0.228,1.641-0.679c0.904-0.905,0.904-2.377,0-3.28L32.593,38.23z M9.969,8.917H1.486V1.485H14.12v11.584L9.969,8.917z
				 M17.836,44.59c-9.015,0-16.35-7.335-16.35-16.349c0-6.757,4.188-12.818,10.462-15.243l3.658,3.659v-4.603
				c0.498-0.069,0.994-0.124,1.486-0.147v17.075h17.076c-0.13,2.933-1.039,5.729-2.645,8.18l-1.185-1.185
				c0.081-0.337,0.13-0.688,0.13-1.049c0-2.459-2-4.459-4.459-4.459s-4.459,2-4.459,4.459s2,4.458,4.459,4.458
				c0.361,0,0.713-0.047,1.049-0.13l1.389,1.392C25.487,43.185,21.755,44.59,17.836,44.59z M28.983,34.929
				c0,1.639-1.333,2.974-2.973,2.974c-1.639,0-2.973-1.335-2.973-2.974c0-1.64,1.334-2.973,2.973-2.973
				C27.65,31.956,28.983,33.289,28.983,34.929z M34.032,42.949c-0.326,0.325-0.854,0.325-1.18,0l-4.335-4.335
				c0.462-0.316,0.862-0.716,1.179-1.18l4.336,4.337C34.356,42.098,34.356,42.624,34.032,42.949z"/>
			<linearGradient id="SVGID_7_" gradientUnits="userSpaceOnUse" x1="2.9727" y1="3.7158" x2="12.6338" y2="3.7158">
				<stop  offset="0" style="stop-color:#5BBFBE"/>
				<stop  offset="0.0093" style="stop-color:#5BBFBE"/>
				<stop  offset="0.2809" style="stop-color:#5BBFBE"/>
				<stop  offset="0.6685" style="stop-color:#32B8C3"/>
				<stop  offset="0.8876" style="stop-color:#2AB1CC"/>
				<stop  offset="1" style="stop-color:#2AB1CC"/>
			</linearGradient>
			<rect x="2.973" y="2.973" fill="url(#SVGID_7_)" width="9.661" height="1.486"/>
			<linearGradient id="SVGID_8_" gradientUnits="userSpaceOnUse" x1="2.9727" y1="6.6885" x2="12.6338" y2="6.6885">
				<stop  offset="0" style="stop-color:#5BBFBE"/>
				<stop  offset="0.0093" style="stop-color:#5BBFBE"/>
				<stop  offset="0.2809" style="stop-color:#5BBFBE"/>
				<stop  offset="0.6685" style="stop-color:#32B8C3"/>
				<stop  offset="0.8876" style="stop-color:#2AB1CC"/>
				<stop  offset="1" style="stop-color:#2AB1CC"/>
			</linearGradient>
			<rect x="2.973" y="5.944" fill="url(#SVGID_8_)" width="9.661" height="1.488"/>
			<linearGradient id="SVGID_9_" gradientUnits="userSpaceOnUse" x1="25.2686" y1="34.9287" x2="26.7549" y2="34.9287">
				<stop  offset="0" style="stop-color:#5BBFBE"/>
				<stop  offset="0.0093" style="stop-color:#5BBFBE"/>
				<stop  offset="0.2809" style="stop-color:#5BBFBE"/>
				<stop  offset="0.6685" style="stop-color:#32B8C3"/>
				<stop  offset="0.8876" style="stop-color:#2AB1CC"/>
				<stop  offset="1" style="stop-color:#2AB1CC"/>
			</linearGradient>
			<rect x="25.269" y="34.186" fill="url(#SVGID_9_)" width="1.486" height="1.486"/>
			<linearGradient id="SVGID_10_" gradientUnits="userSpaceOnUse" x1="18.5791" y1="34.9287" x2="20.0654" y2="34.9287">
				<stop  offset="0" style="stop-color:#5BBFBE"/>
				<stop  offset="0.0093" style="stop-color:#5BBFBE"/>
				<stop  offset="0.2809" style="stop-color:#5BBFBE"/>
				<stop  offset="0.6685" style="stop-color:#32B8C3"/>
				<stop  offset="0.8876" style="stop-color:#2AB1CC"/>
				<stop  offset="1" style="stop-color:#2AB1CC"/>
			</linearGradient>
			<rect x="18.579" y="34.186" fill="url(#SVGID_10_)" width="1.486" height="1.486"/>
			<linearGradient id="SVGID_11_" gradientUnits="userSpaceOnUse" x1="15.6064" y1="34.9287" x2="17.0928" y2="34.9287">
				<stop  offset="0" style="stop-color:#5BBFBE"/>
				<stop  offset="0.0093" style="stop-color:#5BBFBE"/>
				<stop  offset="0.2809" style="stop-color:#5BBFBE"/>
				<stop  offset="0.6685" style="stop-color:#32B8C3"/>
				<stop  offset="0.8876" style="stop-color:#2AB1CC"/>
				<stop  offset="1" style="stop-color:#2AB1CC"/>
			</linearGradient>
			<rect x="15.606" y="34.186" fill="url(#SVGID_11_)" width="1.486" height="1.486"/>
			<linearGradient id="SVGID_12_" gradientUnits="userSpaceOnUse" x1="12.6338" y1="34.9287" x2="14.1201" y2="34.9287">
				<stop  offset="0" style="stop-color:#5BBFBE"/>
				<stop  offset="0.0093" style="stop-color:#5BBFBE"/>
				<stop  offset="0.2809" style="stop-color:#5BBFBE"/>
				<stop  offset="0.6685" style="stop-color:#32B8C3"/>
				<stop  offset="0.8876" style="stop-color:#2AB1CC"/>
				<stop  offset="1" style="stop-color:#2AB1CC"/>
			</linearGradient>
			<rect x="12.634" y="34.186" fill="url(#SVGID_12_)" width="1.486" height="1.486"/>
		</g>
	</g>
</g>
</svg>
