<?xml version="1.0" encoding="utf-8"?>
<!-- Generator: Adobe Illustrator 16.0.0, SVG Export Plug-In . SVG Version: 6.00 Build 0)  -->
<!DOCTYPE svg PUBLIC "-//W3C//DTD SVG 1.1//EN" "http://www.w3.org/Graphics/SVG/1.1/DTD/svg11.dtd">
<svg version="1.1" id="Capa_1" xmlns="http://www.w3.org/2000/svg" xmlns:xlink="http://www.w3.org/1999/xlink" x="0px" y="0px"
	 width="50.745px" height="48.62px" viewBox="0 0 50.745 48.62" enable-background="new 0 0 50.745 48.62" xml:space="preserve">
<g>
	<linearGradient id="SVGID_1_" gradientUnits="userSpaceOnUse" x1="38.0615" y1="31.5835" x2="50.7451" y2="31.5835">
		<stop  offset="0" style="stop-color:#5BBFBE"/>
		<stop  offset="0.0093" style="stop-color:#5BBFBE"/>
		<stop  offset="0.2809" style="stop-color:#5BBFBE"/>
		<stop  offset="0.6685" style="stop-color:#32B8C3"/>
		<stop  offset="0.8876" style="stop-color:#2AB1CC"/>
		<stop  offset="1" style="stop-color:#2AB1CC"/>
	</linearGradient>
	<path fill-rule="evenodd" clip-rule="evenodd" fill="url(#SVGID_1_)" d="M50.745,32.376c-0.127,0.438-0.23,0.885-0.383,1.313
		c-1.182,3.297-4.873,4.942-8.131,3.633c-3.24-1.304-4.759-5.076-3.325-8.265c0.054-0.117,0.099-0.239,0.144-0.353
		c-1.038-0.987-1.182-1.32-0.785-1.794c0.381-0.454,0.781-0.388,1.846,0.322c0.23-0.188,0.461-0.393,0.707-0.579
		c3.674-2.798,9.037-0.687,9.832,3.868c0.016,0.093,0.063,0.179,0.096,0.269C50.745,31.318,50.745,31.847,50.745,32.376z
		 M48.982,31.562c-0.019-2.442-2.063-4.471-4.466-4.424c-2.441,0.048-4.393,2.019-4.396,4.442c-0.001,2.435,2.025,4.467,4.442,4.451
		C47,36.017,49,33.993,48.982,31.562z"/>
	<linearGradient id="SVGID_2_" gradientUnits="userSpaceOnUse" x1="0" y1="31.3618" x2="12.3945" y2="31.3618">
		<stop  offset="0" style="stop-color:#5BBFBE"/>
		<stop  offset="0.0093" style="stop-color:#5BBFBE"/>
		<stop  offset="0.2809" style="stop-color:#5BBFBE"/>
		<stop  offset="0.6685" style="stop-color:#32B8C3"/>
		<stop  offset="0.8876" style="stop-color:#2AB1CC"/>
		<stop  offset="1" style="stop-color:#2AB1CC"/>
	</linearGradient>
	<path fill-rule="evenodd" clip-rule="evenodd" fill="url(#SVGID_2_)" d="M0,28.808c0.184-0.78,0.326-1.573,0.564-2.335
		c0.165-0.529,0.442-1.027,0.704-1.52c0.281-0.53,0.791-0.695,1.238-0.445c0.428,0.241,0.575,0.735,0.287,1.244
		C2.04,27.079,1.7,28.486,1.775,30.016c0.161,3.312,3.083,6.309,6.399,6.536c1.035,0.071,2.041-0.025,3.025-0.357
		c0.385-0.13,0.8-0.124,1.024,0.243c0.144,0.235,0.224,0.621,0.128,0.858c-0.096,0.244-0.414,0.478-0.682,0.56
		c-3.5,1.069-6.584,0.333-9.18-2.249c-1.361-1.354-2.145-3.026-2.4-4.937C0.077,30.575,0.03,30.485,0,30.393
		C0,29.865,0,29.337,0,28.808z"/>
	<linearGradient id="SVGID_3_" gradientUnits="userSpaceOnUse" x1="2.4434" y1="24.3101" x2="41.7539" y2="24.3101">
		<stop  offset="0" style="stop-color:#5BBFBE"/>
		<stop  offset="0.0093" style="stop-color:#5BBFBE"/>
		<stop  offset="0.2809" style="stop-color:#5BBFBE"/>
		<stop  offset="0.6685" style="stop-color:#32B8C3"/>
		<stop  offset="0.8876" style="stop-color:#2AB1CC"/>
		<stop  offset="1" style="stop-color:#2AB1CC"/>
	</linearGradient>
	<path fill-rule="evenodd" clip-rule="evenodd" fill="url(#SVGID_3_)" d="M31.687,33.669c0.475,0.747,0.959,1.507,1.383,2.171
		c0.66-0.162,1.252-0.411,1.852-0.432c0.805-0.027,1.439,0.423,1.88,1.103c1.523,2.356,3.057,4.706,4.553,7.078
		c0.734,1.162,0.434,2.48-0.693,3.264c-0.677,0.471-1.372,0.92-2.079,1.344c-1.277,0.769-2.582,0.48-3.398-0.771
		c-1.506-2.309-2.996-4.626-4.473-6.953c-0.773-1.217-0.506-2.48,0.658-3.349c0.091-0.068,0.176-0.139,0.289-0.228
		c-0.484-0.77-0.959-1.52-1.457-2.308c-0.174,0.087-0.333,0.158-0.486,0.241c-8.445,4.54-18.875,1.936-24.192-6.042
		c-0.397-0.595-0.345-1.134,0.15-1.416c0.352-0.2,0.708-0.181,1.003,0.104c0.178,0.171,0.324,0.375,0.467,0.576
		c2.502,3.582,5.889,5.884,10.139,6.836c4.066,0.911,7.98,0.372,11.646-1.634c3.846-2.105,6.471-5.266,7.867-9.419
		c0.799-2.378,1.059-4.827,0.73-7.325c-0.555-4.235-2.439-7.775-5.643-10.588c-2.387-2.097-5.184-3.36-8.322-3.873
		C16.172,0.846,8.931,4.759,5.798,11.4c-1.249,2.647-1.789,5.438-1.561,8.369c0.019,0.247,0.036,0.494,0.039,0.742
		c0.006,0.574-0.277,0.934-0.76,0.979c-0.518,0.047-0.906-0.26-0.956-0.84c-0.067-0.788-0.146-1.586-0.106-2.374
		C2.815,10.637,6.38,5.019,13.319,1.77c5.567-2.605,11.202-2.287,16.561,0.65c5.082,2.785,8.26,7.166,9.205,12.879
		c1.188,7.191-1.146,13.195-6.814,17.847c-0.165,0.138-0.334,0.27-0.5,0.406C31.745,33.571,31.731,33.604,31.687,33.669z
		 M34.874,37.097c-0.186,0.057-0.309,0.069-0.402,0.128c-0.74,0.467-1.484,0.925-2.203,1.42c-0.321,0.225-0.307,0.561-0.1,0.881
		c1.491,2.315,2.978,4.634,4.477,6.945c0.291,0.451,0.589,0.506,1.051,0.219c0.645-0.399,1.281-0.812,1.911-1.233
		c0.418-0.279,0.493-0.59,0.224-1.014c-1.484-2.319-2.976-4.636-4.477-6.943C35.239,37.322,35.021,37.214,34.874,37.097z"/>
	<linearGradient id="SVGID_4_" gradientUnits="userSpaceOnUse" x1="7.1162" y1="18.5522" x2="34.6982" y2="18.5522">
		<stop  offset="0" style="stop-color:#5BBFBE"/>
		<stop  offset="0.0093" style="stop-color:#5BBFBE"/>
		<stop  offset="0.2809" style="stop-color:#5BBFBE"/>
		<stop  offset="0.6685" style="stop-color:#32B8C3"/>
		<stop  offset="0.8876" style="stop-color:#2AB1CC"/>
		<stop  offset="1" style="stop-color:#2AB1CC"/>
	</linearGradient>
	<path fill-rule="evenodd" clip-rule="evenodd" fill="url(#SVGID_4_)" d="M20.417,32.366c-4.947-0.25-9.206-2.605-11.743-7.564
		c-2.923-5.716-1.663-12.393,3.204-16.577c4.309-3.703,9.266-4.455,14.525-2.263c3.915,1.631,6.434,4.625,7.712,8.655
		c0.483,1.523,0.636,3.1,0.567,4.696c-0.024,0.569-0.383,0.949-0.876,0.95c-0.482,0.002-0.831-0.373-0.874-0.952
		c-0.078-1.05-0.017-2.132-0.252-3.146c-1.193-5.138-4.43-8.297-9.561-9.415c-4.76-1.039-10.07,1.414-12.502,5.645
		C7.8,17.298,8.459,22.964,12.392,27.037c1.895,1.961,4.252,3.094,6.964,3.45c3.273,0.431,6.223-0.403,8.85-2.363
		c0.642-0.48,1.185-1.097,1.767-1.655c0.178-0.173,0.324-0.375,0.498-0.549c0.381-0.383,0.883-0.425,1.243-0.121
		c0.37,0.315,0.447,0.834,0.071,1.236c-0.785,0.845-1.558,1.722-2.456,2.433C26.89,31.396,24.062,32.292,20.417,32.366z"/>
	<linearGradient id="SVGID_5_" gradientUnits="userSpaceOnUse" x1="10.8242" y1="19.1216" x2="31.2617" y2="19.1216">
		<stop  offset="0" style="stop-color:#5BBFBE"/>
		<stop  offset="0.0093" style="stop-color:#5BBFBE"/>
		<stop  offset="0.2809" style="stop-color:#5BBFBE"/>
		<stop  offset="0.6685" style="stop-color:#32B8C3"/>
		<stop  offset="0.8876" style="stop-color:#2AB1CC"/>
		<stop  offset="1" style="stop-color:#2AB1CC"/>
	</linearGradient>
	<path fill-rule="evenodd" clip-rule="evenodd" fill="url(#SVGID_5_)" d="M14.86,22.788c0.816-0.848,1.695-1.763,2.525-2.626
		c-0.354-0.819-0.833-1.656-1.086-2.556c-1.135-4.022,2.562-8.168,6.701-7.568c4.031,0.586,6.382,4.324,5.125,8.179
		c-0.094,0.289-0.014,0.409,0.203,0.558c0.79,0.539,1.576,1.083,2.35,1.649c0.205,0.148,0.414,0.352,0.512,0.575
		c0.148,0.341,0.063,0.701-0.242,0.939c-0.348,0.27-0.73,0.279-1.1,0.022c-0.719-0.498-1.435-1.003-2.152-1.502
		c-0.174-0.123-0.35-0.243-0.533-0.37c-0.412,0.365-0.783,0.766-1.221,1.072c-2.152,1.503-4.406,1.612-6.711,0.378
		c-0.309-0.165-0.475-0.15-0.708,0.101c-0.822,0.879-1.666,1.737-2.435,2.533c0.412,0.918,0.857,1.835,1.232,2.777
		c0.24,0.601,0.007,1.093-0.49,1.262c-0.502,0.171-0.957-0.089-1.154-0.713c-0.691-2.174-2.082-3.703-4.174-4.612
		c-0.566-0.246-0.768-0.622-0.644-1.075c0.151-0.558,0.683-0.825,1.257-0.538C13.024,21.728,13.897,22.251,14.86,22.788z
		 M22.222,20.615c2.399,0.078,4.465-1.871,4.502-4.37c0.036-2.422-1.814-4.39-4.283-4.488c-2.443-0.097-4.494,1.848-4.592,4.345
		C17.757,18.486,19.739,20.533,22.222,20.615z"/>
</g>
</svg>
