<?xml version="1.0" encoding="utf-8"?>
<!-- Generator: Adobe Illustrator 16.0.0, SVG Export Plug-In . SVG Version: 6.00 Build 0)  -->
<!DOCTYPE svg PUBLIC "-//W3C//DTD SVG 1.1//EN" "http://www.w3.org/Graphics/SVG/1.1/DTD/svg11.dtd">
<svg version="1.1" id="Capa_1" xmlns="http://www.w3.org/2000/svg" xmlns:xlink="http://www.w3.org/1999/xlink" x="0px" y="0px"
	 width="52.752px" height="52.751px" viewBox="0 0 52.752 52.751" enable-background="new 0 0 52.752 52.751" xml:space="preserve">
<g>
	<g>
		<g>
			<circle fill="#71898E" cx="26.376" cy="26.375" r="26.375"/>
		</g>
	</g>
	<g>
		<path fill="#FFFFFF" d="M28.44,13.928v-1.479c0.99-0.682,1.572-1.784,1.572-2.996c0-2.005-1.631-3.636-3.637-3.636
			s-3.638,1.631-3.638,3.636c0,1.212,0.585,2.314,1.574,2.996v1.479c-6.939,1.005-12.288,6.989-12.288,14.203
			c0,7.912,6.438,14.351,14.352,14.351c7.912,0,14.352-6.438,14.352-14.351C40.728,20.918,35.38,14.933,28.44,13.928L28.44,13.928z
			 M23.524,9.453c0-1.572,1.279-2.85,2.852-2.85c1.571,0,2.851,1.277,2.851,2.85c0,0.818-0.339,1.571-0.928,2.105
			c-0.3-0.771-1.048-1.318-1.923-1.318s-1.623,0.548-1.923,1.318C23.864,11.024,23.524,10.271,23.524,9.453L23.524,9.453z
			 M25.098,12.305c0-0.706,0.573-1.278,1.278-1.278c0.704,0,1.277,0.572,1.277,1.278v1.531c-0.421-0.036-0.848-0.058-1.277-0.058
			s-0.857,0.021-1.278,0.058V12.305z M26.376,41.695c-7.479,0-13.566-6.086-13.566-13.564c0-7.48,6.087-13.566,13.566-13.566
			c7.479,0,13.564,6.086,13.564,13.566C39.94,35.609,33.854,41.695,26.376,41.695L26.376,41.695z M26.376,41.695"/>
		<path fill="#FFFFFF" d="M26.376,17.018c-6.128,0-11.111,4.985-11.111,11.113c0,6.126,4.983,11.11,11.111,11.11
			c6.127,0,11.111-4.984,11.111-11.11C37.487,22.003,32.503,17.018,26.376,17.018L26.376,17.018z M26.769,38.446v-2.896
			c0-0.215-0.176-0.393-0.393-0.393s-0.393,0.178-0.393,0.393v2.896c-5.382-0.201-9.723-4.541-9.926-9.923h2.896
			c0.217,0,0.394-0.176,0.394-0.393c0-0.218-0.177-0.394-0.394-0.394h-2.896c0.203-5.381,4.544-9.721,9.926-9.924v2.895
			c0,0.219,0.176,0.394,0.393,0.394s0.393-0.175,0.393-0.394v-2.895c5.382,0.203,9.723,4.543,9.924,9.924h-2.895
			c-0.219,0-0.393,0.176-0.393,0.394c0,0.217,0.174,0.393,0.393,0.393h2.895C36.491,33.905,32.15,38.245,26.769,38.446
			L26.769,38.446z M26.769,38.446"/>
		<path fill="#FFFFFF" d="M30.278,20.804c0.105,0.06,0.212,0.118,0.313,0.179c0.063,0.038,0.132,0.054,0.2,0.054
			c0.135,0,0.267-0.067,0.339-0.192c0.11-0.188,0.049-0.428-0.138-0.538c-0.112-0.066-0.229-0.132-0.344-0.193
			c-0.192-0.103-0.431-0.03-0.532,0.161C30.015,20.466,30.087,20.703,30.278,20.804L30.278,20.804z M30.278,20.804"/>
		<path fill="#FFFFFF" d="M34.778,26.299c0.033,0,0.068-0.005,0.102-0.015c0.209-0.054,0.334-0.27,0.278-0.479
			c-0.388-1.471-1.149-2.832-2.204-3.938c-0.148-0.156-0.397-0.163-0.555-0.014c-0.158,0.149-0.163,0.398-0.014,0.556
			c0.963,1.011,1.658,2.255,2.013,3.596C34.444,26.182,34.604,26.299,34.778,26.299L34.778,26.299z M34.778,26.299"/>
		<path fill="#FFFFFF" d="M28.481,26.209c-0.037-0.082-0.104-0.147-0.185-0.186l-6.694-3.191c-0.15-0.071-0.329-0.04-0.447,0.078
			c-0.117,0.118-0.148,0.298-0.077,0.446l3.19,6.694c0.039,0.082,0.104,0.146,0.187,0.186l6.693,3.191
			c0.055,0.024,0.111,0.038,0.169,0.038h0.002c0.218-0.001,0.394-0.177,0.394-0.394c0-0.074-0.021-0.145-0.056-0.203L28.481,26.209z
			 M22.265,24.02l5.191,2.473l-2.717,2.719L22.265,24.02z M25.296,29.767l2.716-2.716l2.474,5.188L25.296,29.767z M25.296,29.767"/>
	</g>
</g>
</svg>
