<?xml version="1.0" encoding="utf-8"?>
<!-- Generator: Adobe Illustrator 16.0.0, SVG Export Plug-In . SVG Version: 6.00 Build 0)  -->
<!DOCTYPE svg PUBLIC "-//W3C//DTD SVG 1.1//EN" "http://www.w3.org/Graphics/SVG/1.1/DTD/svg11.dtd">
<svg version="1.1" id="Capa_1" xmlns="http://www.w3.org/2000/svg" xmlns:xlink="http://www.w3.org/1999/xlink" x="0px" y="0px"
	 width="52.752px" height="52.751px" viewBox="0 0 52.752 52.751" enable-background="new 0 0 52.752 52.751" xml:space="preserve">
<g>
	<g>
		<g>
			<circle fill="#71898E" cx="26.375" cy="26.375" r="26.375"/>
		</g>
	</g>
	<g>
		<path fill="#FFFFFF" d="M25.756,44.91c-4.416,0-8.01-3.593-8.01-8.01c0-2.985,1.621-5.676,4.25-7.071V12.005
			c0-2.072,1.688-3.759,3.76-3.759s3.76,1.687,3.76,3.759v17.824c2.627,1.396,4.25,4.086,4.25,7.071
			C33.766,41.317,30.172,44.91,25.756,44.91L25.756,44.91z M25.756,8.933c-1.695,0-3.072,1.379-3.072,3.072v18.033
			c0,0.13-0.076,0.248-0.191,0.308c-2.504,1.248-4.061,3.76-4.061,6.555c0,4.039,3.287,7.323,7.324,7.323s7.322-3.284,7.322-7.323
			c0-2.795-1.555-5.307-4.061-6.555c-0.115-0.06-0.189-0.178-0.189-0.308V12.005C28.828,10.312,27.449,8.933,25.756,8.933
			L25.756,8.933z M25.756,42.171c-2.906,0-5.27-2.364-5.27-5.271c0-2.361,1.543-4.403,3.787-5.056v-1.609h-0.83
			c-0.189,0-0.344-0.153-0.344-0.344c0-0.188,0.154-0.342,0.344-0.342h0.83v-2.06h-0.305c-0.189,0-0.342-0.153-0.342-0.343
			s0.152-0.343,0.342-0.343h0.305v-2.059h-0.83c-0.189,0-0.344-0.154-0.344-0.344c0-0.19,0.154-0.343,0.344-0.343h0.83V22h-0.305
			c-0.189,0-0.342-0.153-0.342-0.342c0-0.189,0.152-0.345,0.342-0.345h0.305v-2.058h-0.83c-0.189,0-0.344-0.154-0.344-0.344
			s0.154-0.345,0.344-0.345h0.83V16.51h-0.305c-0.189,0-0.342-0.152-0.342-0.343c0-0.189,0.152-0.344,0.342-0.344h0.305v-2.059
			h-0.83c-0.189,0-0.344-0.153-0.344-0.343c0-0.19,0.154-0.343,0.344-0.343h0.83v-1.094c0-0.818,0.666-1.482,1.482-1.482
			s1.48,0.664,1.48,1.482v19.859c2.244,0.652,3.789,2.694,3.789,5.056C31.025,39.807,28.66,42.171,25.756,42.171L25.756,42.171z
			 M24.961,26.065v6.043c0,0.158-0.109,0.299-0.266,0.334c-2.072,0.491-3.523,2.324-3.523,4.458c0,2.527,2.057,4.583,4.584,4.583
			s4.582-2.056,4.582-4.583c0-2.134-1.449-3.967-3.523-4.458c-0.154-0.035-0.264-0.176-0.264-0.334v-6.043H24.961z M24.961,25.378
			h1.59V11.985c0-0.44-0.357-0.796-0.795-0.796c-0.439,0-0.795,0.356-0.795,0.796V25.378z M25.756,40.671
			c-2.008,0-3.641-1.634-3.641-3.64c0-0.189,0.154-0.344,0.344-0.344s0.342,0.154,0.342,0.344c0,1.627,1.326,2.953,2.955,2.953
			c0.189,0,0.344,0.153,0.344,0.343C26.1,40.518,25.945,40.671,25.756,40.671L25.756,40.671z M25.756,40.671"/>
	</g>
</g>
</svg>
