<?xml version="1.0" encoding="utf-8"?>
<!-- Generator: Adobe Illustrator 16.0.0, SVG Export Plug-In . SVG Version: 6.00 Build 0)  -->
<!DOCTYPE svg PUBLIC "-//W3C//DTD SVG 1.1//EN" "http://www.w3.org/Graphics/SVG/1.1/DTD/svg11.dtd">
<svg version="1.1" id="Capa_1" xmlns="http://www.w3.org/2000/svg" xmlns:xlink="http://www.w3.org/1999/xlink" x="0px" y="0px"
	 width="460.976px" height="291.092px" viewBox="0 0 460.976 291.092" enable-background="new 0 0 460.976 291.092"
	 xml:space="preserve">
<g enable-background="new    ">
	<path fill="#676767" d="M98.541,64.127c0.048,0,0.096,0.009,0.144,0.026c0.048,0.019,0.094,0.05,0.138,0.094l0.804,0.846
		c-0.352,0.46-0.793,0.807-1.323,1.041c-0.53,0.233-1.157,0.351-1.881,0.351c-0.664,0-1.259-0.112-1.785-0.339
		c-0.526-0.226-0.972-0.538-1.338-0.936c-0.366-0.398-0.647-0.87-0.843-1.416c-0.196-0.546-0.294-1.14-0.294-1.779
		c0-0.652,0.106-1.251,0.318-1.797c0.212-0.546,0.51-1.018,0.894-1.413c0.384-0.396,0.844-0.704,1.38-0.924
		c0.536-0.22,1.126-0.33,1.77-0.33c0.328,0,0.637,0.029,0.927,0.087c0.29,0.058,0.561,0.138,0.813,0.24s0.484,0.225,0.696,0.369
		s0.4,0.3,0.564,0.468l-0.684,0.918c-0.044,0.056-0.096,0.106-0.156,0.153c-0.06,0.046-0.144,0.068-0.252,0.068
		c-0.072,0-0.14-0.016-0.204-0.048c-0.064-0.032-0.132-0.071-0.204-0.117c-0.072-0.046-0.151-0.096-0.237-0.149
		c-0.086-0.055-0.188-0.104-0.306-0.15c-0.118-0.046-0.256-0.085-0.414-0.117c-0.158-0.032-0.343-0.048-0.555-0.048
		c-0.336,0-0.643,0.062-0.921,0.187c-0.278,0.124-0.518,0.305-0.72,0.543c-0.202,0.237-0.358,0.529-0.468,0.876
		c-0.11,0.346-0.165,0.74-0.165,1.185c0,0.448,0.061,0.846,0.183,1.194s0.288,0.641,0.498,0.879c0.21,0.238,0.455,0.419,0.735,0.543
		c0.28,0.124,0.58,0.186,0.9,0.186c0.184,0,0.352-0.009,0.504-0.026c0.152-0.019,0.294-0.049,0.426-0.091
		c0.132-0.042,0.256-0.098,0.372-0.168c0.116-0.069,0.234-0.158,0.354-0.267c0.048-0.04,0.1-0.073,0.156-0.099
		C98.422,64.14,98.48,64.127,98.541,64.127z"/>
	<path fill="#676767" d="M100.161,61.03c0.376-0.332,0.793-0.578,1.251-0.74s0.949-0.243,1.473-0.243
		c0.376,0,0.715,0.061,1.017,0.183c0.302,0.122,0.558,0.292,0.768,0.51c0.21,0.219,0.371,0.478,0.483,0.777
		c0.112,0.299,0.168,0.628,0.168,0.984v3.888h-0.852c-0.176,0-0.309-0.024-0.399-0.072c-0.09-0.048-0.165-0.147-0.225-0.3
		l-0.132-0.342c-0.156,0.132-0.306,0.248-0.45,0.348c-0.144,0.101-0.293,0.186-0.447,0.255c-0.154,0.07-0.318,0.122-0.492,0.156
		c-0.174,0.034-0.367,0.051-0.579,0.051c-0.284,0-0.542-0.037-0.774-0.11c-0.232-0.074-0.429-0.184-0.591-0.327
		c-0.162-0.145-0.287-0.323-0.375-0.537c-0.088-0.214-0.132-0.461-0.132-0.741c0-0.224,0.056-0.451,0.168-0.681
		s0.306-0.44,0.582-0.63s0.648-0.35,1.116-0.478c0.468-0.128,1.058-0.2,1.77-0.216v-0.264c0-0.364-0.075-0.627-0.225-0.789
		c-0.15-0.162-0.363-0.243-0.639-0.243c-0.22,0-0.4,0.023-0.54,0.072c-0.14,0.048-0.265,0.102-0.375,0.162s-0.217,0.113-0.321,0.161
		c-0.104,0.049-0.228,0.072-0.372,0.072c-0.128,0-0.236-0.032-0.324-0.096s-0.16-0.14-0.216-0.229L100.161,61.03z M103.507,63.856
		c-0.372,0.017-0.678,0.048-0.918,0.097c-0.24,0.048-0.43,0.107-0.57,0.18c-0.14,0.073-0.237,0.154-0.291,0.246
		c-0.054,0.092-0.081,0.191-0.081,0.3c0,0.212,0.058,0.361,0.174,0.447c0.116,0.086,0.286,0.129,0.51,0.129
		c0.24,0,0.45-0.042,0.63-0.126c0.18-0.084,0.362-0.22,0.546-0.408V63.856z"/>
	<path fill="#676767" d="M108.253,60.935c0.244-0.26,0.521-0.473,0.831-0.639s0.679-0.249,1.107-0.249
		c0.324,0,0.624,0.072,0.9,0.216c0.276,0.144,0.514,0.352,0.714,0.624c0.2,0.272,0.357,0.605,0.471,0.999
		c0.114,0.395,0.171,0.841,0.171,1.341c0,0.468-0.065,0.9-0.195,1.296s-0.312,0.74-0.546,1.032s-0.514,0.52-0.84,0.684
		c-0.326,0.164-0.687,0.246-1.083,0.246c-0.324,0-0.596-0.046-0.816-0.138c-0.22-0.092-0.42-0.216-0.6-0.372v2.388h-1.86v-8.195
		h1.152c0.232,0,0.384,0.104,0.456,0.312L108.253,60.935z M108.369,64.696c0.14,0.152,0.292,0.261,0.456,0.324
		c0.164,0.064,0.336,0.096,0.516,0.096c0.172,0,0.33-0.033,0.474-0.102c0.144-0.069,0.269-0.177,0.375-0.327
		c0.106-0.149,0.189-0.345,0.249-0.585c0.06-0.24,0.09-0.532,0.09-0.876c0-0.328-0.024-0.604-0.072-0.828s-0.115-0.404-0.201-0.543
		c-0.086-0.138-0.189-0.236-0.309-0.297c-0.12-0.06-0.254-0.09-0.402-0.09c-0.272,0-0.496,0.05-0.672,0.15
		c-0.176,0.1-0.344,0.245-0.504,0.438V64.696z"/>
	<path fill="#676767" d="M115.501,58.463c0,0.147-0.03,0.287-0.09,0.417s-0.142,0.244-0.246,0.342
		c-0.104,0.098-0.225,0.176-0.363,0.234c-0.138,0.058-0.285,0.087-0.441,0.087c-0.152,0-0.294-0.029-0.426-0.087
		c-0.132-0.059-0.249-0.137-0.351-0.234c-0.102-0.097-0.182-0.212-0.24-0.342c-0.058-0.13-0.087-0.27-0.087-0.417
		c0-0.152,0.029-0.294,0.087-0.426c0.058-0.133,0.138-0.248,0.24-0.349c0.102-0.1,0.219-0.178,0.351-0.233
		c0.132-0.057,0.274-0.084,0.426-0.084c0.156,0,0.303,0.027,0.441,0.084c0.138,0.056,0.259,0.134,0.363,0.233
		c0.104,0.101,0.186,0.216,0.246,0.349C115.472,58.169,115.501,58.311,115.501,58.463z M115.311,60.167v6.222h-1.86v-6.222H115.311z
		"/>
	<path fill="#676767" d="M118.837,66.484c-0.296,0-0.557-0.043-0.783-0.129c-0.226-0.086-0.417-0.208-0.57-0.366
		c-0.154-0.157-0.271-0.349-0.351-0.572c-0.08-0.225-0.12-0.475-0.12-0.75V61.45h-0.528c-0.096,0-0.178-0.03-0.246-0.093
		c-0.068-0.062-0.102-0.152-0.102-0.272v-0.727l0.99-0.191l0.366-1.519c0.048-0.191,0.184-0.288,0.408-0.288h0.972v1.818h1.542
		v1.271h-1.542v3.091c0,0.144,0.035,0.263,0.105,0.356c0.07,0.095,0.171,0.142,0.303,0.142c0.068,0,0.125-0.008,0.171-0.021
		c0.046-0.014,0.086-0.03,0.12-0.048c0.034-0.018,0.066-0.034,0.096-0.048c0.03-0.015,0.065-0.021,0.105-0.021
		c0.056,0,0.101,0.014,0.135,0.039c0.034,0.026,0.069,0.067,0.105,0.123l0.564,0.882c-0.24,0.181-0.51,0.315-0.81,0.405
		C119.467,66.439,119.158,66.484,118.837,66.484z"/>
	<path fill="#676767" d="M121.083,61.03c0.376-0.332,0.793-0.578,1.251-0.74s0.949-0.243,1.473-0.243
		c0.376,0,0.715,0.061,1.017,0.183c0.302,0.122,0.558,0.292,0.768,0.51c0.21,0.219,0.371,0.478,0.483,0.777
		c0.112,0.299,0.168,0.628,0.168,0.984v3.888h-0.852c-0.176,0-0.309-0.024-0.399-0.072c-0.09-0.048-0.165-0.147-0.225-0.3
		l-0.132-0.342c-0.156,0.132-0.306,0.248-0.45,0.348c-0.144,0.101-0.293,0.186-0.447,0.255c-0.154,0.07-0.318,0.122-0.492,0.156
		c-0.174,0.034-0.367,0.051-0.579,0.051c-0.284,0-0.542-0.037-0.774-0.11c-0.232-0.074-0.429-0.184-0.591-0.327
		c-0.162-0.145-0.287-0.323-0.375-0.537c-0.088-0.214-0.132-0.461-0.132-0.741c0-0.224,0.056-0.451,0.168-0.681
		c0.112-0.23,0.306-0.44,0.582-0.63s0.648-0.35,1.116-0.478c0.468-0.128,1.058-0.2,1.77-0.216v-0.264
		c0-0.364-0.075-0.627-0.225-0.789s-0.363-0.243-0.639-0.243c-0.22,0-0.4,0.023-0.54,0.072c-0.14,0.048-0.265,0.102-0.375,0.162
		s-0.217,0.113-0.321,0.161c-0.104,0.049-0.228,0.072-0.372,0.072c-0.128,0-0.236-0.032-0.324-0.096
		c-0.088-0.064-0.16-0.14-0.216-0.229L121.083,61.03z M124.43,63.856c-0.372,0.017-0.678,0.048-0.918,0.097
		c-0.24,0.048-0.43,0.107-0.57,0.18c-0.14,0.073-0.237,0.154-0.291,0.246c-0.054,0.092-0.081,0.191-0.081,0.3
		c0,0.212,0.058,0.361,0.174,0.447c0.116,0.086,0.286,0.129,0.51,0.129c0.24,0,0.45-0.042,0.63-0.126
		c0.18-0.084,0.362-0.22,0.546-0.408V63.856z"/>
	<path fill="#676767" d="M129.29,57.406v8.982h-1.86v-8.982H129.29z"/>
	<path fill="#676767" d="M107.999,72.472v8.742h-2.04v-3.696h-3.552v3.696h-2.04v-8.742h2.04v3.654h3.552v-3.654H107.999z"/>
	<path fill="#676767" d="M114.935,74.993v6.222h-1.152c-0.232,0-0.384-0.104-0.456-0.312l-0.108-0.36
		c-0.12,0.116-0.244,0.221-0.372,0.314c-0.128,0.095-0.265,0.175-0.411,0.24c-0.146,0.066-0.304,0.118-0.474,0.156
		c-0.17,0.038-0.355,0.057-0.555,0.057c-0.34,0-0.641-0.059-0.903-0.177c-0.262-0.118-0.483-0.283-0.663-0.495
		c-0.18-0.212-0.316-0.462-0.408-0.75s-0.138-0.604-0.138-0.948v-3.947h1.86v3.947c0,0.309,0.07,0.547,0.21,0.715
		c0.14,0.168,0.346,0.252,0.618,0.252c0.204,0,0.395-0.043,0.573-0.129c0.178-0.087,0.351-0.203,0.519-0.352v-4.434L114.935,74.993
		L114.935,74.993z"/>
	<path fill="#676767" d="M116.195,81.215v-6.222h1.152c0.232,0,0.384,0.104,0.456,0.312l0.102,0.336
		c0.104-0.107,0.212-0.207,0.324-0.297c0.112-0.09,0.233-0.168,0.363-0.234c0.13-0.065,0.27-0.117,0.42-0.155
		s0.315-0.058,0.495-0.058c0.376,0,0.687,0.098,0.933,0.291c0.246,0.194,0.433,0.453,0.561,0.777
		c0.104-0.192,0.231-0.356,0.381-0.492c0.15-0.136,0.312-0.246,0.486-0.33c0.174-0.084,0.358-0.146,0.552-0.186
		c0.194-0.04,0.387-0.061,0.579-0.061c0.356,0,0.672,0.054,0.948,0.159c0.276,0.106,0.507,0.26,0.693,0.462
		c0.186,0.202,0.327,0.45,0.423,0.744c0.096,0.294,0.144,0.627,0.144,0.999v3.954h-1.86V77.26c0-0.644-0.276-0.966-0.828-0.966
		c-0.252,0-0.461,0.083-0.627,0.249s-0.249,0.405-0.249,0.717v3.954h-1.86V77.26c0-0.355-0.07-0.605-0.21-0.75
		c-0.14-0.144-0.346-0.216-0.618-0.216c-0.168,0-0.327,0.038-0.477,0.114s-0.291,0.178-0.423,0.306v4.5L116.195,81.215
		L116.195,81.215z"/>
	<path fill="#676767" d="M126.269,75.856c0.376-0.332,0.793-0.578,1.251-0.74s0.949-0.243,1.473-0.243
		c0.376,0,0.715,0.061,1.017,0.183c0.302,0.122,0.558,0.292,0.768,0.51c0.21,0.219,0.371,0.478,0.483,0.777
		c0.112,0.299,0.168,0.628,0.168,0.984v3.888h-0.852c-0.176,0-0.309-0.024-0.399-0.072c-0.09-0.048-0.165-0.147-0.225-0.3
		l-0.132-0.342c-0.156,0.132-0.306,0.248-0.45,0.348c-0.144,0.101-0.293,0.186-0.447,0.255c-0.154,0.07-0.318,0.122-0.492,0.156
		c-0.174,0.034-0.367,0.051-0.579,0.051c-0.284,0-0.542-0.037-0.774-0.11c-0.232-0.074-0.429-0.184-0.591-0.327
		c-0.162-0.145-0.287-0.323-0.375-0.537c-0.088-0.214-0.132-0.461-0.132-0.741c0-0.224,0.056-0.451,0.168-0.681
		c0.112-0.23,0.306-0.44,0.582-0.63s0.648-0.35,1.116-0.478c0.468-0.128,1.058-0.2,1.77-0.216v-0.264
		c0-0.364-0.075-0.627-0.225-0.789s-0.363-0.243-0.639-0.243c-0.22,0-0.4,0.023-0.54,0.072c-0.14,0.048-0.265,0.102-0.375,0.162
		c-0.11,0.06-0.217,0.113-0.321,0.161c-0.104,0.049-0.228,0.072-0.372,0.072c-0.128,0-0.236-0.032-0.324-0.096
		c-0.088-0.064-0.16-0.14-0.216-0.229L126.269,75.856z M129.617,78.682c-0.372,0.017-0.678,0.048-0.918,0.097
		c-0.24,0.048-0.43,0.107-0.57,0.18c-0.14,0.073-0.237,0.154-0.291,0.246c-0.054,0.092-0.081,0.191-0.081,0.3
		c0,0.212,0.058,0.361,0.174,0.447c0.116,0.086,0.286,0.129,0.51,0.129c0.24,0,0.45-0.042,0.63-0.126
		c0.18-0.084,0.362-0.22,0.546-0.408V78.682z"/>
	<path fill="#676767" d="M134.333,75.665c0.12-0.112,0.244-0.216,0.372-0.312c0.128-0.096,0.265-0.177,0.411-0.243
		c0.146-0.065,0.304-0.117,0.474-0.155c0.17-0.038,0.355-0.058,0.555-0.058c0.34,0,0.641,0.06,0.903,0.178
		c0.262,0.117,0.483,0.281,0.663,0.491c0.18,0.21,0.316,0.46,0.408,0.75c0.092,0.29,0.138,0.605,0.138,0.945v3.954h-1.86v-3.954
		c0-0.304-0.07-0.541-0.21-0.711s-0.346-0.255-0.618-0.255c-0.204,0-0.395,0.043-0.573,0.129c-0.178,0.086-0.351,0.203-0.519,0.351
		v4.44h-1.86v-6.222h1.152c0.232,0,0.384,0.104,0.456,0.312L134.333,75.665z"/>
	<path fill="#676767" d="M142.325,74.896c0.472,0,0.902,0.074,1.29,0.223c0.388,0.147,0.721,0.359,0.999,0.636
		c0.278,0.276,0.494,0.611,0.648,1.005c0.154,0.395,0.231,0.837,0.231,1.329c0,0.496-0.077,0.943-0.231,1.341
		c-0.154,0.398-0.37,0.736-0.648,1.014c-0.278,0.278-0.611,0.492-0.999,0.643c-0.388,0.15-0.818,0.225-1.29,0.225
		c-0.476,0-0.909-0.074-1.299-0.225c-0.39-0.15-0.726-0.364-1.008-0.643c-0.282-0.277-0.5-0.615-0.654-1.014
		c-0.154-0.397-0.231-0.845-0.231-1.341c0-0.492,0.077-0.935,0.231-1.329c0.154-0.394,0.372-0.729,0.654-1.005
		c0.282-0.276,0.618-0.488,1.008-0.636C141.415,74.971,141.849,74.896,142.325,74.896z M142.325,79.93
		c0.428,0,0.743-0.15,0.945-0.453c0.202-0.302,0.303-0.761,0.303-1.377c0-0.615-0.101-1.074-0.303-1.374
		c-0.202-0.3-0.517-0.45-0.945-0.45c-0.44,0-0.762,0.15-0.966,0.45c-0.204,0.3-0.306,0.759-0.306,1.374
		c0,0.616,0.102,1.075,0.306,1.377C141.562,79.78,141.885,79.93,142.325,79.93z"/>
</g>
<g enable-background="new    ">
	<path fill="#676767" d="M67.343,137.772c0.048,0,0.096,0.009,0.144,0.026c0.048,0.019,0.094,0.05,0.138,0.094l0.804,0.846
		c-0.352,0.46-0.793,0.807-1.323,1.041c-0.53,0.233-1.157,0.351-1.881,0.351c-0.664,0-1.259-0.112-1.785-0.339
		c-0.526-0.226-0.972-0.538-1.338-0.936c-0.366-0.398-0.647-0.87-0.843-1.416c-0.196-0.546-0.294-1.14-0.294-1.779
		c0-0.652,0.106-1.251,0.318-1.797s0.51-1.018,0.894-1.413c0.384-0.396,0.844-0.704,1.38-0.924c0.536-0.22,1.126-0.33,1.77-0.33
		c0.328,0,0.637,0.029,0.927,0.087s0.561,0.138,0.813,0.24c0.252,0.102,0.484,0.225,0.696,0.369s0.4,0.3,0.564,0.468l-0.684,0.918
		c-0.044,0.056-0.096,0.106-0.156,0.153c-0.06,0.046-0.144,0.068-0.252,0.068c-0.072,0-0.14-0.016-0.204-0.048
		s-0.132-0.071-0.204-0.117c-0.072-0.046-0.151-0.096-0.237-0.149c-0.086-0.055-0.188-0.104-0.306-0.15
		c-0.118-0.046-0.256-0.085-0.414-0.117c-0.158-0.032-0.343-0.048-0.555-0.048c-0.336,0-0.643,0.062-0.921,0.187
		c-0.278,0.124-0.518,0.305-0.72,0.543c-0.202,0.237-0.358,0.529-0.468,0.876c-0.11,0.346-0.165,0.74-0.165,1.185
		c0,0.448,0.061,0.846,0.183,1.194c0.122,0.348,0.288,0.641,0.498,0.879c0.21,0.238,0.455,0.419,0.735,0.543
		c0.28,0.124,0.58,0.186,0.9,0.186c0.184,0,0.352-0.009,0.504-0.026c0.152-0.019,0.294-0.049,0.426-0.091
		c0.132-0.042,0.256-0.098,0.372-0.168c0.116-0.069,0.234-0.158,0.354-0.267c0.048-0.04,0.1-0.073,0.156-0.099
		C67.226,137.785,67.284,137.772,67.343,137.772z"/>
	<path fill="#676767" d="M68.964,134.676c0.376-0.332,0.793-0.578,1.251-0.74c0.458-0.162,0.949-0.243,1.473-0.243
		c0.376,0,0.715,0.061,1.017,0.183c0.302,0.122,0.558,0.292,0.768,0.51c0.21,0.219,0.371,0.478,0.483,0.777
		c0.112,0.299,0.168,0.628,0.168,0.984v3.888h-0.852c-0.176,0-0.309-0.024-0.399-0.072c-0.09-0.048-0.165-0.146-0.225-0.3
		l-0.132-0.342c-0.156,0.132-0.306,0.248-0.45,0.348c-0.144,0.101-0.293,0.186-0.447,0.255c-0.154,0.07-0.318,0.122-0.492,0.156
		c-0.174,0.034-0.367,0.051-0.579,0.051c-0.284,0-0.542-0.037-0.774-0.11c-0.232-0.074-0.429-0.184-0.591-0.327
		c-0.162-0.145-0.287-0.323-0.375-0.537c-0.088-0.214-0.132-0.461-0.132-0.741c0-0.224,0.056-0.451,0.168-0.681
		c0.112-0.23,0.306-0.44,0.582-0.63s0.648-0.35,1.116-0.478c0.468-0.128,1.058-0.2,1.77-0.216v-0.264
		c0-0.364-0.075-0.627-0.225-0.789c-0.15-0.162-0.363-0.243-0.639-0.243c-0.22,0-0.4,0.023-0.54,0.072
		c-0.14,0.048-0.265,0.102-0.375,0.162s-0.217,0.113-0.321,0.161c-0.104,0.049-0.228,0.072-0.372,0.072
		c-0.128,0-0.236-0.032-0.324-0.096c-0.088-0.064-0.16-0.14-0.216-0.229L68.964,134.676z M72.311,137.502
		c-0.372,0.017-0.678,0.048-0.918,0.097c-0.24,0.048-0.43,0.107-0.57,0.18c-0.14,0.073-0.237,0.154-0.291,0.246
		c-0.054,0.092-0.081,0.191-0.081,0.3c0,0.212,0.058,0.361,0.174,0.447c0.116,0.086,0.286,0.129,0.51,0.129
		c0.24,0,0.45-0.042,0.63-0.126c0.18-0.084,0.362-0.22,0.546-0.408V137.502z"/>
	<path fill="#676767" d="M77.057,134.58c0.244-0.26,0.521-0.473,0.831-0.639s0.679-0.249,1.107-0.249c0.324,0,0.624,0.072,0.9,0.216
		c0.276,0.144,0.514,0.352,0.714,0.624c0.2,0.272,0.357,0.605,0.471,0.999c0.114,0.394,0.171,0.841,0.171,1.341
		c0,0.468-0.065,0.9-0.195,1.296c-0.13,0.396-0.312,0.74-0.546,1.032s-0.514,0.52-0.84,0.684c-0.326,0.164-0.687,0.246-1.083,0.246
		c-0.324,0-0.596-0.046-0.816-0.138c-0.22-0.092-0.42-0.216-0.6-0.372v2.388h-1.86v-8.195h1.152c0.232,0,0.384,0.104,0.456,0.312
		L77.057,134.58z M77.172,138.342c0.14,0.152,0.292,0.261,0.456,0.324c0.164,0.064,0.336,0.096,0.516,0.096
		c0.172,0,0.33-0.033,0.474-0.102s0.269-0.177,0.375-0.327c0.106-0.149,0.189-0.345,0.249-0.585c0.06-0.24,0.09-0.532,0.09-0.876
		c0-0.328-0.024-0.604-0.072-0.828c-0.048-0.224-0.115-0.404-0.201-0.543c-0.086-0.138-0.189-0.236-0.309-0.297
		c-0.12-0.06-0.254-0.09-0.402-0.09c-0.272,0-0.496,0.05-0.672,0.15s-0.344,0.245-0.504,0.438V138.342z"/>
	<path fill="#676767" d="M84.305,132.108c0,0.147-0.03,0.287-0.09,0.417c-0.06,0.13-0.142,0.244-0.246,0.342
		s-0.225,0.176-0.363,0.234c-0.138,0.058-0.285,0.087-0.441,0.087c-0.152,0-0.294-0.029-0.426-0.087
		c-0.132-0.059-0.249-0.137-0.351-0.234s-0.182-0.212-0.24-0.342c-0.058-0.13-0.087-0.27-0.087-0.417
		c0-0.152,0.029-0.294,0.087-0.426c0.058-0.133,0.138-0.248,0.24-0.349c0.102-0.1,0.219-0.178,0.351-0.233
		c0.132-0.057,0.274-0.084,0.426-0.084c0.156,0,0.303,0.027,0.441,0.084c0.138,0.056,0.259,0.134,0.363,0.233
		c0.104,0.101,0.186,0.216,0.246,0.349C84.275,131.814,84.305,131.956,84.305,132.108z M84.113,133.812v6.222h-1.86v-6.222H84.113z"
		/>
	<path fill="#676767" d="M87.641,140.13c-0.296,0-0.557-0.043-0.783-0.129s-0.417-0.208-0.57-0.366
		c-0.154-0.157-0.271-0.349-0.351-0.572c-0.08-0.225-0.12-0.475-0.12-0.75v-3.217h-0.528c-0.096,0-0.178-0.03-0.246-0.093
		c-0.068-0.062-0.102-0.152-0.102-0.272v-0.727l0.99-0.191l0.366-1.519c0.048-0.191,0.184-0.288,0.408-0.288h0.972v1.818h1.542
		v1.271h-1.542v3.091c0,0.144,0.035,0.263,0.105,0.356c0.07,0.095,0.171,0.142,0.303,0.142c0.068,0,0.125-0.008,0.171-0.021
		c0.046-0.014,0.086-0.03,0.12-0.048c0.034-0.018,0.066-0.034,0.096-0.048c0.03-0.015,0.065-0.021,0.105-0.021
		c0.056,0,0.101,0.014,0.135,0.039c0.034,0.026,0.069,0.067,0.105,0.123l0.564,0.882c-0.24,0.181-0.51,0.315-0.81,0.405
		S87.961,140.13,87.641,140.13z"/>
	<path fill="#676767" d="M89.885,134.676c0.376-0.332,0.793-0.578,1.251-0.74c0.458-0.162,0.949-0.243,1.473-0.243
		c0.376,0,0.715,0.061,1.017,0.183c0.302,0.122,0.558,0.292,0.768,0.51c0.21,0.219,0.371,0.478,0.483,0.777
		c0.112,0.299,0.168,0.628,0.168,0.984v3.888h-0.852c-0.176,0-0.309-0.024-0.399-0.072c-0.09-0.048-0.165-0.146-0.225-0.3
		l-0.132-0.342c-0.156,0.132-0.306,0.248-0.45,0.348c-0.144,0.101-0.293,0.186-0.447,0.255c-0.154,0.07-0.318,0.122-0.492,0.156
		s-0.367,0.051-0.579,0.051c-0.284,0-0.542-0.037-0.774-0.11c-0.232-0.074-0.429-0.184-0.591-0.327
		c-0.162-0.145-0.287-0.323-0.375-0.537c-0.088-0.214-0.132-0.461-0.132-0.741c0-0.224,0.056-0.451,0.168-0.681
		c0.112-0.23,0.306-0.44,0.582-0.63c0.276-0.19,0.648-0.35,1.116-0.478c0.468-0.128,1.058-0.2,1.77-0.216v-0.264
		c0-0.364-0.075-0.627-0.225-0.789c-0.15-0.162-0.363-0.243-0.639-0.243c-0.22,0-0.4,0.023-0.54,0.072
		c-0.14,0.048-0.265,0.102-0.375,0.162c-0.11,0.06-0.217,0.113-0.321,0.161c-0.104,0.049-0.228,0.072-0.372,0.072
		c-0.128,0-0.236-0.032-0.324-0.096c-0.088-0.064-0.16-0.14-0.216-0.229L89.885,134.676z M93.233,137.502
		c-0.372,0.017-0.678,0.048-0.918,0.097c-0.24,0.048-0.43,0.107-0.57,0.18c-0.14,0.073-0.237,0.154-0.291,0.246
		c-0.054,0.092-0.081,0.191-0.081,0.3c0,0.212,0.058,0.361,0.174,0.447c0.116,0.086,0.286,0.129,0.51,0.129
		c0.24,0,0.45-0.042,0.63-0.126c0.18-0.084,0.362-0.22,0.546-0.408V137.502z"/>
	<path fill="#676767" d="M98.093,131.052v8.982h-1.86v-8.982H98.093z"/>
	<path fill="#676767" d="M74.225,147.117c0.616,0,1.145,0.073,1.587,0.219c0.442,0.146,0.806,0.349,1.092,0.604
		c0.286,0.256,0.497,0.558,0.633,0.905c0.136,0.349,0.204,0.725,0.204,1.129c0,0.436-0.07,0.836-0.21,1.199
		c-0.14,0.363-0.354,0.677-0.642,0.937s-0.653,0.463-1.095,0.608c-0.442,0.146-0.965,0.22-1.569,0.22h-1.056v2.922h-2.028v-8.742
		L74.225,147.117L74.225,147.117z M74.225,151.407c0.528,0,0.908-0.126,1.14-0.378s0.348-0.604,0.348-1.056
		c0-0.2-0.03-0.382-0.09-0.546s-0.151-0.307-0.273-0.424s-0.276-0.209-0.462-0.272s-0.407-0.097-0.663-0.097h-1.056v2.771
		L74.225,151.407L74.225,151.407z"/>
	<path fill="#676767" d="M80.219,150.598c0.192-0.336,0.413-0.602,0.663-0.793s0.537-0.287,0.861-0.287
		c0.28,0,0.508,0.064,0.684,0.197l-0.12,1.367c-0.02,0.09-0.053,0.148-0.099,0.182s-0.109,0.048-0.189,0.048
		c-0.032,0-0.074-0.002-0.126-0.007c-0.052-0.004-0.106-0.01-0.162-0.016c-0.056-0.006-0.113-0.012-0.171-0.018
		s-0.111-0.01-0.159-0.01c-0.272,0-0.489,0.072-0.651,0.217s-0.299,0.344-0.411,0.6v3.78h-1.86v-6.222h1.104
		c0.092,0,0.169,0.008,0.231,0.022c0.062,0.017,0.114,0.041,0.156,0.075s0.074,0.079,0.096,0.135
		c0.022,0.057,0.041,0.124,0.057,0.204L80.219,150.598z"/>
	<path fill="#676767" d="M85.817,149.541c0.472,0,0.902,0.074,1.29,0.224c0.388,0.146,0.721,0.358,0.999,0.636
		c0.278,0.275,0.494,0.611,0.648,1.005c0.154,0.396,0.231,0.837,0.231,1.329c0,0.496-0.077,0.943-0.231,1.341
		c-0.154,0.398-0.37,0.736-0.648,1.015c-0.278,0.277-0.611,0.492-0.999,0.643c-0.388,0.15-0.818,0.225-1.29,0.225
		c-0.476,0-0.909-0.074-1.299-0.225s-0.726-0.364-1.008-0.643c-0.282-0.277-0.5-0.615-0.654-1.015
		c-0.154-0.397-0.231-0.845-0.231-1.341c0-0.492,0.077-0.936,0.231-1.329c0.154-0.394,0.372-0.729,0.654-1.005
		c0.282-0.275,0.618-0.488,1.008-0.636C84.908,149.615,85.341,149.541,85.817,149.541z M85.817,154.575
		c0.428,0,0.743-0.149,0.945-0.452c0.202-0.303,0.303-0.762,0.303-1.378c0-0.614-0.101-1.073-0.303-1.374
		c-0.202-0.3-0.517-0.449-0.945-0.449c-0.44,0-0.762,0.149-0.966,0.449c-0.204,0.301-0.306,0.76-0.306,1.374
		c0,0.616,0.102,1.075,0.306,1.378C85.055,154.424,85.377,154.575,85.817,154.575z"/>
	<path fill="#676767" d="M94.493,151.113c-0.056,0.068-0.11,0.122-0.162,0.162c-0.052,0.04-0.126,0.061-0.222,0.061
		c-0.092,0-0.175-0.021-0.249-0.065c-0.074-0.044-0.157-0.093-0.249-0.147c-0.092-0.054-0.2-0.103-0.324-0.146
		s-0.278-0.066-0.462-0.066c-0.228,0-0.425,0.042-0.591,0.126s-0.303,0.204-0.411,0.36c-0.108,0.155-0.188,0.347-0.24,0.573
		c-0.052,0.226-0.078,0.479-0.078,0.765c0,0.597,0.115,1.054,0.345,1.374s0.547,0.479,0.951,0.479c0.216,0,0.387-0.025,0.513-0.08
		s0.233-0.113,0.321-0.181c0.088-0.065,0.168-0.127,0.243-0.183c0.075-0.057,0.167-0.084,0.279-0.084
		c0.148,0,0.26,0.054,0.336,0.162l0.54,0.666c-0.192,0.22-0.394,0.397-0.606,0.537c-0.212,0.138-0.429,0.244-0.651,0.322
		c-0.222,0.078-0.445,0.133-0.669,0.162c-0.224,0.03-0.442,0.045-0.654,0.045c-0.38,0-0.743-0.07-1.089-0.216
		c-0.346-0.144-0.65-0.353-0.912-0.627c-0.262-0.272-0.47-0.61-0.624-1.011s-0.231-0.856-0.231-1.368
		c0-0.448,0.067-0.867,0.201-1.257c0.134-0.391,0.332-0.729,0.594-1.016c0.262-0.285,0.586-0.511,0.972-0.675
		c0.386-0.163,0.833-0.245,1.341-0.245c0.488,0,0.916,0.077,1.284,0.233c0.368,0.155,0.7,0.384,0.996,0.685L94.493,151.113z"/>
	<path fill="#676767" d="M97.181,153.082c0.06,0.521,0.218,0.896,0.474,1.131c0.256,0.233,0.586,0.352,0.99,0.352
		c0.216,0,0.402-0.026,0.558-0.078c0.156-0.052,0.295-0.109,0.417-0.174s0.234-0.122,0.336-0.174
		c0.102-0.053,0.209-0.078,0.321-0.078c0.148,0,0.26,0.054,0.336,0.162l0.54,0.666c-0.192,0.22-0.399,0.397-0.621,0.537
		c-0.222,0.138-0.45,0.244-0.684,0.322s-0.468,0.133-0.702,0.162c-0.234,0.03-0.457,0.045-0.669,0.045
		c-0.436,0-0.845-0.07-1.227-0.213c-0.382-0.142-0.716-0.353-1.002-0.633s-0.512-0.628-0.678-1.044
		c-0.166-0.416-0.249-0.899-0.249-1.452c0-0.416,0.071-0.811,0.213-1.182c0.142-0.372,0.346-0.698,0.612-0.979
		c0.266-0.278,0.588-0.502,0.966-0.666c0.378-0.163,0.805-0.245,1.281-0.245c0.412,0,0.789,0.063,1.131,0.191
		c0.342,0.128,0.636,0.314,0.882,0.559c0.246,0.243,0.438,0.543,0.576,0.896c0.138,0.354,0.207,0.755,0.207,1.203
		c0,0.14-0.006,0.254-0.018,0.342c-0.012,0.088-0.034,0.158-0.066,0.21c-0.032,0.052-0.075,0.088-0.129,0.108
		c-0.054,0.02-0.123,0.028-0.207,0.028h-3.588V153.082z M99.521,152.002c0-0.147-0.019-0.293-0.057-0.433
		c-0.038-0.14-0.1-0.265-0.186-0.375c-0.086-0.11-0.199-0.199-0.339-0.267c-0.14-0.068-0.31-0.104-0.51-0.104
		c-0.352,0-0.628,0.102-0.828,0.303c-0.2,0.202-0.332,0.493-0.396,0.873h2.316V152.002z"/>
	<path fill="#676767" d="M106.073,151c-0.048,0.075-0.099,0.131-0.153,0.161c-0.054,0.032-0.123,0.048-0.207,0.048
		c-0.088,0-0.176-0.019-0.264-0.057s-0.183-0.079-0.285-0.123s-0.217-0.085-0.345-0.123c-0.128-0.038-0.274-0.057-0.438-0.057
		c-0.236,0-0.417,0.045-0.543,0.135s-0.189,0.215-0.189,0.375c0,0.116,0.041,0.212,0.123,0.288c0.082,0.075,0.191,0.144,0.327,0.2
		c0.136,0.059,0.29,0.113,0.462,0.166c0.172,0.052,0.348,0.108,0.528,0.174c0.18,0.062,0.356,0.139,0.528,0.225
		s0.326,0.192,0.462,0.318c0.136,0.126,0.245,0.279,0.327,0.459s0.123,0.396,0.123,0.646c0,0.31-0.056,0.594-0.168,0.854
		c-0.112,0.26-0.279,0.484-0.501,0.672c-0.222,0.188-0.496,0.334-0.822,0.438c-0.326,0.104-0.701,0.155-1.125,0.155
		c-0.212,0-0.424-0.02-0.636-0.06c-0.212-0.04-0.417-0.094-0.615-0.162c-0.198-0.068-0.381-0.148-0.549-0.243
		c-0.168-0.094-0.312-0.194-0.432-0.303l0.432-0.685c0.048-0.08,0.109-0.144,0.183-0.188c0.074-0.046,0.169-0.069,0.285-0.069
		c0.108,0,0.205,0.024,0.291,0.072s0.179,0.1,0.279,0.156c0.1,0.056,0.217,0.106,0.351,0.154c0.134,0.049,0.303,0.072,0.507,0.072
		c0.144,0,0.266-0.015,0.366-0.045c0.1-0.029,0.18-0.07,0.24-0.123c0.06-0.052,0.104-0.109,0.132-0.174
		c0.028-0.062,0.042-0.13,0.042-0.198c0-0.124-0.042-0.226-0.126-0.306s-0.194-0.149-0.33-0.207
		c-0.136-0.059-0.291-0.112-0.465-0.162c-0.174-0.05-0.351-0.105-0.531-0.171c-0.18-0.063-0.357-0.142-0.531-0.231
		s-0.329-0.203-0.465-0.342c-0.136-0.138-0.246-0.307-0.33-0.507s-0.126-0.442-0.126-0.726c0-0.266,0.051-0.517,0.153-0.754
		s0.255-0.446,0.459-0.627s0.46-0.322,0.768-0.43c0.308-0.105,0.668-0.159,1.08-0.159c0.224,0,0.441,0.021,0.651,0.062
		c0.21,0.039,0.407,0.096,0.591,0.168c0.184,0.072,0.352,0.156,0.504,0.255c0.152,0.098,0.286,0.205,0.402,0.321L106.073,151z"/>
	<path fill="#676767" d="M110.332,149.541c0.472,0,0.902,0.074,1.29,0.224c0.388,0.146,0.721,0.358,0.999,0.636
		c0.278,0.275,0.494,0.611,0.648,1.005c0.154,0.396,0.231,0.837,0.231,1.329c0,0.496-0.077,0.943-0.231,1.341
		c-0.154,0.398-0.37,0.736-0.648,1.015c-0.278,0.277-0.611,0.492-0.999,0.643s-0.818,0.225-1.29,0.225
		c-0.476,0-0.909-0.074-1.299-0.225s-0.726-0.364-1.008-0.643c-0.282-0.277-0.5-0.615-0.654-1.015
		c-0.154-0.397-0.231-0.845-0.231-1.341c0-0.492,0.077-0.936,0.231-1.329s0.372-0.729,0.654-1.005
		c0.282-0.275,0.618-0.488,1.008-0.636C109.423,149.615,109.856,149.541,110.332,149.541z M110.332,154.575
		c0.428,0,0.743-0.149,0.945-0.452c0.202-0.303,0.303-0.762,0.303-1.378c0-0.614-0.101-1.073-0.303-1.374
		c-0.202-0.3-0.517-0.449-0.945-0.449c-0.44,0-0.762,0.149-0.966,0.449c-0.204,0.301-0.306,0.76-0.306,1.374
		c0,0.616,0.102,1.075,0.306,1.378C109.57,154.424,109.892,154.575,110.332,154.575z"/>
</g>
<g enable-background="new    ">
	<path fill="#676767" d="M343.578,136.308c0.047,0,0.096,0.009,0.143,0.026c0.051,0.019,0.096,0.05,0.141,0.094l0.805,0.846
		c-0.354,0.46-0.795,0.807-1.324,1.041c-0.529,0.233-1.156,0.351-1.881,0.351c-0.664,0-1.26-0.112-1.785-0.339
		c-0.525-0.226-0.973-0.538-1.338-0.936s-0.646-0.87-0.844-1.416c-0.197-0.546-0.293-1.14-0.293-1.779
		c0-0.652,0.104-1.251,0.316-1.797s0.512-1.018,0.895-1.413c0.385-0.396,0.846-0.704,1.381-0.924s1.127-0.33,1.771-0.33
		c0.326,0,0.637,0.029,0.926,0.087c0.291,0.058,0.561,0.138,0.812,0.24s0.484,0.225,0.697,0.369c0.211,0.145,0.398,0.3,0.562,0.468
		l-0.686,0.918c-0.043,0.056-0.096,0.106-0.156,0.153c-0.059,0.046-0.143,0.068-0.252,0.068c-0.07,0-0.139-0.016-0.203-0.048
		c-0.062-0.032-0.133-0.071-0.203-0.117c-0.072-0.046-0.15-0.096-0.236-0.149c-0.086-0.055-0.189-0.104-0.307-0.15
		c-0.117-0.046-0.258-0.085-0.414-0.117c-0.158-0.032-0.344-0.048-0.557-0.048c-0.336,0-0.643,0.062-0.92,0.187
		c-0.279,0.124-0.518,0.305-0.721,0.543c-0.201,0.237-0.357,0.529-0.467,0.876c-0.111,0.346-0.166,0.74-0.166,1.185
		c0,0.448,0.061,0.846,0.184,1.194c0.121,0.348,0.287,0.641,0.498,0.879c0.209,0.238,0.455,0.419,0.734,0.543s0.58,0.186,0.9,0.186
		c0.184,0,0.352-0.009,0.504-0.026c0.152-0.019,0.293-0.049,0.426-0.091s0.256-0.098,0.371-0.168
		c0.117-0.069,0.234-0.158,0.355-0.267c0.047-0.04,0.1-0.073,0.154-0.099C343.458,136.32,343.517,136.308,343.578,136.308z"/>
	<path fill="#676767" d="M345.197,133.211c0.377-0.332,0.793-0.578,1.252-0.74c0.457-0.162,0.947-0.243,1.473-0.243
		c0.375,0,0.715,0.061,1.018,0.183s0.559,0.292,0.768,0.51c0.211,0.219,0.371,0.478,0.484,0.777c0.109,0.3,0.168,0.628,0.168,0.984
		v3.888h-0.854c-0.176,0-0.309-0.024-0.398-0.072c-0.092-0.048-0.164-0.147-0.227-0.3l-0.131-0.342
		c-0.156,0.132-0.307,0.248-0.451,0.348c-0.143,0.101-0.293,0.186-0.447,0.255c-0.152,0.07-0.316,0.122-0.49,0.156
		c-0.176,0.034-0.367,0.051-0.578,0.051c-0.285,0-0.543-0.037-0.775-0.11c-0.23-0.074-0.428-0.184-0.59-0.327
		c-0.162-0.145-0.287-0.323-0.375-0.537c-0.088-0.214-0.133-0.461-0.133-0.741c0-0.224,0.057-0.451,0.168-0.681
		c0.113-0.23,0.307-0.44,0.582-0.63c0.277-0.19,0.646-0.35,1.117-0.478c0.467-0.128,1.057-0.2,1.77-0.216v-0.264
		c0-0.364-0.074-0.627-0.225-0.789c-0.152-0.162-0.363-0.243-0.641-0.243c-0.221,0-0.398,0.023-0.541,0.072
		c-0.139,0.048-0.264,0.102-0.375,0.162c-0.107,0.06-0.217,0.113-0.318,0.161c-0.105,0.049-0.23,0.072-0.373,0.072
		c-0.127,0-0.236-0.032-0.324-0.096s-0.16-0.14-0.215-0.229L345.197,133.211z M348.544,136.037
		c-0.373,0.017-0.678,0.048-0.918,0.097c-0.24,0.048-0.43,0.107-0.57,0.18c-0.141,0.072-0.236,0.154-0.291,0.246
		c-0.055,0.092-0.08,0.191-0.08,0.3c0,0.212,0.059,0.361,0.174,0.447s0.285,0.129,0.51,0.129c0.24,0,0.449-0.042,0.631-0.126
		c0.18-0.084,0.361-0.22,0.545-0.408V136.037L348.544,136.037z"/>
	<path fill="#676767" d="M353.291,133.115c0.244-0.26,0.521-0.473,0.832-0.639c0.309-0.166,0.678-0.249,1.105-0.249
		c0.324,0,0.625,0.072,0.9,0.216s0.514,0.352,0.715,0.624c0.199,0.272,0.355,0.605,0.471,0.999c0.113,0.394,0.17,0.841,0.17,1.341
		c0,0.468-0.064,0.9-0.193,1.296c-0.131,0.396-0.312,0.74-0.547,1.032s-0.514,0.52-0.84,0.684s-0.688,0.246-1.084,0.246
		c-0.322,0-0.596-0.046-0.814-0.138c-0.219-0.092-0.42-0.216-0.6-0.372v2.388h-1.861v-8.195h1.152c0.232,0,0.385,0.104,0.455,0.312
		L353.291,133.115z M353.406,136.877c0.139,0.152,0.291,0.261,0.455,0.324c0.164,0.064,0.336,0.096,0.516,0.096
		c0.172,0,0.33-0.033,0.475-0.102c0.145-0.068,0.27-0.177,0.375-0.327c0.105-0.149,0.189-0.345,0.248-0.585
		c0.062-0.24,0.092-0.532,0.092-0.876c0-0.328-0.023-0.604-0.072-0.828c-0.047-0.224-0.115-0.404-0.201-0.543
		c-0.086-0.138-0.188-0.236-0.309-0.297c-0.119-0.061-0.256-0.09-0.402-0.09c-0.271,0-0.496,0.05-0.672,0.15
		c-0.176,0.1-0.344,0.245-0.504,0.438V136.877L353.406,136.877z"/>
	<path fill="#676767" d="M360.539,130.644c0,0.147-0.029,0.287-0.09,0.417s-0.143,0.244-0.246,0.342
		c-0.104,0.098-0.225,0.176-0.363,0.234c-0.137,0.058-0.285,0.087-0.439,0.087c-0.152,0-0.293-0.029-0.428-0.087
		c-0.131-0.059-0.248-0.137-0.35-0.234c-0.104-0.097-0.184-0.212-0.24-0.342s-0.088-0.27-0.088-0.417
		c0-0.152,0.029-0.294,0.088-0.426c0.059-0.133,0.137-0.248,0.24-0.349c0.102-0.1,0.219-0.178,0.35-0.233
		c0.135-0.057,0.275-0.084,0.428-0.084c0.154,0,0.303,0.027,0.439,0.084c0.141,0.056,0.26,0.134,0.363,0.233
		c0.104,0.101,0.186,0.216,0.246,0.349C360.507,130.35,360.539,130.491,360.539,130.644z M360.347,132.348v6.222h-1.861v-6.222
		H360.347z"/>
	<path fill="#676767" d="M363.875,138.665c-0.295,0-0.557-0.043-0.783-0.129c-0.225-0.086-0.416-0.208-0.568-0.366
		c-0.154-0.157-0.271-0.349-0.352-0.572c-0.08-0.225-0.121-0.475-0.121-0.75v-3.217h-0.525c-0.098,0-0.18-0.03-0.246-0.093
		c-0.068-0.062-0.104-0.152-0.104-0.272v-0.727l0.99-0.191l0.365-1.519c0.049-0.191,0.184-0.288,0.408-0.288h0.973v1.818h1.541
		v1.271h-1.541v3.091c0,0.144,0.033,0.263,0.104,0.356c0.07,0.095,0.172,0.142,0.303,0.142c0.068,0,0.125-0.008,0.172-0.021
		c0.047-0.014,0.086-0.03,0.119-0.048c0.035-0.018,0.066-0.034,0.098-0.048c0.029-0.015,0.064-0.021,0.104-0.021
		c0.057,0,0.102,0.014,0.135,0.039c0.035,0.026,0.07,0.067,0.105,0.123l0.564,0.882c-0.24,0.181-0.512,0.315-0.812,0.405
		C364.503,138.62,364.195,138.665,363.875,138.665z"/>
	<path fill="#676767" d="M366.119,133.211c0.377-0.332,0.793-0.578,1.252-0.74c0.457-0.162,0.947-0.243,1.473-0.243
		c0.375,0,0.715,0.061,1.018,0.183s0.559,0.292,0.768,0.51c0.211,0.219,0.371,0.478,0.484,0.777c0.109,0.3,0.168,0.628,0.168,0.984
		v3.888h-0.854c-0.176,0-0.309-0.024-0.398-0.072s-0.164-0.147-0.227-0.3l-0.131-0.342c-0.156,0.132-0.307,0.248-0.451,0.348
		c-0.143,0.101-0.293,0.186-0.445,0.255c-0.154,0.07-0.318,0.122-0.492,0.156c-0.174,0.034-0.367,0.051-0.578,0.051
		c-0.285,0-0.543-0.037-0.775-0.11c-0.23-0.074-0.428-0.184-0.59-0.327c-0.162-0.145-0.287-0.323-0.375-0.537
		c-0.088-0.214-0.133-0.461-0.133-0.741c0-0.224,0.057-0.451,0.168-0.681c0.113-0.23,0.307-0.44,0.582-0.63
		c0.277-0.19,0.648-0.35,1.117-0.478c0.467-0.128,1.057-0.2,1.77-0.216v-0.264c0-0.364-0.074-0.627-0.225-0.789
		c-0.152-0.162-0.363-0.243-0.639-0.243c-0.223,0-0.4,0.023-0.541,0.072c-0.141,0.048-0.266,0.102-0.375,0.162
		c-0.109,0.06-0.219,0.113-0.32,0.161c-0.105,0.049-0.23,0.072-0.373,0.072c-0.127,0-0.236-0.032-0.324-0.096
		s-0.16-0.14-0.215-0.229L366.119,133.211z M369.466,136.037c-0.373,0.017-0.678,0.048-0.918,0.097
		c-0.24,0.048-0.43,0.107-0.57,0.18c-0.141,0.072-0.236,0.154-0.291,0.246c-0.055,0.092-0.08,0.191-0.08,0.3
		c0,0.212,0.059,0.361,0.174,0.447s0.285,0.129,0.51,0.129c0.24,0,0.449-0.042,0.631-0.126s0.361-0.22,0.545-0.408V136.037
		L369.466,136.037z"/>
	<path fill="#676767" d="M374.326,129.587v8.982h-1.859v-8.982H374.326z"/>
	<path fill="#676767" d="M352.55,147.349h-2.459v7.135h-2.027v-7.135h-2.461v-1.607h6.947V147.349L352.55,147.349z"/>
	<path fill="#676767" d="M353.468,151.704c0.061,0.521,0.219,0.896,0.475,1.131s0.586,0.352,0.99,0.352
		c0.215,0,0.402-0.025,0.559-0.078c0.154-0.051,0.295-0.109,0.416-0.174c0.123-0.063,0.234-0.121,0.336-0.174
		c0.104-0.053,0.209-0.078,0.32-0.078c0.148,0,0.262,0.055,0.336,0.162l0.541,0.666c-0.191,0.221-0.398,0.398-0.621,0.537
		s-0.449,0.245-0.684,0.323s-0.469,0.133-0.703,0.162c-0.232,0.03-0.457,0.045-0.668,0.045c-0.438,0-0.846-0.07-1.229-0.213
		c-0.381-0.142-0.715-0.353-1.002-0.634c-0.285-0.279-0.512-0.627-0.678-1.043s-0.248-0.9-0.248-1.452
		c0-0.416,0.07-0.81,0.213-1.183c0.143-0.371,0.346-0.697,0.611-0.979c0.266-0.279,0.588-0.502,0.967-0.666
		c0.377-0.164,0.805-0.246,1.281-0.246c0.412,0,0.789,0.064,1.131,0.191c0.342,0.129,0.635,0.314,0.881,0.559
		s0.439,0.543,0.576,0.896c0.139,0.354,0.207,0.756,0.207,1.203c0,0.141-0.006,0.254-0.018,0.342
		c-0.014,0.089-0.033,0.158-0.066,0.211c-0.031,0.052-0.074,0.088-0.129,0.107c-0.055,0.021-0.123,0.029-0.207,0.029h-3.588V151.704
		z M355.808,150.624c0-0.146-0.02-0.292-0.057-0.432c-0.037-0.141-0.1-0.266-0.186-0.375c-0.086-0.11-0.199-0.199-0.34-0.268
		s-0.311-0.103-0.51-0.103c-0.354,0-0.629,0.102-0.828,0.303c-0.199,0.202-0.332,0.493-0.396,0.873L355.808,150.624L355.808,150.624
		z"/>
	<path fill="#676767" d="M362.978,149.736c-0.057,0.067-0.109,0.122-0.162,0.161c-0.053,0.041-0.125,0.061-0.223,0.061
		c-0.092,0-0.174-0.021-0.248-0.064c-0.074-0.045-0.156-0.094-0.25-0.147c-0.092-0.054-0.199-0.103-0.322-0.146
		c-0.125-0.045-0.279-0.066-0.463-0.066c-0.229,0-0.426,0.042-0.592,0.126s-0.303,0.204-0.41,0.36s-0.189,0.347-0.24,0.572
		c-0.053,0.227-0.078,0.48-0.078,0.766c0,0.596,0.115,1.054,0.346,1.373c0.23,0.32,0.547,0.479,0.951,0.479
		c0.217,0,0.387-0.026,0.514-0.08c0.125-0.055,0.232-0.114,0.32-0.181c0.088-0.064,0.168-0.127,0.242-0.184
		c0.074-0.056,0.168-0.084,0.279-0.084c0.148,0,0.26,0.055,0.336,0.162l0.541,0.666c-0.193,0.221-0.395,0.398-0.607,0.537
		c-0.211,0.139-0.428,0.245-0.65,0.323c-0.221,0.078-0.445,0.133-0.668,0.162c-0.225,0.03-0.443,0.045-0.654,0.045
		c-0.381,0-0.744-0.071-1.09-0.216s-0.65-0.354-0.912-0.627s-0.469-0.611-0.623-1.012c-0.154-0.399-0.23-0.855-0.23-1.367
		c0-0.448,0.066-0.867,0.199-1.258c0.137-0.391,0.332-0.729,0.596-1.015c0.262-0.285,0.586-0.511,0.973-0.675
		s0.832-0.246,1.342-0.246c0.486,0,0.916,0.078,1.283,0.234s0.699,0.384,0.996,0.684L362.978,149.736z"/>
	<path fill="#676767" d="M365.96,148.933c0.119-0.111,0.244-0.215,0.371-0.312c0.129-0.097,0.266-0.177,0.412-0.243
		c0.146-0.064,0.305-0.117,0.475-0.154c0.17-0.039,0.354-0.059,0.555-0.059c0.34,0,0.641,0.061,0.902,0.178s0.482,0.281,0.664,0.491
		c0.18,0.21,0.314,0.46,0.406,0.75c0.094,0.29,0.139,0.604,0.139,0.945v3.954h-1.859v-3.954c0-0.304-0.07-0.541-0.211-0.711
		c-0.139-0.171-0.346-0.255-0.617-0.255c-0.205,0-0.395,0.043-0.572,0.129c-0.18,0.086-0.352,0.203-0.52,0.351v4.44h-1.861v-6.223
		h1.152c0.232,0,0.385,0.104,0.457,0.312L365.96,148.933z"/>
	<path fill="#676767" d="M373.953,148.164c0.471,0,0.9,0.074,1.289,0.224c0.389,0.146,0.721,0.358,1,0.635
		c0.277,0.276,0.492,0.611,0.646,1.006s0.23,0.837,0.23,1.328c0,0.496-0.076,0.943-0.23,1.342s-0.369,0.736-0.646,1.014
		c-0.279,0.278-0.611,0.492-1,0.643s-0.818,0.226-1.289,0.226c-0.477,0-0.91-0.074-1.299-0.226c-0.391-0.149-0.727-0.363-1.01-0.643
		c-0.281-0.277-0.5-0.615-0.652-1.014c-0.154-0.396-0.23-0.846-0.23-1.342c0-0.491,0.076-0.935,0.23-1.328
		c0.152-0.395,0.371-0.729,0.652-1.006c0.283-0.275,0.619-0.487,1.01-0.635C373.042,148.238,373.476,148.164,373.953,148.164z
		 M373.953,153.198c0.428,0,0.742-0.15,0.943-0.453c0.203-0.302,0.305-0.762,0.305-1.377s-0.102-1.074-0.305-1.374
		c-0.201-0.3-0.516-0.45-0.943-0.45c-0.439,0-0.764,0.15-0.967,0.45s-0.307,0.759-0.307,1.374s0.104,1.075,0.307,1.377
		C373.189,153.048,373.513,153.198,373.953,153.198z"/>
	<path fill="#676767" d="M379.917,145.5v8.981h-1.861V145.5H379.917z"/>
	<path fill="#676767" d="M384.044,148.164c0.471,0,0.9,0.074,1.289,0.224c0.389,0.146,0.721,0.358,1,0.635
		c0.277,0.276,0.492,0.611,0.646,1.006s0.232,0.837,0.232,1.328c0,0.496-0.078,0.943-0.232,1.342s-0.369,0.736-0.646,1.014
		c-0.279,0.278-0.611,0.492-1,0.643s-0.818,0.226-1.289,0.226c-0.477,0-0.91-0.074-1.299-0.226c-0.391-0.149-0.727-0.363-1.01-0.643
		c-0.281-0.277-0.5-0.615-0.652-1.014c-0.154-0.396-0.23-0.846-0.23-1.342c0-0.491,0.076-0.935,0.23-1.328
		c0.152-0.395,0.371-0.729,0.652-1.006c0.283-0.275,0.619-0.487,1.01-0.635C383.134,148.238,383.568,148.164,384.044,148.164z
		 M384.044,153.198c0.428,0,0.742-0.15,0.943-0.453c0.203-0.302,0.305-0.762,0.305-1.377s-0.102-1.074-0.305-1.374
		c-0.201-0.3-0.516-0.45-0.943-0.45c-0.439,0-0.764,0.15-0.967,0.45s-0.307,0.759-0.307,1.374s0.104,1.075,0.307,1.377
		C383.281,153.048,383.603,153.198,384.044,153.198z M386.419,145.644l-1.561,1.578c-0.092,0.092-0.18,0.157-0.264,0.194
		c-0.084,0.038-0.195,0.058-0.336,0.058h-1.115l0.816-1.47c0.066-0.116,0.146-0.205,0.238-0.268c0.094-0.062,0.23-0.093,0.42-0.093
		L386.419,145.644L386.419,145.644z"/>
	<path fill="#676767" d="M393.734,148.452v0.679c0,0.104-0.029,0.187-0.088,0.245c-0.057,0.061-0.156,0.105-0.297,0.139
		l-0.449,0.103c0.023,0.088,0.043,0.179,0.057,0.271c0.016,0.092,0.021,0.188,0.021,0.289c0,0.312-0.064,0.592-0.195,0.84
		s-0.309,0.459-0.533,0.633c-0.227,0.174-0.494,0.308-0.801,0.402c-0.309,0.094-0.639,0.141-0.99,0.141
		c-0.098,0-0.189-0.004-0.283-0.01c-0.092-0.006-0.182-0.018-0.27-0.033c-0.137,0.084-0.203,0.179-0.203,0.283
		c0,0.104,0.055,0.179,0.168,0.225c0.111,0.046,0.26,0.078,0.443,0.096c0.184,0.02,0.393,0.03,0.627,0.036s0.473,0.021,0.717,0.042
		s0.482,0.061,0.717,0.111c0.234,0.052,0.443,0.136,0.627,0.252c0.186,0.115,0.332,0.271,0.443,0.465
		c0.113,0.193,0.168,0.441,0.168,0.74c0,0.281-0.066,0.555-0.203,0.822c-0.137,0.269-0.336,0.506-0.6,0.715
		c-0.264,0.207-0.588,0.375-0.973,0.5c-0.383,0.127-0.824,0.188-1.32,0.188c-0.488,0-0.908-0.046-1.262-0.138
		c-0.355-0.092-0.648-0.213-0.883-0.363c-0.234-0.148-0.406-0.322-0.52-0.52c-0.113-0.196-0.168-0.399-0.168-0.611
		c0-0.275,0.08-0.506,0.238-0.689c0.16-0.185,0.385-0.332,0.674-0.443c-0.152-0.092-0.273-0.211-0.361-0.354
		c-0.088-0.145-0.131-0.329-0.131-0.559c0-0.093,0.018-0.188,0.047-0.291c0.033-0.103,0.084-0.202,0.154-0.3
		c0.068-0.099,0.156-0.191,0.26-0.279c0.105-0.088,0.23-0.166,0.373-0.232c-0.324-0.173-0.58-0.399-0.77-0.683
		c-0.188-0.281-0.281-0.61-0.281-0.986c0-0.312,0.066-0.594,0.197-0.844c0.133-0.25,0.312-0.462,0.543-0.636
		s0.502-0.309,0.812-0.402c0.312-0.094,0.65-0.141,1.016-0.141c0.527,0,0.996,0.101,1.402,0.3L393.734,148.452L393.734,148.452z
		 M391.898,154.71c0-0.146-0.066-0.255-0.197-0.32c-0.133-0.065-0.305-0.112-0.518-0.142c-0.211-0.026-0.449-0.045-0.711-0.051
		c-0.262-0.007-0.521-0.021-0.783-0.045c-0.115,0.079-0.211,0.169-0.285,0.267c-0.072,0.1-0.109,0.209-0.109,0.333
		c0,0.089,0.02,0.169,0.057,0.24c0.039,0.071,0.105,0.134,0.201,0.187s0.225,0.094,0.387,0.123s0.367,0.045,0.615,0.045
		c0.268,0,0.488-0.017,0.66-0.048c0.172-0.032,0.309-0.075,0.41-0.133c0.104-0.056,0.174-0.123,0.213-0.2
		C391.878,154.888,391.898,154.804,391.898,154.71z M390.458,151.044c0.309,0,0.529-0.076,0.668-0.23
		c0.139-0.153,0.207-0.353,0.207-0.596c0-0.253-0.068-0.451-0.207-0.596s-0.359-0.216-0.668-0.216s-0.531,0.071-0.67,0.216
		s-0.207,0.343-0.207,0.596c0,0.118,0.018,0.229,0.051,0.329c0.035,0.101,0.088,0.187,0.16,0.261
		c0.07,0.074,0.162,0.133,0.271,0.174C390.175,151.024,390.306,151.044,390.458,151.044z"/>
	<path fill="#676767" d="M396.609,146.558c0,0.146-0.031,0.287-0.092,0.416c-0.059,0.131-0.141,0.244-0.244,0.342
		c-0.104,0.099-0.227,0.177-0.363,0.234c-0.139,0.059-0.285,0.088-0.441,0.088c-0.152,0-0.293-0.029-0.426-0.088
		s-0.248-0.137-0.352-0.234c-0.102-0.098-0.182-0.211-0.24-0.342c-0.059-0.129-0.086-0.27-0.086-0.416
		c0-0.152,0.027-0.295,0.086-0.427c0.059-0.133,0.139-0.248,0.24-0.349c0.104-0.1,0.219-0.178,0.352-0.233
		c0.133-0.057,0.273-0.084,0.426-0.084c0.156,0,0.303,0.027,0.441,0.084c0.139,0.056,0.26,0.134,0.363,0.233
		c0.104,0.101,0.186,0.216,0.244,0.349C396.578,146.263,396.609,146.404,396.609,146.558z M396.417,148.261v6.223h-1.861v-6.223
		H396.417z"/>
	<path fill="#676767" d="M402.291,149.736c-0.057,0.067-0.111,0.122-0.162,0.161c-0.053,0.041-0.127,0.061-0.223,0.061
		c-0.092,0-0.176-0.021-0.25-0.064c-0.072-0.045-0.156-0.094-0.248-0.147s-0.199-0.103-0.324-0.146
		c-0.123-0.045-0.277-0.066-0.461-0.066c-0.229,0-0.426,0.042-0.592,0.126s-0.303,0.204-0.41,0.36
		c-0.109,0.156-0.189,0.347-0.24,0.572c-0.053,0.227-0.078,0.48-0.078,0.766c0,0.596,0.115,1.054,0.346,1.373
		c0.23,0.32,0.547,0.479,0.949,0.479c0.217,0,0.389-0.026,0.514-0.08c0.127-0.055,0.232-0.114,0.322-0.181
		c0.088-0.064,0.168-0.127,0.242-0.184c0.074-0.056,0.166-0.084,0.279-0.084c0.146,0,0.26,0.055,0.336,0.162l0.539,0.666
		c-0.191,0.221-0.395,0.398-0.605,0.537c-0.213,0.139-0.43,0.245-0.65,0.323s-0.443,0.133-0.67,0.162
		c-0.225,0.03-0.439,0.045-0.652,0.045c-0.381,0-0.742-0.071-1.088-0.216c-0.348-0.145-0.65-0.354-0.912-0.627
		c-0.264-0.273-0.473-0.611-0.625-1.012c-0.154-0.399-0.23-0.855-0.23-1.367c0-0.448,0.066-0.867,0.201-1.258
		c0.133-0.391,0.332-0.729,0.594-1.015c0.262-0.285,0.586-0.511,0.973-0.675c0.385-0.164,0.832-0.246,1.34-0.246
		c0.488,0,0.916,0.078,1.285,0.234c0.367,0.156,0.699,0.384,0.994,0.684L402.291,149.736z"/>
	<path fill="#676767" d="M406.316,148.164c0.473,0,0.902,0.074,1.291,0.224c0.387,0.146,0.721,0.358,0.998,0.635
		s0.494,0.611,0.648,1.006c0.152,0.395,0.229,0.837,0.229,1.328c0,0.496-0.076,0.943-0.229,1.342
		c-0.154,0.398-0.371,0.736-0.648,1.014c-0.277,0.278-0.611,0.492-0.998,0.643c-0.389,0.15-0.818,0.226-1.291,0.226
		c-0.477,0-0.908-0.074-1.299-0.226c-0.391-0.149-0.727-0.363-1.008-0.643c-0.281-0.277-0.5-0.615-0.654-1.014
		c-0.154-0.396-0.23-0.846-0.23-1.342c0-0.491,0.076-0.935,0.23-1.328c0.154-0.395,0.373-0.729,0.654-1.006
		c0.281-0.275,0.617-0.487,1.008-0.635C405.408,148.238,405.841,148.164,406.316,148.164z M406.316,153.198
		c0.428,0,0.744-0.15,0.945-0.453c0.201-0.302,0.303-0.762,0.303-1.377s-0.102-1.074-0.303-1.374s-0.52-0.45-0.945-0.45
		c-0.439,0-0.762,0.15-0.965,0.45c-0.205,0.3-0.307,0.759-0.307,1.374s0.102,1.075,0.307,1.377
		C405.554,153.048,405.876,153.198,406.316,153.198z"/>
</g>
<g enable-background="new    ">
	<path fill="#676767" d="M203.209,233.239c0.048,0,0.096,0.009,0.144,0.026c0.048,0.019,0.094,0.049,0.138,0.094l0.804,0.846
		c-0.352,0.46-0.793,0.807-1.323,1.041c-0.53,0.232-1.157,0.352-1.881,0.352c-0.664,0-1.259-0.113-1.785-0.34
		c-0.526-0.226-0.972-0.537-1.338-0.936c-0.366-0.398-0.647-0.87-0.843-1.416c-0.196-0.547-0.294-1.141-0.294-1.779
		c0-0.652,0.106-1.251,0.318-1.797c0.212-0.546,0.51-1.018,0.894-1.413c0.384-0.396,0.844-0.704,1.38-0.924
		c0.536-0.22,1.126-0.33,1.77-0.33c0.328,0,0.637,0.028,0.927,0.087s0.561,0.139,0.813,0.24s0.484,0.225,0.696,0.369
		c0.212,0.144,0.4,0.3,0.564,0.468l-0.684,0.918c-0.044,0.056-0.096,0.106-0.156,0.153c-0.06,0.045-0.144,0.067-0.252,0.067
		c-0.072,0-0.14-0.016-0.204-0.048c-0.064-0.031-0.132-0.07-0.204-0.117c-0.072-0.046-0.151-0.096-0.237-0.148
		c-0.086-0.055-0.188-0.104-0.306-0.15c-0.118-0.046-0.256-0.085-0.414-0.117c-0.158-0.031-0.343-0.048-0.555-0.048
		c-0.336,0-0.643,0.062-0.921,0.187c-0.278,0.125-0.518,0.306-0.72,0.543c-0.202,0.238-0.358,0.529-0.468,0.877
		c-0.11,0.346-0.165,0.74-0.165,1.185c0,0.448,0.061,0.847,0.183,1.194c0.122,0.348,0.288,0.641,0.498,0.879
		c0.21,0.238,0.455,0.419,0.735,0.543c0.28,0.124,0.58,0.186,0.9,0.186c0.184,0,0.352-0.009,0.504-0.025
		c0.152-0.02,0.294-0.049,0.426-0.092c0.132-0.041,0.256-0.098,0.372-0.168c0.116-0.068,0.234-0.158,0.354-0.267
		c0.048-0.04,0.1-0.073,0.156-0.099C203.093,233.252,203.15,233.239,203.209,233.239z"/>
	<path fill="#676767" d="M204.83,230.143c0.376-0.332,0.793-0.578,1.251-0.74c0.458-0.161,0.949-0.242,1.473-0.242
		c0.376,0,0.715,0.061,1.017,0.183c0.302,0.122,0.558,0.292,0.768,0.511c0.21,0.219,0.371,0.478,0.483,0.776
		c0.112,0.3,0.168,0.628,0.168,0.984v3.888h-0.852c-0.176,0-0.309-0.023-0.399-0.072c-0.09-0.048-0.165-0.146-0.225-0.3
		l-0.132-0.342c-0.156,0.132-0.306,0.248-0.45,0.349c-0.144,0.1-0.293,0.186-0.447,0.254c-0.154,0.07-0.318,0.123-0.492,0.156
		c-0.174,0.034-0.367,0.051-0.579,0.051c-0.284,0-0.542-0.037-0.774-0.109c-0.232-0.074-0.429-0.184-0.591-0.327
		c-0.162-0.146-0.287-0.323-0.375-0.537c-0.088-0.214-0.132-0.461-0.132-0.741c0-0.224,0.056-0.451,0.168-0.681
		c0.112-0.229,0.306-0.44,0.582-0.63c0.276-0.19,0.648-0.35,1.116-0.479c0.468-0.128,1.058-0.199,1.77-0.216v-0.264
		c0-0.364-0.075-0.628-0.225-0.789c-0.15-0.162-0.363-0.243-0.639-0.243c-0.22,0-0.4,0.023-0.54,0.072
		c-0.14,0.048-0.265,0.102-0.375,0.162c-0.11,0.06-0.217,0.113-0.321,0.16c-0.104,0.049-0.228,0.072-0.372,0.072
		c-0.128,0-0.236-0.031-0.324-0.096c-0.088-0.064-0.16-0.141-0.216-0.229L204.83,230.143z M208.178,232.969
		c-0.372,0.018-0.678,0.049-0.918,0.098c-0.24,0.048-0.43,0.106-0.57,0.18c-0.14,0.072-0.237,0.154-0.291,0.246
		c-0.054,0.092-0.081,0.191-0.081,0.3c0,0.212,0.058,0.36,0.174,0.447c0.116,0.086,0.286,0.129,0.51,0.129
		c0.24,0,0.45-0.042,0.63-0.126c0.18-0.084,0.362-0.221,0.546-0.408V232.969z"/>
	<path fill="#676767" d="M212.924,230.047c0.244-0.26,0.521-0.473,0.831-0.639c0.31-0.166,0.679-0.249,1.107-0.249
		c0.324,0,0.624,0.071,0.9,0.216s0.514,0.352,0.714,0.624s0.357,0.604,0.471,0.999c0.114,0.395,0.171,0.841,0.171,1.341
		c0,0.468-0.065,0.9-0.195,1.296c-0.13,0.396-0.312,0.74-0.546,1.032c-0.234,0.292-0.514,0.521-0.84,0.685s-0.687,0.246-1.083,0.246
		c-0.324,0-0.596-0.047-0.816-0.139c-0.22-0.092-0.42-0.216-0.6-0.372v2.388h-1.86v-8.194h1.152c0.232,0,0.384,0.104,0.456,0.312
		L212.924,230.047z M213.038,233.809c0.14,0.152,0.292,0.262,0.456,0.324c0.164,0.064,0.336,0.096,0.516,0.096
		c0.172,0,0.33-0.032,0.474-0.102c0.144-0.068,0.269-0.177,0.375-0.327c0.106-0.149,0.189-0.345,0.249-0.585
		c0.06-0.24,0.09-0.531,0.09-0.876c0-0.327-0.024-0.604-0.072-0.827c-0.048-0.225-0.115-0.404-0.201-0.544
		c-0.086-0.138-0.189-0.235-0.309-0.297c-0.12-0.06-0.254-0.09-0.402-0.09c-0.272,0-0.496,0.05-0.672,0.149
		c-0.176,0.101-0.344,0.246-0.504,0.438V233.809L213.038,233.809z"/>
	<path fill="#676767" d="M220.171,227.575c0,0.147-0.03,0.287-0.09,0.417s-0.142,0.244-0.246,0.342s-0.225,0.176-0.363,0.234
		c-0.138,0.058-0.285,0.087-0.441,0.087c-0.152,0-0.294-0.029-0.426-0.087c-0.132-0.06-0.249-0.137-0.351-0.234
		c-0.102-0.097-0.182-0.212-0.24-0.342s-0.087-0.27-0.087-0.417c0-0.152,0.029-0.294,0.087-0.427s0.138-0.248,0.24-0.349
		c0.102-0.1,0.219-0.178,0.351-0.233c0.132-0.057,0.274-0.084,0.426-0.084c0.156,0,0.303,0.027,0.441,0.084s0.259,0.135,0.363,0.233
		c0.104,0.101,0.186,0.216,0.246,0.349S220.171,227.423,220.171,227.575z M219.979,229.279v6.222h-1.86v-6.222H219.979z"/>
	<path fill="#676767" d="M223.508,235.598c-0.296,0-0.557-0.043-0.783-0.129c-0.226-0.087-0.417-0.209-0.57-0.367
		c-0.154-0.156-0.271-0.349-0.351-0.571c-0.08-0.226-0.12-0.476-0.12-0.75v-3.218h-0.528c-0.096,0-0.178-0.029-0.246-0.092
		s-0.102-0.152-0.102-0.272v-0.728l0.99-0.19l0.366-1.519c0.048-0.191,0.184-0.289,0.408-0.289h0.972v1.818h1.542v1.271h-1.542v3.09
		c0,0.145,0.035,0.264,0.105,0.356c0.07,0.095,0.171,0.142,0.303,0.142c0.068,0,0.125-0.008,0.171-0.021
		c0.046-0.014,0.086-0.03,0.12-0.048c0.034-0.018,0.066-0.034,0.096-0.048c0.03-0.015,0.065-0.021,0.105-0.021
		c0.056,0,0.101,0.014,0.135,0.039s0.069,0.066,0.105,0.122l0.564,0.882c-0.24,0.182-0.51,0.315-0.81,0.405
		C224.138,235.553,223.828,235.598,223.508,235.598z"/>
	<path fill="#676767" d="M225.751,230.143c0.376-0.332,0.793-0.578,1.251-0.74c0.458-0.161,0.949-0.242,1.473-0.242
		c0.376,0,0.715,0.061,1.017,0.183c0.302,0.122,0.558,0.292,0.768,0.511s0.371,0.478,0.483,0.776c0.112,0.3,0.168,0.628,0.168,0.984
		v3.888h-0.852c-0.176,0-0.309-0.023-0.399-0.072c-0.09-0.048-0.165-0.146-0.225-0.3l-0.132-0.342
		c-0.156,0.132-0.306,0.248-0.45,0.349c-0.144,0.1-0.293,0.186-0.447,0.254c-0.154,0.07-0.318,0.123-0.492,0.156
		c-0.174,0.034-0.367,0.051-0.579,0.051c-0.284,0-0.542-0.037-0.774-0.109c-0.232-0.074-0.429-0.184-0.591-0.327
		c-0.162-0.146-0.287-0.323-0.375-0.537s-0.132-0.461-0.132-0.741c0-0.224,0.056-0.451,0.168-0.681
		c0.112-0.229,0.306-0.44,0.582-0.63c0.276-0.19,0.648-0.35,1.116-0.479c0.468-0.128,1.058-0.199,1.77-0.216v-0.264
		c0-0.364-0.075-0.628-0.225-0.789c-0.15-0.162-0.363-0.243-0.639-0.243c-0.22,0-0.4,0.023-0.54,0.072
		c-0.14,0.048-0.265,0.102-0.375,0.162c-0.11,0.06-0.217,0.113-0.321,0.16c-0.104,0.049-0.228,0.072-0.372,0.072
		c-0.128,0-0.236-0.031-0.324-0.096s-0.16-0.141-0.216-0.229L225.751,230.143z M229.1,232.969c-0.372,0.018-0.678,0.049-0.918,0.098
		c-0.24,0.048-0.43,0.106-0.57,0.18c-0.14,0.072-0.237,0.154-0.291,0.246c-0.054,0.092-0.081,0.191-0.081,0.3
		c0,0.212,0.058,0.36,0.174,0.447c0.116,0.086,0.286,0.129,0.51,0.129c0.24,0,0.45-0.042,0.63-0.126
		c0.18-0.084,0.362-0.221,0.546-0.408V232.969z"/>
	<path fill="#676767" d="M233.959,226.52v8.981h-1.86v-8.981H233.959z"/>
	<path fill="#676767" d="M210.309,244.482c0,0.632-0.109,1.221-0.327,1.764c-0.218,0.545-0.525,1.019-0.921,1.42
		s-0.873,0.718-1.431,0.944c-0.558,0.229-1.177,0.343-1.857,0.343c-0.68,0-1.3-0.113-1.86-0.343
		c-0.56-0.228-1.039-0.543-1.437-0.944s-0.706-0.875-0.924-1.42c-0.218-0.543-0.327-1.132-0.327-1.764s0.109-1.22,0.327-1.764
		c0.218-0.545,0.526-1.018,0.924-1.416c0.398-0.4,0.877-0.715,1.437-0.942s1.18-0.342,1.86-0.342c0.68,0,1.299,0.114,1.857,0.345
		c0.558,0.23,1.035,0.545,1.431,0.945c0.396,0.398,0.703,0.872,0.921,1.416C210.201,243.269,210.309,243.854,210.309,244.482z
		 M208.233,244.482c0-0.432-0.056-0.82-0.168-1.167c-0.112-0.346-0.273-0.639-0.483-0.879s-0.467-0.424-0.771-0.552
		c-0.304-0.129-0.65-0.192-1.038-0.192c-0.392,0-0.741,0.063-1.047,0.192c-0.306,0.128-0.564,0.312-0.774,0.552
		s-0.371,0.533-0.483,0.879c-0.112,0.347-0.168,0.735-0.168,1.167c0,0.438,0.056,0.827,0.168,1.173
		c0.112,0.347,0.273,0.64,0.483,0.88c0.21,0.239,0.468,0.422,0.774,0.549c0.306,0.125,0.655,0.188,1.047,0.188
		c0.388,0,0.734-0.063,1.038-0.188c0.304-0.127,0.561-0.31,0.771-0.549c0.21-0.24,0.371-0.533,0.483-0.88
		C208.178,245.31,208.233,244.918,208.233,244.482z"/>
	<path fill="#676767" d="M212.938,243.595c0.192-0.337,0.413-0.601,0.663-0.792c0.25-0.192,0.537-0.288,0.861-0.288
		c0.28,0,0.508,0.065,0.684,0.198l-0.12,1.367c-0.02,0.088-0.053,0.147-0.099,0.181c-0.046,0.032-0.109,0.048-0.189,0.048
		c-0.032,0-0.074-0.002-0.126-0.006c-0.052-0.004-0.106-0.01-0.162-0.016c-0.056-0.007-0.113-0.013-0.171-0.019
		c-0.058-0.006-0.111-0.009-0.159-0.009c-0.272,0-0.489,0.07-0.651,0.216c-0.162,0.144-0.299,0.344-0.411,0.601v3.779h-1.86v-6.223
		h1.104c0.092,0,0.169,0.009,0.231,0.023c0.062,0.018,0.114,0.041,0.156,0.075s0.074,0.079,0.096,0.136s0.041,0.123,0.057,0.203
		L212.938,243.595z"/>
	<path fill="#676767" d="M221.42,242.826v0.68c0,0.104-0.029,0.186-0.087,0.244c-0.058,0.062-0.157,0.106-0.297,0.14l-0.45,0.103
		c0.024,0.088,0.043,0.178,0.057,0.271c0.014,0.092,0.021,0.188,0.021,0.288c0,0.312-0.065,0.592-0.195,0.84
		c-0.13,0.248-0.308,0.459-0.534,0.633s-0.493,0.309-0.801,0.402c-0.308,0.094-0.638,0.141-0.99,0.141
		c-0.096,0-0.19-0.003-0.282-0.009c-0.092-0.006-0.182-0.019-0.27-0.033c-0.136,0.084-0.204,0.179-0.204,0.282
		s0.056,0.179,0.168,0.225c0.112,0.047,0.26,0.078,0.444,0.096c0.184,0.02,0.393,0.03,0.627,0.037
		c0.234,0.006,0.473,0.021,0.717,0.041c0.244,0.022,0.483,0.061,0.717,0.111s0.443,0.137,0.627,0.252
		c0.184,0.116,0.332,0.271,0.444,0.465c0.112,0.194,0.168,0.441,0.168,0.741c0,0.28-0.068,0.554-0.204,0.822
		c-0.136,0.268-0.336,0.506-0.6,0.714s-0.588,0.375-0.972,0.501c-0.384,0.126-0.824,0.188-1.32,0.188
		c-0.488,0-0.909-0.047-1.263-0.139s-0.648-0.213-0.882-0.363c-0.234-0.148-0.407-0.322-0.519-0.519s-0.168-0.399-0.168-0.612
		c0-0.275,0.08-0.506,0.24-0.688c0.16-0.185,0.384-0.332,0.672-0.444c-0.152-0.092-0.272-0.21-0.36-0.354
		c-0.088-0.146-0.132-0.33-0.132-0.56c0-0.092,0.016-0.188,0.048-0.291c0.032-0.102,0.083-0.202,0.153-0.3
		c0.07-0.098,0.157-0.191,0.261-0.279s0.228-0.166,0.372-0.232c-0.324-0.172-0.58-0.399-0.768-0.682
		c-0.188-0.281-0.282-0.611-0.282-0.986c0-0.312,0.066-0.594,0.198-0.844c0.132-0.25,0.313-0.463,0.543-0.637
		s0.501-0.308,0.813-0.402c0.312-0.094,0.65-0.141,1.014-0.141c0.528,0,0.996,0.102,1.404,0.301h1.872V242.826z M219.584,249.084
		c0-0.147-0.066-0.256-0.198-0.32c-0.132-0.066-0.304-0.113-0.516-0.143c-0.212-0.026-0.449-0.045-0.711-0.051
		c-0.262-0.006-0.523-0.021-0.783-0.045c-0.116,0.08-0.211,0.169-0.285,0.268c-0.074,0.099-0.111,0.209-0.111,0.332
		c0,0.09,0.019,0.17,0.057,0.24c0.038,0.072,0.105,0.135,0.201,0.188c0.096,0.052,0.225,0.093,0.387,0.123
		c0.162,0.029,0.367,0.045,0.615,0.045c0.268,0,0.488-0.018,0.66-0.049c0.172-0.031,0.309-0.075,0.411-0.133
		c0.102-0.056,0.173-0.123,0.213-0.199C219.564,249.262,219.584,249.177,219.584,249.084z M218.145,245.418
		c0.308,0,0.531-0.076,0.669-0.23c0.138-0.154,0.207-0.354,0.207-0.598c0-0.252-0.069-0.449-0.207-0.594
		c-0.138-0.145-0.361-0.217-0.669-0.217s-0.531,0.072-0.669,0.217s-0.207,0.342-0.207,0.594c0,0.119,0.017,0.229,0.051,0.33
		c0.034,0.101,0.087,0.188,0.159,0.262c0.072,0.074,0.163,0.132,0.273,0.174S217.994,245.418,218.145,245.418z"/>
	<path fill="#676767" d="M222.063,243.498c0.376-0.332,0.793-0.578,1.251-0.74c0.458-0.161,0.949-0.242,1.473-0.242
		c0.376,0,0.715,0.061,1.017,0.183c0.302,0.122,0.559,0.292,0.768,0.511c0.211,0.219,0.371,0.478,0.483,0.776
		c0.111,0.3,0.168,0.628,0.168,0.984v3.888h-0.854c-0.176,0-0.308-0.023-0.398-0.072c-0.09-0.048-0.165-0.146-0.225-0.3
		l-0.132-0.342c-0.156,0.132-0.306,0.248-0.45,0.349c-0.144,0.1-0.293,0.186-0.447,0.254c-0.154,0.07-0.318,0.123-0.492,0.156
		c-0.174,0.034-0.367,0.051-0.579,0.051c-0.284,0-0.542-0.037-0.774-0.109c-0.232-0.074-0.429-0.184-0.591-0.327
		c-0.162-0.146-0.287-0.323-0.375-0.537s-0.132-0.461-0.132-0.741c0-0.224,0.056-0.451,0.168-0.681
		c0.112-0.229,0.306-0.44,0.582-0.63c0.276-0.19,0.648-0.35,1.116-0.479c0.468-0.128,1.058-0.199,1.77-0.216v-0.264
		c0-0.364-0.075-0.628-0.225-0.789c-0.15-0.162-0.363-0.243-0.639-0.243c-0.22,0-0.4,0.023-0.54,0.072
		c-0.14,0.048-0.265,0.102-0.375,0.162c-0.11,0.06-0.217,0.113-0.321,0.16c-0.104,0.049-0.228,0.072-0.372,0.072
		c-0.128,0-0.236-0.031-0.324-0.096s-0.16-0.141-0.216-0.229L222.063,243.498z M225.412,246.324
		c-0.372,0.018-0.678,0.049-0.918,0.098c-0.24,0.048-0.43,0.106-0.57,0.18c-0.14,0.072-0.237,0.154-0.291,0.246
		c-0.054,0.092-0.081,0.191-0.081,0.3c0,0.212,0.058,0.36,0.174,0.447c0.116,0.086,0.286,0.129,0.51,0.129
		c0.24,0,0.45-0.042,0.63-0.126c0.18-0.084,0.362-0.221,0.546-0.408V246.324z"/>
	<path fill="#676767" d="M230.126,243.307c0.12-0.112,0.244-0.217,0.372-0.312s0.265-0.177,0.411-0.242s0.305-0.117,0.475-0.155
		s0.354-0.058,0.555-0.058c0.341,0,0.642,0.06,0.902,0.178c0.262,0.117,0.483,0.281,0.664,0.49c0.18,0.211,0.315,0.461,0.407,0.75
		c0.093,0.291,0.138,0.605,0.138,0.945v3.954h-1.859v-3.954c0-0.304-0.069-0.541-0.209-0.711c-0.141-0.17-0.348-0.255-0.618-0.255
		c-0.204,0-0.396,0.043-0.573,0.129s-0.352,0.203-0.52,0.351v4.44h-1.859v-6.222h1.152c0.23,0,0.384,0.104,0.455,0.312
		L230.126,243.307z"/>
	<path fill="#676767" d="M237.345,240.931c0,0.147-0.031,0.287-0.091,0.417s-0.142,0.244-0.245,0.342s-0.226,0.176-0.363,0.234
		c-0.139,0.058-0.284,0.087-0.44,0.087c-0.151,0-0.294-0.029-0.426-0.087c-0.134-0.06-0.249-0.137-0.353-0.234
		c-0.102-0.098-0.182-0.212-0.24-0.342c-0.058-0.13-0.086-0.27-0.086-0.417c0-0.152,0.028-0.294,0.086-0.427
		c0.06-0.133,0.14-0.248,0.24-0.349c0.104-0.1,0.219-0.178,0.353-0.233c0.132-0.057,0.272-0.084,0.426-0.084
		c0.156,0,0.304,0.027,0.44,0.084c0.139,0.057,0.26,0.135,0.363,0.233c0.104,0.101,0.187,0.216,0.245,0.349
		C237.314,240.637,237.345,240.778,237.345,240.931z M237.152,242.635v6.222h-1.859v-6.222H237.152z"/>
	<path fill="#676767" d="M243.081,243.379c0,0.127-0.022,0.252-0.065,0.371c-0.045,0.119-0.103,0.219-0.174,0.295l-2.599,3.432
		h2.778v1.38h-4.92v-0.756c0-0.076,0.02-0.172,0.06-0.288s0.101-0.225,0.181-0.324l2.621-3.474h-2.693v-1.38h4.812L243.081,243.379
		L243.081,243.379z"/>
	<path fill="#676767" d="M243.909,243.498c0.376-0.332,0.793-0.578,1.251-0.74c0.458-0.161,0.949-0.242,1.473-0.242
		c0.377,0,0.715,0.061,1.018,0.183s0.559,0.292,0.769,0.511s0.371,0.478,0.481,0.776c0.113,0.3,0.169,0.628,0.169,0.984v3.888
		h-0.853c-0.176,0-0.309-0.023-0.397-0.072c-0.089-0.048-0.166-0.146-0.226-0.3l-0.133-0.342c-0.156,0.132-0.307,0.248-0.449,0.349
		c-0.145,0.1-0.293,0.186-0.447,0.254c-0.153,0.07-0.317,0.123-0.491,0.156c-0.175,0.034-0.367,0.051-0.579,0.051
		c-0.284,0-0.542-0.037-0.773-0.109c-0.232-0.074-0.43-0.184-0.592-0.327c-0.162-0.146-0.287-0.323-0.375-0.537
		s-0.132-0.461-0.132-0.741c0-0.224,0.056-0.451,0.168-0.681c0.11-0.229,0.308-0.44,0.582-0.63c0.274-0.19,0.647-0.35,1.115-0.479
		c0.469-0.128,1.059-0.199,1.771-0.216v-0.264c0-0.364-0.074-0.628-0.225-0.789c-0.15-0.162-0.363-0.243-0.641-0.243
		c-0.22,0-0.398,0.023-0.539,0.072c-0.141,0.048-0.266,0.102-0.375,0.162c-0.109,0.06-0.217,0.113-0.32,0.16
		c-0.104,0.049-0.229,0.072-0.372,0.072c-0.129,0-0.235-0.031-0.324-0.096c-0.088-0.064-0.159-0.141-0.216-0.229L243.909,243.498z
		 M247.257,246.324c-0.373,0.018-0.679,0.049-0.919,0.098c-0.239,0.048-0.43,0.106-0.569,0.18c-0.141,0.072-0.236,0.154-0.291,0.246
		s-0.082,0.191-0.082,0.3c0,0.212,0.06,0.36,0.175,0.447c0.116,0.086,0.286,0.129,0.511,0.129c0.239,0,0.45-0.042,0.63-0.126
		c0.181-0.084,0.361-0.221,0.546-0.408V246.324L247.257,246.324z"/>
	<path fill="#676767" d="M256.886,248.856h-1.859v-4.938h-2.604v3.092c0,0.144,0.034,0.263,0.104,0.355
		c0.07,0.096,0.173,0.143,0.304,0.143c0.067,0,0.125-0.008,0.172-0.021c0.046-0.014,0.086-0.029,0.119-0.048
		c0.035-0.019,0.065-0.034,0.097-0.048c0.03-0.016,0.065-0.021,0.104-0.021c0.057,0,0.103,0.014,0.135,0.039
		c0.035,0.026,0.069,0.067,0.104,0.123l0.564,0.883c-0.24,0.181-0.51,0.314-0.811,0.404s-0.609,0.135-0.93,0.135
		c-0.297,0-0.558-0.043-0.783-0.129c-0.227-0.086-0.416-0.207-0.57-0.365c-0.153-0.157-0.271-0.35-0.352-0.572
		c-0.08-0.225-0.119-0.475-0.119-0.75v-3.217h-0.527c-0.096,0-0.178-0.03-0.246-0.094c-0.068-0.062-0.104-0.152-0.104-0.271v-0.727
		l0.99-0.197l0.366-1.514c0.048-0.19,0.185-0.287,0.408-0.287h0.972v1.817h4.465V248.856L256.886,248.856z M257.144,240.924
		c0,0.147-0.029,0.289-0.09,0.421c-0.062,0.132-0.144,0.247-0.246,0.345c-0.104,0.098-0.226,0.175-0.363,0.23
		c-0.139,0.057-0.285,0.084-0.44,0.084c-0.151,0-0.294-0.027-0.427-0.084c-0.131-0.057-0.248-0.133-0.352-0.23
		c-0.102-0.098-0.182-0.213-0.238-0.345c-0.059-0.132-0.088-0.272-0.088-0.421c0-0.147,0.029-0.288,0.088-0.424
		c0.058-0.133,0.138-0.248,0.238-0.348c0.104-0.098,0.221-0.176,0.352-0.232c0.133-0.06,0.273-0.088,0.427-0.088
		c0.155,0,0.304,0.028,0.44,0.088c0.139,0.058,0.26,0.136,0.363,0.232c0.104,0.1,0.186,0.215,0.246,0.348
		C257.115,240.636,257.144,240.776,257.144,240.924z"/>
	<path fill="#676767" d="M264.05,242.635l-2.412,6.222h-1.69l-2.412-6.222h1.548c0.133,0,0.243,0.029,0.333,0.093
		c0.091,0.062,0.149,0.14,0.185,0.229l0.863,2.791c0.075,0.229,0.143,0.449,0.2,0.666c0.06,0.217,0.108,0.433,0.151,0.647
		c0.089-0.433,0.212-0.87,0.367-1.313l0.899-2.791c0.032-0.092,0.093-0.168,0.181-0.229s0.191-0.093,0.312-0.093H264.05z"/>
	<path fill="#676767" d="M267.314,242.539c0.473,0,0.902,0.073,1.291,0.223c0.387,0.146,0.721,0.359,0.998,0.636
		s0.494,0.61,0.648,1.005s0.229,0.838,0.229,1.329c0,0.496-0.074,0.942-0.229,1.341s-0.371,0.736-0.648,1.014
		c-0.277,0.279-0.611,0.492-0.998,0.644c-0.389,0.149-0.818,0.226-1.291,0.226c-0.477,0-0.908-0.074-1.299-0.226
		c-0.391-0.149-0.727-0.364-1.008-0.644c-0.281-0.276-0.5-0.614-0.654-1.014c-0.154-0.396-0.23-0.845-0.23-1.341
		c0-0.492,0.076-0.935,0.23-1.329c0.154-0.394,0.373-0.729,0.654-1.005s0.617-0.487,1.008-0.636
		C266.406,242.612,266.839,242.539,267.314,242.539z M267.314,247.572c0.428,0,0.744-0.15,0.945-0.453
		c0.201-0.302,0.303-0.761,0.303-1.377c0-0.615-0.102-1.074-0.303-1.373c-0.201-0.301-0.518-0.451-0.945-0.451
		c-0.439,0-0.762,0.15-0.965,0.451c-0.205,0.299-0.307,0.758-0.307,1.373c0,0.616,0.102,1.075,0.307,1.377
		C266.552,247.422,266.875,247.572,267.314,247.572z"/>
</g>
<g enable-background="new    ">
	<path fill="#676767" d="M307.968,64.127c0.049,0,0.096,0.009,0.145,0.026c0.049,0.019,0.094,0.05,0.139,0.094l0.803,0.846
		c-0.352,0.46-0.793,0.807-1.32,1.041c-0.531,0.233-1.158,0.351-1.882,0.351c-0.664,0-1.261-0.112-1.785-0.339
		c-0.526-0.226-0.974-0.538-1.338-0.936c-0.367-0.398-0.647-0.87-0.845-1.416c-0.194-0.546-0.293-1.14-0.293-1.779
		c0-0.652,0.105-1.251,0.318-1.797c0.211-0.546,0.51-1.018,0.893-1.413c0.386-0.396,0.845-0.704,1.382-0.924
		c0.534-0.22,1.125-0.33,1.771-0.33c0.327,0,0.637,0.029,0.926,0.087c0.291,0.058,0.562,0.138,0.814,0.24s0.482,0.225,0.693,0.369
		c0.213,0.144,0.4,0.3,0.564,0.468l-0.684,0.918c-0.045,0.056-0.098,0.106-0.156,0.153c-0.061,0.046-0.145,0.068-0.252,0.068
		c-0.072,0-0.141-0.016-0.205-0.048c-0.062-0.032-0.131-0.071-0.203-0.117s-0.15-0.096-0.236-0.149
		c-0.086-0.055-0.188-0.104-0.307-0.15c-0.117-0.046-0.256-0.085-0.414-0.117c-0.158-0.032-0.344-0.048-0.555-0.048
		c-0.336,0-0.645,0.062-0.922,0.187c-0.277,0.124-0.518,0.305-0.721,0.543c-0.201,0.237-0.357,0.529-0.467,0.876
		c-0.11,0.346-0.166,0.74-0.166,1.185c0,0.448,0.062,0.846,0.184,1.194c0.123,0.348,0.289,0.641,0.498,0.879
		c0.211,0.238,0.455,0.419,0.734,0.543c0.28,0.124,0.58,0.186,0.899,0.186c0.185,0,0.353-0.009,0.504-0.026
		c0.151-0.019,0.296-0.049,0.427-0.091c0.133-0.042,0.256-0.098,0.373-0.168c0.115-0.069,0.232-0.158,0.354-0.267
		c0.049-0.04,0.1-0.073,0.156-0.099C307.851,64.14,307.91,64.127,307.968,64.127z"/>
	<path fill="#676767" d="M309.587,61.03c0.377-0.332,0.793-0.578,1.252-0.74c0.457-0.162,0.949-0.243,1.473-0.243
		c0.377,0,0.715,0.061,1.018,0.183s0.559,0.292,0.768,0.51c0.211,0.219,0.371,0.478,0.482,0.777c0.113,0.3,0.168,0.628,0.168,0.984
		v3.888h-0.852c-0.176,0-0.309-0.024-0.398-0.072c-0.088-0.048-0.166-0.147-0.225-0.3l-0.133-0.342
		c-0.156,0.132-0.307,0.248-0.449,0.348c-0.145,0.101-0.293,0.186-0.447,0.255c-0.154,0.07-0.318,0.122-0.492,0.156
		c-0.174,0.034-0.367,0.051-0.578,0.051c-0.285,0-0.543-0.037-0.773-0.11c-0.232-0.074-0.43-0.184-0.592-0.327
		c-0.162-0.145-0.287-0.323-0.375-0.537c-0.088-0.214-0.133-0.461-0.133-0.741c0-0.224,0.057-0.451,0.168-0.681
		s0.309-0.44,0.582-0.63c0.275-0.19,0.648-0.35,1.115-0.478c0.469-0.128,1.059-0.2,1.771-0.216v-0.264
		c0-0.364-0.074-0.627-0.225-0.789s-0.363-0.243-0.641-0.243c-0.221,0-0.398,0.023-0.539,0.072
		c-0.141,0.048-0.266,0.102-0.375,0.162s-0.217,0.113-0.32,0.161c-0.104,0.049-0.229,0.072-0.373,0.072
		c-0.129,0-0.236-0.032-0.324-0.096s-0.158-0.14-0.215-0.229L309.587,61.03z M312.935,63.856c-0.371,0.017-0.678,0.048-0.918,0.097
		c-0.238,0.048-0.43,0.107-0.568,0.18c-0.141,0.072-0.236,0.154-0.291,0.246c-0.055,0.092-0.082,0.191-0.082,0.3
		c0,0.212,0.059,0.361,0.174,0.447c0.117,0.086,0.287,0.129,0.512,0.129c0.238,0,0.449-0.042,0.629-0.126
		c0.182-0.084,0.361-0.22,0.547-0.408v-0.865H312.935z"/>
	<path fill="#676767" d="M317.681,60.935c0.244-0.26,0.521-0.473,0.832-0.639s0.68-0.249,1.107-0.249
		c0.324,0,0.623,0.072,0.898,0.216s0.516,0.352,0.715,0.624s0.355,0.605,0.471,0.999c0.115,0.395,0.172,0.841,0.172,1.341
		c0,0.468-0.066,0.9-0.195,1.296c-0.131,0.396-0.312,0.74-0.547,1.032c-0.232,0.292-0.514,0.52-0.84,0.684
		c-0.326,0.164-0.688,0.246-1.082,0.246c-0.324,0-0.596-0.046-0.816-0.138c-0.221-0.092-0.42-0.216-0.6-0.372v2.388h-1.861v-8.195
		h1.152c0.232,0,0.385,0.104,0.457,0.312L317.681,60.935z M317.796,64.696c0.139,0.152,0.291,0.261,0.455,0.324
		c0.164,0.064,0.336,0.096,0.516,0.096c0.174,0,0.33-0.033,0.475-0.102c0.145-0.068,0.27-0.177,0.375-0.327
		c0.105-0.149,0.189-0.345,0.25-0.585c0.061-0.24,0.09-0.532,0.09-0.876c0-0.328-0.023-0.604-0.072-0.828s-0.115-0.404-0.201-0.543
		c-0.086-0.138-0.188-0.236-0.309-0.297c-0.119-0.06-0.254-0.09-0.402-0.09c-0.27,0-0.496,0.05-0.672,0.15
		c-0.176,0.1-0.344,0.245-0.504,0.438V64.696L317.796,64.696z"/>
	<path fill="#676767" d="M324.929,58.463c0,0.147-0.029,0.287-0.09,0.417c-0.059,0.13-0.141,0.244-0.246,0.342
		c-0.104,0.098-0.225,0.176-0.361,0.234c-0.139,0.058-0.285,0.087-0.441,0.087c-0.152,0-0.295-0.029-0.426-0.087
		c-0.133-0.059-0.25-0.137-0.352-0.234c-0.102-0.097-0.182-0.212-0.24-0.342s-0.088-0.27-0.088-0.417
		c0-0.152,0.029-0.294,0.088-0.426c0.059-0.133,0.139-0.248,0.24-0.349c0.102-0.1,0.219-0.178,0.352-0.233
		c0.131-0.057,0.273-0.084,0.426-0.084c0.156,0,0.303,0.027,0.441,0.084c0.137,0.056,0.258,0.134,0.361,0.233
		c0.105,0.101,0.188,0.216,0.246,0.349C324.9,58.169,324.929,58.311,324.929,58.463z M324.738,60.167v6.222h-1.859v-6.222H324.738z"
		/>
	<path fill="#676767" d="M328.265,66.484c-0.295,0-0.557-0.043-0.781-0.129c-0.227-0.086-0.416-0.208-0.57-0.366
		c-0.154-0.157-0.271-0.349-0.352-0.572c-0.08-0.225-0.119-0.475-0.119-0.75V61.45h-0.529c-0.096,0-0.178-0.03-0.246-0.093
		c-0.066-0.062-0.102-0.152-0.102-0.272v-0.727l0.99-0.191l0.365-1.519c0.049-0.191,0.186-0.288,0.408-0.288h0.973v1.818h1.541
		v1.271h-1.541v3.091c0,0.144,0.035,0.263,0.105,0.356c0.068,0.095,0.17,0.142,0.303,0.142c0.068,0,0.125-0.008,0.17-0.021
		c0.047-0.013,0.086-0.03,0.121-0.048c0.033-0.018,0.066-0.034,0.096-0.048c0.029-0.015,0.064-0.021,0.105-0.021
		c0.055,0,0.1,0.014,0.135,0.039c0.033,0.026,0.068,0.067,0.105,0.123l0.562,0.882c-0.24,0.181-0.512,0.315-0.811,0.405
		C328.896,66.439,328.585,66.484,328.265,66.484z"/>
	<path fill="#676767" d="M330.509,61.03c0.377-0.332,0.793-0.578,1.252-0.74c0.457-0.162,0.949-0.243,1.473-0.243
		c0.377,0,0.715,0.061,1.018,0.183s0.559,0.292,0.77,0.51c0.209,0.219,0.369,0.478,0.48,0.777c0.113,0.3,0.168,0.628,0.168,0.984
		v3.888h-0.852c-0.176,0-0.309-0.024-0.398-0.072c-0.088-0.048-0.166-0.147-0.225-0.3l-0.133-0.342
		c-0.156,0.132-0.307,0.248-0.449,0.348c-0.145,0.101-0.293,0.186-0.447,0.255c-0.154,0.07-0.318,0.122-0.492,0.156
		c-0.174,0.034-0.367,0.051-0.578,0.051c-0.285,0-0.543-0.037-0.773-0.11c-0.232-0.074-0.43-0.184-0.592-0.327
		c-0.162-0.145-0.287-0.323-0.375-0.537c-0.088-0.214-0.133-0.461-0.133-0.741c0-0.224,0.057-0.451,0.168-0.681
		s0.309-0.44,0.582-0.63c0.275-0.19,0.648-0.35,1.115-0.478c0.469-0.128,1.061-0.2,1.771-0.216v-0.264
		c0-0.364-0.074-0.627-0.225-0.789s-0.363-0.243-0.641-0.243c-0.219,0-0.398,0.023-0.539,0.072
		c-0.141,0.048-0.266,0.102-0.375,0.162s-0.217,0.113-0.32,0.161c-0.104,0.049-0.229,0.072-0.373,0.072
		c-0.129,0-0.234-0.032-0.324-0.096c-0.088-0.064-0.158-0.14-0.215-0.229L330.509,61.03z M333.859,63.856
		c-0.373,0.017-0.68,0.048-0.918,0.097c-0.24,0.048-0.432,0.107-0.57,0.18c-0.141,0.072-0.236,0.154-0.291,0.246
		c-0.055,0.092-0.082,0.191-0.082,0.3c0,0.212,0.059,0.361,0.174,0.447c0.117,0.086,0.287,0.129,0.512,0.129
		c0.238,0,0.449-0.042,0.631-0.126c0.18-0.084,0.359-0.22,0.545-0.408V63.856L333.859,63.856z"/>
	<path fill="#676767" d="M338.718,57.406v8.982h-1.861v-8.982H338.718z"/>
	<path fill="#676767" d="M324.828,81.401h-1.836c-0.342,0-0.584-0.128-0.732-0.384l-1.453-2.538
		c-0.066-0.108-0.143-0.188-0.227-0.237s-0.205-0.075-0.361-0.075h-0.516v3.234h-2.027v-8.742h2.846c0.631,0,1.17,0.065,1.615,0.195
		c0.445,0.13,0.811,0.311,1.094,0.543c0.279,0.232,0.484,0.506,0.613,0.822c0.127,0.315,0.191,0.659,0.191,1.031
		c0,0.284-0.037,0.553-0.113,0.805s-0.188,0.484-0.336,0.698c-0.146,0.215-0.332,0.405-0.549,0.573
		c-0.219,0.168-0.471,0.307-0.754,0.414c0.133,0.068,0.256,0.153,0.373,0.255c0.115,0.103,0.219,0.224,0.311,0.363L324.828,81.401z
		 M320.519,76.769c0.275,0,0.512-0.035,0.705-0.105c0.193-0.069,0.354-0.167,0.477-0.291c0.125-0.124,0.215-0.269,0.27-0.435
		c0.059-0.166,0.084-0.345,0.084-0.537c0-0.384-0.125-0.684-0.375-0.9c-0.25-0.216-0.637-0.323-1.16-0.323h-0.814v2.592
		L320.519,76.769L320.519,76.769z"/>
	<path fill="#676767" d="M326.464,78.622c0.061,0.521,0.219,0.897,0.475,1.131c0.256,0.234,0.586,0.352,0.99,0.352
		c0.215,0,0.4-0.026,0.559-0.078c0.154-0.052,0.295-0.11,0.416-0.174c0.123-0.064,0.234-0.122,0.336-0.174
		c0.102-0.053,0.209-0.078,0.32-0.078c0.148,0,0.262,0.054,0.336,0.162l0.541,0.666c-0.191,0.22-0.398,0.398-0.621,0.537
		c-0.223,0.138-0.449,0.245-0.684,0.323c-0.234,0.078-0.469,0.133-0.703,0.162c-0.232,0.03-0.457,0.045-0.668,0.045
		c-0.438,0-0.846-0.07-1.229-0.213c-0.381-0.142-0.715-0.353-1.002-0.633c-0.285-0.28-0.514-0.628-0.68-1.044
		s-0.246-0.9-0.246-1.452c0-0.416,0.068-0.81,0.213-1.182c0.141-0.372,0.346-0.698,0.609-0.979c0.268-0.279,0.588-0.502,0.969-0.666
		c0.377-0.164,0.805-0.246,1.279-0.246c0.412,0,0.789,0.064,1.131,0.192c0.344,0.128,0.637,0.314,0.883,0.558
		c0.244,0.244,0.438,0.543,0.574,0.897c0.141,0.354,0.207,0.755,0.207,1.203c0,0.14-0.006,0.254-0.018,0.342
		c-0.012,0.088-0.033,0.158-0.066,0.21c-0.029,0.052-0.072,0.088-0.129,0.108c-0.053,0.02-0.123,0.029-0.207,0.029h-3.586V78.622z
		 M328.804,77.542c0-0.147-0.02-0.292-0.057-0.432c-0.039-0.14-0.1-0.265-0.188-0.375c-0.086-0.11-0.197-0.199-0.34-0.267
		c-0.139-0.068-0.309-0.103-0.51-0.103c-0.352,0-0.627,0.102-0.828,0.303c-0.199,0.202-0.332,0.493-0.395,0.873h2.316V77.542z"/>
	<path fill="#676767" d="M333.263,72.418V81.4h-1.861v-8.982H333.263z"/>
	<path fill="#676767" d="M334.384,76.042c0.377-0.332,0.793-0.578,1.252-0.74c0.457-0.162,0.947-0.243,1.473-0.243
		c0.375,0,0.715,0.061,1.018,0.183c0.301,0.122,0.557,0.292,0.768,0.51c0.211,0.219,0.371,0.478,0.482,0.777
		c0.111,0.299,0.168,0.628,0.168,0.984v3.888h-0.852c-0.176,0-0.309-0.024-0.398-0.072c-0.09-0.048-0.166-0.147-0.227-0.3
		l-0.131-0.342c-0.156,0.132-0.307,0.248-0.449,0.348c-0.145,0.101-0.295,0.186-0.447,0.255c-0.154,0.07-0.318,0.122-0.492,0.156
		c-0.174,0.034-0.367,0.051-0.58,0.051c-0.283,0-0.541-0.037-0.771-0.11c-0.232-0.074-0.432-0.184-0.594-0.327
		c-0.16-0.145-0.285-0.323-0.375-0.537c-0.088-0.214-0.131-0.461-0.131-0.741c0-0.224,0.057-0.451,0.168-0.681
		s0.307-0.44,0.582-0.63s0.648-0.35,1.115-0.478c0.469-0.128,1.059-0.2,1.771-0.216v-0.264c0-0.364-0.074-0.627-0.227-0.789
		c-0.15-0.162-0.363-0.243-0.639-0.243c-0.221,0-0.4,0.023-0.539,0.072c-0.141,0.048-0.266,0.102-0.375,0.162
		c-0.111,0.06-0.219,0.113-0.322,0.161c-0.104,0.049-0.227,0.072-0.371,0.072c-0.129,0-0.234-0.032-0.324-0.096
		c-0.088-0.064-0.158-0.14-0.217-0.229L334.384,76.042z M337.732,78.868c-0.371,0.017-0.678,0.048-0.918,0.097
		c-0.238,0.048-0.43,0.107-0.568,0.18c-0.139,0.073-0.238,0.154-0.291,0.246c-0.055,0.092-0.082,0.191-0.082,0.3
		c0,0.212,0.059,0.361,0.174,0.447c0.117,0.086,0.287,0.129,0.51,0.129c0.24,0,0.451-0.042,0.633-0.126
		c0.18-0.084,0.359-0.22,0.545-0.408v-0.865H337.732z"/>
	<path fill="#676767" d="M345.304,76.655c-0.057,0.068-0.109,0.122-0.162,0.162c-0.053,0.04-0.127,0.06-0.223,0.06
		c-0.092,0-0.174-0.021-0.248-0.065s-0.158-0.093-0.25-0.147c-0.092-0.054-0.199-0.103-0.324-0.146
		c-0.123-0.043-0.277-0.066-0.461-0.066c-0.229,0-0.426,0.042-0.592,0.126s-0.303,0.204-0.41,0.36
		c-0.107,0.156-0.188,0.347-0.24,0.573s-0.078,0.48-0.078,0.765c0,0.596,0.115,1.054,0.346,1.374
		c0.229,0.32,0.547,0.479,0.951,0.479c0.215,0,0.387-0.026,0.512-0.08c0.127-0.055,0.234-0.114,0.322-0.181
		c0.088-0.065,0.168-0.127,0.242-0.183c0.074-0.056,0.168-0.084,0.279-0.084c0.148,0,0.26,0.054,0.336,0.162l0.539,0.666
		c-0.191,0.22-0.393,0.398-0.605,0.537c-0.211,0.138-0.43,0.245-0.65,0.323c-0.223,0.078-0.445,0.133-0.67,0.162
		c-0.223,0.03-0.441,0.045-0.652,0.045c-0.381,0-0.742-0.071-1.09-0.216c-0.346-0.144-0.648-0.353-0.912-0.627
		c-0.262-0.273-0.471-0.611-0.623-1.011c-0.154-0.4-0.23-0.856-0.23-1.368c0-0.448,0.066-0.867,0.201-1.257
		c0.135-0.391,0.332-0.729,0.594-1.015c0.262-0.285,0.586-0.511,0.973-0.675s0.832-0.246,1.34-0.246
		c0.488,0,0.916,0.078,1.285,0.234c0.367,0.156,0.699,0.384,0.996,0.684L345.304,76.655z"/>
	<path fill="#676767" d="M348.664,73.475c0,0.147-0.029,0.287-0.09,0.417s-0.143,0.244-0.246,0.342
		c-0.104,0.098-0.225,0.176-0.363,0.234c-0.137,0.058-0.283,0.087-0.439,0.087c-0.15,0-0.293-0.029-0.426-0.087
		c-0.133-0.059-0.25-0.137-0.352-0.234c-0.104-0.098-0.182-0.212-0.24-0.342s-0.088-0.27-0.088-0.417
		c0-0.152,0.029-0.294,0.088-0.426c0.059-0.133,0.139-0.248,0.24-0.349c0.102-0.1,0.219-0.178,0.352-0.233
		c0.133-0.057,0.273-0.084,0.426-0.084c0.156,0,0.305,0.027,0.439,0.084c0.139,0.056,0.26,0.134,0.363,0.233
		c0.104,0.101,0.188,0.216,0.246,0.349C348.634,73.181,348.664,73.323,348.664,73.475z M348.472,75.179v6.222h-1.859v-6.222H348.472
		z"/>
	<path fill="#676767" d="M352.642,75.082c0.473,0,0.902,0.074,1.289,0.223c0.389,0.147,0.723,0.359,1,0.636
		c0.277,0.276,0.494,0.611,0.648,1.005c0.152,0.395,0.229,0.837,0.229,1.329c0,0.496-0.076,0.943-0.229,1.341
		c-0.154,0.398-0.371,0.736-0.648,1.014c-0.277,0.278-0.611,0.492-1,0.643c-0.387,0.151-0.816,0.225-1.289,0.225
		c-0.477,0-0.908-0.074-1.299-0.225c-0.391-0.15-0.727-0.364-1.008-0.643c-0.283-0.277-0.5-0.615-0.654-1.014
		c-0.154-0.397-0.23-0.845-0.23-1.341c0-0.492,0.076-0.935,0.23-1.329s0.371-0.729,0.654-1.005c0.281-0.276,0.617-0.488,1.008-0.636
		S352.166,75.082,352.642,75.082z M352.642,80.116c0.428,0,0.742-0.15,0.945-0.453c0.201-0.302,0.303-0.761,0.303-1.377
		c0-0.615-0.102-1.074-0.303-1.374c-0.203-0.3-0.518-0.45-0.945-0.45c-0.439,0-0.762,0.15-0.967,0.45
		c-0.203,0.3-0.305,0.759-0.305,1.374c0,0.616,0.102,1.075,0.305,1.377C351.88,79.966,352.203,80.116,352.642,80.116z"/>
	<path fill="#676767" d="M358.462,75.851c0.119-0.112,0.244-0.216,0.371-0.312c0.129-0.096,0.266-0.177,0.412-0.243
		c0.145-0.065,0.303-0.117,0.473-0.155s0.355-0.058,0.557-0.058c0.34,0,0.641,0.06,0.902,0.178c0.262,0.117,0.482,0.281,0.662,0.491
		s0.316,0.46,0.408,0.75s0.139,0.605,0.139,0.945v3.954h-1.859v-3.954c0-0.304-0.07-0.541-0.211-0.711s-0.346-0.255-0.617-0.255
		c-0.205,0-0.396,0.043-0.574,0.129s-0.35,0.203-0.518,0.351v4.44h-1.861v-6.222h1.152c0.232,0,0.385,0.104,0.455,0.312
		L358.462,75.851z"/>
	<path fill="#676767" d="M363.449,76.042c0.375-0.332,0.793-0.578,1.25-0.74c0.459-0.162,0.949-0.243,1.473-0.243
		c0.377,0,0.717,0.061,1.02,0.183s0.559,0.292,0.768,0.51c0.211,0.219,0.371,0.478,0.482,0.777c0.111,0.299,0.168,0.628,0.168,0.984
		v3.888h-0.854c-0.176,0-0.309-0.024-0.396-0.072c-0.09-0.048-0.166-0.147-0.227-0.3L367,80.687
		c-0.154,0.132-0.305,0.248-0.449,0.348c-0.145,0.101-0.293,0.186-0.447,0.255c-0.152,0.07-0.316,0.122-0.49,0.156
		c-0.176,0.034-0.367,0.051-0.578,0.051c-0.285,0-0.543-0.037-0.775-0.11c-0.23-0.074-0.428-0.184-0.59-0.327
		c-0.162-0.145-0.287-0.323-0.375-0.537c-0.088-0.214-0.133-0.461-0.133-0.741c0-0.224,0.057-0.451,0.168-0.681
		s0.307-0.44,0.582-0.63s0.646-0.35,1.115-0.478s1.059-0.2,1.771-0.216v-0.264c0-0.364-0.076-0.627-0.225-0.789
		c-0.15-0.162-0.363-0.243-0.641-0.243c-0.221,0-0.398,0.023-0.541,0.072c-0.141,0.048-0.266,0.102-0.375,0.162
		c-0.107,0.06-0.217,0.113-0.318,0.161c-0.105,0.049-0.23,0.072-0.373,0.072c-0.129,0-0.236-0.032-0.324-0.096
		s-0.16-0.14-0.215-0.229L363.449,76.042z M366.796,78.868c-0.373,0.017-0.678,0.048-0.918,0.097c-0.24,0.048-0.43,0.107-0.57,0.18
		c-0.141,0.073-0.236,0.154-0.291,0.246c-0.055,0.092-0.082,0.191-0.082,0.3c0,0.212,0.059,0.361,0.176,0.447
		c0.115,0.086,0.285,0.129,0.51,0.129c0.24,0,0.449-0.042,0.629-0.126c0.182-0.084,0.363-0.22,0.547-0.408V78.868L366.796,78.868z"
		/>
	<path fill="#676767" d="M371.656,72.418V81.4h-1.859v-8.982H371.656z"/>
</g>
<g>
	<g>
		<g>
			<path fill="#B45B7C" d="M246.632,96.202c0-10.983,0-21.966,0-32.949c-0.832,0.833-1.666,1.667-2.5,2.5
				c14.473,0,28.945,0,43.416,0c3.226,0,3.226-5,0-5c-14.471,0-28.943,0-43.416,0c-1.362,0-2.5,1.138-2.5,2.5
				c0,10.983,0,21.966,0,32.949C241.632,99.427,246.632,99.427,246.632,96.202L246.632,96.202z"/>
		</g>
	</g>
	<path fill="#B45B7C" d="M283.44,56.507c3.776,0,6.84,3.062,6.84,6.84c0,3.774-3.062,6.837-6.84,6.837
		c-3.774,0-6.837-3.062-6.837-6.837C276.604,59.569,279.666,56.507,283.44,56.507z"/>
	<g>
		<g>
			<path fill="#B45B7C" d="M281.751,139.057c14.473,0,28.943,0,43.416,0c3.225,0,3.225-5,0-5c-14.471,0-28.943,0-43.416,0
				C278.527,134.057,278.527,139.057,281.751,139.057L281.751,139.057z"/>
		</g>
	</g>
	<path fill="#B45B7C" d="M321.06,129.811c3.777,0,6.84,3.062,6.84,6.84c0,3.774-3.062,6.837-6.84,6.837
		c-3.773,0-6.838-3.062-6.838-6.837C314.222,132.873,317.285,129.811,321.06,129.811z"/>
	<g>
		<g>
			<path fill="#B45B7C" d="M217.176,173.704c0,14.472,0,28.943,0,43.416c0,3.225,5,3.225,5,0c0-14.473,0-28.944,0-43.416
				C222.176,170.479,217.176,170.479,217.176,173.704L217.176,173.704z"/>
		</g>
	</g>
	<path fill="#B45B7C" d="M226.422,213.013c0,3.776-3.062,6.84-6.84,6.84c-3.775,0-6.837-3.062-6.837-6.84
		c0-3.775,3.062-6.838,6.837-6.838C223.359,206.175,226.422,209.237,226.422,213.013z"/>
	<g>
		<g>
			<path fill="#B45B7C" d="M159.646,134.057c-14.472,0-28.944,0-43.416,0c-3.225,0-3.225,5,0,5c14.472,0,28.944,0,43.416,0
				C162.87,139.057,162.87,134.057,159.646,134.057L159.646,134.057z"/>
		</g>
	</g>
	<circle fill="#B45B7C" cx="120.338" cy="136.649" r="6.838"/>
	<g>
		<g>
			<path fill="#B45B7C" d="M198.734,96.202c0-10.983,0-21.966,0-32.949c0-1.362-1.137-2.5-2.5-2.5c-14.472,0-28.944,0-43.416,0
				c-3.225,0-3.225,5,0,5c14.472,0,28.944,0,43.416,0c-0.833-0.833-1.667-1.667-2.5-2.5c0,10.983,0,21.966,0,32.949
				C193.734,99.427,198.734,99.427,198.734,96.202L198.734,96.202z"/>
		</g>
	</g>
	<path fill="#B45B7C" d="M156.927,56.507c-3.777,0-6.84,3.062-6.84,6.84c0,3.774,3.062,6.837,6.84,6.837
		c3.774,0,6.837-3.062,6.837-6.837C163.764,59.569,160.701,56.507,156.927,56.507z"/>
	<g opacity="0.9">
		<g>
			<g>
				<path fill="#B45B7C" d="M273.472,189.829c-0.487,0-0.969-0.119-1.409-0.354l-25.216-13.365
					c-3.412,0.729-6.811,1.107-10.119,1.107c-24.828,0-45.026-18.744-45.026-41.774c0-23.023,20.198-41.763,45.026-41.763
					s45.023,18.739,45.023,41.763c0,11.385-5.088,22.333-13.998,30.209c-0.424,6.912,5.586,16.729,8.047,20.06
					c0.74,1.017,0.642,2.364-0.258,3.271C275.001,189.532,274.233,189.829,273.472,189.829z M247.272,170.683
					c0.483,0,0.97,0.125,1.403,0.354l17.371,9.205c-2.404-4.826-4.584-10.942-3.799-16.19c0.094-0.609,0.398-1.171,0.896-1.584
					c8.235-6.931,12.957-16.775,12.957-27.013c0-20.134-17.66-36.519-39.368-36.519s-39.37,16.385-39.37,36.519
					c0,20.134,17.656,36.519,39.363,36.519c3.2,0,6.514-0.396,9.833-1.195C246.792,170.713,247.035,170.683,247.272,170.683z"/>
			</g>
		</g>
		<g>
			<g>
				<path fill="#B45B7C" d="M165.854,188.983c-0.899-0.905-1-2.256-0.259-3.271c2.463-3.328,8.47-13.146,8.05-20.061
					c-8.91-7.877-13.999-18.823-13.999-30.208c0-23.023,20.196-41.763,45.024-41.763c24.824,0,45.024,18.739,45.024,41.763
					c0,23.031-20.2,41.774-45.024,41.774c-3.312,0-6.707-0.38-10.118-1.106l-25.217,13.363c-0.441,0.233-0.926,0.354-1.411,0.354
					C167.162,189.829,166.396,189.532,165.854,188.983z M194.836,170.774c3.32,0.802,6.629,1.193,9.834,1.193
					c21.705,0,39.361-16.383,39.361-36.517c0-20.134-17.663-36.519-39.368-36.519c-21.708,0-39.368,16.385-39.368,36.519
					c0,10.237,4.719,20.082,12.953,27.013c0.498,0.413,0.808,0.975,0.902,1.584c0.785,5.248-1.399,11.364-3.803,16.19l17.373-9.205
					c0.435-0.229,0.92-0.354,1.402-0.354C194.363,170.683,194.602,170.713,194.836,170.774z"/>
			</g>
		</g>
		<g>
			<g>
				<g>
					<path fill="#B45B7C" d="M215.924,154.302c-0.413,0-0.754-0.336-0.754-0.748c0-0.416,0.338-0.753,0.754-0.753h8.732
						c0.416,0,0.751,0.337,0.751,0.753c0,0.412-0.335,0.748-0.751,0.748H215.924z"/>
					<path fill="#B45B7C" d="M216.895,157.286c-0.416,0-0.752-0.34-0.752-0.752c0-0.416,0.338-0.749,0.752-0.749h6.791
						c0.413,0,0.751,0.333,0.751,0.749c0,0.412-0.338,0.752-0.751,0.752H216.895z"/>
					<path fill="#B45B7C" d="M219.583,146.899c0,0.414-0.335,0.748-0.748,0.748s-0.749-0.334-0.749-0.748
						c-0.002-3.167-0.094-5.524-0.528-7.713c-0.435-2.167-1.204-4.168-2.578-6.642c-0.2-0.359-0.072-0.817,0.288-1.015
						c0.362-0.203,0.819-0.07,1.02,0.289c1.455,2.625,2.281,4.763,2.742,7.073C219.483,141.174,219.579,143.625,219.583,146.899z"/>
					<path fill="#B45B7C" d="M222.493,146.899c0,0.414-0.334,0.748-0.748,0.748c-0.412,0-0.748-0.334-0.748-0.748
						c0.003-3.274,0.101-5.725,0.555-8.007c0.46-2.311,1.286-4.448,2.742-7.073c0.2-0.362,0.656-0.492,1.017-0.289
						c0.359,0.197,0.488,0.658,0.292,1.015c-1.378,2.474-2.148,4.482-2.58,6.642C222.587,141.375,222.493,143.734,222.493,146.899z"
						/>
					<path fill="#B45B7C" d="M215.404,132.896c-0.394-0.125-0.609-0.55-0.484-0.945c0.128-0.393,0.548-0.608,0.941-0.483
						c0.523,0.169,0.974,0.396,1.393,0.608l0.041,0.019c0.654,0.328,1.195,0.585,1.601,0.258l0.922-0.752
						c0.318-0.261,0.795-0.211,1.055,0.109c0.261,0.319,0.207,0.791-0.109,1.051l-0.926,0.755c-1.149,0.937-2.088,0.479-3.224-0.089
						l-0.031-0.016C216.213,133.227,215.814,133.026,215.404,132.896z"/>
					<path fill="#B45B7C" d="M221.041,115.855c0,0.411-0.335,0.749-0.751,0.749c-0.417,0-0.751-0.338-0.751-0.749v-2.914
						c0-0.413,0.334-0.752,0.751-0.752c0.416,0,0.751,0.339,0.751,0.752V115.855z"/>
					<path fill="#B45B7C" d="M224.719,131.468c0.395-0.125,0.817,0.091,0.941,0.483c0.127,0.396-0.089,0.82-0.484,0.945
						c-0.41,0.13-0.811,0.335-1.176,0.515l-0.035,0.016c-1.134,0.569-2.075,1.027-3.224,0.089l-0.924-0.752
						c-0.318-0.258-0.369-0.731-0.109-1.054c0.259-0.32,0.732-0.367,1.055-0.109l0.924,0.754c0.403,0.328,0.942,0.068,1.599-0.257
						l0.041-0.021C223.742,131.863,224.196,131.637,224.719,131.468z"/>
					<path fill="#B45B7C" d="M229.741,123.866c2.42,2.419,3.915,5.763,3.915,9.448c0,1.447-0.23,2.839-0.656,4.145
						c-0.438,1.354-1.092,2.609-1.914,3.733c-1.379,1.884-2.498,3.125-3.369,4.087c-1.561,1.728-2.247,2.484-2.247,5.014
						c0,0.416-0.335,0.752-0.751,0.752h-0.02h-4.374h-4.398c-0.416,0-0.755-0.336-0.755-0.752c0-2.503-0.697-3.269-2.253-4.969l0,0
						h-0.002c-0.877-0.96-2.006-2.201-3.421-4.132c-0.82-1.124-1.475-2.386-1.912-3.733c-0.426-1.306-0.657-2.7-0.657-4.145
						c0-1.803,0.362-3.53,1.017-5.109l0.012-0.028c0.68-1.629,1.669-3.094,2.887-4.311c1.229-1.226,2.7-2.22,4.341-2.898l0,0
						c1.577-0.655,3.304-1.018,5.111-1.018c1.803,0,3.526,0.362,5.107,1.018C227.038,121.645,228.512,122.641,229.741,123.866
						L229.741,123.866z M232.155,133.314c0-3.272-1.33-6.241-3.479-8.385c-1.095-1.098-2.402-1.979-3.849-2.578
						c-1.394-0.575-2.926-0.895-4.538-0.895c-1.608,0-3.146,0.319-4.535,0.895v-0.002l-0.002,0.002
						c-1.447,0.599-2.752,1.48-3.851,2.578c-1.082,1.082-1.962,2.381-2.561,3.814l-0.016,0.036
						c-0.574,1.392-0.897,2.927-0.897,4.534c0,1.288,0.206,2.526,0.582,3.682c0.392,1.199,0.97,2.318,1.693,3.314
						c1.358,1.853,2.462,3.064,3.321,4.007l0,0c1.67,1.826,2.502,2.742,2.631,5.229h3.662h3.666c0.127-2.503,0.941-3.41,2.622-5.268
						c0.838-0.927,1.915-2.121,3.268-3.968c0.726-0.994,1.305-2.11,1.696-3.312C231.949,135.841,232.155,134.605,232.155,133.314z"
						/>
					<path fill="#B45B7C" d="M217.865,160.263c-0.414,0-0.752-0.336-0.752-0.753c0-0.413,0.338-0.749,0.752-0.749h4.851
						c0.413,0,0.748,0.336,0.748,0.749c0,0.417-0.335,0.753-0.748,0.753H217.865z"/>
					<path fill="#B45B7C" d="M229.505,118.52c-0.203,0.359-0.664,0.481-1.021,0.275c-0.357-0.202-0.479-0.663-0.275-1.02
						l1.454-2.521c0.204-0.359,0.663-0.484,1.023-0.276c0.358,0.206,0.479,0.664,0.276,1.022L229.505,118.52z"/>
					<path fill="#B45B7C" d="M212.369,117.775c0.207,0.356,0.085,0.817-0.275,1.02c-0.356,0.206-0.813,0.084-1.021-0.275
						l-1.455-2.519c-0.203-0.356-0.081-0.816,0.275-1.022c0.359-0.205,0.817-0.083,1.022,0.276L212.369,117.775z"/>
					<path fill="#B45B7C" d="M205.825,123.77c0.356,0.206,0.479,0.663,0.275,1.022c-0.204,0.356-0.663,0.479-1.021,0.275
						l-2.52-1.454c-0.358-0.203-0.483-0.663-0.278-1.02c0.203-0.359,0.664-0.479,1.02-0.275L205.825,123.77z"/>
					<path fill="#B45B7C" d="M235.501,125.067c-0.356,0.203-0.814,0.081-1.021-0.275c-0.204-0.359-0.082-0.816,0.273-1.022
						l2.521-1.454c0.355-0.206,0.816-0.081,1.02,0.278c0.209,0.356,0.082,0.816-0.272,1.021L235.501,125.067z"/>
					<path fill="#B45B7C" d="M212.487,136.286c0.156,0.382-0.021,0.819-0.4,0.978c-0.381,0.162-0.819-0.018-0.979-0.4
						c-0.254-0.604-0.454-1.238-0.586-1.899c-0.131-0.645-0.2-1.311-0.2-1.977c0-0.414,0.339-0.752,0.752-0.752
						c0.417,0,0.751,0.338,0.751,0.752c0,0.588,0.057,1.155,0.166,1.688C212.103,135.234,212.269,135.776,212.487,136.286
						L212.487,136.286z M212.487,129.688c-0.158,0.382-0.601,0.56-0.979,0.4c-0.381-0.161-0.561-0.601-0.4-0.98
						c0.251-0.599,0.561-1.161,0.914-1.687l0,0v-0.002c0.359-0.536,0.767-1.033,1.218-1.48c0.447-0.445,0.944-0.856,1.485-1.223l0,0
						c0.518-0.349,1.088-0.658,1.688-0.911c0.604-0.255,1.236-0.452,1.896-0.585c0.648-0.13,1.314-0.203,1.98-0.203
						c0.416,0,0.751,0.338,0.751,0.752c0,0.416-0.335,0.752-0.751,0.752c-0.589,0-1.155,0.06-1.69,0.161
						c-0.557,0.117-1.098,0.286-1.608,0.502c-0.495,0.208-0.974,0.469-1.43,0.778l0,0l0,0c-0.444,0.294-0.868,0.646-1.256,1.035
						c-0.388,0.391-0.738,0.814-1.042,1.262v-0.002C212.961,128.71,212.698,129.191,212.487,129.688z"/>
				</g>
			</g>
		</g>
	</g>
</g>
</svg>
