<?xml version="1.0" encoding="utf-8"?>
<!-- Generator: Adobe Illustrator 16.0.0, SVG Export Plug-In . SVG Version: 6.00 Build 0)  -->
<!DOCTYPE svg PUBLIC "-//W3C//DTD SVG 1.1//EN" "http://www.w3.org/Graphics/SVG/1.1/DTD/svg11.dtd">
<svg version="1.1" id="Capa_1" xmlns="http://www.w3.org/2000/svg" xmlns:xlink="http://www.w3.org/1999/xlink" x="0px" y="0px"
	 width="413.979px" height="291.092px" viewBox="0 0 413.979 291.092" enable-background="new 0 0 413.979 291.092"
	 xml:space="preserve">
<g opacity="0.9">
	<path fill="#F1896F" d="M213.026,162.702c-9.074,0-16.438-7.357-16.438-16.438c0-9.08,7.361-16.438,16.438-16.438
		c9.08,0,16.438,7.358,16.438,16.438C229.465,155.344,222.106,162.702,213.026,162.702z"/>
	<path fill="#F1896F" d="M173.411,201.265c-6.84,0-12.389-5.546-12.389-12.386c0-6.839,5.549-12.392,12.389-12.392
		c6.842,0,12.389,5.553,12.389,12.392C185.8,195.719,180.253,201.265,173.411,201.265z"/>
	<path fill="#F1896F" d="M190.052,105.391c-6.842,0-12.389-5.551-12.389-12.39s5.547-12.387,12.389-12.387
		c6.844,0,12.389,5.548,12.389,12.387S196.896,105.391,190.052,105.391z"/>
	<path fill="#F1896F" d="M269.323,99.953c0-6.847-5.549-12.391-12.393-12.391c-6.842,0-12.389,5.544-12.389,12.391
		c0,6.839,5.547,12.387,12.389,12.387C263.774,112.339,269.323,106.792,269.323,99.953z M248.16,99.953
		c0-4.845,3.927-8.771,8.771-8.771c4.848,0,8.775,3.926,8.775,8.771c0,4.845-3.928,8.77-8.775,8.77
		C252.087,108.722,248.16,104.797,248.16,99.953z"/>
	<path fill="#F1896F" d="M269.323,193.372c0-6.839-5.549-12.385-12.393-12.385c-6.842,0-12.389,5.546-12.389,12.385
		c0,6.846,5.547,12.391,12.389,12.391C263.774,205.761,269.323,200.217,269.323,193.372z M248.16,193.372
		c0-4.844,3.927-8.771,8.771-8.771c4.848,0,8.775,3.928,8.775,8.771c0,4.843-3.928,8.777-8.775,8.777
		C252.087,202.149,248.16,198.215,248.16,193.372z"/>
	<path fill="#F1896F" d="M166.538,123.732c0-6.846-5.549-12.391-12.389-12.391c-6.844,0-12.389,5.545-12.389,12.391
		c0,6.84,5.545,12.384,12.389,12.384C160.989,136.116,166.538,130.572,166.538,123.732z M145.376,123.732
		c0-4.848,3.93-8.776,8.773-8.776c4.843,0,8.771,3.929,8.771,8.776c0,4.844-3.927,8.771-8.771,8.771
		C149.305,132.503,145.376,128.576,145.376,123.732z"/>
	<path fill="#F1896F" d="M189.73,178.491c-0.901,0.895-2.36,0.895-3.255,0l0,0c-0.902-0.901-0.902-2.359,0-3.258l11.854-11.856
		c0.9-0.899,2.355-0.899,3.256,0l0,0c0.9,0.901,0.9,2.356,0,3.255L189.73,178.491z"/>
	<path fill="#F1896F" d="M196.839,110.524c-0.502-1.172,0.041-2.524,1.21-3.021l0,0c1.168-0.503,2.521,0.041,3.022,1.204
		l6.608,15.412c0.5,1.167-0.039,2.52-1.211,3.021l0,0c-1.169,0.501-2.521-0.041-3.021-1.205L196.839,110.524z"/>
	<path fill="#F1896F" d="M185.668,140.16c-1.181-0.473-1.755-1.812-1.284-2.992l0,0c0.474-1.184,1.813-1.756,2.996-1.286
		l7.061,3.031c1.18,0.474,1.755,1.813,1.281,2.99l0,0c-0.473,1.183-1.812,1.758-2.994,1.285L185.668,140.16z"/>
	<path fill="#F1896F" d="M171.422,134.264c-1.18-0.471-1.755-1.811-1.282-2.993l0,0c0.472-1.177,1.813-1.752,2.993-1.282l7.06,3.032
		c1.184,0.469,1.756,1.812,1.283,2.991l0,0c-0.471,1.178-1.812,1.753-2.994,1.283L171.422,134.264z"/>
	<path fill="#F1896F" d="M237.153,175.299c-0.895-0.907-0.881-2.362,0.021-3.255l0,0c0.908-0.893,2.363-0.88,3.256,0.025
		l5.252,5.606c0.894,0.905,0.881,2.363-0.022,3.257l0,0c-0.909,0.893-2.368,0.883-3.255-0.029L237.153,175.299z"/>
	<path fill="#F1896F" d="M226.468,164.188c-0.893-0.904-0.881-2.362,0.023-3.262l0,0c0.908-0.886,2.367-0.877,3.26,0.028
		l5.252,5.608c0.893,0.906,0.879,2.363-0.029,3.256l0,0c-0.904,0.888-2.363,0.881-3.254-0.026L226.468,164.188z"/>
	<path fill="#F1896F" d="M231.29,122.981c0.908-0.893,2.367-0.88,3.258,0.025l0,0c0.893,0.907,0.883,2.366-0.025,3.258l-5.605,5.247
		c-0.902,0.893-2.363,0.886-3.256-0.021l0,0c-0.893-0.904-0.88-2.362,0.025-3.255L231.29,122.981z"/>
	<path fill="#F1896F" d="M242.407,112.294c0.906-0.885,2.363-0.88,3.256,0.029l0,0c0.893,0.905,0.879,2.361-0.023,3.254
		l-5.608,5.255c-0.905,0.891-2.363,0.878-3.257-0.03l0,0c-0.893-0.904-0.879-2.362,0.029-3.251L242.407,112.294z"/>
</g>
<g enable-background="new    ">
	<path fill="#676767" d="M282.939,85.009v8.742h-1.057c-0.156,0-0.287-0.025-0.393-0.075c-0.106-0.05-0.212-0.137-0.316-0.261
		l-4.121-5.214c0.016,0.156,0.027,0.307,0.033,0.453s0.009,0.282,0.009,0.411v4.686h-1.788v-8.742h1.068
		c0.088,0,0.162,0.004,0.223,0.012c0.059,0.009,0.113,0.023,0.16,0.046c0.049,0.021,0.096,0.053,0.139,0.093
		c0.045,0.04,0.094,0.094,0.15,0.162l4.158,5.25c-0.021-0.168-0.035-0.331-0.043-0.489c-0.009-0.158-0.013-0.307-0.013-0.447V85.01
		L282.939,85.009L282.939,85.009z"/>
	<path fill="#676767" d="M287.098,87.432c0.471,0,0.9,0.074,1.289,0.223c0.389,0.147,0.721,0.359,1,0.636
		c0.277,0.276,0.492,0.611,0.646,1.005c0.153,0.395,0.231,0.837,0.231,1.329c0,0.496-0.078,0.943-0.231,1.341
		c-0.154,0.398-0.369,0.736-0.646,1.014c-0.279,0.278-0.611,0.492-1,0.643c-0.389,0.15-0.818,0.225-1.289,0.225
		c-0.477,0-0.91-0.074-1.299-0.225c-0.391-0.15-0.728-0.364-1.01-0.643c-0.281-0.277-0.5-0.615-0.652-1.014
		c-0.154-0.397-0.231-0.845-0.231-1.341c0-0.492,0.077-0.935,0.231-1.329c0.152-0.394,0.371-0.729,0.652-1.005
		c0.282-0.276,0.619-0.488,1.01-0.636C286.188,87.507,286.621,87.432,287.098,87.432z M287.098,92.467
		c0.428,0,0.742-0.15,0.943-0.453c0.203-0.302,0.305-0.761,0.305-1.377c0-0.615-0.102-1.074-0.305-1.374
		c-0.201-0.3-0.517-0.45-0.943-0.45c-0.439,0-0.764,0.15-0.967,0.45s-0.307,0.759-0.307,1.374c0,0.616,0.104,1.075,0.307,1.377
		S286.658,92.467,287.098,92.467z"/>
	<path fill="#676767" d="M292.941,88.489c0.191-0.336,0.412-0.601,0.662-0.792c0.25-0.192,0.537-0.288,0.861-0.288
		c0.279,0,0.508,0.065,0.684,0.198l-0.119,1.367c-0.021,0.089-0.054,0.148-0.1,0.181c-0.047,0.033-0.109,0.048-0.189,0.048
		c-0.031,0-0.074-0.002-0.125-0.006c-0.053-0.004-0.105-0.01-0.162-0.016s-0.113-0.012-0.172-0.018
		c-0.058-0.006-0.109-0.009-0.158-0.009c-0.271,0-0.488,0.071-0.65,0.216c-0.162,0.144-0.299,0.344-0.411,0.6v3.78h-1.858v-6.222
		h1.104c0.092,0,0.169,0.008,0.23,0.023c0.062,0.017,0.114,0.041,0.155,0.075c0.043,0.034,0.074,0.079,0.097,0.135
		c0.021,0.057,0.041,0.124,0.058,0.204L292.941,88.489z"/>
	<path fill="#676767" d="M295.779,93.751v-6.222h1.152c0.23,0,0.383,0.104,0.455,0.312l0.102,0.336
		c0.104-0.107,0.213-0.207,0.324-0.297c0.112-0.09,0.232-0.168,0.363-0.234c0.13-0.065,0.27-0.117,0.42-0.155
		s0.314-0.058,0.495-0.058c0.376,0,0.687,0.098,0.933,0.291c0.246,0.194,0.434,0.453,0.562,0.777
		c0.104-0.192,0.23-0.356,0.381-0.492c0.15-0.136,0.312-0.246,0.486-0.33c0.174-0.084,0.357-0.146,0.551-0.186
		c0.195-0.04,0.388-0.061,0.58-0.061c0.355,0,0.672,0.054,0.947,0.159c0.275,0.106,0.508,0.26,0.693,0.462s0.326,0.45,0.422,0.744
		c0.098,0.294,0.145,0.627,0.145,0.999v3.954h-1.858v-3.954c0-0.644-0.277-0.966-0.828-0.966c-0.252,0-0.461,0.083-0.627,0.249
		s-0.25,0.405-0.25,0.717v3.954h-1.858v-3.954c0-0.355-0.07-0.605-0.211-0.75c-0.14-0.144-0.347-0.216-0.617-0.216
		c-0.168,0-0.328,0.038-0.478,0.114c-0.149,0.076-0.291,0.178-0.424,0.306v4.5L295.779,93.751L295.779,93.751z"/>
	<path fill="#676767" d="M305.854,88.392c0.375-0.332,0.793-0.578,1.25-0.74c0.459-0.162,0.949-0.243,1.473-0.243
		c0.377,0,0.717,0.061,1.019,0.183c0.303,0.122,0.559,0.292,0.768,0.51c0.212,0.219,0.371,0.478,0.483,0.777
		c0.111,0.299,0.168,0.628,0.168,0.984v3.888h-0.854c-0.176,0-0.309-0.024-0.397-0.072s-0.165-0.147-0.226-0.3l-0.133-0.342
		c-0.154,0.132-0.306,0.248-0.449,0.348c-0.145,0.101-0.293,0.186-0.446,0.255c-0.154,0.07-0.318,0.122-0.492,0.156
		c-0.174,0.034-0.367,0.051-0.578,0.051c-0.285,0-0.543-0.037-0.774-0.11c-0.231-0.074-0.429-0.184-0.59-0.327
		c-0.162-0.145-0.287-0.323-0.375-0.537c-0.089-0.214-0.134-0.461-0.134-0.741c0-0.224,0.058-0.451,0.168-0.681
		c0.112-0.23,0.308-0.44,0.582-0.63c0.276-0.19,0.647-0.35,1.116-0.478c0.468-0.128,1.059-0.2,1.771-0.216v-0.264
		c0-0.364-0.076-0.627-0.226-0.789s-0.363-0.243-0.64-0.243c-0.221,0-0.399,0.023-0.541,0.072c-0.141,0.048-0.266,0.102-0.375,0.162
		c-0.108,0.06-0.217,0.113-0.319,0.161c-0.104,0.049-0.229,0.072-0.373,0.072c-0.128,0-0.235-0.032-0.324-0.096
		c-0.088-0.064-0.159-0.14-0.215-0.229L305.854,88.392z M309.201,91.219c-0.373,0.017-0.678,0.048-0.918,0.097
		c-0.24,0.048-0.43,0.107-0.57,0.18c-0.14,0.073-0.235,0.154-0.291,0.246c-0.055,0.092-0.08,0.191-0.08,0.3
		c0,0.212,0.058,0.361,0.174,0.447s0.286,0.129,0.511,0.129c0.239,0,0.449-0.042,0.629-0.126c0.181-0.084,0.362-0.22,0.548-0.408
		v-0.865H309.201z"/>
	<path fill="#676767" d="M316.154,88.89c-0.048,0.076-0.1,0.131-0.152,0.162c-0.055,0.032-0.123,0.048-0.207,0.048
		c-0.088,0-0.176-0.019-0.265-0.057c-0.088-0.038-0.183-0.079-0.284-0.123c-0.103-0.044-0.218-0.085-0.346-0.123
		c-0.128-0.038-0.273-0.057-0.438-0.057c-0.236,0-0.418,0.045-0.543,0.135c-0.127,0.09-0.189,0.215-0.189,0.375
		c0,0.116,0.041,0.212,0.123,0.288s0.191,0.143,0.326,0.201c0.137,0.058,0.291,0.113,0.463,0.165
		c0.172,0.052,0.348,0.109,0.527,0.174c0.18,0.063,0.355,0.139,0.527,0.225s0.326,0.192,0.463,0.318s0.244,0.279,0.326,0.459
		c0.082,0.18,0.123,0.396,0.123,0.647c0,0.309-0.056,0.593-0.168,0.853c-0.111,0.26-0.279,0.484-0.501,0.672
		c-0.223,0.188-0.496,0.334-0.821,0.438c-0.326,0.104-0.701,0.155-1.125,0.155c-0.213,0-0.425-0.02-0.637-0.06
		s-0.417-0.094-0.615-0.162c-0.197-0.068-0.381-0.149-0.549-0.243c-0.168-0.094-0.312-0.195-0.433-0.303l0.433-0.685
		c0.049-0.079,0.108-0.143,0.184-0.188c0.074-0.045,0.17-0.069,0.285-0.069c0.107,0,0.205,0.024,0.291,0.072
		c0.086,0.048,0.18,0.1,0.278,0.156c0.101,0.056,0.218,0.107,0.353,0.155c0.133,0.049,0.303,0.072,0.506,0.072
		c0.145,0,0.267-0.015,0.367-0.045c0.1-0.03,0.18-0.071,0.238-0.123c0.059-0.052,0.104-0.109,0.133-0.174
		c0.027-0.063,0.041-0.13,0.041-0.198c0-0.124-0.041-0.226-0.125-0.306s-0.193-0.149-0.33-0.207s-0.291-0.112-0.465-0.162
		c-0.175-0.05-0.353-0.106-0.531-0.171c-0.18-0.065-0.356-0.141-0.531-0.231c-0.174-0.09-0.328-0.203-0.465-0.342
		c-0.137-0.138-0.246-0.307-0.33-0.507c-0.084-0.2-0.125-0.442-0.125-0.726c0-0.265,0.051-0.516,0.152-0.753
		c0.102-0.238,0.256-0.447,0.459-0.628c0.203-0.18,0.459-0.322,0.768-0.429c0.309-0.105,0.668-0.159,1.08-0.159
		c0.225,0,0.441,0.021,0.65,0.061c0.211,0.04,0.407,0.096,0.592,0.168c0.184,0.072,0.352,0.157,0.504,0.255
		c0.152,0.098,0.285,0.205,0.402,0.321L316.154,88.89z"/>
	<path fill="#676767" d="M325.929,87.529l-3.324,7.836c-0.056,0.124-0.124,0.215-0.204,0.272c-0.08,0.059-0.207,0.087-0.384,0.087
		h-1.392l1.198-2.52l-2.483-5.676h1.645c0.145,0,0.256,0.032,0.334,0.096c0.077,0.064,0.135,0.14,0.17,0.228l1.021,2.683
		c0.096,0.244,0.174,0.494,0.232,0.75c0.045-0.128,0.088-0.256,0.133-0.384c0.043-0.128,0.091-0.254,0.139-0.378l0.924-2.671
		c0.036-0.092,0.102-0.169,0.191-0.23c0.093-0.062,0.191-0.093,0.301-0.093H325.929z"/>
	<path fill="#676767" d="M278.182,102.339c-0.056,0.068-0.11,0.122-0.162,0.162s-0.126,0.06-0.222,0.06
		c-0.092,0-0.176-0.021-0.25-0.065c-0.073-0.044-0.156-0.093-0.248-0.147s-0.2-0.103-0.324-0.146s-0.277-0.066-0.462-0.066
		c-0.228,0-0.425,0.042-0.591,0.126s-0.303,0.204-0.411,0.36c-0.108,0.156-0.188,0.347-0.24,0.573
		c-0.052,0.226-0.078,0.48-0.078,0.765c0,0.596,0.115,1.054,0.345,1.374c0.23,0.32,0.547,0.479,0.951,0.479
		c0.217,0,0.387-0.026,0.515-0.08c0.125-0.055,0.231-0.114,0.319-0.181c0.088-0.065,0.17-0.127,0.243-0.183
		c0.074-0.056,0.167-0.084,0.279-0.084c0.147,0,0.26,0.054,0.336,0.162l0.54,0.666c-0.191,0.22-0.395,0.398-0.605,0.537
		c-0.213,0.138-0.43,0.245-0.651,0.323s-0.444,0.133-0.668,0.162c-0.226,0.03-0.442,0.045-0.654,0.045
		c-0.381,0-0.743-0.071-1.089-0.216c-0.348-0.144-0.65-0.353-0.912-0.627c-0.263-0.273-0.47-0.611-0.624-1.011
		c-0.153-0.4-0.229-0.856-0.229-1.368c0-0.448,0.065-0.867,0.199-1.257c0.135-0.391,0.332-0.729,0.596-1.015
		c0.262-0.285,0.586-0.511,0.972-0.675s0.833-0.246,1.341-0.246c0.488,0,0.916,0.078,1.284,0.234c0.368,0.156,0.7,0.384,0.995,0.684
		L278.182,102.339z"/>
	<path fill="#676767" d="M282.208,100.766c0.471,0,0.9,0.074,1.289,0.223c0.389,0.147,0.721,0.359,1,0.636
		c0.276,0.276,0.492,0.611,0.646,1.005c0.153,0.395,0.23,0.837,0.23,1.329c0,0.496-0.077,0.943-0.23,1.341
		c-0.154,0.398-0.37,0.736-0.646,1.014c-0.279,0.278-0.611,0.492-1,0.643c-0.389,0.15-0.818,0.225-1.289,0.225
		c-0.478,0-0.91-0.074-1.299-0.225c-0.392-0.15-0.728-0.364-1.01-0.643c-0.281-0.277-0.5-0.615-0.652-1.014
		c-0.154-0.397-0.231-0.845-0.231-1.341c0-0.492,0.077-0.935,0.231-1.329c0.152-0.394,0.371-0.729,0.652-1.005
		c0.282-0.276,0.618-0.488,1.01-0.636C281.298,100.841,281.731,100.766,282.208,100.766z M282.208,105.801
		c0.428,0,0.742-0.15,0.943-0.453c0.202-0.302,0.305-0.761,0.305-1.377c0-0.615-0.103-1.074-0.305-1.374
		c-0.201-0.3-0.517-0.45-0.943-0.45c-0.44,0-0.764,0.15-0.967,0.45s-0.307,0.759-0.307,1.374c0,0.616,0.104,1.075,0.307,1.377
		C281.446,105.65,281.768,105.801,282.208,105.801z"/>
	<path fill="#676767" d="M288.028,101.535c0.119-0.112,0.243-0.216,0.371-0.312c0.129-0.096,0.266-0.177,0.411-0.243
		c0.146-0.065,0.304-0.117,0.474-0.155s0.355-0.058,0.557-0.058c0.34,0,0.641,0.06,0.902,0.178c0.263,0.117,0.482,0.281,0.662,0.491
		s0.316,0.46,0.408,0.75s0.139,0.605,0.139,0.945v3.954h-1.859v-3.954c0-0.304-0.07-0.541-0.21-0.711
		c-0.142-0.17-0.347-0.255-0.618-0.255c-0.204,0-0.396,0.043-0.573,0.129c-0.177,0.086-0.351,0.203-0.519,0.351v4.44h-1.86v-6.222
		h1.152c0.231,0,0.384,0.104,0.455,0.312L288.028,101.535z"/>
	<path fill="#676767" d="M298.864,100.863l-2.412,6.222h-1.692l-2.412-6.222h1.549c0.132,0,0.242,0.03,0.332,0.093
		c0.091,0.062,0.151,0.139,0.185,0.23l0.862,2.79c0.076,0.229,0.145,0.45,0.201,0.666c0.06,0.217,0.109,0.433,0.153,0.648
		c0.088-0.432,0.21-0.87,0.365-1.314l0.9-2.79c0.031-0.092,0.092-0.169,0.18-0.23c0.088-0.062,0.191-0.093,0.312-0.093H298.864z"/>
	<path fill="#676767" d="M300.79,104.306c0.06,0.521,0.217,0.897,0.473,1.131c0.257,0.234,0.586,0.352,0.99,0.352
		c0.217,0,0.402-0.026,0.559-0.078c0.157-0.052,0.295-0.11,0.417-0.174s0.233-0.122,0.336-0.174
		c0.103-0.053,0.209-0.078,0.321-0.078c0.146,0,0.26,0.054,0.336,0.162l0.539,0.666c-0.191,0.22-0.398,0.398-0.62,0.537
		c-0.222,0.138-0.45,0.245-0.685,0.323c-0.235,0.078-0.469,0.133-0.701,0.162c-0.234,0.03-0.457,0.045-0.67,0.045
		c-0.437,0-0.846-0.07-1.228-0.213c-0.382-0.142-0.717-0.353-1.002-0.633c-0.286-0.28-0.512-0.628-0.678-1.044s-0.25-0.9-0.25-1.452
		c0-0.416,0.071-0.81,0.214-1.182s0.346-0.698,0.611-0.979c0.267-0.279,0.589-0.502,0.966-0.666c0.379-0.164,0.806-0.246,1.28-0.246
		c0.412,0,0.789,0.064,1.132,0.192s0.637,0.314,0.883,0.558s0.438,0.543,0.576,0.897s0.206,0.755,0.206,1.203
		c0,0.14-0.006,0.254-0.019,0.342c-0.012,0.088-0.034,0.158-0.065,0.21c-0.032,0.052-0.075,0.088-0.129,0.108
		c-0.055,0.02-0.123,0.029-0.207,0.029h-3.586V104.306z M303.13,103.226c0-0.147-0.021-0.292-0.059-0.432
		c-0.037-0.14-0.101-0.265-0.187-0.375c-0.086-0.11-0.198-0.199-0.338-0.267c-0.142-0.068-0.312-0.103-0.511-0.103
		c-0.353,0-0.629,0.102-0.828,0.303c-0.2,0.202-0.332,0.493-0.396,0.873L303.13,103.226L303.13,103.226z"/>
	<path fill="#676767" d="M307.443,101.535c0.12-0.112,0.243-0.216,0.372-0.312c0.128-0.096,0.266-0.177,0.41-0.243
		c0.146-0.065,0.305-0.117,0.475-0.155s0.355-0.058,0.556-0.058c0.34,0,0.641,0.06,0.903,0.178c0.262,0.117,0.482,0.281,0.662,0.491
		s0.316,0.46,0.408,0.75s0.139,0.605,0.139,0.945v3.954h-1.86v-3.954c0-0.304-0.07-0.541-0.209-0.711
		c-0.142-0.17-0.347-0.255-0.619-0.255c-0.203,0-0.396,0.043-0.572,0.129c-0.177,0.086-0.352,0.203-0.52,0.351v4.44h-1.859v-6.222
		h1.152c0.231,0,0.383,0.104,0.455,0.312L307.443,101.535z"/>
	<path fill="#676767" d="M317.14,102.339c-0.057,0.068-0.111,0.122-0.162,0.162c-0.053,0.04-0.127,0.06-0.223,0.06
		c-0.092,0-0.176-0.021-0.249-0.065s-0.157-0.093-0.249-0.147s-0.199-0.103-0.324-0.146c-0.123-0.044-0.277-0.066-0.461-0.066
		c-0.229,0-0.426,0.042-0.592,0.126s-0.303,0.204-0.41,0.36c-0.109,0.156-0.189,0.347-0.24,0.573
		c-0.053,0.226-0.078,0.48-0.078,0.765c0,0.596,0.115,1.054,0.346,1.374c0.229,0.32,0.547,0.479,0.949,0.479
		c0.217,0,0.389-0.026,0.515-0.08c0.126-0.055,0.231-0.114,0.321-0.181c0.088-0.065,0.168-0.127,0.242-0.183
		s0.166-0.084,0.279-0.084c0.146,0,0.26,0.054,0.336,0.162l0.539,0.666c-0.191,0.22-0.395,0.398-0.605,0.537
		c-0.213,0.138-0.43,0.245-0.65,0.323s-0.444,0.133-0.669,0.162c-0.226,0.03-0.441,0.045-0.654,0.045
		c-0.38,0-0.742-0.071-1.088-0.216c-0.347-0.144-0.649-0.353-0.912-0.627c-0.263-0.273-0.471-0.611-0.625-1.011
		c-0.153-0.4-0.229-0.856-0.229-1.368c0-0.448,0.065-0.867,0.201-1.257c0.133-0.391,0.332-0.729,0.594-1.015
		c0.262-0.285,0.586-0.511,0.973-0.675c0.385-0.164,0.832-0.246,1.34-0.246c0.488,0,0.916,0.078,1.285,0.234
		c0.367,0.156,0.699,0.384,0.995,0.684L317.14,102.339z"/>
	<path fill="#676767" d="M320.499,99.159c0,0.147-0.03,0.287-0.09,0.417c-0.062,0.13-0.144,0.244-0.246,0.342
		c-0.104,0.098-0.226,0.176-0.363,0.234c-0.139,0.058-0.285,0.087-0.441,0.087c-0.15,0-0.293-0.029-0.426-0.087
		c-0.132-0.059-0.248-0.137-0.352-0.234c-0.103-0.097-0.183-0.212-0.239-0.342c-0.058-0.13-0.087-0.27-0.087-0.417
		c0-0.152,0.029-0.294,0.087-0.426c0.058-0.133,0.138-0.248,0.239-0.349c0.104-0.1,0.22-0.178,0.352-0.233
		c0.133-0.057,0.273-0.084,0.426-0.084c0.156,0,0.305,0.027,0.441,0.084c0.139,0.056,0.26,0.134,0.363,0.233
		c0.104,0.101,0.186,0.216,0.246,0.349C320.469,98.865,320.499,99.007,320.499,99.159z M320.308,100.863v6.222h-1.861v-6.222
		H320.308z"/>
	<path fill="#676767" d="M324.478,100.766c0.471,0,0.901,0.074,1.289,0.223c0.389,0.147,0.721,0.359,1,0.636
		c0.277,0.276,0.493,0.611,0.646,1.005c0.153,0.395,0.231,0.837,0.231,1.329c0,0.496-0.078,0.943-0.231,1.341
		s-0.369,0.736-0.646,1.014c-0.279,0.278-0.611,0.492-1,0.643c-0.388,0.15-0.818,0.225-1.289,0.225c-0.477,0-0.91-0.074-1.299-0.225
		c-0.391-0.15-0.727-0.364-1.01-0.643c-0.281-0.277-0.5-0.615-0.652-1.014c-0.154-0.397-0.23-0.845-0.23-1.341
		c0-0.492,0.076-0.935,0.23-1.329c0.152-0.394,0.371-0.729,0.652-1.005c0.283-0.276,0.619-0.488,1.01-0.636
		C323.567,100.841,324.001,100.766,324.478,100.766z M324.478,105.801c0.428,0,0.742-0.15,0.944-0.453
		c0.202-0.302,0.304-0.761,0.304-1.377c0-0.615-0.102-1.074-0.304-1.374s-0.517-0.45-0.944-0.45c-0.439,0-0.763,0.15-0.967,0.45
		c-0.203,0.3-0.307,0.759-0.307,1.374c0,0.616,0.104,1.075,0.307,1.377C323.715,105.65,324.036,105.801,324.478,105.801z"/>
	<path fill="#676767" d="M330.298,101.535c0.119-0.112,0.242-0.216,0.371-0.312s0.266-0.177,0.41-0.243
		c0.146-0.065,0.305-0.117,0.475-0.155s0.355-0.058,0.556-0.058c0.341,0,0.642,0.06,0.903,0.178
		c0.262,0.117,0.482,0.281,0.662,0.491s0.316,0.46,0.408,0.75s0.139,0.605,0.139,0.945v3.954h-1.859v-3.954
		c0-0.304-0.07-0.541-0.211-0.711c-0.141-0.17-0.346-0.255-0.617-0.255c-0.205,0-0.396,0.043-0.573,0.129
		c-0.177,0.086-0.352,0.203-0.52,0.351v4.44h-1.86v-6.222h1.152c0.232,0,0.385,0.104,0.455,0.312L330.298,101.535z"/>
	<path fill="#676767" d="M336.952,104.306c0.06,0.521,0.217,0.897,0.474,1.131c0.256,0.234,0.586,0.352,0.989,0.352
		c0.217,0,0.402-0.026,0.56-0.078c0.155-0.052,0.295-0.11,0.416-0.174c0.123-0.064,0.233-0.122,0.336-0.174
		c0.104-0.053,0.209-0.078,0.321-0.078c0.146,0,0.261,0.054,0.336,0.162l0.54,0.666c-0.191,0.22-0.398,0.398-0.621,0.537
		c-0.222,0.138-0.449,0.245-0.685,0.323c-0.234,0.078-0.469,0.133-0.701,0.162c-0.233,0.03-0.457,0.045-0.67,0.045
		c-0.436,0-0.846-0.07-1.227-0.213c-0.383-0.142-0.717-0.353-1.002-0.633c-0.287-0.28-0.513-0.628-0.679-1.044
		s-0.249-0.9-0.249-1.452c0-0.416,0.07-0.81,0.213-1.182s0.346-0.698,0.611-0.979c0.268-0.279,0.589-0.502,0.967-0.666
		c0.379-0.164,0.805-0.246,1.281-0.246c0.412,0,0.789,0.064,1.131,0.192s0.637,0.314,0.882,0.558
		c0.246,0.244,0.438,0.543,0.576,0.897c0.138,0.354,0.207,0.755,0.207,1.203c0,0.14-0.006,0.254-0.02,0.342
		c-0.012,0.088-0.033,0.158-0.064,0.21c-0.032,0.052-0.075,0.088-0.129,0.108c-0.055,0.02-0.123,0.029-0.207,0.029h-3.587V104.306z
		 M339.29,103.226c0-0.147-0.019-0.292-0.058-0.432c-0.036-0.14-0.1-0.265-0.186-0.375c-0.087-0.11-0.199-0.199-0.339-0.267
		c-0.141-0.068-0.311-0.103-0.51-0.103c-0.354,0-0.629,0.102-0.828,0.303c-0.201,0.202-0.332,0.493-0.396,0.873L339.29,103.226
		L339.29,103.226z"/>
	<path fill="#676767" d="M345.843,102.224c-0.048,0.076-0.101,0.131-0.152,0.162c-0.055,0.032-0.123,0.048-0.207,0.048
		c-0.089,0-0.177-0.019-0.265-0.057c-0.088-0.038-0.184-0.079-0.285-0.123c-0.102-0.044-0.217-0.085-0.345-0.123
		c-0.128-0.038-0.273-0.057-0.438-0.057c-0.235,0-0.418,0.045-0.543,0.135c-0.127,0.09-0.188,0.215-0.188,0.375
		c0,0.116,0.041,0.212,0.123,0.288s0.19,0.143,0.325,0.201c0.138,0.058,0.291,0.113,0.463,0.165
		c0.173,0.052,0.349,0.109,0.527,0.174c0.18,0.063,0.356,0.139,0.528,0.225s0.326,0.192,0.462,0.318
		c0.137,0.126,0.245,0.279,0.327,0.459c0.082,0.18,0.123,0.396,0.123,0.647c0,0.309-0.057,0.593-0.168,0.853
		c-0.112,0.26-0.279,0.484-0.501,0.672c-0.224,0.188-0.496,0.334-0.822,0.438c-0.326,0.104-0.701,0.155-1.125,0.155
		c-0.212,0-0.424-0.02-0.636-0.06s-0.417-0.094-0.615-0.162c-0.198-0.068-0.381-0.149-0.549-0.243
		c-0.168-0.094-0.312-0.195-0.434-0.303l0.434-0.685c0.048-0.079,0.107-0.143,0.183-0.188s0.17-0.069,0.285-0.069
		c0.108,0,0.205,0.024,0.291,0.072c0.086,0.048,0.18,0.1,0.279,0.156c0.1,0.056,0.217,0.107,0.352,0.155
		c0.133,0.049,0.303,0.072,0.506,0.072c0.146,0,0.268-0.015,0.367-0.045c0.1-0.03,0.18-0.071,0.239-0.123
		c0.059-0.052,0.104-0.109,0.132-0.174c0.028-0.063,0.042-0.13,0.042-0.198c0-0.124-0.042-0.226-0.126-0.306
		s-0.193-0.149-0.33-0.207c-0.136-0.058-0.291-0.112-0.465-0.162c-0.174-0.05-0.352-0.106-0.531-0.171
		c-0.179-0.065-0.355-0.141-0.531-0.231c-0.174-0.09-0.328-0.203-0.465-0.342c-0.136-0.138-0.246-0.307-0.33-0.507
		c-0.084-0.2-0.125-0.442-0.125-0.726c0-0.265,0.052-0.516,0.152-0.753c0.102-0.238,0.256-0.447,0.459-0.628
		c0.204-0.18,0.46-0.322,0.768-0.429c0.31-0.105,0.668-0.159,1.08-0.159c0.226,0,0.441,0.021,0.651,0.061s0.407,0.096,0.591,0.168
		c0.185,0.072,0.353,0.157,0.504,0.255c0.152,0.098,0.286,0.205,0.402,0.321L345.843,102.224z"/>
</g>
<g enable-background="new    ">
	<path fill="#676767" d="M282.627,189.371c0.047,0,0.096,0.01,0.144,0.025c0.048,0.02,0.095,0.051,0.138,0.095l0.805,0.846
		c-0.352,0.46-0.793,0.808-1.322,1.041c-0.53,0.233-1.157,0.351-1.881,0.351c-0.664,0-1.26-0.111-1.785-0.338
		s-0.973-0.539-1.338-0.937c-0.366-0.397-0.647-0.87-0.844-1.416c-0.195-0.546-0.295-1.14-0.295-1.778
		c0-0.652,0.106-1.252,0.318-1.798c0.213-0.546,0.51-1.018,0.895-1.413s0.845-0.703,1.381-0.924c0.535-0.22,1.125-0.33,1.771-0.33
		c0.327,0,0.638,0.029,0.927,0.088c0.291,0.057,0.562,0.137,0.812,0.239c0.252,0.103,0.482,0.226,0.695,0.369s0.4,0.3,0.564,0.468
		l-0.686,0.918c-0.043,0.057-0.096,0.106-0.155,0.153c-0.06,0.046-0.144,0.067-0.252,0.067c-0.071,0-0.14-0.016-0.204-0.047
		c-0.064-0.033-0.132-0.072-0.203-0.117c-0.072-0.047-0.152-0.097-0.238-0.149c-0.086-0.056-0.188-0.104-0.305-0.149
		c-0.119-0.047-0.257-0.086-0.414-0.117c-0.158-0.032-0.344-0.049-0.556-0.049c-0.336,0-0.644,0.062-0.921,0.188
		c-0.278,0.124-0.518,0.305-0.721,0.543c-0.201,0.236-0.357,0.529-0.468,0.876c-0.11,0.346-0.166,0.739-0.166,1.185
		c0,0.448,0.062,0.846,0.185,1.194c0.121,0.349,0.287,0.642,0.498,0.879c0.209,0.238,0.455,0.419,0.733,0.543
		c0.28,0.124,0.58,0.187,0.9,0.187c0.184,0,0.352-0.01,0.504-0.026c0.151-0.019,0.294-0.049,0.426-0.091
		c0.134-0.042,0.256-0.098,0.373-0.168c0.115-0.069,0.233-0.158,0.354-0.268c0.047-0.039,0.1-0.072,0.156-0.099
		C282.509,189.385,282.566,189.371,282.627,189.371z"/>
	<path fill="#676767" d="M284.246,186.274c0.377-0.332,0.793-0.578,1.252-0.74c0.457-0.162,0.949-0.243,1.474-0.243
		c0.375,0,0.715,0.061,1.017,0.184c0.303,0.121,0.559,0.291,0.77,0.51c0.209,0.219,0.371,0.478,0.482,0.777
		c0.11,0.299,0.168,0.627,0.168,0.983v3.888h-0.853c-0.177,0-0.31-0.023-0.399-0.072c-0.09-0.047-0.164-0.146-0.226-0.299
		l-0.131-0.343c-0.156,0.132-0.308,0.248-0.45,0.349c-0.145,0.101-0.294,0.186-0.447,0.254c-0.152,0.07-0.316,0.123-0.492,0.156
		c-0.174,0.034-0.365,0.051-0.578,0.051c-0.283,0-0.541-0.036-0.773-0.109c-0.232-0.074-0.43-0.184-0.592-0.327
		c-0.162-0.146-0.287-0.323-0.375-0.536c-0.088-0.215-0.131-0.462-0.131-0.742c0-0.224,0.055-0.451,0.168-0.681
		c0.11-0.229,0.306-0.44,0.582-0.63c0.274-0.189,0.646-0.35,1.115-0.479c0.469-0.127,1.059-0.199,1.77-0.215v-0.265
		c0-0.364-0.074-0.627-0.225-0.789c-0.151-0.162-0.363-0.243-0.64-0.243c-0.222,0-0.399,0.023-0.54,0.072
		c-0.141,0.048-0.266,0.102-0.375,0.162s-0.218,0.113-0.32,0.161c-0.104,0.049-0.229,0.071-0.371,0.071
		c-0.129,0-0.236-0.031-0.324-0.096s-0.16-0.14-0.217-0.229L284.246,186.274z M287.594,189.1c-0.371,0.018-0.678,0.049-0.918,0.098
		c-0.239,0.048-0.43,0.107-0.569,0.18c-0.139,0.073-0.237,0.154-0.291,0.246s-0.081,0.191-0.081,0.301
		c0,0.211,0.059,0.36,0.174,0.446c0.116,0.086,0.286,0.129,0.51,0.129c0.24,0,0.451-0.042,0.632-0.126
		c0.18-0.084,0.36-0.22,0.545-0.408L287.594,189.1L287.594,189.1z"/>
	<path fill="#676767" d="M292.311,186.083c0.119-0.112,0.244-0.216,0.371-0.312c0.129-0.096,0.266-0.178,0.412-0.243
		s0.304-0.117,0.474-0.155s0.354-0.058,0.556-0.058c0.34,0,0.642,0.06,0.902,0.178c0.262,0.117,0.482,0.281,0.663,0.491
		s0.315,0.46,0.407,0.75c0.093,0.29,0.139,0.605,0.139,0.945v3.953h-1.859v-3.953c0-0.305-0.069-0.541-0.211-0.711
		c-0.14-0.17-0.346-0.256-0.617-0.256c-0.204,0-0.396,0.043-0.573,0.129c-0.179,0.086-0.351,0.203-0.519,0.352v4.439h-1.86v-6.222
		h1.151c0.232,0,0.385,0.104,0.457,0.312L292.311,186.083z"/>
	<path fill="#676767" d="M297.297,186.274c0.375-0.332,0.793-0.578,1.25-0.74c0.459-0.162,0.949-0.243,1.473-0.243
		c0.377,0,0.716,0.061,1.018,0.184c0.304,0.121,0.56,0.291,0.769,0.51c0.211,0.219,0.371,0.478,0.483,0.777
		c0.111,0.299,0.168,0.627,0.168,0.983v3.888h-0.854c-0.176,0-0.309-0.023-0.398-0.072c-0.088-0.047-0.164-0.146-0.225-0.299
		l-0.133-0.343c-0.155,0.132-0.307,0.248-0.449,0.349c-0.145,0.101-0.293,0.186-0.447,0.254c-0.154,0.07-0.317,0.123-0.492,0.156
		c-0.174,0.034-0.366,0.051-0.578,0.051c-0.284,0-0.543-0.036-0.774-0.109c-0.231-0.074-0.428-0.184-0.59-0.327
		c-0.162-0.146-0.287-0.323-0.375-0.536c-0.088-0.215-0.133-0.462-0.133-0.742c0-0.224,0.057-0.451,0.168-0.681
		c0.112-0.229,0.307-0.44,0.582-0.63c0.276-0.189,0.647-0.35,1.116-0.479c0.468-0.127,1.058-0.199,1.771-0.215v-0.265
		c0-0.364-0.075-0.627-0.226-0.789c-0.149-0.162-0.362-0.243-0.64-0.243c-0.22,0-0.399,0.023-0.54,0.072
		c-0.141,0.048-0.266,0.102-0.375,0.162s-0.217,0.113-0.32,0.161c-0.104,0.049-0.229,0.071-0.373,0.071
		c-0.127,0-0.235-0.031-0.323-0.096s-0.16-0.14-0.216-0.229L297.297,186.274z M300.645,189.1c-0.373,0.018-0.678,0.049-0.918,0.098
		c-0.24,0.048-0.43,0.107-0.57,0.18c-0.14,0.073-0.236,0.154-0.291,0.246s-0.08,0.191-0.08,0.301c0,0.211,0.058,0.36,0.174,0.446
		c0.115,0.086,0.285,0.129,0.511,0.129c0.239,0,0.448-0.042,0.629-0.126s0.362-0.22,0.547-0.408L300.645,189.1L300.645,189.1z"/>
	<path fill="#676767" d="M305.504,182.65v8.982h-1.859v-8.982H305.504z"/>
	<path fill="#676767" d="M308.293,188.854c0.061,0.521,0.219,0.897,0.475,1.132c0.256,0.233,0.586,0.352,0.99,0.352
		c0.216,0,0.402-0.026,0.559-0.077c0.155-0.053,0.295-0.11,0.416-0.175c0.123-0.063,0.234-0.122,0.336-0.174
		c0.104-0.053,0.209-0.078,0.321-0.078c0.147,0,0.261,0.054,0.336,0.162l0.54,0.666c-0.191,0.22-0.398,0.397-0.621,0.537
		c-0.223,0.138-0.449,0.245-0.684,0.323c-0.235,0.078-0.469,0.133-0.702,0.162s-0.457,0.045-0.669,0.045
		c-0.437,0-0.846-0.07-1.228-0.213c-0.383-0.143-0.717-0.354-1.002-0.633c-0.286-0.281-0.513-0.629-0.679-1.045
		s-0.249-0.9-0.249-1.451c0-0.416,0.071-0.811,0.213-1.183c0.144-0.372,0.347-0.698,0.612-0.979
		c0.267-0.278,0.588-0.502,0.966-0.666c0.379-0.164,0.805-0.246,1.28-0.246c0.412,0,0.789,0.064,1.132,0.193
		c0.342,0.127,0.637,0.313,0.882,0.557c0.246,0.244,0.438,0.543,0.576,0.897c0.138,0.354,0.207,0.755,0.207,1.203
		c0,0.14-0.006,0.254-0.02,0.343c-0.012,0.088-0.033,0.157-0.064,0.209c-0.032,0.053-0.075,0.088-0.129,0.108
		c-0.055,0.021-0.123,0.028-0.207,0.028h-3.588V188.854z M310.634,187.774c0-0.147-0.02-0.292-0.058-0.433
		c-0.037-0.14-0.101-0.265-0.187-0.375c-0.086-0.109-0.199-0.199-0.339-0.267c-0.141-0.067-0.311-0.103-0.51-0.103
		c-0.354,0-0.629,0.102-0.828,0.303c-0.2,0.201-0.332,0.492-0.396,0.873L310.634,187.774L310.634,187.774z"/>
	<path fill="#676767" d="M317.186,186.771c-0.047,0.076-0.1,0.132-0.152,0.162c-0.055,0.033-0.123,0.049-0.207,0.049
		c-0.088,0-0.176-0.02-0.264-0.057c-0.088-0.039-0.184-0.08-0.285-0.123c-0.101-0.045-0.217-0.086-0.346-0.123
		c-0.127-0.039-0.273-0.058-0.438-0.058c-0.236,0-0.418,0.045-0.543,0.136c-0.127,0.09-0.189,0.215-0.189,0.375
		c0,0.115,0.041,0.211,0.123,0.287s0.191,0.143,0.326,0.201c0.137,0.059,0.291,0.113,0.463,0.165s0.348,0.108,0.527,0.174
		c0.18,0.063,0.356,0.14,0.528,0.226s0.326,0.191,0.461,0.317c0.138,0.126,0.246,0.279,0.328,0.459
		c0.082,0.181,0.123,0.396,0.123,0.647c0,0.309-0.058,0.593-0.168,0.853c-0.113,0.261-0.279,0.484-0.502,0.673
		c-0.222,0.188-0.496,0.334-0.822,0.438c-0.325,0.104-0.7,0.154-1.125,0.154c-0.211,0-0.424-0.02-0.635-0.06
		c-0.213-0.04-0.418-0.094-0.615-0.162c-0.198-0.067-0.381-0.149-0.549-0.243s-0.312-0.194-0.433-0.303l0.433-0.685
		c0.047-0.079,0.108-0.144,0.183-0.188c0.073-0.046,0.17-0.068,0.284-0.068c0.109,0,0.205,0.023,0.291,0.072
		c0.086,0.047,0.181,0.1,0.279,0.155c0.1,0.056,0.217,0.106,0.352,0.155c0.134,0.049,0.304,0.072,0.507,0.072
		c0.145,0,0.268-0.016,0.366-0.045c0.099-0.031,0.181-0.072,0.24-0.123c0.06-0.053,0.104-0.109,0.131-0.174
		c0.029-0.063,0.043-0.131,0.043-0.199c0-0.123-0.043-0.226-0.127-0.306c-0.084-0.079-0.192-0.149-0.329-0.207
		c-0.136-0.058-0.291-0.112-0.466-0.161c-0.174-0.051-0.351-0.106-0.53-0.172c-0.181-0.064-0.355-0.141-0.531-0.23
		c-0.174-0.09-0.328-0.203-0.465-0.342c-0.136-0.139-0.246-0.308-0.33-0.508c-0.084-0.199-0.125-0.441-0.125-0.726
		c0-0.265,0.051-0.517,0.151-0.753c0.103-0.238,0.256-0.447,0.459-0.628c0.205-0.181,0.461-0.322,0.769-0.429
		c0.309-0.105,0.668-0.16,1.08-0.16c0.225,0,0.44,0.021,0.651,0.062c0.209,0.04,0.406,0.097,0.591,0.168
		c0.184,0.072,0.353,0.157,0.504,0.255s0.286,0.205,0.401,0.321L317.186,186.771z"/>
	<path fill="#676767" d="M326.984,182.65v8.982h-1.152c-0.231,0-0.385-0.104-0.457-0.312l-0.143-0.475
		c-0.125,0.131-0.255,0.252-0.391,0.359c-0.137,0.107-0.283,0.201-0.441,0.278s-0.328,0.139-0.51,0.181s-0.379,0.062-0.592,0.062
		c-0.323,0-0.623-0.071-0.898-0.217c-0.277-0.144-0.515-0.352-0.715-0.623c-0.199-0.271-0.357-0.604-0.471-1
		c-0.114-0.394-0.172-0.843-0.172-1.347c0-0.464,0.063-0.896,0.192-1.293c0.127-0.397,0.31-0.741,0.543-1.032
		c0.233-0.289,0.515-0.517,0.843-0.681c0.327-0.164,0.689-0.246,1.086-0.246c0.323,0,0.597,0.046,0.815,0.138
		c0.222,0.092,0.42,0.217,0.601,0.373v-3.15h1.861V182.65z M325.123,187.079c-0.139-0.155-0.291-0.267-0.455-0.327
		c-0.164-0.062-0.336-0.093-0.516-0.093c-0.173,0-0.33,0.033-0.475,0.103c-0.145,0.068-0.27,0.176-0.375,0.326
		s-0.189,0.346-0.249,0.586c-0.06,0.239-0.091,0.529-0.091,0.869c0,0.328,0.024,0.604,0.072,0.828
		c0.049,0.225,0.114,0.404,0.2,0.543s0.189,0.236,0.31,0.297c0.121,0.061,0.255,0.09,0.401,0.09c0.138,0,0.261-0.013,0.369-0.039
		c0.11-0.024,0.211-0.062,0.304-0.11c0.092-0.048,0.18-0.108,0.262-0.183c0.082-0.076,0.162-0.16,0.242-0.256V187.079
		L325.123,187.079z"/>
	<path fill="#676767" d="M329.773,188.854c0.061,0.521,0.219,0.897,0.475,1.132c0.256,0.233,0.586,0.352,0.99,0.352
		c0.215,0,0.401-0.026,0.559-0.077c0.154-0.053,0.295-0.11,0.416-0.175c0.123-0.063,0.234-0.122,0.337-0.174
		c0.102-0.053,0.209-0.078,0.319-0.078c0.148,0,0.262,0.054,0.336,0.162l0.541,0.666c-0.191,0.22-0.398,0.397-0.621,0.537
		c-0.223,0.138-0.449,0.245-0.684,0.323s-0.469,0.133-0.703,0.162c-0.232,0.029-0.457,0.045-0.668,0.045
		c-0.437,0-0.846-0.07-1.228-0.213s-0.716-0.354-1.003-0.633c-0.285-0.281-0.512-0.629-0.678-1.045s-0.248-0.9-0.248-1.451
		c0-0.416,0.069-0.811,0.213-1.183c0.142-0.372,0.346-0.698,0.61-0.979c0.267-0.278,0.589-0.502,0.968-0.666
		c0.377-0.164,0.805-0.246,1.28-0.246c0.412,0,0.789,0.064,1.132,0.193c0.342,0.127,0.635,0.313,0.881,0.557
		c0.246,0.244,0.438,0.543,0.576,0.897c0.139,0.354,0.207,0.755,0.207,1.203c0,0.14-0.007,0.254-0.019,0.343
		c-0.013,0.088-0.033,0.157-0.066,0.209c-0.03,0.053-0.073,0.088-0.129,0.108c-0.054,0.021-0.123,0.028-0.207,0.028h-3.587V188.854z
		 M332.113,187.774c0-0.147-0.019-0.292-0.057-0.433c-0.038-0.14-0.1-0.265-0.186-0.375c-0.086-0.109-0.199-0.199-0.341-0.267
		c-0.14-0.067-0.31-0.103-0.51-0.103c-0.353,0-0.628,0.102-0.828,0.303c-0.198,0.201-0.332,0.492-0.396,0.873L332.113,187.774
		L332.113,187.774z"/>
	<path fill="#676767" d="M280.776,200.402c-0.056,0.068-0.11,0.123-0.162,0.162c-0.052,0.041-0.126,0.061-0.222,0.061
		c-0.092,0-0.176-0.021-0.25-0.065c-0.073-0.044-0.156-0.093-0.248-0.147c-0.092-0.053-0.2-0.103-0.324-0.146
		s-0.278-0.065-0.462-0.065c-0.228,0-0.425,0.041-0.591,0.125s-0.303,0.205-0.411,0.361c-0.108,0.155-0.188,0.346-0.24,0.572
		s-0.078,0.48-0.078,0.766c0,0.596,0.115,1.053,0.345,1.373c0.23,0.32,0.547,0.479,0.951,0.479c0.217,0,0.387-0.026,0.514-0.08
		c0.125-0.056,0.232-0.114,0.32-0.181c0.088-0.065,0.17-0.127,0.243-0.184c0.074-0.056,0.167-0.084,0.279-0.084
		c0.147,0,0.26,0.055,0.336,0.162l0.54,0.666c-0.192,0.221-0.395,0.398-0.605,0.537c-0.213,0.138-0.43,0.245-0.652,0.322
		c-0.221,0.078-0.443,0.134-0.668,0.162c-0.225,0.031-0.441,0.045-0.653,0.045c-0.381,0-0.743-0.07-1.089-0.215
		c-0.348-0.145-0.65-0.354-0.912-0.627c-0.264-0.273-0.471-0.611-0.624-1.012s-0.229-0.855-0.229-1.367
		c0-0.449,0.065-0.867,0.199-1.258c0.135-0.391,0.332-0.729,0.596-1.015c0.262-0.285,0.586-0.511,0.972-0.675
		s0.833-0.246,1.341-0.246c0.488,0,0.916,0.078,1.284,0.234c0.368,0.155,0.7,0.383,0.995,0.684L280.776,200.402z"/>
	<path fill="#676767" d="M284.803,198.83c0.471,0,0.9,0.074,1.289,0.223c0.389,0.146,0.721,0.359,1,0.637
		c0.276,0.275,0.492,0.61,0.646,1.004c0.152,0.396,0.23,0.838,0.23,1.33c0,0.495-0.078,0.942-0.23,1.34
		c-0.154,0.398-0.37,0.736-0.646,1.015c-0.279,0.278-0.611,0.491-1,0.644c-0.389,0.149-0.818,0.225-1.289,0.225
		c-0.478,0-0.91-0.074-1.299-0.225c-0.392-0.15-0.728-0.365-1.01-0.644c-0.281-0.277-0.5-0.615-0.652-1.015
		c-0.154-0.396-0.231-0.845-0.231-1.34c0-0.492,0.077-0.936,0.231-1.33c0.152-0.394,0.371-0.729,0.652-1.004
		c0.282-0.277,0.618-0.488,1.01-0.637C283.893,198.904,284.326,198.83,284.803,198.83z M284.803,203.863
		c0.428,0,0.742-0.149,0.943-0.453c0.202-0.301,0.305-0.76,0.305-1.377c0-0.614-0.103-1.073-0.305-1.373
		c-0.201-0.301-0.517-0.45-0.943-0.45c-0.44,0-0.764,0.149-0.968,0.45c-0.202,0.3-0.306,0.759-0.306,1.373
		c0,0.617,0.104,1.076,0.306,1.377C284.04,203.714,284.362,203.863,284.803,203.863z"/>
	<path fill="#676767" d="M288.906,205.148v-6.222h1.152c0.23,0,0.383,0.104,0.455,0.312l0.102,0.336
		c0.104-0.106,0.213-0.207,0.324-0.297s0.232-0.168,0.363-0.233c0.129-0.065,0.27-0.117,0.42-0.155
		c0.149-0.038,0.314-0.058,0.494-0.058c0.377,0,0.688,0.098,0.934,0.29c0.246,0.195,0.434,0.453,0.562,0.777
		c0.104-0.191,0.23-0.355,0.381-0.492c0.149-0.135,0.312-0.246,0.485-0.33c0.175-0.084,0.358-0.146,0.552-0.186
		c0.194-0.04,0.388-0.061,0.58-0.061c0.355,0,0.672,0.054,0.947,0.158c0.275,0.106,0.507,0.261,0.693,0.463
		c0.186,0.201,0.326,0.449,0.422,0.744c0.097,0.293,0.145,0.627,0.145,0.998v3.955h-1.859v-3.955c0-0.644-0.276-0.966-0.827-0.966
		c-0.252,0-0.461,0.083-0.627,0.249s-0.25,0.405-0.25,0.717v3.955h-1.859v-3.955c0-0.354-0.069-0.604-0.211-0.75
		c-0.139-0.144-0.346-0.216-0.617-0.216c-0.168,0-0.327,0.038-0.477,0.114c-0.15,0.076-0.291,0.178-0.425,0.307v4.5H288.906
		L288.906,205.148z"/>
	<path fill="#676767" d="M304.697,198.927v6.222h-1.15c-0.231,0-0.385-0.104-0.457-0.312l-0.106-0.36
		c-0.121,0.116-0.244,0.221-0.373,0.314c-0.127,0.095-0.265,0.175-0.41,0.24s-0.305,0.117-0.476,0.156
		c-0.17,0.037-0.354,0.057-0.555,0.057c-0.34,0-0.641-0.06-0.902-0.178c-0.262-0.117-0.483-0.283-0.663-0.494
		c-0.181-0.213-0.316-0.463-0.408-0.75c-0.092-0.289-0.138-0.604-0.138-0.948v-3.947h1.859v3.947c0,0.309,0.07,0.547,0.211,0.715
		c0.139,0.168,0.346,0.252,0.617,0.252c0.203,0,0.395-0.043,0.572-0.129c0.178-0.087,0.352-0.203,0.52-0.353v-4.434L304.697,198.927
		L304.697,198.927z"/>
	<path fill="#676767" d="M307.674,199.599c0.121-0.112,0.244-0.216,0.373-0.312c0.127-0.096,0.265-0.178,0.41-0.243
		c0.146-0.065,0.305-0.117,0.475-0.155c0.171-0.038,0.354-0.058,0.556-0.058c0.34,0,0.642,0.06,0.901,0.178
		c0.263,0.117,0.483,0.281,0.664,0.491s0.315,0.46,0.408,0.75c0.092,0.29,0.137,0.605,0.137,0.945v3.953h-1.858v-3.953
		c0-0.305-0.069-0.541-0.21-0.711s-0.348-0.256-0.618-0.256c-0.204,0-0.396,0.043-0.573,0.129s-0.351,0.203-0.519,0.352v4.439h-1.86
		v-6.222h1.152c0.23,0,0.384,0.104,0.456,0.312L307.674,199.599z"/>
	<path fill="#676767" d="M314.893,197.223c0,0.146-0.031,0.287-0.092,0.417c-0.06,0.13-0.142,0.244-0.244,0.343
		c-0.104,0.098-0.227,0.176-0.363,0.233c-0.139,0.058-0.285,0.087-0.441,0.087c-0.152,0-0.294-0.029-0.426-0.087
		c-0.133-0.06-0.249-0.138-0.352-0.233c-0.103-0.099-0.183-0.213-0.24-0.343c-0.059-0.13-0.086-0.271-0.086-0.417
		c0-0.152,0.027-0.294,0.086-0.426c0.059-0.133,0.139-0.248,0.24-0.35c0.103-0.1,0.219-0.178,0.352-0.232
		c0.132-0.057,0.273-0.084,0.426-0.084c0.156,0,0.303,0.027,0.441,0.084c0.138,0.057,0.259,0.134,0.363,0.232
		c0.104,0.102,0.186,0.217,0.244,0.35C314.861,196.929,314.893,197.07,314.893,197.223z M314.7,198.927v6.222h-1.86v-6.222H314.7z"
		/>
	<path fill="#676767" d="M320.574,200.402c-0.057,0.068-0.111,0.123-0.162,0.162c-0.053,0.041-0.127,0.061-0.223,0.061
		c-0.092,0-0.176-0.021-0.249-0.065s-0.157-0.093-0.249-0.147c-0.092-0.053-0.199-0.103-0.324-0.146
		c-0.123-0.044-0.277-0.065-0.461-0.065c-0.229,0-0.426,0.041-0.592,0.125s-0.303,0.205-0.41,0.361
		c-0.109,0.155-0.189,0.346-0.24,0.572c-0.053,0.227-0.078,0.48-0.078,0.766c0,0.596,0.115,1.053,0.346,1.373
		c0.229,0.32,0.547,0.479,0.949,0.479c0.217,0,0.389-0.026,0.515-0.08c0.126-0.056,0.231-0.114,0.321-0.181
		c0.088-0.065,0.168-0.127,0.242-0.184c0.074-0.056,0.166-0.084,0.279-0.084c0.146,0,0.26,0.055,0.336,0.162l0.539,0.666
		c-0.191,0.221-0.395,0.398-0.605,0.537c-0.213,0.138-0.43,0.245-0.65,0.322c-0.221,0.078-0.444,0.134-0.669,0.162
		c-0.226,0.031-0.441,0.045-0.654,0.045c-0.38,0-0.741-0.07-1.088-0.215s-0.649-0.354-0.912-0.627s-0.471-0.611-0.625-1.012
		c-0.153-0.4-0.229-0.855-0.229-1.367c0-0.449,0.065-0.867,0.201-1.258c0.133-0.391,0.332-0.729,0.594-1.015
		c0.262-0.285,0.586-0.511,0.973-0.675c0.385-0.164,0.832-0.246,1.34-0.246c0.488,0,0.916,0.078,1.285,0.234
		c0.367,0.155,0.699,0.383,0.995,0.684L320.574,200.402z"/>
	<path fill="#676767" d="M321.702,199.79c0.376-0.332,0.793-0.578,1.251-0.74s0.949-0.243,1.473-0.243
		c0.377,0,0.715,0.061,1.019,0.184c0.302,0.121,0.558,0.291,0.769,0.51c0.209,0.219,0.37,0.478,0.481,0.777
		c0.112,0.299,0.168,0.627,0.168,0.983v3.888h-0.853c-0.176,0-0.309-0.023-0.397-0.072c-0.089-0.047-0.166-0.146-0.226-0.299
		l-0.133-0.343c-0.156,0.132-0.307,0.248-0.449,0.349c-0.145,0.101-0.293,0.186-0.446,0.254c-0.154,0.07-0.318,0.123-0.492,0.156
		c-0.174,0.034-0.367,0.051-0.579,0.051c-0.283,0-0.542-0.036-0.773-0.109c-0.232-0.074-0.43-0.184-0.592-0.327
		c-0.162-0.146-0.287-0.323-0.375-0.536c-0.088-0.215-0.132-0.462-0.132-0.742c0-0.224,0.056-0.451,0.168-0.681
		c0.111-0.229,0.308-0.44,0.582-0.63c0.275-0.189,0.648-0.35,1.115-0.479c0.469-0.127,1.06-0.199,1.771-0.215v-0.265
		c0-0.364-0.074-0.627-0.225-0.789s-0.363-0.243-0.641-0.243c-0.219,0-0.398,0.023-0.538,0.072
		c-0.142,0.048-0.267,0.102-0.375,0.162c-0.11,0.061-0.218,0.113-0.321,0.161c-0.104,0.049-0.229,0.071-0.372,0.071
		c-0.129,0-0.235-0.031-0.323-0.096c-0.089-0.064-0.16-0.14-0.217-0.229L321.702,199.79z M325.051,202.615
		c-0.373,0.018-0.679,0.049-0.918,0.098c-0.24,0.048-0.431,0.107-0.569,0.18c-0.142,0.072-0.237,0.154-0.291,0.246
		c-0.056,0.092-0.082,0.191-0.082,0.301c0,0.211,0.059,0.36,0.174,0.446c0.117,0.086,0.287,0.129,0.511,0.129
		c0.239,0,0.45-0.042,0.631-0.126c0.18-0.084,0.36-0.22,0.545-0.408V202.615L325.051,202.615z"/>
	<path fill="#676767" d="M332.621,200.402c-0.056,0.068-0.109,0.123-0.162,0.162c-0.052,0.041-0.125,0.061-0.222,0.061
		c-0.092,0-0.175-0.021-0.249-0.065s-0.156-0.093-0.249-0.147c-0.092-0.053-0.2-0.103-0.323-0.146
		c-0.125-0.044-0.279-0.065-0.463-0.065c-0.229,0-0.425,0.041-0.591,0.125s-0.304,0.205-0.411,0.361
		c-0.107,0.155-0.188,0.346-0.24,0.572c-0.052,0.227-0.078,0.48-0.078,0.766c0,0.596,0.115,1.053,0.347,1.373
		s0.547,0.479,0.95,0.479c0.217,0,0.388-0.026,0.514-0.08c0.126-0.056,0.232-0.114,0.32-0.181c0.089-0.065,0.168-0.127,0.242-0.184
		c0.074-0.056,0.168-0.084,0.279-0.084c0.148,0,0.26,0.055,0.336,0.162l0.541,0.666c-0.193,0.221-0.395,0.398-0.605,0.537
		c-0.213,0.138-0.43,0.245-0.651,0.322c-0.222,0.078-0.444,0.134-0.669,0.162c-0.225,0.031-0.441,0.045-0.653,0.045
		c-0.381,0-0.743-0.07-1.09-0.215c-0.346-0.145-0.649-0.354-0.912-0.627c-0.262-0.273-0.47-0.611-0.623-1.012
		s-0.23-0.855-0.23-1.367c0-0.449,0.067-0.867,0.2-1.258c0.135-0.391,0.332-0.729,0.595-1.015c0.262-0.285,0.586-0.511,0.972-0.675
		c0.387-0.164,0.833-0.246,1.342-0.246c0.487,0,0.916,0.078,1.283,0.234c0.368,0.155,0.7,0.383,0.996,0.684L332.621,200.402z"/>
	<path fill="#676767" d="M335.981,197.223c0,0.146-0.03,0.287-0.091,0.417c-0.06,0.13-0.142,0.244-0.245,0.343
		c-0.104,0.098-0.227,0.176-0.363,0.233c-0.138,0.058-0.284,0.087-0.44,0.087c-0.151,0-0.295-0.029-0.426-0.087
		c-0.133-0.06-0.25-0.138-0.352-0.233c-0.102-0.098-0.182-0.213-0.24-0.343s-0.087-0.271-0.087-0.417
		c0-0.152,0.028-0.294,0.087-0.426c0.059-0.133,0.139-0.248,0.24-0.35c0.102-0.1,0.219-0.178,0.352-0.232
		c0.131-0.057,0.273-0.084,0.426-0.084c0.156,0,0.304,0.027,0.44,0.084c0.138,0.057,0.259,0.134,0.363,0.232
		c0.104,0.102,0.187,0.217,0.245,0.35C335.951,196.929,335.981,197.07,335.981,197.223z M335.789,198.927v6.222h-1.859v-6.222
		H335.789z"/>
	<path fill="#676767" d="M339.959,198.83c0.474,0,0.902,0.074,1.291,0.223c0.388,0.146,0.722,0.359,0.998,0.637
		c0.278,0.275,0.494,0.61,0.648,1.004c0.153,0.396,0.229,0.838,0.229,1.33c0,0.495-0.076,0.942-0.229,1.34
		c-0.154,0.398-0.37,0.736-0.648,1.015c-0.276,0.278-0.61,0.491-0.998,0.644c-0.389,0.149-0.817,0.225-1.291,0.225
		c-0.476,0-0.907-0.074-1.299-0.225c-0.391-0.15-0.727-0.365-1.008-0.644c-0.281-0.277-0.5-0.615-0.654-1.015
		c-0.154-0.396-0.23-0.845-0.23-1.34c0-0.492,0.076-0.936,0.23-1.33c0.154-0.394,0.373-0.729,0.654-1.004
		c0.281-0.277,0.618-0.488,1.008-0.637C339.052,198.904,339.483,198.83,339.959,198.83z M339.959,203.863
		c0.429,0,0.744-0.149,0.945-0.453c0.202-0.301,0.303-0.76,0.303-1.377c0-0.614-0.101-1.073-0.303-1.373
		c-0.201-0.301-0.519-0.45-0.945-0.45c-0.438,0-0.762,0.149-0.965,0.45c-0.205,0.3-0.307,0.759-0.307,1.373
		c0,0.617,0.102,1.076,0.307,1.377C339.197,203.714,339.52,203.863,339.959,203.863z M342.336,196.311l-1.561,1.578
		c-0.092,0.092-0.181,0.157-0.265,0.194c-0.084,0.038-0.195,0.058-0.336,0.058h-1.115l0.814-1.47
		c0.068-0.116,0.148-0.205,0.24-0.269c0.092-0.062,0.232-0.093,0.42-0.093L342.336,196.311L342.336,196.311z"/>
	<path fill="#676767" d="M345.779,199.599c0.12-0.112,0.244-0.216,0.372-0.312s0.265-0.178,0.411-0.243
		c0.146-0.065,0.305-0.117,0.475-0.155s0.354-0.058,0.556-0.058c0.34,0,0.641,0.06,0.901,0.178c0.262,0.117,0.483,0.281,0.664,0.491
		c0.18,0.21,0.315,0.46,0.407,0.75c0.093,0.29,0.138,0.605,0.138,0.945v3.953h-1.858v-3.953c0-0.305-0.07-0.541-0.211-0.711
		c-0.14-0.17-0.347-0.256-0.617-0.256c-0.204,0-0.396,0.043-0.573,0.129s-0.351,0.203-0.52,0.352v4.439h-1.859v-6.222h1.151
		c0.231,0,0.385,0.104,0.456,0.312L345.779,199.599z"/>
</g>
<g enable-background="new    ">
	<path fill="#676767" d="M112.831,192.083v2.04h2.748v1.5h-2.748v2.082h3.588v1.56h-5.628v-8.742h5.628v1.562L112.831,192.083
		L112.831,192.083z"/>
	<path fill="#676767" d="M121.333,194.403c-0.048,0.076-0.099,0.132-0.153,0.162c-0.054,0.033-0.123,0.049-0.207,0.049
		c-0.088,0-0.176-0.02-0.264-0.057c-0.088-0.039-0.183-0.08-0.285-0.123c-0.102-0.045-0.217-0.086-0.345-0.123
		c-0.128-0.039-0.274-0.058-0.438-0.058c-0.236,0-0.417,0.045-0.543,0.136c-0.126,0.09-0.189,0.215-0.189,0.375
		c0,0.115,0.041,0.211,0.123,0.287c0.082,0.076,0.191,0.143,0.327,0.201c0.136,0.059,0.29,0.113,0.462,0.165
		c0.172,0.052,0.348,0.108,0.528,0.174c0.18,0.063,0.356,0.14,0.528,0.226s0.326,0.191,0.462,0.317
		c0.136,0.126,0.245,0.279,0.327,0.459c0.082,0.181,0.123,0.396,0.123,0.647c0,0.309-0.056,0.593-0.168,0.853
		c-0.112,0.261-0.279,0.484-0.501,0.673c-0.222,0.188-0.496,0.334-0.822,0.438c-0.326,0.104-0.701,0.154-1.125,0.154
		c-0.212,0-0.424-0.02-0.636-0.06s-0.417-0.094-0.615-0.162c-0.198-0.067-0.381-0.149-0.549-0.243s-0.312-0.194-0.432-0.303
		l0.432-0.685c0.048-0.079,0.109-0.144,0.183-0.188c0.074-0.046,0.169-0.068,0.285-0.068c0.108,0,0.205,0.023,0.291,0.072
		c0.086,0.047,0.179,0.1,0.279,0.155c0.1,0.056,0.217,0.106,0.351,0.155c0.134,0.049,0.303,0.072,0.507,0.072
		c0.144,0,0.266-0.016,0.366-0.045c0.1-0.031,0.18-0.072,0.24-0.123c0.06-0.053,0.104-0.109,0.132-0.174
		c0.028-0.063,0.042-0.131,0.042-0.199c0-0.123-0.042-0.226-0.126-0.306c-0.084-0.079-0.194-0.149-0.33-0.207
		c-0.136-0.058-0.291-0.112-0.465-0.161c-0.174-0.051-0.351-0.106-0.531-0.172c-0.18-0.064-0.357-0.141-0.531-0.23
		c-0.174-0.09-0.329-0.203-0.465-0.342c-0.136-0.139-0.246-0.308-0.33-0.508c-0.084-0.199-0.126-0.441-0.126-0.726
		c0-0.265,0.051-0.517,0.153-0.753c0.102-0.238,0.255-0.447,0.459-0.628c0.204-0.181,0.46-0.322,0.768-0.429
		c0.308-0.105,0.668-0.16,1.08-0.16c0.224,0,0.441,0.021,0.651,0.062s0.407,0.097,0.591,0.168c0.184,0.072,0.352,0.157,0.504,0.255
		s0.286,0.205,0.402,0.321L121.333,194.403z"/>
	<path fill="#676767" d="M124.95,199.36c-0.296,0-0.557-0.043-0.783-0.129s-0.417-0.209-0.57-0.366
		c-0.154-0.157-0.271-0.349-0.351-0.572c-0.08-0.226-0.12-0.476-0.12-0.75v-3.217h-0.528c-0.096,0-0.178-0.03-0.246-0.093
		s-0.102-0.152-0.102-0.272v-0.728l0.99-0.19l0.366-1.519c0.048-0.191,0.184-0.289,0.408-0.289h0.972v1.818h1.542v1.271h-1.542
		v3.091c0,0.144,0.035,0.263,0.105,0.356c0.07,0.095,0.171,0.142,0.303,0.142c0.068,0,0.125-0.008,0.171-0.021
		c0.046-0.015,0.086-0.031,0.12-0.049c0.034-0.018,0.066-0.033,0.096-0.048c0.03-0.015,0.065-0.021,0.104-0.021
		c0.056,0,0.101,0.014,0.135,0.039s0.069,0.066,0.105,0.123l0.564,0.881c-0.24,0.182-0.51,0.315-0.81,0.406
		C125.58,199.315,125.27,199.36,124.95,199.36z"/>
	<path fill="#676767" d="M128.802,196.485c0.06,0.521,0.218,0.897,0.474,1.132c0.256,0.233,0.586,0.352,0.99,0.352
		c0.216,0,0.402-0.026,0.558-0.077c0.156-0.053,0.295-0.11,0.417-0.175c0.122-0.063,0.234-0.122,0.336-0.174
		c0.102-0.053,0.209-0.078,0.321-0.078c0.148,0,0.26,0.054,0.336,0.162l0.54,0.666c-0.192,0.22-0.399,0.397-0.621,0.537
		c-0.222,0.138-0.45,0.245-0.684,0.323c-0.234,0.078-0.468,0.133-0.702,0.162s-0.457,0.045-0.669,0.045
		c-0.436,0-0.845-0.07-1.227-0.213c-0.382-0.143-0.716-0.354-1.002-0.633c-0.286-0.281-0.512-0.629-0.678-1.045
		s-0.249-0.9-0.249-1.451c0-0.416,0.071-0.811,0.213-1.183c0.142-0.372,0.346-0.698,0.612-0.979
		c0.266-0.278,0.588-0.502,0.966-0.666s0.805-0.246,1.281-0.246c0.412,0,0.789,0.064,1.131,0.193
		c0.342,0.127,0.636,0.313,0.882,0.557c0.246,0.244,0.438,0.543,0.576,0.897s0.207,0.755,0.207,1.203
		c0,0.14-0.006,0.254-0.018,0.343c-0.012,0.088-0.034,0.157-0.066,0.209c-0.032,0.053-0.075,0.088-0.129,0.108
		c-0.054,0.021-0.123,0.028-0.207,0.028h-3.588V196.485z M131.142,195.406c0-0.147-0.019-0.292-0.057-0.433
		c-0.038-0.14-0.1-0.265-0.186-0.375c-0.086-0.109-0.199-0.199-0.339-0.267s-0.31-0.103-0.51-0.103
		c-0.352,0-0.628,0.102-0.828,0.303c-0.2,0.201-0.332,0.492-0.396,0.873L131.142,195.406L131.142,195.406z M132.438,190.427
		l-1.56,1.578c-0.092,0.092-0.18,0.157-0.264,0.194c-0.084,0.038-0.196,0.058-0.336,0.058h-1.116l0.816-1.47
		c0.068-0.116,0.148-0.205,0.24-0.269c0.092-0.062,0.232-0.093,0.42-0.093L132.438,190.427L132.438,190.427z"/>
	<path fill="#676767" d="M140.388,199.265h-1.86v-4.938h-2.604v3.091c0,0.144,0.035,0.263,0.105,0.356
		c0.07,0.095,0.171,0.142,0.303,0.142c0.068,0,0.125-0.008,0.171-0.021c0.046-0.015,0.086-0.03,0.12-0.049
		c0.034-0.018,0.066-0.033,0.096-0.048c0.03-0.015,0.065-0.021,0.105-0.021c0.056,0,0.101,0.014,0.135,0.039
		s0.069,0.066,0.105,0.123l0.564,0.882c-0.24,0.181-0.51,0.315-0.81,0.405c-0.3,0.09-0.61,0.135-0.93,0.135
		c-0.296,0-0.557-0.043-0.783-0.129s-0.417-0.209-0.57-0.366c-0.154-0.157-0.271-0.349-0.351-0.572
		c-0.08-0.226-0.12-0.476-0.12-0.75v-3.217h-0.528c-0.096,0-0.178-0.03-0.246-0.093s-0.102-0.152-0.102-0.272v-0.728l0.99-0.196
		l0.366-1.513c0.048-0.191,0.184-0.289,0.408-0.289h0.972v1.818h4.464V199.265L140.388,199.265z M140.646,191.333
		c0,0.146-0.03,0.288-0.09,0.42s-0.142,0.247-0.246,0.346c-0.104,0.098-0.225,0.174-0.363,0.23
		c-0.138,0.056-0.285,0.084-0.441,0.084c-0.152,0-0.294-0.028-0.426-0.084c-0.132-0.057-0.249-0.135-0.351-0.23
		c-0.102-0.099-0.182-0.214-0.24-0.346c-0.058-0.132-0.087-0.271-0.087-0.42s0.029-0.289,0.087-0.424
		c0.058-0.135,0.138-0.249,0.24-0.348s0.219-0.177,0.351-0.233c0.132-0.06,0.274-0.088,0.426-0.088c0.156,0,0.303,0.028,0.441,0.088
		c0.138,0.058,0.259,0.136,0.363,0.233c0.104,0.099,0.186,0.213,0.246,0.348S140.646,191.185,140.646,191.333z"/>
	<path fill="#676767" d="M146.262,194.519c-0.056,0.068-0.11,0.123-0.162,0.162c-0.052,0.041-0.126,0.061-0.222,0.061
		c-0.092,0-0.175-0.021-0.249-0.065c-0.074-0.044-0.157-0.093-0.249-0.147c-0.092-0.053-0.2-0.103-0.324-0.146
		s-0.278-0.065-0.462-0.065c-0.228,0-0.425,0.041-0.591,0.125s-0.303,0.205-0.411,0.361c-0.108,0.155-0.188,0.346-0.24,0.572
		c-0.052,0.227-0.078,0.48-0.078,0.766c0,0.596,0.115,1.053,0.345,1.373s0.547,0.479,0.951,0.479c0.216,0,0.387-0.026,0.513-0.08
		c0.126-0.056,0.233-0.114,0.321-0.181c0.088-0.065,0.168-0.127,0.243-0.184c0.075-0.056,0.167-0.084,0.279-0.084
		c0.148,0,0.26,0.055,0.336,0.162l0.54,0.666c-0.192,0.221-0.394,0.398-0.606,0.537c-0.212,0.138-0.429,0.245-0.651,0.322
		c-0.222,0.078-0.445,0.134-0.669,0.162c-0.224,0.031-0.442,0.045-0.654,0.045c-0.38,0-0.743-0.07-1.089-0.215
		c-0.346-0.145-0.65-0.354-0.912-0.627c-0.262-0.273-0.47-0.611-0.624-1.012c-0.154-0.4-0.231-0.855-0.231-1.367
		c0-0.449,0.067-0.867,0.201-1.258c0.134-0.391,0.332-0.729,0.594-1.015c0.262-0.285,0.586-0.511,0.972-0.675
		c0.386-0.164,0.833-0.246,1.341-0.246c0.488,0,0.916,0.078,1.284,0.234c0.368,0.155,0.7,0.383,0.996,0.684L146.262,194.519z"/>
	<path fill="#676767" d="M147.39,193.906c0.376-0.332,0.793-0.578,1.251-0.74s0.949-0.243,1.473-0.243
		c0.376,0,0.715,0.061,1.017,0.184c0.302,0.121,0.558,0.291,0.768,0.51s0.371,0.478,0.483,0.777
		c0.112,0.299,0.168,0.627,0.168,0.983v3.888h-0.852c-0.176,0-0.309-0.023-0.399-0.072c-0.09-0.047-0.165-0.146-0.225-0.299
		l-0.132-0.343c-0.156,0.132-0.306,0.248-0.45,0.349c-0.144,0.101-0.293,0.186-0.447,0.254c-0.154,0.07-0.318,0.123-0.492,0.156
		c-0.174,0.034-0.367,0.051-0.579,0.051c-0.284,0-0.542-0.036-0.774-0.109c-0.232-0.074-0.429-0.184-0.591-0.327
		c-0.162-0.146-0.287-0.323-0.375-0.536c-0.088-0.215-0.132-0.462-0.132-0.742c0-0.224,0.056-0.451,0.168-0.681
		s0.306-0.44,0.582-0.63s0.648-0.35,1.116-0.479c0.468-0.127,1.058-0.199,1.77-0.215v-0.265c0-0.364-0.075-0.627-0.225-0.789
		c-0.15-0.162-0.363-0.243-0.639-0.243c-0.22,0-0.4,0.023-0.54,0.072c-0.14,0.048-0.265,0.102-0.375,0.162s-0.217,0.113-0.321,0.161
		c-0.104,0.049-0.228,0.071-0.372,0.071c-0.128,0-0.236-0.031-0.324-0.096s-0.16-0.14-0.216-0.229L147.39,193.906z M150.738,196.731
		c-0.372,0.018-0.678,0.049-0.918,0.098c-0.24,0.048-0.43,0.107-0.57,0.18c-0.14,0.073-0.237,0.154-0.291,0.246
		s-0.081,0.191-0.081,0.301c0,0.211,0.058,0.36,0.174,0.446c0.116,0.086,0.286,0.129,0.51,0.129c0.24,0,0.45-0.042,0.63-0.126
		c0.18-0.084,0.362-0.22,0.546-0.408V196.731z"/>
</g>
<g enable-background="new    ">
	<path fill="#676767" d="M19.653,120.809v2.04H22.4v1.5h-2.748v2.082h3.588v1.56h-5.628v-8.742h5.628v1.561L19.653,120.809
		L19.653,120.809z"/>
	<path fill="#676767" d="M28.155,123.13c-0.048,0.076-0.099,0.131-0.153,0.162c-0.054,0.032-0.123,0.048-0.207,0.048
		c-0.088,0-0.176-0.019-0.264-0.057c-0.088-0.038-0.183-0.079-0.285-0.123s-0.217-0.085-0.345-0.123s-0.274-0.057-0.438-0.057
		c-0.236,0-0.417,0.045-0.543,0.135c-0.126,0.09-0.189,0.215-0.189,0.375c0,0.116,0.041,0.212,0.123,0.288
		c0.082,0.076,0.191,0.143,0.327,0.201c0.136,0.058,0.29,0.113,0.462,0.165c0.172,0.052,0.348,0.109,0.528,0.174
		c0.18,0.063,0.356,0.139,0.528,0.225c0.172,0.086,0.326,0.192,0.462,0.318c0.136,0.126,0.245,0.279,0.327,0.459
		c0.082,0.18,0.123,0.396,0.123,0.647c0,0.309-0.056,0.593-0.168,0.853c-0.112,0.26-0.279,0.484-0.501,0.672
		c-0.222,0.188-0.496,0.334-0.822,0.438c-0.326,0.104-0.701,0.155-1.125,0.155c-0.212,0-0.424-0.02-0.636-0.06
		s-0.417-0.094-0.615-0.162c-0.198-0.068-0.381-0.149-0.549-0.243c-0.168-0.094-0.312-0.195-0.432-0.303l0.432-0.685
		c0.048-0.079,0.109-0.143,0.183-0.188c0.074-0.046,0.169-0.069,0.285-0.069c0.108,0,0.205,0.024,0.291,0.072
		c0.086,0.048,0.179,0.1,0.279,0.156s0.217,0.107,0.351,0.155c0.134,0.049,0.303,0.072,0.507,0.072c0.144,0,0.266-0.015,0.366-0.045
		c0.1-0.03,0.18-0.071,0.24-0.123c0.06-0.052,0.104-0.109,0.132-0.174c0.028-0.063,0.042-0.13,0.042-0.198
		c0-0.124-0.042-0.226-0.126-0.306c-0.084-0.08-0.194-0.149-0.33-0.207c-0.136-0.058-0.291-0.112-0.465-0.162
		c-0.174-0.05-0.351-0.106-0.531-0.171c-0.18-0.064-0.357-0.141-0.531-0.231c-0.174-0.09-0.329-0.203-0.465-0.342
		c-0.136-0.138-0.246-0.307-0.33-0.507c-0.084-0.2-0.126-0.442-0.126-0.726c0-0.265,0.051-0.516,0.153-0.753
		c0.102-0.238,0.255-0.447,0.459-0.628c0.204-0.18,0.46-0.322,0.768-0.429c0.308-0.105,0.668-0.159,1.08-0.159
		c0.224,0,0.441,0.021,0.651,0.061s0.407,0.096,0.591,0.168c0.184,0.072,0.352,0.157,0.504,0.255
		c0.152,0.098,0.286,0.205,0.402,0.321L28.155,123.13z"/>
	<path fill="#676767" d="M36.272,127.99h-1.86v-4.938h-2.604v3.091c0,0.144,0.035,0.263,0.105,0.356
		c0.07,0.095,0.171,0.142,0.303,0.142c0.068,0,0.125-0.008,0.171-0.021c0.046-0.014,0.086-0.03,0.12-0.048
		c0.034-0.018,0.066-0.034,0.096-0.048c0.03-0.015,0.065-0.021,0.105-0.021c0.056,0,0.101,0.014,0.135,0.039
		c0.034,0.026,0.069,0.067,0.105,0.123l0.564,0.882c-0.24,0.181-0.51,0.315-0.81,0.405c-0.3,0.09-0.61,0.135-0.93,0.135
		c-0.296,0-0.557-0.043-0.783-0.129c-0.226-0.086-0.417-0.208-0.57-0.366c-0.154-0.157-0.271-0.349-0.351-0.572
		c-0.08-0.225-0.12-0.475-0.12-0.75v-3.217H29.42c-0.096,0-0.178-0.03-0.246-0.093c-0.068-0.062-0.102-0.152-0.102-0.272v-0.727
		l0.99-0.197l0.366-1.513c0.048-0.191,0.184-0.288,0.408-0.288h0.972v1.818h4.464V127.99z M36.53,120.059
		c0,0.147-0.03,0.288-0.09,0.42s-0.142,0.247-0.246,0.345c-0.104,0.098-0.225,0.175-0.363,0.231
		c-0.138,0.056-0.285,0.084-0.441,0.084c-0.152,0-0.294-0.028-0.426-0.084c-0.132-0.057-0.249-0.134-0.351-0.231
		c-0.102-0.098-0.182-0.213-0.24-0.345s-0.087-0.272-0.087-0.42s0.029-0.289,0.087-0.424c0.058-0.134,0.138-0.249,0.24-0.348
		c0.102-0.098,0.219-0.176,0.351-0.233c0.132-0.059,0.274-0.088,0.426-0.088c0.156,0,0.303,0.029,0.441,0.088
		c0.138,0.058,0.259,0.136,0.363,0.233c0.104,0.099,0.186,0.214,0.246,0.348C36.5,119.77,36.53,119.91,36.53,120.059z"/>
	<path fill="#676767" d="M39.435,119.008v8.982h-1.86v-8.982H39.435z"/>
	<path fill="#676767" d="M43.562,121.672c0.472,0,0.902,0.074,1.29,0.223c0.388,0.147,0.721,0.359,0.999,0.636
		c0.278,0.276,0.494,0.611,0.648,1.005c0.154,0.395,0.231,0.837,0.231,1.329c0,0.496-0.077,0.943-0.231,1.341
		s-0.37,0.736-0.648,1.014c-0.278,0.278-0.611,0.492-0.999,0.644c-0.388,0.15-0.818,0.225-1.29,0.225
		c-0.476,0-0.909-0.074-1.299-0.225c-0.39-0.15-0.726-0.364-1.008-0.644c-0.282-0.277-0.5-0.615-0.654-1.014
		c-0.154-0.397-0.231-0.845-0.231-1.341c0-0.492,0.077-0.935,0.231-1.329c0.154-0.394,0.372-0.729,0.654-1.005
		c0.282-0.276,0.618-0.488,1.008-0.636C42.653,121.746,43.086,121.672,43.562,121.672z M43.562,126.706
		c0.428,0,0.743-0.15,0.945-0.453c0.202-0.302,0.303-0.761,0.303-1.377c0-0.615-0.101-1.074-0.303-1.374
		c-0.202-0.3-0.517-0.45-0.945-0.45c-0.44,0-0.762,0.15-0.966,0.45c-0.204,0.3-0.306,0.759-0.306,1.374
		c0,0.616,0.102,1.075,0.306,1.377C42.8,126.556,43.123,126.706,43.562,126.706z"/>
	<path fill="#676767" d="M51.62,123.13c-0.048,0.076-0.099,0.131-0.153,0.162c-0.054,0.032-0.123,0.048-0.207,0.048
		c-0.088,0-0.176-0.019-0.264-0.057c-0.088-0.038-0.183-0.079-0.285-0.123s-0.217-0.085-0.345-0.123
		c-0.128-0.038-0.274-0.057-0.438-0.057c-0.236,0-0.417,0.045-0.543,0.135c-0.126,0.09-0.189,0.215-0.189,0.375
		c0,0.116,0.041,0.212,0.123,0.288c0.082,0.076,0.191,0.143,0.327,0.201s0.29,0.113,0.462,0.165
		c0.172,0.052,0.348,0.109,0.528,0.174c0.18,0.063,0.356,0.139,0.528,0.225s0.326,0.192,0.462,0.318
		c0.136,0.126,0.245,0.279,0.327,0.459c0.082,0.18,0.123,0.396,0.123,0.647c0,0.309-0.056,0.593-0.168,0.853
		c-0.112,0.26-0.279,0.484-0.501,0.672c-0.222,0.188-0.496,0.334-0.822,0.438s-0.701,0.155-1.125,0.155
		c-0.212,0-0.424-0.02-0.636-0.06c-0.212-0.04-0.417-0.094-0.615-0.162c-0.198-0.068-0.381-0.149-0.549-0.243
		c-0.168-0.094-0.312-0.195-0.432-0.303l0.432-0.685c0.048-0.079,0.109-0.143,0.183-0.188c0.074-0.046,0.169-0.069,0.285-0.069
		c0.108,0,0.205,0.024,0.291,0.072c0.086,0.048,0.179,0.1,0.279,0.156c0.1,0.056,0.217,0.107,0.351,0.155
		c0.134,0.049,0.303,0.072,0.507,0.072c0.144,0,0.266-0.015,0.366-0.045c0.1-0.03,0.18-0.071,0.24-0.123
		c0.06-0.052,0.104-0.109,0.132-0.174c0.028-0.063,0.042-0.13,0.042-0.198c0-0.124-0.042-0.226-0.126-0.306
		c-0.084-0.08-0.194-0.149-0.33-0.207c-0.136-0.058-0.291-0.112-0.465-0.162c-0.174-0.05-0.351-0.106-0.531-0.171
		c-0.18-0.064-0.357-0.141-0.531-0.231c-0.174-0.09-0.329-0.203-0.465-0.342c-0.136-0.138-0.246-0.307-0.33-0.507
		c-0.084-0.2-0.126-0.442-0.126-0.726c0-0.265,0.051-0.516,0.153-0.753c0.102-0.238,0.255-0.447,0.459-0.628
		c0.204-0.18,0.46-0.322,0.768-0.429c0.308-0.105,0.668-0.159,1.08-0.159c0.224,0,0.441,0.021,0.651,0.061s0.407,0.096,0.591,0.168
		c0.184,0.072,0.352,0.157,0.504,0.255c0.152,0.098,0.286,0.205,0.402,0.321L51.62,123.13z"/>
	<path fill="#676767" d="M60.356,123.244c-0.056,0.068-0.11,0.122-0.162,0.162c-0.052,0.04-0.126,0.06-0.222,0.06
		c-0.092,0-0.175-0.021-0.249-0.065c-0.074-0.044-0.157-0.093-0.249-0.147c-0.092-0.054-0.2-0.103-0.324-0.146
		s-0.278-0.066-0.462-0.066c-0.228,0-0.425,0.042-0.591,0.126s-0.303,0.204-0.411,0.36c-0.108,0.156-0.188,0.347-0.24,0.573
		c-0.052,0.226-0.078,0.48-0.078,0.765c0,0.596,0.115,1.054,0.345,1.374c0.23,0.32,0.547,0.479,0.951,0.479
		c0.216,0,0.387-0.026,0.513-0.08c0.126-0.055,0.233-0.114,0.321-0.181c0.088-0.065,0.168-0.127,0.243-0.183
		c0.075-0.056,0.167-0.084,0.279-0.084c0.148,0,0.26,0.054,0.336,0.162l0.54,0.666c-0.192,0.22-0.394,0.398-0.606,0.537
		c-0.212,0.138-0.429,0.245-0.651,0.323c-0.222,0.078-0.445,0.133-0.669,0.162c-0.224,0.03-0.442,0.045-0.654,0.045
		c-0.38,0-0.743-0.071-1.089-0.216c-0.346-0.144-0.65-0.353-0.912-0.627c-0.262-0.273-0.47-0.611-0.624-1.011
		c-0.154-0.4-0.231-0.856-0.231-1.368c0-0.448,0.067-0.867,0.201-1.257c0.134-0.391,0.332-0.729,0.594-1.015
		c0.262-0.285,0.586-0.511,0.972-0.675c0.386-0.164,0.833-0.246,1.341-0.246c0.488,0,0.916,0.078,1.284,0.234
		c0.368,0.156,0.7,0.384,0.996,0.684L60.356,123.244z"/>
	<path fill="#676767" d="M64.382,121.672c0.472,0,0.902,0.074,1.29,0.223c0.388,0.147,0.721,0.359,0.999,0.636
		c0.278,0.276,0.494,0.611,0.648,1.005c0.154,0.395,0.231,0.837,0.231,1.329c0,0.496-0.077,0.943-0.231,1.341
		c-0.154,0.398-0.37,0.736-0.648,1.014c-0.278,0.278-0.611,0.492-0.999,0.644c-0.388,0.15-0.818,0.225-1.29,0.225
		c-0.476,0-0.909-0.074-1.299-0.225c-0.39-0.15-0.726-0.364-1.008-0.644c-0.282-0.277-0.5-0.615-0.654-1.014
		c-0.154-0.397-0.231-0.845-0.231-1.341c0-0.492,0.077-0.935,0.231-1.329c0.154-0.394,0.372-0.729,0.654-1.005
		c0.282-0.276,0.618-0.488,1.008-0.636C63.473,121.746,63.906,121.672,64.382,121.672z M64.382,126.706
		c0.428,0,0.743-0.15,0.945-0.453c0.202-0.302,0.303-0.761,0.303-1.377c0-0.615-0.101-1.074-0.303-1.374
		c-0.202-0.3-0.517-0.45-0.945-0.45c-0.44,0-0.762,0.15-0.966,0.45s-0.306,0.759-0.306,1.374c0,0.616,0.102,1.075,0.306,1.377
		C63.62,126.556,63.942,126.706,64.382,126.706z"/>
	<path fill="#676767" d="M68.486,127.99v-6.222h1.152c0.232,0,0.384,0.104,0.456,0.312l0.102,0.336
		c0.104-0.107,0.212-0.207,0.324-0.297c0.112-0.09,0.233-0.168,0.363-0.234c0.13-0.065,0.27-0.117,0.42-0.155
		c0.15-0.038,0.315-0.058,0.495-0.058c0.376,0,0.687,0.098,0.933,0.291c0.246,0.194,0.433,0.453,0.561,0.777
		c0.104-0.192,0.231-0.356,0.381-0.492c0.15-0.136,0.312-0.246,0.486-0.33c0.174-0.084,0.358-0.146,0.552-0.186
		s0.387-0.061,0.579-0.061c0.356,0,0.672,0.054,0.948,0.159c0.276,0.106,0.507,0.26,0.693,0.462s0.327,0.45,0.423,0.744
		s0.144,0.627,0.144,0.999v3.954h-1.86v-3.954c0-0.644-0.276-0.966-0.828-0.966c-0.252,0-0.461,0.083-0.627,0.249
		s-0.249,0.405-0.249,0.717v3.954h-1.86v-3.954c0-0.355-0.07-0.605-0.21-0.75c-0.14-0.144-0.346-0.216-0.618-0.216
		c-0.168,0-0.327,0.038-0.477,0.114c-0.15,0.076-0.291,0.178-0.423,0.306v4.5L68.486,127.99L68.486,127.99z"/>
	<path fill="#676767" d="M84.278,121.769v6.222h-1.152c-0.232,0-0.384-0.104-0.456-0.312l-0.108-0.36
		c-0.12,0.116-0.244,0.221-0.372,0.314c-0.128,0.095-0.265,0.175-0.411,0.24c-0.146,0.066-0.304,0.118-0.474,0.156
		c-0.17,0.038-0.355,0.057-0.555,0.057c-0.34,0-0.641-0.059-0.903-0.177c-0.262-0.118-0.483-0.283-0.663-0.495
		c-0.18-0.212-0.316-0.462-0.408-0.75c-0.092-0.288-0.138-0.604-0.138-0.948v-3.947h1.86v3.947c0,0.309,0.07,0.547,0.21,0.715
		s0.346,0.252,0.618,0.252c0.204,0,0.395-0.043,0.573-0.129c0.178-0.087,0.351-0.203,0.519-0.352v-4.434L84.278,121.769
		L84.278,121.769z"/>
	<path fill="#676767" d="M87.254,122.44c0.12-0.112,0.244-0.216,0.372-0.312c0.128-0.096,0.265-0.177,0.411-0.243
		c0.146-0.065,0.304-0.117,0.474-0.155c0.17-0.038,0.355-0.058,0.555-0.058c0.34,0,0.641,0.06,0.903,0.178
		c0.262,0.117,0.483,0.281,0.663,0.491c0.18,0.21,0.316,0.46,0.408,0.75s0.138,0.605,0.138,0.945v3.954h-1.86v-3.954
		c0-0.304-0.07-0.541-0.21-0.711s-0.346-0.255-0.618-0.255c-0.204,0-0.395,0.043-0.573,0.129c-0.178,0.086-0.351,0.203-0.519,0.351
		v4.44h-1.86v-6.222h1.152c0.232,0,0.384,0.104,0.456,0.312L87.254,122.44z"/>
	<path fill="#676767" d="M94.472,120.064c0,0.147-0.03,0.287-0.09,0.417c-0.06,0.13-0.142,0.244-0.246,0.342
		c-0.104,0.098-0.225,0.176-0.363,0.234s-0.285,0.087-0.441,0.087c-0.152,0-0.294-0.029-0.426-0.087
		c-0.132-0.059-0.249-0.137-0.351-0.234c-0.102-0.097-0.182-0.212-0.24-0.342s-0.087-0.27-0.087-0.417
		c0-0.152,0.029-0.294,0.087-0.426c0.058-0.133,0.138-0.248,0.24-0.349c0.102-0.1,0.219-0.178,0.351-0.233
		c0.132-0.057,0.274-0.084,0.426-0.084c0.156,0,0.303,0.027,0.441,0.084c0.138,0.056,0.259,0.134,0.363,0.233
		c0.104,0.101,0.186,0.216,0.246,0.349C94.442,119.771,94.472,119.912,94.472,120.064z M94.28,121.769v6.222h-1.86v-6.222H94.28z"/>
	<path fill="#676767" d="M100.154,123.244c-0.056,0.068-0.11,0.122-0.162,0.162c-0.052,0.04-0.126,0.06-0.222,0.06
		c-0.092,0-0.175-0.021-0.249-0.065s-0.157-0.093-0.249-0.147c-0.092-0.054-0.2-0.103-0.324-0.146
		c-0.124-0.043-0.278-0.066-0.462-0.066c-0.228,0-0.425,0.042-0.591,0.126s-0.303,0.204-0.411,0.36
		c-0.108,0.156-0.188,0.347-0.24,0.573c-0.052,0.226-0.078,0.48-0.078,0.765c0,0.596,0.115,1.054,0.345,1.374
		c0.23,0.32,0.547,0.479,0.951,0.479c0.216,0,0.387-0.026,0.513-0.08c0.126-0.055,0.233-0.114,0.321-0.181
		c0.088-0.065,0.168-0.127,0.243-0.183c0.075-0.056,0.167-0.084,0.279-0.084c0.148,0,0.26,0.054,0.336,0.162l0.54,0.666
		c-0.192,0.22-0.394,0.398-0.606,0.537c-0.212,0.138-0.429,0.245-0.651,0.323s-0.445,0.133-0.669,0.162
		c-0.224,0.03-0.442,0.045-0.654,0.045c-0.38,0-0.743-0.071-1.089-0.216c-0.346-0.144-0.65-0.353-0.912-0.627
		c-0.262-0.273-0.47-0.611-0.624-1.011c-0.154-0.4-0.231-0.856-0.231-1.368c0-0.448,0.067-0.867,0.201-1.257
		c0.134-0.391,0.332-0.729,0.594-1.015c0.262-0.285,0.586-0.511,0.972-0.675c0.386-0.164,0.833-0.246,1.341-0.246
		c0.488,0,0.916,0.078,1.284,0.234c0.368,0.156,0.7,0.384,0.996,0.684L100.154,123.244z"/>
	<path fill="#676767" d="M101.282,122.632c0.376-0.332,0.793-0.578,1.251-0.74s0.949-0.243,1.473-0.243
		c0.376,0,0.715,0.061,1.017,0.183c0.302,0.122,0.558,0.292,0.768,0.51c0.21,0.219,0.371,0.478,0.483,0.777
		c0.112,0.299,0.168,0.628,0.168,0.984v3.888h-0.852c-0.176,0-0.309-0.024-0.399-0.072c-0.09-0.048-0.165-0.147-0.225-0.3
		l-0.132-0.342c-0.156,0.132-0.306,0.248-0.45,0.348c-0.144,0.101-0.293,0.186-0.447,0.255c-0.154,0.07-0.318,0.122-0.492,0.156
		c-0.174,0.034-0.367,0.051-0.579,0.051c-0.284,0-0.542-0.037-0.774-0.11c-0.232-0.074-0.429-0.184-0.591-0.327
		c-0.162-0.145-0.287-0.323-0.375-0.537c-0.088-0.214-0.132-0.461-0.132-0.741c0-0.224,0.056-0.451,0.168-0.681
		c0.112-0.23,0.306-0.44,0.582-0.63c0.276-0.19,0.648-0.35,1.116-0.478c0.468-0.128,1.058-0.2,1.77-0.216v-0.264
		c0-0.364-0.075-0.627-0.225-0.789c-0.15-0.162-0.363-0.243-0.639-0.243c-0.22,0-0.4,0.023-0.54,0.072
		c-0.14,0.048-0.265,0.102-0.375,0.162s-0.217,0.113-0.321,0.161c-0.104,0.049-0.228,0.072-0.372,0.072
		c-0.128,0-0.236-0.032-0.324-0.096s-0.16-0.14-0.216-0.229L101.282,122.632z M104.63,125.458c-0.372,0.017-0.678,0.048-0.918,0.097
		c-0.24,0.048-0.43,0.107-0.57,0.18c-0.14,0.073-0.237,0.154-0.291,0.246c-0.054,0.092-0.081,0.191-0.081,0.3
		c0,0.212,0.058,0.361,0.174,0.447c0.116,0.086,0.286,0.129,0.51,0.129c0.24,0,0.45-0.042,0.63-0.126s0.362-0.22,0.546-0.408
		V125.458z"/>
	<path fill="#676767" d="M114.26,127.99h-1.86v-4.938h-2.604v3.091c0,0.144,0.035,0.263,0.105,0.356
		c0.07,0.095,0.171,0.142,0.303,0.142c0.068,0,0.125-0.008,0.171-0.021c0.046-0.014,0.086-0.03,0.12-0.048
		c0.034-0.018,0.066-0.034,0.096-0.048c0.03-0.015,0.065-0.021,0.105-0.021c0.056,0,0.101,0.014,0.135,0.039
		c0.034,0.026,0.069,0.067,0.105,0.123l0.564,0.882c-0.24,0.181-0.51,0.315-0.81,0.405c-0.3,0.09-0.61,0.135-0.93,0.135
		c-0.296,0-0.557-0.043-0.783-0.129s-0.417-0.208-0.57-0.366c-0.154-0.157-0.271-0.349-0.351-0.572
		c-0.08-0.225-0.12-0.475-0.12-0.75v-3.217h-0.528c-0.096,0-0.178-0.03-0.246-0.093c-0.068-0.062-0.102-0.152-0.102-0.272v-0.727
		l0.99-0.197l0.366-1.513c0.048-0.191,0.184-0.288,0.408-0.288h0.972v1.818h4.464V127.99z M114.518,120.059
		c0,0.147-0.03,0.288-0.09,0.42c-0.06,0.132-0.142,0.247-0.246,0.345c-0.104,0.098-0.225,0.175-0.363,0.231
		c-0.138,0.056-0.285,0.084-0.441,0.084c-0.152,0-0.294-0.028-0.426-0.084c-0.132-0.057-0.249-0.134-0.351-0.231
		c-0.102-0.098-0.182-0.213-0.24-0.345c-0.058-0.132-0.087-0.272-0.087-0.42s0.029-0.289,0.087-0.424
		c0.058-0.134,0.138-0.249,0.24-0.348c0.102-0.098,0.219-0.176,0.351-0.233c0.132-0.059,0.274-0.088,0.426-0.088
		c0.156,0,0.303,0.029,0.441,0.088c0.138,0.058,0.259,0.136,0.363,0.233c0.104,0.099,0.186,0.214,0.246,0.348
		C114.488,119.77,114.518,119.91,114.518,120.059z"/>
	<path fill="#676767" d="M121.424,121.769l-2.412,6.222h-1.692l-2.412-6.222h1.548c0.132,0,0.243,0.03,0.333,0.093
		c0.09,0.062,0.151,0.139,0.183,0.23l0.864,2.79c0.076,0.229,0.143,0.45,0.201,0.666c0.058,0.217,0.109,0.433,0.153,0.648
		c0.088-0.432,0.21-0.87,0.366-1.314l0.9-2.79c0.032-0.092,0.092-0.169,0.18-0.23c0.088-0.062,0.192-0.093,0.312-0.093H121.424z"/>
	<path fill="#676767" d="M124.688,121.672c0.472,0,0.902,0.074,1.29,0.223c0.388,0.147,0.721,0.359,0.999,0.636
		c0.278,0.276,0.494,0.611,0.648,1.005c0.154,0.395,0.231,0.837,0.231,1.329c0,0.496-0.077,0.943-0.231,1.341
		s-0.37,0.736-0.648,1.014c-0.278,0.278-0.611,0.492-0.999,0.644c-0.388,0.15-0.818,0.225-1.29,0.225
		c-0.476,0-0.909-0.074-1.299-0.225c-0.39-0.15-0.726-0.364-1.008-0.644c-0.282-0.277-0.5-0.615-0.654-1.014
		c-0.154-0.397-0.231-0.845-0.231-1.341c0-0.492,0.077-0.935,0.231-1.329s0.372-0.729,0.654-1.005
		c0.282-0.276,0.618-0.488,1.008-0.636C123.778,121.746,124.211,121.672,124.688,121.672z M124.688,126.706
		c0.428,0,0.743-0.15,0.945-0.453c0.202-0.302,0.303-0.761,0.303-1.377c0-0.615-0.101-1.074-0.303-1.374
		c-0.202-0.3-0.517-0.45-0.945-0.45c-0.44,0-0.762,0.15-0.966,0.45c-0.204,0.3-0.306,0.759-0.306,1.374
		c0,0.616,0.102,1.075,0.306,1.377C123.925,126.556,124.248,126.706,124.688,126.706z"/>
	<path fill="#676767" d="M132.746,123.13c-0.048,0.076-0.099,0.131-0.153,0.162c-0.054,0.032-0.123,0.048-0.207,0.048
		c-0.088,0-0.176-0.019-0.264-0.057c-0.088-0.038-0.183-0.079-0.285-0.123s-0.217-0.085-0.345-0.123
		c-0.128-0.038-0.274-0.057-0.438-0.057c-0.236,0-0.417,0.045-0.543,0.135c-0.126,0.09-0.189,0.215-0.189,0.375
		c0,0.116,0.041,0.212,0.123,0.288c0.082,0.076,0.191,0.143,0.327,0.201s0.29,0.113,0.462,0.165
		c0.172,0.052,0.348,0.109,0.528,0.174c0.18,0.063,0.356,0.139,0.528,0.225s0.326,0.192,0.462,0.318
		c0.136,0.126,0.245,0.279,0.327,0.459c0.082,0.18,0.123,0.396,0.123,0.647c0,0.309-0.056,0.593-0.168,0.853
		c-0.112,0.26-0.279,0.484-0.501,0.672c-0.222,0.188-0.496,0.334-0.822,0.438s-0.701,0.155-1.125,0.155
		c-0.212,0-0.424-0.02-0.636-0.06c-0.212-0.04-0.417-0.094-0.615-0.162c-0.198-0.068-0.381-0.149-0.549-0.243
		c-0.168-0.094-0.312-0.195-0.432-0.303l0.432-0.685c0.048-0.079,0.109-0.143,0.183-0.188c0.074-0.046,0.169-0.069,0.285-0.069
		c0.108,0,0.205,0.024,0.291,0.072c0.086,0.048,0.179,0.1,0.279,0.156c0.1,0.056,0.217,0.107,0.351,0.155
		c0.134,0.049,0.303,0.072,0.507,0.072c0.144,0,0.266-0.015,0.366-0.045c0.1-0.03,0.18-0.071,0.24-0.123
		c0.06-0.052,0.104-0.109,0.132-0.174c0.028-0.063,0.042-0.13,0.042-0.198c0-0.124-0.042-0.226-0.126-0.306
		c-0.084-0.08-0.194-0.149-0.33-0.207c-0.136-0.058-0.291-0.112-0.465-0.162c-0.174-0.05-0.351-0.106-0.531-0.171
		c-0.18-0.064-0.357-0.141-0.531-0.231c-0.174-0.09-0.329-0.203-0.465-0.342c-0.136-0.138-0.246-0.307-0.33-0.507
		c-0.084-0.2-0.126-0.442-0.126-0.726c0-0.265,0.051-0.516,0.153-0.753c0.102-0.238,0.255-0.447,0.459-0.628
		c0.204-0.18,0.46-0.322,0.768-0.429c0.308-0.105,0.668-0.159,1.08-0.159c0.224,0,0.441,0.021,0.651,0.061s0.407,0.096,0.591,0.168
		c0.184,0.072,0.352,0.157,0.504,0.255c0.152,0.098,0.286,0.205,0.402,0.321L132.746,123.13z"/>
</g>
<g enable-background="new    ">
	<path fill="#676767" d="M40.333,81.262c0.616,0,1.145,0.073,1.587,0.219s0.806,0.348,1.092,0.604
		c0.286,0.256,0.497,0.558,0.633,0.906c0.136,0.348,0.204,0.724,0.204,1.128c0,0.436-0.07,0.836-0.21,1.2
		c-0.14,0.363-0.354,0.676-0.642,0.936c-0.288,0.26-0.653,0.463-1.095,0.609c-0.442,0.146-0.965,0.219-1.569,0.219h-1.056v2.922
		H37.25v-8.742L40.333,81.262L40.333,81.262z M40.333,85.552c0.528,0,0.908-0.126,1.14-0.378s0.348-0.604,0.348-1.056
		c0-0.2-0.03-0.382-0.09-0.546c-0.06-0.164-0.151-0.306-0.273-0.424c-0.122-0.117-0.276-0.209-0.462-0.272
		c-0.186-0.064-0.407-0.096-0.663-0.096h-1.056v2.771L40.333,85.552L40.333,85.552z"/>
	<path fill="#676767" d="M46.328,84.742c0.192-0.336,0.413-0.601,0.663-0.792c0.25-0.192,0.537-0.288,0.861-0.288
		c0.28,0,0.508,0.065,0.684,0.198l-0.12,1.367c-0.02,0.089-0.053,0.148-0.099,0.181c-0.046,0.033-0.109,0.048-0.189,0.048
		c-0.032,0-0.074-0.002-0.126-0.006c-0.052-0.004-0.106-0.01-0.162-0.016c-0.056-0.006-0.113-0.012-0.171-0.018
		s-0.111-0.009-0.159-0.009c-0.272,0-0.489,0.071-0.651,0.216c-0.162,0.144-0.299,0.344-0.411,0.6v3.78h-1.86v-6.222h1.104
		c0.092,0,0.169,0.008,0.231,0.023c0.062,0.017,0.114,0.041,0.156,0.075s0.074,0.079,0.096,0.135
		c0.022,0.057,0.041,0.124,0.057,0.204L46.328,84.742z"/>
	<path fill="#676767" d="M51.925,83.686c0.472,0,0.902,0.074,1.29,0.223c0.388,0.147,0.721,0.359,0.999,0.636
		c0.278,0.276,0.494,0.611,0.648,1.005c0.154,0.395,0.231,0.837,0.231,1.329c0,0.496-0.077,0.943-0.231,1.341
		c-0.154,0.398-0.37,0.736-0.648,1.014c-0.278,0.278-0.611,0.492-0.999,0.643c-0.388,0.15-0.818,0.225-1.29,0.225
		c-0.476,0-0.909-0.074-1.299-0.225c-0.39-0.15-0.726-0.364-1.008-0.643c-0.282-0.277-0.5-0.615-0.654-1.014
		c-0.154-0.396-0.231-0.845-0.231-1.341c0-0.492,0.077-0.935,0.231-1.329c0.154-0.394,0.372-0.729,0.654-1.005
		c0.282-0.276,0.618-0.488,1.008-0.636C51.016,83.76,51.449,83.686,51.925,83.686z M51.925,88.72c0.428,0,0.743-0.15,0.945-0.453
		c0.202-0.302,0.303-0.761,0.303-1.377c0-0.615-0.101-1.074-0.303-1.374c-0.202-0.3-0.517-0.45-0.945-0.45
		c-0.44,0-0.762,0.15-0.966,0.45c-0.204,0.3-0.306,0.759-0.306,1.374c0,0.616,0.102,1.075,0.306,1.377
		C51.163,88.569,51.485,88.72,51.925,88.72z"/>
	<path fill="#676767" d="M61.664,81.021v8.982h-1.152c-0.232,0-0.384-0.104-0.456-0.312l-0.144-0.475
		c-0.124,0.132-0.254,0.252-0.39,0.36c-0.136,0.107-0.283,0.201-0.441,0.278c-0.158,0.078-0.328,0.139-0.51,0.181
		c-0.182,0.042-0.38,0.065-0.592,0.065c-0.324,0-0.624-0.071-0.9-0.216c-0.276-0.144-0.514-0.352-0.714-0.624
		c-0.2-0.271-0.357-0.604-0.471-0.999c-0.114-0.394-0.171-0.843-0.171-1.347c0-0.464,0.063-0.896,0.192-1.293
		c0.128-0.398,0.309-0.742,0.543-1.032s0.515-0.517,0.843-0.681c0.328-0.164,0.69-0.246,1.086-0.246
		c0.324,0,0.596,0.046,0.816,0.138c0.22,0.092,0.42,0.216,0.6,0.372v-3.15L61.664,81.021L61.664,81.021z M59.803,85.45
		c-0.14-0.156-0.292-0.266-0.456-0.327c-0.164-0.062-0.336-0.093-0.516-0.093c-0.172,0-0.33,0.033-0.474,0.102
		c-0.144,0.069-0.269,0.177-0.375,0.327s-0.189,0.345-0.249,0.585c-0.06,0.24-0.09,0.53-0.09,0.87c0,0.328,0.024,0.604,0.072,0.828
		c0.048,0.224,0.115,0.404,0.201,0.543c0.086,0.138,0.189,0.236,0.309,0.297c0.12,0.06,0.254,0.09,0.402,0.09
		c0.136,0,0.259-0.013,0.369-0.039c0.11-0.025,0.211-0.062,0.303-0.111c0.092-0.048,0.179-0.108,0.261-0.183
		c0.082-0.075,0.163-0.159,0.243-0.255V85.45z"/>
	<path fill="#676767" d="M68.503,83.782v6.222h-1.152c-0.232,0-0.384-0.104-0.456-0.312l-0.108-0.36
		c-0.12,0.116-0.244,0.221-0.372,0.314c-0.128,0.095-0.265,0.175-0.411,0.24c-0.146,0.066-0.304,0.118-0.474,0.156
		c-0.17,0.038-0.355,0.058-0.555,0.058c-0.34,0-0.641-0.059-0.903-0.177c-0.262-0.118-0.483-0.283-0.663-0.495
		c-0.18-0.212-0.316-0.462-0.408-0.75c-0.092-0.288-0.138-0.604-0.138-0.948v-3.947h1.86v3.947c0,0.309,0.07,0.547,0.21,0.715
		s0.346,0.252,0.618,0.252c0.204,0,0.395-0.043,0.573-0.129c0.178-0.087,0.351-0.203,0.519-0.352v-4.434H68.503z"/>
	<path fill="#676767" d="M74.335,85.258c-0.056,0.068-0.11,0.122-0.162,0.162c-0.052,0.04-0.126,0.06-0.222,0.06
		c-0.092,0-0.175-0.021-0.249-0.065c-0.074-0.044-0.157-0.093-0.249-0.147c-0.092-0.054-0.2-0.103-0.324-0.146
		s-0.278-0.066-0.462-0.066c-0.228,0-0.425,0.042-0.591,0.126s-0.303,0.204-0.411,0.36s-0.188,0.347-0.24,0.573
		c-0.052,0.226-0.078,0.479-0.078,0.765c0,0.596,0.115,1.054,0.345,1.374c0.23,0.32,0.547,0.479,0.951,0.479
		c0.216,0,0.387-0.026,0.513-0.08c0.126-0.055,0.233-0.114,0.321-0.181c0.088-0.065,0.168-0.127,0.243-0.183
		c0.075-0.056,0.167-0.084,0.279-0.084c0.148,0,0.26,0.054,0.336,0.162l0.54,0.666c-0.192,0.22-0.394,0.398-0.606,0.537
		c-0.212,0.138-0.429,0.245-0.651,0.323c-0.222,0.078-0.445,0.133-0.669,0.162c-0.224,0.03-0.442,0.045-0.654,0.045
		c-0.38,0-0.743-0.071-1.089-0.216c-0.346-0.144-0.65-0.353-0.912-0.627c-0.262-0.273-0.47-0.611-0.624-1.011
		c-0.154-0.4-0.231-0.856-0.231-1.368c0-0.448,0.067-0.867,0.201-1.257c0.134-0.391,0.332-0.729,0.594-1.015
		c0.262-0.285,0.586-0.511,0.972-0.675c0.386-0.164,0.833-0.246,1.341-0.246c0.488,0,0.916,0.078,1.284,0.234
		c0.368,0.156,0.7,0.384,0.996,0.684L74.335,85.258z"/>
	<path fill="#676767" d="M80.065,85.258c-0.056,0.068-0.11,0.122-0.162,0.162c-0.052,0.04-0.126,0.06-0.222,0.06
		c-0.092,0-0.175-0.021-0.249-0.065c-0.074-0.044-0.157-0.093-0.249-0.147c-0.092-0.054-0.2-0.103-0.324-0.146
		s-0.278-0.066-0.462-0.066c-0.228,0-0.425,0.042-0.591,0.126s-0.303,0.204-0.411,0.36s-0.188,0.347-0.24,0.573
		c-0.052,0.226-0.078,0.479-0.078,0.765c0,0.596,0.115,1.054,0.345,1.374c0.23,0.32,0.547,0.479,0.951,0.479
		c0.216,0,0.387-0.026,0.513-0.08c0.126-0.055,0.233-0.114,0.321-0.181c0.088-0.065,0.168-0.127,0.243-0.183
		c0.075-0.056,0.167-0.084,0.279-0.084c0.148,0,0.26,0.054,0.336,0.162l0.54,0.666c-0.192,0.22-0.394,0.398-0.606,0.537
		c-0.212,0.138-0.429,0.245-0.651,0.323c-0.222,0.078-0.445,0.133-0.669,0.162c-0.224,0.03-0.442,0.045-0.654,0.045
		c-0.38,0-0.743-0.071-1.089-0.216c-0.346-0.144-0.65-0.353-0.912-0.627c-0.262-0.273-0.47-0.611-0.624-1.011
		c-0.154-0.4-0.231-0.856-0.231-1.368c0-0.448,0.067-0.867,0.201-1.257c0.134-0.391,0.332-0.729,0.594-1.015
		c0.262-0.285,0.586-0.511,0.972-0.675c0.386-0.164,0.833-0.246,1.341-0.246c0.488,0,0.916,0.078,1.284,0.234
		c0.368,0.156,0.7,0.384,0.996,0.684L80.065,85.258z"/>
	<path fill="#676767" d="M83.425,82.078c0,0.147-0.03,0.287-0.09,0.417s-0.142,0.244-0.246,0.342
		c-0.104,0.098-0.225,0.176-0.363,0.234c-0.138,0.058-0.285,0.087-0.441,0.087c-0.152,0-0.294-0.029-0.426-0.087
		c-0.132-0.059-0.249-0.137-0.351-0.234c-0.102-0.097-0.182-0.212-0.24-0.342s-0.087-0.27-0.087-0.417
		c0-0.152,0.029-0.294,0.087-0.426c0.058-0.133,0.138-0.248,0.24-0.349c0.102-0.1,0.219-0.178,0.351-0.233
		c0.132-0.057,0.274-0.084,0.426-0.084c0.156,0,0.303,0.027,0.441,0.084c0.138,0.056,0.259,0.134,0.363,0.233
		c0.104,0.101,0.186,0.216,0.246,0.349C83.395,81.784,83.425,81.926,83.425,82.078z M83.233,83.782v6.222h-1.86v-6.222H83.233z"/>
	<path fill="#676767" d="M87.403,83.686c0.472,0,0.902,0.074,1.29,0.223c0.388,0.147,0.721,0.359,0.999,0.636
		c0.278,0.276,0.494,0.611,0.648,1.005c0.154,0.395,0.231,0.837,0.231,1.329c0,0.496-0.077,0.943-0.231,1.341
		c-0.154,0.398-0.37,0.736-0.648,1.014c-0.278,0.278-0.611,0.492-0.999,0.643c-0.388,0.15-0.818,0.225-1.29,0.225
		c-0.476,0-0.909-0.074-1.299-0.225c-0.39-0.15-0.726-0.364-1.008-0.643c-0.282-0.277-0.5-0.615-0.654-1.014
		c-0.154-0.396-0.231-0.845-0.231-1.341c0-0.492,0.077-0.935,0.231-1.329c0.154-0.394,0.372-0.729,0.654-1.005
		c0.282-0.276,0.618-0.488,1.008-0.636C86.494,83.76,86.927,83.686,87.403,83.686z M87.403,88.72c0.428,0,0.743-0.15,0.945-0.453
		c0.202-0.302,0.303-0.761,0.303-1.377c0-0.615-0.101-1.074-0.303-1.374c-0.202-0.3-0.517-0.45-0.945-0.45
		c-0.44,0-0.762,0.15-0.966,0.45c-0.204,0.3-0.306,0.759-0.306,1.374c0,0.616,0.102,1.075,0.306,1.377
		C86.641,88.569,86.963,88.72,87.403,88.72z M89.779,81.166l-1.56,1.578c-0.092,0.092-0.18,0.157-0.264,0.194
		c-0.084,0.038-0.196,0.058-0.336,0.058h-1.116l0.816-1.47c0.068-0.116,0.148-0.205,0.24-0.268c0.092-0.062,0.232-0.093,0.42-0.093
		L89.779,81.166L89.779,81.166z"/>
	<path fill="#676767" d="M93.223,84.454c0.12-0.112,0.244-0.216,0.372-0.312c0.128-0.096,0.265-0.177,0.411-0.243
		c0.146-0.065,0.304-0.117,0.474-0.155s0.355-0.058,0.555-0.058c0.34,0,0.641,0.06,0.903,0.178c0.262,0.117,0.483,0.281,0.663,0.491
		s0.316,0.46,0.408,0.75c0.092,0.29,0.138,0.605,0.138,0.945v3.954h-1.86V86.05c0-0.304-0.07-0.541-0.21-0.711
		c-0.14-0.17-0.346-0.255-0.618-0.255c-0.204,0-0.395,0.043-0.573,0.129c-0.178,0.086-0.351,0.203-0.519,0.351v4.44h-1.86v-6.222
		h1.152c0.232,0,0.384,0.104,0.456,0.312L93.223,84.454z"/>
	<path fill="#676767" d="M106.753,81.021v8.982h-1.152c-0.232,0-0.384-0.104-0.456-0.312l-0.144-0.475
		c-0.124,0.132-0.254,0.252-0.39,0.36c-0.136,0.107-0.283,0.201-0.441,0.278c-0.158,0.078-0.328,0.139-0.51,0.181
		c-0.182,0.042-0.379,0.062-0.591,0.062c-0.324,0-0.624-0.071-0.9-0.216c-0.276-0.144-0.514-0.352-0.714-0.624
		c-0.2-0.271-0.357-0.604-0.471-0.999c-0.114-0.394-0.171-0.843-0.171-1.347c0-0.464,0.063-0.896,0.192-1.293
		c0.128-0.398,0.309-0.742,0.543-1.032c0.234-0.29,0.515-0.517,0.843-0.681c0.328-0.164,0.69-0.246,1.086-0.246
		c0.324,0,0.596,0.046,0.816,0.138c0.22,0.092,0.42,0.216,0.6,0.372v-3.15h1.86V81.021z M104.893,85.45
		c-0.14-0.156-0.292-0.266-0.456-0.327c-0.164-0.062-0.336-0.093-0.516-0.093c-0.172,0-0.33,0.033-0.474,0.102
		c-0.144,0.069-0.269,0.177-0.375,0.327c-0.106,0.15-0.189,0.345-0.249,0.585c-0.06,0.24-0.09,0.53-0.09,0.87
		c0,0.328,0.024,0.604,0.072,0.828c0.048,0.224,0.115,0.404,0.201,0.543c0.086,0.138,0.189,0.236,0.309,0.297
		c0.12,0.06,0.254,0.09,0.402,0.09c0.136,0,0.259-0.013,0.369-0.039c0.11-0.025,0.211-0.062,0.303-0.111
		c0.092-0.048,0.179-0.108,0.261-0.183c0.082-0.075,0.163-0.159,0.243-0.255V85.45z"/>
	<path fill="#676767" d="M109.543,87.226c0.06,0.521,0.218,0.897,0.474,1.131c0.256,0.234,0.586,0.352,0.99,0.352
		c0.216,0,0.402-0.026,0.558-0.078c0.156-0.052,0.295-0.11,0.417-0.174s0.234-0.122,0.336-0.174
		c0.102-0.053,0.209-0.078,0.321-0.078c0.148,0,0.26,0.054,0.336,0.162l0.54,0.666c-0.192,0.22-0.399,0.398-0.621,0.537
		c-0.222,0.138-0.45,0.245-0.684,0.323s-0.468,0.133-0.702,0.162c-0.234,0.03-0.457,0.045-0.669,0.045
		c-0.436,0-0.845-0.07-1.227-0.213c-0.382-0.142-0.716-0.353-1.002-0.633c-0.286-0.28-0.512-0.628-0.678-1.044
		s-0.249-0.9-0.249-1.452c0-0.416,0.071-0.81,0.213-1.182s0.346-0.698,0.612-0.979c0.266-0.279,0.588-0.502,0.966-0.666
		c0.378-0.164,0.805-0.246,1.281-0.246c0.412,0,0.789,0.064,1.131,0.192c0.342,0.128,0.636,0.314,0.882,0.558
		c0.246,0.244,0.438,0.543,0.576,0.897c0.138,0.354,0.207,0.755,0.207,1.203c0,0.14-0.006,0.254-0.018,0.342
		c-0.012,0.088-0.034,0.158-0.066,0.21c-0.032,0.052-0.075,0.088-0.129,0.108c-0.054,0.02-0.123,0.029-0.207,0.029h-3.588V87.226z
		 M111.883,86.146c0-0.147-0.019-0.292-0.057-0.432c-0.038-0.14-0.1-0.265-0.186-0.375c-0.086-0.11-0.199-0.199-0.339-0.267
		c-0.14-0.068-0.31-0.104-0.51-0.104c-0.352,0-0.628,0.102-0.828,0.303c-0.2,0.202-0.332,0.493-0.396,0.873L111.883,86.146
		L111.883,86.146z"/>
	<path fill="#676767" d="M117.252,90.004v-6.222h1.152c0.232,0,0.384,0.104,0.456,0.312l0.102,0.336
		c0.104-0.107,0.212-0.207,0.324-0.297c0.112-0.09,0.233-0.168,0.363-0.234c0.13-0.065,0.27-0.117,0.42-0.155
		s0.315-0.058,0.495-0.058c0.376,0,0.687,0.098,0.933,0.291c0.246,0.194,0.433,0.453,0.561,0.777
		c0.104-0.192,0.231-0.356,0.381-0.492c0.15-0.136,0.312-0.246,0.486-0.33c0.174-0.084,0.358-0.146,0.552-0.186
		s0.387-0.061,0.579-0.061c0.356,0,0.672,0.054,0.948,0.159c0.276,0.106,0.507,0.26,0.693,0.462c0.186,0.202,0.327,0.45,0.423,0.744
		c0.096,0.294,0.144,0.627,0.144,0.999v3.954h-1.86V86.05c0-0.644-0.276-0.966-0.828-0.966c-0.252,0-0.461,0.083-0.627,0.249
		s-0.249,0.405-0.249,0.717v3.954h-1.86V86.05c0-0.355-0.07-0.605-0.21-0.75c-0.14-0.144-0.346-0.216-0.618-0.216
		c-0.168,0-0.327,0.038-0.477,0.114c-0.15,0.076-0.291,0.178-0.423,0.306v4.5H117.252z"/>
	<path fill="#676767" d="M128.995,87.226c0.06,0.521,0.218,0.897,0.474,1.131c0.256,0.234,0.586,0.352,0.99,0.352
		c0.216,0,0.402-0.026,0.558-0.078c0.156-0.052,0.295-0.11,0.417-0.174s0.234-0.122,0.336-0.174
		c0.102-0.053,0.209-0.078,0.321-0.078c0.148,0,0.26,0.054,0.336,0.162l0.54,0.666c-0.192,0.22-0.399,0.398-0.621,0.537
		c-0.222,0.138-0.45,0.245-0.684,0.323c-0.234,0.078-0.468,0.133-0.702,0.162c-0.234,0.03-0.457,0.045-0.669,0.045
		c-0.436,0-0.845-0.07-1.227-0.213c-0.382-0.142-0.716-0.353-1.002-0.633c-0.286-0.28-0.512-0.628-0.678-1.044
		s-0.249-0.9-0.249-1.452c0-0.416,0.071-0.81,0.213-1.182s0.346-0.698,0.612-0.979c0.266-0.279,0.588-0.502,0.966-0.666
		c0.378-0.164,0.805-0.246,1.281-0.246c0.412,0,0.789,0.064,1.131,0.192c0.342,0.128,0.636,0.314,0.882,0.558
		c0.246,0.244,0.438,0.543,0.576,0.897c0.138,0.354,0.207,0.755,0.207,1.203c0,0.14-0.006,0.254-0.018,0.342
		c-0.012,0.088-0.034,0.158-0.066,0.21c-0.032,0.052-0.075,0.088-0.129,0.108c-0.054,0.02-0.123,0.029-0.207,0.029h-3.588V87.226z
		 M131.334,86.146c0-0.147-0.019-0.292-0.057-0.432c-0.038-0.14-0.1-0.265-0.186-0.375c-0.086-0.11-0.199-0.199-0.339-0.267
		c-0.14-0.068-0.31-0.104-0.51-0.104c-0.352,0-0.628,0.102-0.828,0.303c-0.2,0.202-0.332,0.493-0.396,0.873L131.334,86.146
		L131.334,86.146z"/>
	<path fill="#676767" d="M135.648,84.454c0.12-0.112,0.244-0.216,0.372-0.312c0.128-0.096,0.265-0.177,0.411-0.243
		c0.146-0.065,0.304-0.117,0.474-0.155c0.17-0.038,0.355-0.058,0.555-0.058c0.34,0,0.641,0.06,0.903,0.178
		c0.262,0.117,0.483,0.281,0.663,0.491c0.18,0.21,0.316,0.46,0.408,0.75c0.092,0.29,0.138,0.605,0.138,0.945v3.954h-1.86V86.05
		c0-0.304-0.07-0.541-0.21-0.711s-0.346-0.255-0.618-0.255c-0.204,0-0.395,0.043-0.573,0.129c-0.178,0.086-0.351,0.203-0.519,0.351
		v4.44h-1.86v-6.222h1.152c0.232,0,0.384,0.104,0.456,0.312L135.648,84.454z"/>
	<path fill="#676767" d="M144.726,85.144c-0.048,0.076-0.099,0.131-0.153,0.162c-0.054,0.032-0.123,0.048-0.207,0.048
		c-0.088,0-0.176-0.019-0.264-0.057s-0.183-0.079-0.285-0.123s-0.217-0.085-0.345-0.123c-0.128-0.038-0.274-0.057-0.438-0.057
		c-0.236,0-0.417,0.045-0.543,0.135s-0.189,0.215-0.189,0.375c0,0.116,0.041,0.212,0.123,0.288s0.191,0.143,0.327,0.201
		c0.136,0.058,0.29,0.113,0.462,0.165c0.172,0.052,0.348,0.109,0.528,0.174c0.18,0.063,0.356,0.139,0.528,0.225
		s0.326,0.192,0.462,0.318c0.136,0.126,0.245,0.279,0.327,0.459s0.123,0.396,0.123,0.647c0,0.309-0.056,0.593-0.168,0.853
		c-0.112,0.26-0.279,0.484-0.501,0.672c-0.222,0.188-0.496,0.334-0.822,0.438c-0.326,0.104-0.701,0.155-1.125,0.155
		c-0.212,0-0.424-0.02-0.636-0.06c-0.212-0.04-0.417-0.094-0.615-0.162c-0.198-0.068-0.381-0.149-0.549-0.243
		c-0.168-0.094-0.312-0.195-0.432-0.303l0.432-0.685c0.048-0.079,0.109-0.143,0.183-0.188c0.074-0.046,0.169-0.069,0.285-0.069
		c0.108,0,0.205,0.024,0.291,0.072s0.179,0.1,0.279,0.156c0.1,0.056,0.217,0.107,0.351,0.155c0.134,0.049,0.303,0.072,0.507,0.072
		c0.144,0,0.266-0.015,0.366-0.045c0.1-0.03,0.18-0.071,0.24-0.123c0.06-0.052,0.104-0.109,0.132-0.174
		c0.028-0.063,0.042-0.13,0.042-0.198c0-0.124-0.042-0.226-0.126-0.306s-0.194-0.149-0.33-0.207
		c-0.136-0.058-0.291-0.112-0.465-0.162c-0.174-0.05-0.351-0.106-0.531-0.171c-0.18-0.064-0.357-0.141-0.531-0.231
		c-0.174-0.09-0.329-0.203-0.465-0.342c-0.136-0.138-0.246-0.307-0.33-0.507s-0.126-0.442-0.126-0.726
		c0-0.265,0.051-0.516,0.153-0.753c0.102-0.238,0.255-0.447,0.459-0.628c0.204-0.18,0.46-0.322,0.768-0.429
		c0.308-0.105,0.668-0.159,1.08-0.159c0.224,0,0.441,0.021,0.651,0.061s0.407,0.096,0.591,0.168
		c0.184,0.072,0.352,0.157,0.504,0.255c0.152,0.098,0.286,0.205,0.402,0.321L144.726,85.144z"/>
	<path fill="#676767" d="M145.98,84.646c0.376-0.332,0.793-0.578,1.251-0.74c0.458-0.162,0.949-0.243,1.473-0.243
		c0.376,0,0.715,0.061,1.017,0.183c0.302,0.122,0.558,0.292,0.768,0.51c0.21,0.219,0.371,0.478,0.483,0.777
		c0.112,0.299,0.168,0.628,0.168,0.984v3.888h-0.852c-0.176,0-0.309-0.024-0.399-0.072c-0.09-0.048-0.165-0.147-0.225-0.3
		l-0.132-0.342c-0.156,0.132-0.306,0.248-0.45,0.348c-0.144,0.101-0.293,0.186-0.447,0.255c-0.154,0.07-0.318,0.122-0.492,0.156
		c-0.174,0.034-0.367,0.051-0.579,0.051c-0.284,0-0.542-0.037-0.774-0.11c-0.232-0.074-0.429-0.184-0.591-0.327
		c-0.162-0.145-0.287-0.323-0.375-0.537c-0.088-0.214-0.132-0.461-0.132-0.741c0-0.224,0.056-0.451,0.168-0.681
		c0.112-0.23,0.306-0.44,0.582-0.63c0.276-0.19,0.648-0.35,1.116-0.478c0.468-0.128,1.058-0.2,1.77-0.216v-0.264
		c0-0.364-0.075-0.627-0.225-0.789s-0.363-0.243-0.639-0.243c-0.22,0-0.4,0.023-0.54,0.072c-0.14,0.048-0.265,0.102-0.375,0.162
		c-0.11,0.06-0.217,0.113-0.321,0.161c-0.104,0.049-0.228,0.072-0.372,0.072c-0.128,0-0.236-0.032-0.324-0.096
		c-0.088-0.064-0.16-0.14-0.216-0.229L145.98,84.646z M149.328,87.472c-0.372,0.017-0.678,0.048-0.918,0.097
		c-0.24,0.048-0.43,0.107-0.57,0.18c-0.14,0.073-0.237,0.154-0.291,0.246c-0.054,0.092-0.081,0.191-0.081,0.3
		c0,0.212,0.058,0.361,0.174,0.447c0.116,0.086,0.286,0.129,0.51,0.129c0.24,0,0.45-0.042,0.63-0.126
		c0.18-0.084,0.362-0.22,0.546-0.408V87.472z"/>
	<path fill="#676767" d="M154.23,83.782v6.233c0,0.292-0.037,0.567-0.111,0.825c-0.074,0.258-0.196,0.484-0.366,0.678
		s-0.394,0.348-0.672,0.459c-0.278,0.112-0.623,0.168-1.035,0.168c-0.152,0-0.293-0.009-0.423-0.026
		c-0.13-0.019-0.265-0.045-0.405-0.081l0.06-0.979c0.008-0.084,0.036-0.146,0.084-0.186c0.048-0.04,0.144-0.061,0.288-0.061
		s0.262-0.012,0.354-0.035c0.092-0.024,0.165-0.066,0.219-0.126c0.054-0.061,0.092-0.142,0.114-0.243
		c0.022-0.103,0.033-0.233,0.033-0.394v-6.233L154.23,83.782L154.23,83.782z M154.422,82.078c0,0.147-0.03,0.287-0.09,0.417
		s-0.142,0.244-0.246,0.342c-0.104,0.098-0.225,0.176-0.363,0.234c-0.138,0.058-0.285,0.087-0.441,0.087
		c-0.152,0-0.294-0.029-0.426-0.087c-0.132-0.059-0.249-0.137-0.351-0.234c-0.102-0.097-0.182-0.212-0.24-0.342
		s-0.087-0.27-0.087-0.417c0-0.152,0.029-0.294,0.087-0.426c0.058-0.133,0.138-0.248,0.24-0.349c0.102-0.1,0.219-0.178,0.351-0.233
		c0.132-0.057,0.274-0.084,0.426-0.084c0.156,0,0.303,0.027,0.441,0.084c0.138,0.056,0.259,0.134,0.363,0.233
		c0.104,0.101,0.186,0.216,0.246,0.349C154.392,81.784,154.422,81.926,154.422,82.078z"/>
	<path fill="#676767" d="M157.062,87.226c0.06,0.521,0.218,0.897,0.474,1.131c0.256,0.234,0.586,0.352,0.99,0.352
		c0.216,0,0.402-0.026,0.558-0.078c0.156-0.052,0.295-0.11,0.417-0.174s0.234-0.122,0.336-0.174
		c0.102-0.053,0.209-0.078,0.321-0.078c0.148,0,0.26,0.054,0.336,0.162l0.54,0.666c-0.192,0.22-0.399,0.398-0.621,0.537
		c-0.222,0.138-0.45,0.245-0.684,0.323s-0.468,0.133-0.702,0.162c-0.234,0.03-0.457,0.045-0.669,0.045
		c-0.436,0-0.845-0.07-1.227-0.213c-0.382-0.142-0.716-0.353-1.002-0.633c-0.286-0.28-0.512-0.628-0.678-1.044
		s-0.249-0.9-0.249-1.452c0-0.416,0.071-0.81,0.213-1.182s0.346-0.698,0.612-0.979c0.266-0.279,0.588-0.502,0.966-0.666
		c0.378-0.164,0.805-0.246,1.281-0.246c0.412,0,0.789,0.064,1.131,0.192c0.342,0.128,0.636,0.314,0.882,0.558
		c0.246,0.244,0.438,0.543,0.576,0.897c0.138,0.354,0.207,0.755,0.207,1.203c0,0.14-0.006,0.254-0.018,0.342
		c-0.012,0.088-0.034,0.158-0.066,0.21c-0.032,0.052-0.075,0.088-0.129,0.108c-0.054,0.02-0.123,0.029-0.207,0.029h-3.588V87.226z
		 M159.402,86.146c0-0.147-0.019-0.292-0.057-0.432c-0.038-0.14-0.1-0.265-0.186-0.375c-0.086-0.11-0.199-0.199-0.339-0.267
		c-0.14-0.068-0.31-0.104-0.51-0.104c-0.352,0-0.628,0.102-0.828,0.303c-0.2,0.202-0.332,0.493-0.396,0.873L159.402,86.146
		L159.402,86.146z"/>
	<path fill="#676767" d="M165.954,85.144c-0.048,0.076-0.099,0.131-0.153,0.162c-0.054,0.032-0.123,0.048-0.207,0.048
		c-0.088,0-0.176-0.019-0.264-0.057s-0.183-0.079-0.285-0.123s-0.217-0.085-0.345-0.123c-0.128-0.038-0.274-0.057-0.438-0.057
		c-0.236,0-0.417,0.045-0.543,0.135s-0.189,0.215-0.189,0.375c0,0.116,0.041,0.212,0.123,0.288s0.191,0.143,0.327,0.201
		c0.136,0.058,0.29,0.113,0.462,0.165c0.172,0.052,0.348,0.109,0.528,0.174c0.18,0.063,0.356,0.139,0.528,0.225
		s0.326,0.192,0.462,0.318c0.136,0.126,0.245,0.279,0.327,0.459s0.123,0.396,0.123,0.647c0,0.309-0.056,0.593-0.168,0.853
		c-0.112,0.26-0.279,0.484-0.501,0.672c-0.222,0.188-0.496,0.334-0.822,0.438s-0.701,0.155-1.125,0.155
		c-0.212,0-0.424-0.02-0.636-0.06c-0.212-0.04-0.417-0.094-0.615-0.162s-0.381-0.149-0.549-0.243
		c-0.168-0.094-0.312-0.195-0.432-0.303l0.432-0.685c0.048-0.079,0.109-0.143,0.183-0.188c0.074-0.046,0.169-0.069,0.285-0.069
		c0.108,0,0.205,0.024,0.291,0.072s0.179,0.1,0.279,0.156c0.1,0.056,0.217,0.107,0.351,0.155c0.134,0.049,0.303,0.072,0.507,0.072
		c0.144,0,0.266-0.015,0.366-0.045c0.1-0.03,0.18-0.071,0.24-0.123c0.06-0.052,0.104-0.109,0.132-0.174
		c0.028-0.063,0.042-0.13,0.042-0.198c0-0.124-0.042-0.226-0.126-0.306s-0.194-0.149-0.33-0.207
		c-0.136-0.058-0.291-0.112-0.465-0.162c-0.174-0.05-0.351-0.106-0.531-0.171c-0.18-0.064-0.357-0.141-0.531-0.231
		c-0.174-0.09-0.329-0.203-0.465-0.342c-0.136-0.138-0.246-0.307-0.33-0.507s-0.126-0.442-0.126-0.726
		c0-0.265,0.051-0.516,0.153-0.753c0.102-0.238,0.255-0.447,0.459-0.628c0.204-0.18,0.46-0.322,0.768-0.429
		c0.308-0.105,0.668-0.159,1.08-0.159c0.224,0,0.441,0.021,0.651,0.061s0.407,0.096,0.591,0.168
		c0.184,0.072,0.352,0.157,0.504,0.255c0.152,0.098,0.286,0.205,0.402,0.321L165.954,85.144z"/>
</g>
</svg>
