<?xml version="1.0" encoding="utf-8"?>
<!-- Generator: Adobe Illustrator 16.0.0, SVG Export Plug-In . SVG Version: 6.00 Build 0)  -->
<!DOCTYPE svg PUBLIC "-//W3C//DTD SVG 1.1//EN" "http://www.w3.org/Graphics/SVG/1.1/DTD/svg11.dtd">
<svg version="1.1" id="Capa_1" xmlns="http://www.w3.org/2000/svg" xmlns:xlink="http://www.w3.org/1999/xlink" x="0px" y="0px"
	 width="72px" height="72px" viewBox="0 0 72 72" enable-background="new 0 0 72 72" xml:space="preserve">
<g>
	<g>
		<path fill-rule="evenodd" clip-rule="evenodd" fill="#FFFFFF" d="M30.689,25.74c1.072,1.734,1.086,3.578,0.75,5.488
			C33.062,29.682,32.691,26.902,30.689,25.74z"/>
		<path fill-rule="evenodd" clip-rule="evenodd" fill="#FFFFFF" d="M38.812,34.973c0.039-1.525,1.303-2.137,2.229-3.125
			C39.117,31.932,38.367,32.914,38.812,34.973z"/>
		<path fill-rule="evenodd" clip-rule="evenodd" fill="#FFFFFF" d="M28.196,31.27c-1.773,1.715-1.248,3.963,1.152,4.875
			C27.815,34.797,27.481,33.172,28.196,31.27z"/>
		<path fill-rule="evenodd" clip-rule="evenodd" fill="#FFFFFF" d="M31.461,43.443c1.93-1.137,2.199-2.975,0.391-4.787
			C32.598,40.629,32.297,42.066,31.461,43.443z"/>
		<path fill-rule="evenodd" clip-rule="evenodd" fill="#FFFFFF" d="M50.668,30.443c-0.629-1.762-3.715-5.189-4.148-6.869
			c-0.83-3.186-4.385-4.891-7.416-3.57c-1.43,0.625-1.988,1.189-2.709,1.922c-0.924,0.939-1.113-0.252-1.477-0.592
			c-3.344-3.111-8.565-1.889-9.7,2.455c-0.549,2.104-3.729,5.395-3.16,5.273c-1.822,3.768-1.682,5.986,0.805,9.258
			c0.965,1.268-0.141,1.83-0.098,3.332c0.002,0.086-0.037,0.139-0.1,0.172c0.418,1.504,0.742,2.533,0.789,2.635
			c0.9,2.02,2.887,2.967,4.176,4.568c2.173,2.711,4.821,3.057,7.509,0.795c0.664-0.561,0.912-0.561,1.564,0.031
			c1.941,1.754,4.281,2.016,6.078,0.551c1.701-1.391,3.441-2.875,4.674-4.658c0.922-1.34,1.402-2.623,1.477-3.076
			c0.271-1.648-1.039-3.33,0.375-4.984C51.092,35.594,51.561,32.961,50.668,30.443z M35.217,45.594
			c-0.023,1.854-1.674,3.039-3.51,2.727c-0.4-0.068-1.646,0.289-0.67-1.084c0.621-0.871-0.74-0.793-1.24-0.949
			c-3.233-1.02-4.86-3.73-3.954-6.838c0.727,0.273,1.438,0.594,2.18,0.801c0.424,0.119,1.049,0.33,1.252-0.275
			c0.227-0.689-0.434-0.711-0.875-0.844c-1.238-0.369-2.324-0.977-3.203-1.943c-2.201-2.426-2.191-6.312,0.053-8.551
			c0.395-0.391,0.818-1.084,1.32-0.053c0.139,0.291,0.469,0.414,0.76,0.211c0.277-0.191,0.295-0.533,0.205-0.824
			c-0.271-0.879-0.365-1.723-0.059-2.645c0.648-1.945,2.187-3.006,4.276-2.807c1.896,0.18,3.445,1.588,3.471,3.543
			C35.295,32.574,35.293,39.086,35.217,45.594z M44.055,38.936c-0.564,0.223-1.883,0.031-1.5,1.051
			c0.332,0.873,1.352,0.041,2.068,0.035c0.557-0.006,1.324-1.412,1.627,0.012c0.207,0.98,0.621,2.545-1.107,2.719
			c-1.547,0.156-1.453,1.344,0.037,0.959c-0.715,1.691-2.096,2.324-3.646,2.688c-0.73,0.172-1.391,0.264-0.539,1.178
			c0.305,0.328,0.162,0.518-0.363,0.688c-1.932,0.631-4.006-0.631-4.031-2.689c-0.082-6.514-0.084-13.027,0.002-19.541
			c0.033-2.277,2.211-3.809,4.582-3.504c2.121,0.273,3.66,2.404,3.328,4.607c-0.213,1.43-0.213,1.426,1.07,1.006
			c0.625-0.203,0.844,0.359,1.131,0.674C49.666,32.07,48.264,37.287,44.055,38.936z"/>
		<path fill-rule="evenodd" clip-rule="evenodd" fill="#FFFFFF" d="M39.191,25.186c1.219,0.385,1.889,1.074,2.213,2.244
			c0.807-0.9,0.295-1.5-0.154-1.994C40.791,24.93,40.199,24.502,39.191,25.186z"/>
		<path fill-rule="evenodd" clip-rule="evenodd" fill="#FFFFFF" d="M44.5,31.584c0.887,1.924,0.197,3.285-0.951,4.582
			c1.355-0.229,1.889-1.152,2.096-2.305C45.84,32.785,45.641,32.389,44.5,31.584z"/>
	</g>
	<path fill-rule="evenodd" clip-rule="evenodd" fill="#FFFFFF" d="M57.217,31.805c-2.225-1.283-2.377,0.232-2.264,1.268
		c1.439,0.918,2.258,1.969,2.252,3.082c-0.01,3.18-6.705,5.793-15.49,6.287c-0.211,0.707,0.389,1.375,0.799,1.73
		c9.98-0.699,17.543-4.084,17.557-8.186C60.076,34.465,59.027,33.041,57.217,31.805z"/>
	<path fill-rule="evenodd" clip-rule="evenodd" fill="#FFFFFF" d="M23.995,41.988c0.021-0.252,0.068-0.539,0.125-0.846
		c-5.311-1.191-9.633-3.053-9.625-5.125c0.008-1.803,3.502-3.41,7.672-4.566c0.137-0.977,0.463-1.863,0.695-2.41
		c-6.598,1.504-10.92,3.982-10.932,6.801c-0.012,3.006,4.877,5.648,12.207,7.152C24.028,42.711,23.962,42.383,23.995,41.988z"/>
	<path fill-rule="evenodd" clip-rule="evenodd" fill="#FFFFFF" d="M21.761,23.801c-0.121-3.033,0.727-8.652,2.404-9.402
		c2.861-1.277,8.009,2.543,12.649,8.24c0.898,0.209,1.699-0.305,2.199-0.758c-5.846-7.371-11.87-11.615-16.345-9.699
		c-2.479,1.061-3.959,7.059-3.725,11.344C19.646,23.938,20.833,24.432,21.761,23.801z"/>
	<path fill-rule="evenodd" clip-rule="evenodd" fill="#FFFFFF" d="M49.801,47.871c0.959,4.941,0.92,9.359-1.219,10.391
		c-1.666,0.803-4.506-0.879-7.115-3.109c-1.1,0.234-1.916,0.672-2.504,1.141c3.971,3.814,7.83,5.572,10.482,4.295
		c3.234-1.557,3.859-7.232,2.143-14.42C50.891,46.465,50.299,47.115,49.801,47.871z"/>
	<path fill-rule="evenodd" clip-rule="evenodd" fill="#FFFFFF" d="M40.279,17.691c3.307-2.887,6.553-4.795,8.404-3.684
		c2.656,1.594,1.975,8.256-0.875,15.533c0.385,0.643,1.066,1.184,1.648,1.566c3.803-9.279,4.232-17.289,0.52-19.516
		c-2.752-1.65-7.168,0.244-11.799,4.525C38.729,16.809,39.443,17.451,40.279,17.691z"/>
	<path fill-rule="evenodd" clip-rule="evenodd" fill="#FFFFFF" d="M36.691,49.193c-0.084-0.061-0.168-0.096-0.25-0.139
		c-4.451,4.932-9.897,9.359-12.304,7.893c-1.789-1.092-2.84-5.391-2.09-9.523c-0.584-0.818-1.654-1.252-2.385-1.461
		c-1.408,6.221,0.119,11.068,2.871,12.748c3.338,2.031,9.872-1.832,15.521-8.154C37.838,50.244,37.477,49.775,36.691,49.193z"/>
	<circle fill-rule="evenodd" clip-rule="evenodd" fill="#FFFFFF" cx="20.354" cy="23.812" r="2.317"/>
	<circle fill-rule="evenodd" clip-rule="evenodd" fill="#FFFFFF" cx="39.865" cy="16.717" r="2.055"/>
	<circle fill-rule="evenodd" clip-rule="evenodd" fill="#FFFFFF" cx="20.826" cy="47.488" r="2.317"/>
	<circle fill-rule="evenodd" clip-rule="evenodd" fill="#FFFFFF" cx="55.062" cy="31.561" r="2.188"/>
	<path fill-rule="evenodd" clip-rule="evenodd" fill="#FFFFFF" d="M43.125,43.443c0,0.979-0.793,1.773-1.77,1.773
		c-0.979,0-1.771-0.795-1.771-1.773c0-0.977,0.793-1.77,1.771-1.77C42.332,41.674,43.125,42.467,43.125,43.443z"/>
	<path fill-rule="evenodd" clip-rule="evenodd" fill="#FFFFFF" d="M52.641,46.939c0,0.979-0.793,1.773-1.771,1.773
		s-1.77-0.795-1.77-1.773c0-0.977,0.791-1.77,1.77-1.77S52.641,45.963,52.641,46.939z"/>
	<circle fill-rule="evenodd" clip-rule="evenodd" fill="#FFFFFF" cx="40.19" cy="56.098" r="2.163"/>
</g>
</svg>
