<?xml version="1.0" encoding="utf-8"?>
<!-- Generator: Adobe Illustrator 16.0.0, SVG Export Plug-In . SVG Version: 6.00 Build 0)  -->
<!DOCTYPE svg PUBLIC "-//W3C//DTD SVG 1.1//EN" "http://www.w3.org/Graphics/SVG/1.1/DTD/svg11.dtd">
<svg version="1.1" id="Capa_1" xmlns="http://www.w3.org/2000/svg" xmlns:xlink="http://www.w3.org/1999/xlink" x="0px" y="0px"
	 width="72px" height="72px" viewBox="0 0 72 72" enable-background="new 0 0 72 72" xml:space="preserve">
<g>
	<path fill="#FFFFFF" d="M36.765,27.504v-0.955c0-0.754-0.609-1.363-1.363-1.363c-0.752,0-1.361,0.609-1.361,1.363v0.986
		c-2.425,0.637-4.22,2.869-4.22,5.518s1.795,4.881,4.22,5.518v5.727c-1.182-0.598-2.304-1.707-2.706-2.186
		c-0.486-0.576-1.344-0.65-1.92-0.166c-0.578,0.484-0.652,1.344-0.166,1.92c0.258,0.309,2.283,2.639,4.792,3.352v1.01
		c0,0.754,0.609,1.363,1.361,1.363c0.754,0,1.363-0.609,1.363-1.363v-0.963c2.479-0.598,4.326-2.855,4.326-5.541
		c0-2.684-1.848-4.941-4.326-5.539v-5.84c1.23,0.461,2.348,1.406,2.768,1.838c0.52,0.545,1.381,0.562,1.924,0.043
		c0.545-0.52,0.564-1.383,0.043-1.928C41.253,30.039,39.294,28.064,36.765,27.504L36.765,27.504z M32.544,33.053
		c0-1.115,0.604-2.088,1.496-2.596v5.191C33.147,35.141,32.544,34.168,32.544,33.053L32.544,33.053z M38.366,41.723
		c0,1.158-0.654,2.162-1.602,2.652v-5.301C37.712,39.564,38.366,40.566,38.366,41.723L38.366,41.723z M38.366,41.723"/>
	<path fill="#FFFFFF" d="M57.278,46.322c-1.473,0-2.82,0.545-3.854,1.443l-3.893-2.594c1.277-2.311,2.006-4.963,2.006-7.783
		c0-3.381-1.047-6.521-2.828-9.115l2.623-2.102c0.92,0.594,2.012,0.939,3.184,0.939c3.244,0,5.885-2.641,5.885-5.885
		s-2.641-5.885-5.885-5.885s-5.883,2.641-5.883,5.885c0,1.082,0.295,2.098,0.807,2.971l-2.459,1.967
		c-2.934-3.027-7.039-4.912-11.58-4.912c-3.96,0-7.591,1.436-10.401,3.812l-5.223-5.176c0.525-0.879,0.826-1.906,0.826-3.004
		c0-3.246-2.639-5.885-5.883-5.885c-3.245,0-5.883,2.639-5.883,5.885c0,3.244,2.639,5.883,5.883,5.883
		c1.162,0,2.244-0.34,3.158-0.922l5.193,5.146c-2.373,2.811-3.805,6.439-3.805,10.396c0,3.434,1.08,6.621,2.916,9.24l-4.928,4.109
		c-0.59-0.305-1.258-0.477-1.969-0.477c-2.38,0-4.319,1.936-4.319,4.316s1.938,4.318,4.319,4.318c2.383,0,4.316-1.938,4.316-4.318
		c0-0.676-0.154-1.318-0.434-1.889l4.76-3.969c2.928,2.965,6.99,4.803,11.472,4.803c2.109,0,4.125-0.406,5.971-1.146l1.215,2.43
		c-0.662,0.656-1.07,1.566-1.07,2.57c0,1.998,1.625,3.623,3.623,3.623s3.623-1.625,3.623-3.623s-1.625-3.623-3.623-3.623
		c-0.012,0-0.021,0-0.031,0l-1.299-2.598c1.609-0.988,3.035-2.25,4.209-3.721l3.814,2.545c-0.281,0.686-0.438,1.438-0.438,2.225
		c0,3.244,2.639,5.885,5.883,5.885s5.885-2.641,5.885-5.885S60.522,46.322,57.278,46.322L57.278,46.322z M54.517,18.068
		c1.742,0,3.16,1.416,3.16,3.158s-1.418,3.158-3.16,3.158c-1.74,0-3.158-1.416-3.158-3.158S52.776,18.068,54.517,18.068
		L54.517,18.068z M15.287,56.17c-0.879,0-1.592-0.713-1.592-1.592c0-0.877,0.713-1.592,1.592-1.592s1.592,0.715,1.592,1.592
		C16.879,55.457,16.166,56.17,15.287,56.17L15.287,56.17z M46.036,57.377c0,0.494-0.4,0.898-0.898,0.898
		c-0.494,0-0.896-0.404-0.896-0.898c0-0.496,0.402-0.898,0.896-0.898C45.636,56.479,46.036,56.881,46.036,57.377L46.036,57.377z
		 M14.721,20.043c-1.743,0-3.159-1.416-3.159-3.158s1.416-3.158,3.159-3.158c1.742,0,3.158,1.416,3.158,3.158
		S16.463,20.043,14.721,20.043L14.721,20.043z M35.401,50.799c-7.394,0-13.409-6.018-13.409-13.41
		c0-7.395,6.016-13.412,13.409-13.412c7.395,0,13.41,6.018,13.41,13.412C48.812,44.781,42.796,50.799,35.401,50.799L35.401,50.799z
		 M57.278,55.363c-1.742,0-3.16-1.416-3.16-3.158c0-1.74,1.418-3.158,3.16-3.158s3.158,1.418,3.158,3.158
		C60.437,53.947,59.021,55.363,57.278,55.363L57.278,55.363z M57.278,55.363"/>
</g>
</svg>
