<?xml version="1.0" encoding="utf-8"?>
<!-- Generator: Adobe Illustrator 16.0.0, SVG Export Plug-In . SVG Version: 6.00 Build 0)  -->
<!DOCTYPE svg PUBLIC "-//W3C//DTD SVG 1.1//EN" "http://www.w3.org/Graphics/SVG/1.1/DTD/svg11.dtd">
<svg version="1.1" id="Capa_1" xmlns="http://www.w3.org/2000/svg" xmlns:xlink="http://www.w3.org/1999/xlink" x="0px" y="0px"
	 width="72px" height="72px" viewBox="0 0 72 72" enable-background="new 0 0 72 72" xml:space="preserve">
<g>
	<path fill-rule="evenodd" clip-rule="evenodd" fill="#FFFFFF" d="M37.496,46.255c1.545,1.463,3.123,2.891,4.609,4.41
		c0.465,0.473,0.676,1.193,1.002,1.801c-0.648,0.225-1.295,0.639-1.945,0.645c-5.057,0.055-10.112,0.053-15.167,0.002
		c-0.602-0.006-1.199-0.4-1.799-0.617c0.275-0.576,0.428-1.273,0.852-1.707c1.52-1.562,3.131-3.033,4.707-4.541
		c-0.064-0.15-0.129-0.303-0.193-0.455c-0.539,0-1.076,0-1.615,0c-5.732,0-11.465,0.006-17.2-0.002
		C8.5,45.786,8.001,45.282,8,43.017C7.995,33.271,7.993,23.522,8,13.776c0.001-2.203,0.568-2.77,2.793-2.771
		c15.221-0.006,30.441-0.006,45.66,0c2.248,0,2.789,0.545,2.791,2.742c0.004,5.629-0.027,11.258,0.041,16.887
		c0.006,0.658,0.367,1.516,0.859,1.932c5.111,4.326,5.18,11.516,0.012,15.752c-0.807,0.662-0.893,1.189-0.609,2.082
		c0.709,2.23,1.35,4.484,1.992,6.734c0.547,1.92-0.1,3.359-1.662,3.777c-1.443,0.387-2.672-0.5-3.242-2.375
		c-0.695-2.291-1.412-4.574-2.025-6.889c-0.225-0.85-0.598-1.182-1.475-1.24c-2.922-0.197-5.232-1.574-7.059-3.83
		c-0.248-0.305-0.609-0.723-0.926-0.729c-2.477-0.061-4.955-0.035-7.432-0.035C37.645,45.962,37.57,46.108,37.496,46.255z
		 M55.482,30.415c0-5.172,0-10.352,0-15.57c-14.633,0-29.183,0-43.706,0c0,9.188,0,18.23,0,27.24c10.812,0,21.516,0,32.221,0
		C44.01,34.431,47.096,31.31,55.482,30.415z M53.994,47.257c3.768-0.004,6.777-2.973,6.799-6.709
		c0.023-3.791-3.035-6.828-6.861-6.818c-3.736,0.012-6.717,3.039-6.697,6.797C47.256,44.286,50.244,47.263,53.994,47.257z"/>
	<path fill-rule="evenodd" clip-rule="evenodd" fill="#FFFFFF" d="M27.237,28.106c0-2.441,0.01-4.885-0.004-7.326
		c-0.008-1.041,0.242-1.941,1.449-1.99c1.283-0.053,1.674,0.85,1.676,1.963c0.008,4.936,0.01,9.871,0,14.807
		c-0.002,1.049-0.395,1.91-1.57,1.924c-1.188,0.014-1.557-0.822-1.553-1.896C27.245,33.093,27.237,30.601,27.237,28.106z"/>
	<path fill-rule="evenodd" clip-rule="evenodd" fill="#FFFFFF" d="M38.658,29.841c0,1.869-0.012,3.738,0.004,5.607
		c0.01,1.109-0.281,2.047-1.572,2.033c-1.172-0.014-1.553-0.885-1.555-1.934c-0.006-3.895-0.006-7.787,0-11.682
		c0.002-1.043,0.348-1.92,1.533-1.947c1.303-0.031,1.602,0.887,1.594,2.002C38.648,25.894,38.658,27.868,38.658,29.841z"/>
	<path fill-rule="evenodd" clip-rule="evenodd" fill="#FFFFFF" d="M26.136,31.413c0,1.453,0.008,2.904-0.002,4.357
		c-0.008,1.035-0.529,1.869-1.553,1.658c-0.602-0.123-1.459-1.004-1.486-1.58c-0.146-3.053-0.1-6.117-0.053-9.176
		c0.016-1.004,0.584-1.697,1.674-1.629c1.004,0.062,1.418,0.744,1.418,1.701C26.138,28.302,26.136,29.858,26.136,31.413z"/>
	<path fill-rule="evenodd" clip-rule="evenodd" fill="#FFFFFF" d="M34.508,31.354c0,1.453,0.008,2.906-0.002,4.357
		c-0.006,1.025-0.477,1.754-1.539,1.77s-1.572-0.693-1.576-1.723c-0.014-3.01-0.016-6.02,0.002-9.029
		c0.006-1.035,0.537-1.719,1.607-1.684c1.072,0.035,1.508,0.773,1.508,1.795C34.512,28.345,34.508,29.851,34.508,31.354z"/>
	<path fill-rule="evenodd" clip-rule="evenodd" fill="#FFFFFF" d="M18.87,32.651c0-1.037-0.018-2.072,0.006-3.109
		c0.021-1.035,0.582-1.842,1.592-1.625c0.594,0.129,1.404,0.996,1.453,1.586c0.176,2.111,0.178,4.254-0.002,6.363
		c-0.049,0.584-0.887,1.449-1.482,1.561c-1.008,0.191-1.545-0.639-1.562-1.666C18.856,34.726,18.87,33.688,18.87,32.651z"/>
	<path fill-rule="evenodd" clip-rule="evenodd" fill="#FFFFFF" d="M42.898,34.39c0,0.566,0.199,1.25-0.049,1.676
		c-0.338,0.582-1.014,1.336-1.543,1.336c-0.498-0.002-1.271-0.812-1.428-1.4c-0.246-0.918-0.07-1.947-0.076-2.93
		c-0.008-1.025,0.426-1.744,1.504-1.77c1.072-0.025,1.549,0.686,1.611,1.693c0.029,0.463,0.004,0.93,0.004,1.395
		C42.914,34.39,42.908,34.39,42.898,34.39z"/>
	<path fill-rule="evenodd" clip-rule="evenodd" fill="#FFFFFF" d="M59.381,40.603c-0.287,0.826-0.525,1.674-0.891,2.461
		c-0.098,0.209-0.59,0.232-0.9,0.342c-0.066-0.281-0.275-0.627-0.18-0.834c1.059-2.305,0.539-4.129-1.521-5.586
		c-0.199-0.141-0.176-0.596-0.256-0.904c0.336-0.021,0.715-0.156,1-0.047C58.041,36.573,59.244,38.718,59.381,40.603z"/>
</g>
</svg>
