<?xml version="1.0" encoding="utf-8"?>
<!-- Generator: Adobe Illustrator 16.0.0, SVG Export Plug-In . SVG Version: 6.00 Build 0)  -->
<!DOCTYPE svg PUBLIC "-//W3C//DTD SVG 1.1//EN" "http://www.w3.org/Graphics/SVG/1.1/DTD/svg11.dtd">
<svg version="1.1" id="Capa_1" xmlns="http://www.w3.org/2000/svg" xmlns:xlink="http://www.w3.org/1999/xlink" x="0px" y="0px"
	 width="90px" height="69.816px" viewBox="0 0 90 69.816" enable-background="new 0 0 90 69.816" xml:space="preserve">
<g>
	<defs>
		<rect id="SVGID_95_" x="-388.849" y="-228.122" width="1308.429" height="142"/>
	</defs>
	<clipPath id="SVGID_2_">
		<use xlink:href="#SVGID_95_"  overflow="visible"/>
	</clipPath>
	<g clip-path="url(#SVGID_2_)">
		
			<linearGradient id="SVGID_3_" gradientUnits="userSpaceOnUse" x1="1223.1357" y1="186.2637" x2="-356.2778" y2="-490.6285" gradientTransform="matrix(-1 0 0 1 530.7344 0)">
			<stop  offset="0" style="stop-color:#1180A3"/>
			<stop  offset="0.4909" style="stop-color:#20B8AC"/>
			<stop  offset="1" style="stop-color:#67E6DC"/>
		</linearGradient>
		<rect x="-547.632" y="-780.78" fill="url(#SVGID_3_)" width="1470" height="1180"/>
		<g>
			<defs>
				<rect id="SVGID_98_" x="-570.632" y="-789.78" width="1516" height="1189"/>
			</defs>
			<clipPath id="SVGID_5_">
				<use xlink:href="#SVGID_98_"  overflow="visible"/>
			</clipPath>
			<g opacity="0.7" clip-path="url(#SVGID_5_)">
				<g opacity="0.35">
					<g>
						<polygon fill="none" stroke="#FFFFFF" stroke-miterlimit="10" points="514.562,-209.682 -142.441,-335.361 58.116,69.126 
													"/>
						<polygon fill="none" stroke="#FFFFFF" stroke-miterlimit="10" points="58.116,69.117 -658.179,-805.317 -324.975,-159.868 
													"/>
						<polygon fill="none" stroke="#FFFFFF" stroke-miterlimit="10" points="-398.72,3.945 -398.417,5.239 58.116,69.117 
							-121.269,-554.917 -407.834,0.809 						"/>
						<polygon fill="none" stroke="#FFFFFF" stroke-miterlimit="10" points="-228.988,312.03 58.116,69.117 -398.417,5.239 						
							"/>
						<polygon fill="none" stroke="#FFFFFF" stroke-miterlimit="10" points="-228.988,312.03 -398.417,5.239 -408.163,1.37 
							265.051,-851.763 						"/>
						<polygon fill="none" stroke="#FFFFFF" stroke-miterlimit="10" points="265.051,-851.763 -408.427,0.648 -407.834,0.809 
							-658.179,-805.317 265.051,-851.763 						"/>
						<polygon fill="none" stroke="#FFFFFF" stroke-miterlimit="10" points="-408.427,0.648 514.562,-209.682 265.051,-851.763 
							-633.685,-476.19 -634.501,-473.886 						"/>
						<polygon fill="none" stroke="#FFFFFF" stroke-miterlimit="10" points="265.051,-851.763 -59.467,-87.303 -408.427,0.648 
							-634.501,-473.886 -640.648,-475.932 						"/>
						<polygon fill="none" stroke="#FFFFFF" stroke-miterlimit="10" points="167.422,367.691 58.116,69.117 -228.988,312.03 						
							"/>
						<polygon fill="none" stroke="#FFFFFF" stroke-miterlimit="10" points="432.246,197.47 514.562,-209.682 58.116,69.117 						
							"/>
						<polygon fill="none" stroke="#FFFFFF" stroke-miterlimit="10" points="184.925,384.741 432.246,197.47 58.116,69.117 
							167.422,367.691 						"/>
						<polygon fill="none" stroke="#FFFFFF" stroke-miterlimit="10" points="-35.596,-528.647 -11.87,-522.177 514.562,-209.682 
							432.246,197.47 						"/>
						<polygon fill="none" stroke="#FFFFFF" stroke-miterlimit="10" points="615.29,174.406 618.205,170.17 514.562,-209.682 
							-11.87,-522.177 						"/>
					</g>
					<g>
						<path fill="#FFFFFF" d="M79.53,76.727c3.573-13.116-4.161-26.646-17.282-30.217c-13.119-3.577-26.64,4.166-30.206,17.284
							c-3.571,13.12,4.147,26.661,17.266,30.236C62.43,97.597,75.959,89.851,79.53,76.727"/>
					</g>
				</g>
				
					<linearGradient id="SVGID_6_" gradientUnits="userSpaceOnUse" x1="-71.7085" y1="-173.0957" x2="558.3657" y2="-173.0957" gradientTransform="matrix(-1 0 0 1 546.4961 0)">
					<stop  offset="0" style="stop-color:#0050AD"/>
					<stop  offset="0.4909" style="stop-color:#26AFF5"/>
					<stop  offset="1" style="stop-color:#67E6DC"/>
				</linearGradient>
				<polygon opacity="0.35" fill="url(#SVGID_6_)" points="618.205,175.985 514.562,-209.682 -11.87,-522.177 				"/>
				<polygon opacity="0.1" fill="#FFFFFF" points="-121.269,-554.917 58.116,69.117 -407.834,5.239 				"/>
				<polygon opacity="0.15" fill="#FFFFFF" points="437.05,176.22 363.029,176.22 58.116,70.364 514.562,-207.808 				"/>
			</g>
		</g>
		<rect x="-572.547" y="-800.307" opacity="0.5" fill="#009BB5" width="1518.703" height="1199.36"/>
	</g>
</g>
<path fill="#FFFFFF" d="M68.032,44.327c0-2.222-1.503-4.098-3.545-4.668v-8.207c2.042-0.57,3.545-2.446,3.545-4.669
	c0-2.222-1.503-4.098-3.545-4.669V17.36H45.982v-3.016c2.043-0.569,3.546-2.446,3.546-4.669c0-2.673-2.176-4.848-4.85-4.848
	c-2.672,0-4.848,2.175-4.848,4.848c0,2.223,1.502,4.1,3.544,4.669v3.016H24.87v4.754c-2.041,0.571-3.543,2.447-3.543,4.669
	c0,2.223,1.502,4.099,3.543,4.669v8.207c-2.041,0.57-3.543,2.446-3.543,4.668c0,2.674,2.175,4.848,4.848,4.848
	c2.674,0,4.849-2.174,4.849-4.848c0-2.222-1.504-4.098-3.546-4.668v-8.207c2.042-0.57,3.546-2.446,3.546-4.669
	c0-2.222-1.504-4.098-3.546-4.669v-2.146h15.897v2.146c-2.04,0.571-3.544,2.447-3.544,4.669c0,2.675,2.176,4.85,4.848,4.85
	c2.674,0,4.85-2.175,4.85-4.85c0-2.222-1.503-4.098-3.546-4.669v-2.146h15.897v2.146c-2.042,0.571-3.543,2.447-3.543,4.669
	c0,2.223,1.5,4.099,3.543,4.669v8.207c-2.042,0.57-3.543,2.446-3.543,4.668c0,2.223,1.5,4.098,3.543,4.669v2.185H47.907v4.129
	c-2.043,0.572-3.544,2.448-3.544,4.669c0,2.675,2.173,4.851,4.847,4.851c2.674,0,4.849-2.176,4.849-4.851
	c0-2.221-1.501-4.097-3.543-4.669v-1.521h11.365v1.521c-2.042,0.572-3.543,2.448-3.543,4.669c0,2.675,2.174,4.851,4.848,4.851
	c2.674,0,4.848-2.176,4.848-4.851c0-2.221-1.503-4.097-3.545-4.669v-6.313C66.529,48.425,68.032,46.549,68.032,44.327L68.032,44.327
	z M42.438,9.676c0-1.234,1.006-2.239,2.242-2.239c1.235,0,2.241,1.004,2.241,2.239c0,1.237-1.006,2.243-2.241,2.243
	C43.444,11.919,42.438,10.913,42.438,9.676L42.438,9.676z M28.417,44.327c0,1.235-1.006,2.24-2.241,2.24s-2.241-1.005-2.241-2.24
	s1.003-2.241,2.241-2.241C27.411,42.086,28.417,43.092,28.417,44.327L28.417,44.327z M28.417,26.783
	c0,1.236-1.006,2.242-2.241,2.242s-2.241-1.006-2.241-2.242c0-1.234,1.003-2.241,2.241-2.241
	C27.411,24.542,28.417,25.547,28.417,26.783L28.417,26.783z M46.921,26.783c0,1.236-1.006,2.242-2.243,2.242
	c-1.234,0-2.24-1.006-2.24-2.242c0-1.234,1.006-2.241,2.24-2.241C45.916,24.542,46.921,25.547,46.921,26.783L46.921,26.783z
	 M51.452,59.979c0,1.236-1.005,2.242-2.243,2.242c-1.234,0-2.24-1.006-2.24-2.242c0-1.235,1.006-2.24,2.24-2.24
	C50.447,57.738,51.452,58.743,51.452,59.979L51.452,59.979z M60.944,26.783c0-1.234,1.006-2.241,2.24-2.241
	c1.237,0,2.241,1.005,2.241,2.241s-1.004,2.242-2.241,2.242C61.95,29.025,60.944,28.02,60.944,26.783L60.944,26.783z M60.944,44.327
	c0-1.235,1.006-2.241,2.24-2.241c1.237,0,2.241,1.006,2.241,2.241s-1.004,2.24-2.241,2.24C61.95,46.567,60.944,45.562,60.944,44.327
	L60.944,44.327z M65.425,59.979c0,1.236-1.004,2.242-2.241,2.242c-1.234,0-2.24-1.006-2.24-2.242c0-1.235,1.002-2.24,2.24-2.24
	C64.421,57.738,65.425,58.743,65.425,59.979L65.425,59.979z M65.425,59.979"/>
</svg>
