<?xml version="1.0" encoding="utf-8"?>
<!-- Generator: Adobe Illustrator 16.0.0, SVG Export Plug-In . SVG Version: 6.00 Build 0)  -->
<!DOCTYPE svg PUBLIC "-//W3C//DTD SVG 1.1//EN" "http://www.w3.org/Graphics/SVG/1.1/DTD/svg11.dtd">
<svg version="1.1" id="Capa_1" xmlns="http://www.w3.org/2000/svg" xmlns:xlink="http://www.w3.org/1999/xlink" x="0px" y="0px"
	 width="90px" height="69.816px" viewBox="0 0 90 69.816" enable-background="new 0 0 90 69.816" xml:space="preserve">
<g>
	<defs>
		<rect id="SVGID_95_" x="-212.206" y="-399.551" width="1308.429" height="142"/>
	</defs>
	<clipPath id="SVGID_2_">
		<use xlink:href="#SVGID_95_"  overflow="visible"/>
	</clipPath>
	<g clip-path="url(#SVGID_2_)">
		
			<linearGradient id="SVGID_3_" gradientUnits="userSpaceOnUse" x1="1399.7788" y1="14.835" x2="-179.6348" y2="-662.0572" gradientTransform="matrix(-1 0 0 1 884.0205 0)">
			<stop  offset="0" style="stop-color:#1180A3"/>
			<stop  offset="0.4909" style="stop-color:#20B8AC"/>
			<stop  offset="1" style="stop-color:#67E6DC"/>
		</linearGradient>
		<rect x="-370.989" y="-952.209" fill="url(#SVGID_3_)" width="1470" height="1180"/>
		<g>
			<defs>
				<rect id="SVGID_98_" x="-393.989" y="-961.209" width="1516" height="1189"/>
			</defs>
			<clipPath id="SVGID_5_">
				<use xlink:href="#SVGID_98_"  overflow="visible"/>
			</clipPath>
			<g opacity="0.7" clip-path="url(#SVGID_5_)">
				<g opacity="0.35">
					<g>
						<polygon fill="none" stroke="#FFFFFF" stroke-miterlimit="10" points="-52.345,140.602 234.759,-102.312 -221.773,-166.189 
													"/>
						<polygon fill="none" stroke="#FFFFFF" stroke-miterlimit="10" points="-52.345,140.602 -221.773,-166.189 -231.52,-170.059 
							441.694,-1023.192 						"/>
						<polygon fill="none" stroke="#FFFFFF" stroke-miterlimit="10" points="344.065,196.263 234.759,-102.312 -52.345,140.602 
													"/>
					</g>
					<g>
					</g>
				</g>
			</g>
		</g>
		<rect x="-395.904" y="-971.736" opacity="0.5" fill="#009BB5" width="1518.703" height="1199.36"/>
	</g>
</g>
<g>
	<path fill-rule="evenodd" clip-rule="evenodd" fill="#1E6679" d="M59.259,52.709c-1.412-0.773-2.817-1.562-4.24-2.312
		c-0.358-0.188-0.775-0.369-1.163-0.369c-5.865,0.002-11.73,0.025-17.597,0.072c-0.362,0.004-0.771,0.178-1.078,0.391
		c-8.557,5.867-20.377,3.977-26.642-4.275c-6.993-9.209-4.016-22.436,6.262-27.871c3.324-1.758,6.876-2.291,10.592-2.291
		c13.473-0.004,26.942-0.047,40.415-0.135C76.963,15.842,85.883,25.1,85.23,36.164c-0.517,8.812-7.688,16.332-16.568,17.408
		C65.47,53.959,62.363,53.658,59.259,52.709z M71.918,18.789c-2.11-0.742-4.287-1.049-6.521-1.039
		c-11.833,0.053-23.665,0.076-35.502,0.146c-2.952,0.016-5.949-0.123-8.853,0.311C8.403,20.09,2.36,34.623,9.848,44.889
		c5.703,7.82,16.716,9.502,24.723,3.791c0.318-0.229,0.753-0.41,1.136-0.412c6.215-0.049,12.431-0.068,18.645-0.062
		c0.436,0,0.938,0.154,1.291,0.402c3.47,2.451,7.318,3.514,11.54,3.27c7.692-0.447,14.434-6.148,15.88-13.416
		C84.76,29.934,80.116,21.729,71.918,18.789z"/>
	<path fill-rule="evenodd" clip-rule="evenodd" fill="#1E6679" d="M61.667,48.152c-7.21-2.58-11.01-10.584-8.442-17.783
		c2.591-7.271,10.604-11.029,17.914-8.406c7.302,2.621,11.062,10.594,8.44,17.896C76.996,47.049,68.974,50.764,61.667,48.152z
		 M70.302,24.27c-6.059-2.17-12.593,0.889-14.751,6.902c-2.15,6,0.973,12.545,7.02,14.705c6.025,2.152,12.589-0.945,14.736-6.957
		C79.436,32.967,76.305,26.42,70.302,24.27z"/>
	<path fill-rule="evenodd" clip-rule="evenodd" fill="#1E6679" d="M13.882,31.793c1.892-5.326,7.684-8.08,13.023-6.193
		c5.396,1.908,8.241,7.74,6.353,13.018c-1.911,5.336-7.777,8.135-13.102,6.246C14.805,42.967,11.994,37.109,13.882,31.793z
		 M15.553,32.293c-1.594,4.41,0.688,9.295,5.092,10.898c4.396,1.605,9.356-0.686,10.926-5.043c1.595-4.418-0.687-9.268-5.111-10.869
		C22,25.664,17.14,27.896,15.553,32.293z"/>
	<path fill-rule="evenodd" clip-rule="evenodd" fill="#1E6679" d="M72.073,37.723c-1.504-0.557-2.227-2.137-1.661-3.633
		c0.543-1.438,2.144-2.156,3.6-1.617c1.478,0.545,2.235,2.193,1.673,3.643C75.129,37.553,73.533,38.262,72.073,37.723z"/>
	<path fill-rule="evenodd" clip-rule="evenodd" fill="#1E6679" d="M65.581,32.328c-1.482-0.535-2.215-2.084-1.691-3.566
		c0.525-1.48,2.093-2.221,3.564-1.682c1.489,0.549,2.253,2.094,1.749,3.545C68.683,32.125,67.091,32.877,65.581,32.328z"/>
	<path fill-rule="evenodd" clip-rule="evenodd" fill="#1E6679" d="M65.904,43.111c-1.481-0.537-2.216-2.086-1.69-3.566
		c0.523-1.48,2.092-2.221,3.563-1.682c1.489,0.547,2.253,2.09,1.749,3.545C69.008,42.908,67.414,43.66,65.904,43.111z"/>
	<path fill-rule="evenodd" clip-rule="evenodd" fill="#1E6679" d="M62.704,36.105c-0.509,1.418-2.08,2.148-3.527,1.641
		c-1.437-0.504-2.18-2.076-1.66-3.51c0.547-1.514,2.028-2.197,3.56-1.641C62.525,33.121,63.233,34.643,62.704,36.105z"/>
	<path fill-rule="evenodd" clip-rule="evenodd" fill="#1E6679" d="M25.216,33.6c1.404,0.006,2.731,0.012,4.127,0.018
		c0.013,1.051,0.025,2.037,0.038,3.16c-1.378,0.014-2.725,0.027-4.141,0.041c0.003,1.459,0.005,2.842,0.01,4.334
		c-1.055,0.012-2.079,0.023-3.184,0.037c-0.023-1.467-0.043-2.869-0.063-4.354c-1.413-0.006-2.77-0.01-4.242-0.016
		c-0.01-0.969-0.039-1.9-0.004-2.832c0.006-0.121,0.333-0.322,0.517-0.332c0.993-0.037,1.988-0.023,2.982-0.031
		c0.215-0.002,0.435-0.023,0.721-0.037c0-1.33,0.001-2.609,0.003-3.963c1.063-0.01,2.071-0.018,3.177-0.027
		C25.176,30.939,25.196,32.24,25.216,33.6z"/>
	<path fill="#1E6679" d="M39.33,39.682c-0.562,0.418-1.359,0.299-1.775-0.264l-0.096-0.129c-0.417-0.562-0.301-1.357,0.262-1.777
		l3.383-2.504c0.563-0.418,1.354-0.299,1.774,0.264l0.096,0.127c0.419,0.564,0.3,1.359-0.263,1.775L39.33,39.682z"/>
	<path fill="#1E6679" d="M46.186,40.242c-0.561,0.418-1.355,0.299-1.773-0.264l-0.095-0.127c-0.419-0.564-0.301-1.357,0.263-1.775
		l3.382-2.508c0.562-0.418,1.358-0.299,1.773,0.264l0.097,0.129c0.417,0.562,0.299,1.357-0.265,1.775L46.186,40.242z"/>
</g>
<g>
	<defs>
		<rect id="SVGID_1859_" x="-215.891" y="552.208" width="1315.8" height="255"/>
	</defs>
	<clipPath id="SVGID_6_">
		<use xlink:href="#SVGID_1859_"  overflow="visible"/>
	</clipPath>
	<g clip-path="url(#SVGID_6_)">
		<g>
			<defs>
				<rect id="SVGID_1862_" x="-240.989" y="204.791" width="1365" height="1072"/>
			</defs>
			<clipPath id="SVGID_7_">
				<use xlink:href="#SVGID_1862_"  overflow="visible"/>
			</clipPath>
			<g opacity="0.7" clip-path="url(#SVGID_7_)">
				<g opacity="0.35">
					<g>
					</g>
				</g>
			</g>
		</g>
	</g>
</g>
</svg>
