<?xml version="1.0" encoding="utf-8"?>
<!-- Generator: Adobe Illustrator 16.0.0, SVG Export Plug-In . SVG Version: 6.00 Build 0)  -->
<!DOCTYPE svg PUBLIC "-//W3C//DTD SVG 1.1//EN" "http://www.w3.org/Graphics/SVG/1.1/DTD/svg11.dtd">
<svg version="1.1" id="Capa_1" xmlns="http://www.w3.org/2000/svg" xmlns:xlink="http://www.w3.org/1999/xlink" x="0px" y="0px"
	 width="90px" height="69.816px" viewBox="0 0 90 69.816" enable-background="new 0 0 90 69.816" xml:space="preserve">
<g>
	<defs>
		<rect id="SVGID_95_" x="-35.562" y="-228.122" width="1308.429" height="142"/>
	</defs>
	<clipPath id="SVGID_2_">
		<use xlink:href="#SVGID_95_"  overflow="visible"/>
	</clipPath>
	<g clip-path="url(#SVGID_2_)">
		
			<linearGradient id="SVGID_3_" gradientUnits="userSpaceOnUse" x1="1576.4219" y1="186.2637" x2="-2.9917" y2="-490.6285" gradientTransform="matrix(-1 0 0 1 1237.3066 0)">
			<stop  offset="0" style="stop-color:#1180A3"/>
			<stop  offset="0.4909" style="stop-color:#20B8AC"/>
			<stop  offset="1" style="stop-color:#67E6DC"/>
		</linearGradient>
		<rect x="-194.346" y="-780.78" fill="url(#SVGID_3_)" width="1470" height="1180"/>
		<g>
			<defs>
				<rect id="SVGID_98_" x="-217.346" y="-789.78" width="1516" height="1189"/>
			</defs>
			<clipPath id="SVGID_5_">
				<use xlink:href="#SVGID_98_"  overflow="visible"/>
			</clipPath>
			<g opacity="0.7" clip-path="url(#SVGID_5_)">
				<g opacity="0.35">
					<g>
						<polygon fill="none" stroke="#FFFFFF" stroke-miterlimit="10" points="411.402,69.117 -304.893,-805.317 28.312,-159.868 
													"/>
						<polygon fill="none" stroke="#FFFFFF" stroke-miterlimit="10" points="-45.434,3.945 -45.13,5.239 411.402,69.117 
							232.018,-554.917 -54.548,0.809 						"/>
						<polygon fill="none" stroke="#FFFFFF" stroke-miterlimit="10" points="124.298,312.03 411.402,69.117 -45.13,5.239 						"/>
						<polygon fill="none" stroke="#FFFFFF" stroke-miterlimit="10" points="124.298,312.03 -45.13,5.239 -54.877,1.37 
							618.337,-851.763 						"/>
						<polygon fill="none" stroke="#FFFFFF" stroke-miterlimit="10" points="618.337,-851.763 -55.141,0.648 -54.548,0.809 
							-304.893,-805.317 618.337,-851.763 						"/>
						<polygon fill="none" stroke="#FFFFFF" stroke-miterlimit="10" points="-55.141,0.648 867.848,-209.682 618.337,-851.763 
							-280.399,-476.19 -281.215,-473.886 						"/>
						<polygon fill="none" stroke="#FFFFFF" stroke-miterlimit="10" points="618.337,-851.763 293.819,-87.303 -55.141,0.648 
							-281.215,-473.886 -287.362,-475.932 						"/>
					</g>
					<g>
					</g>
				</g>
				<polygon opacity="0.1" fill="#FFFFFF" points="232.018,-554.917 411.402,69.117 -54.548,5.239 				"/>
			</g>
		</g>
		<rect x="-219.261" y="-800.307" opacity="0.5" fill="#009BB5" width="1518.703" height="1199.36"/>
	</g>
</g>
<g>
	<g>
		<g>
			<path fill="#FFFFFF" d="M75.637,64.829c-0.303,0-0.604-0.073-0.879-0.222l-15.735-8.34c-2.13,0.457-4.251,0.692-6.316,0.692
				c-15.493,0-28.098-11.698-28.098-26.068S37.214,4.829,52.707,4.829c15.494,0,28.098,11.692,28.098,26.062
				c0,7.104-3.177,13.937-8.735,18.851c-0.265,4.314,3.486,10.441,5.02,12.52c0.463,0.631,0.4,1.477-0.159,2.04
				C76.591,64.643,76.113,64.829,75.637,64.829z M59.288,52.879c0.303,0,0.606,0.078,0.876,0.223l10.841,5.742
				c-1.5-3.012-2.862-6.826-2.371-10.102c0.059-0.381,0.25-0.73,0.559-0.99c5.142-4.324,8.088-10.468,8.088-16.855
				c0-12.564-11.023-22.789-24.568-22.789c-13.549,0-24.569,10.225-24.569,22.789c0,12.563,11.017,22.788,24.563,22.788
				c1.998,0,4.064-0.246,6.137-0.747C58.988,52.899,59.139,52.879,59.288,52.879z"/>
		</g>
	</g>
	<g>
		<g>
			<path fill="#FFFFFF" d="M8.479,64.302c-0.562-0.563-0.625-1.409-0.163-2.04c1.538-2.078,5.286-8.205,5.024-12.52
				C7.78,44.828,4.605,37.996,4.605,30.892c0-14.37,12.602-26.062,28.096-26.062c15.493,0,28.098,11.692,28.098,26.062
				S48.194,56.96,32.701,56.96c-2.066,0-4.186-0.235-6.314-0.692l-15.736,8.34c-0.275,0.148-0.579,0.222-0.881,0.222
				C9.294,64.829,8.817,64.643,8.479,64.302z M26.564,52.938c2.073,0.501,4.137,0.747,6.137,0.747
				c13.544,0,24.565-10.225,24.565-22.788c0-12.564-11.024-22.789-24.569-22.789S8.129,18.332,8.129,30.896
				c0,6.388,2.946,12.531,8.084,16.855c0.309,0.26,0.504,0.609,0.562,0.99c0.49,3.275-0.872,7.09-2.373,10.102l10.841-5.742
				c0.272-0.145,0.575-0.223,0.875-0.223C26.27,52.879,26.418,52.899,26.564,52.938z"/>
		</g>
	</g>
	<g>
		<g>
			<g>
				<path fill="#FFFFFF" d="M39.726,42.658c-0.258,0-0.471-0.211-0.471-0.467c0-0.26,0.21-0.471,0.471-0.471h5.448
					c0.259,0,0.47,0.211,0.47,0.471c0,0.256-0.21,0.467-0.47,0.467H39.726z"/>
				<path fill="#FFFFFF" d="M40.332,44.521c-0.26,0-0.469-0.211-0.469-0.47c0-0.26,0.209-0.468,0.469-0.468h4.237
					c0.258,0,0.468,0.208,0.468,0.468c0,0.259-0.21,0.47-0.468,0.47H40.332z"/>
				<path fill="#FFFFFF" d="M42.008,38.041c0,0.257-0.208,0.463-0.466,0.463s-0.467-0.206-0.467-0.463
					c-0.002-1.979-0.06-3.449-0.331-4.816c-0.271-1.35-0.752-2.6-1.609-4.144c-0.125-0.224-0.046-0.51,0.18-0.633
					c0.227-0.126,0.51-0.046,0.635,0.181c0.909,1.639,1.425,2.972,1.712,4.413C41.946,34.467,42.005,35.995,42.008,38.041z"/>
				<path fill="#FFFFFF" d="M43.825,38.041c0,0.257-0.209,0.463-0.466,0.463c-0.258,0-0.468-0.206-0.468-0.463
					c0.002-2.046,0.063-3.572,0.347-4.999c0.286-1.441,0.802-2.774,1.709-4.413c0.126-0.228,0.411-0.307,0.635-0.181
					c0.226,0.123,0.305,0.41,0.182,0.633c-0.859,1.544-1.34,2.798-1.608,4.144C43.883,34.592,43.825,36.062,43.825,38.041z"/>
				<path fill="#FFFFFF" d="M39.401,29.301c-0.246-0.079-0.381-0.343-0.303-0.592c0.08-0.243,0.341-0.378,0.587-0.299
					c0.326,0.105,0.608,0.246,0.869,0.378l0.026,0.013c0.407,0.204,0.747,0.365,0.998,0.16l0.576-0.469
					c0.199-0.164,0.495-0.132,0.658,0.068c0.164,0.197,0.128,0.492-0.069,0.654l-0.579,0.471c-0.715,0.585-1.302,0.299-2.01-0.054
					l-0.02-0.011C39.906,29.506,39.657,29.383,39.401,29.301z"/>
				<path fill="#FFFFFF" d="M42.919,18.666c0,0.258-0.21,0.467-0.469,0.467c-0.26,0-0.469-0.209-0.469-0.467v-1.818
					c0-0.259,0.208-0.47,0.469-0.47c0.259,0,0.469,0.211,0.469,0.47V18.666z"/>
				<path fill="#FFFFFF" d="M45.213,28.41c0.246-0.079,0.509,0.056,0.587,0.299c0.079,0.249-0.056,0.513-0.301,0.592
					c-0.256,0.082-0.506,0.208-0.737,0.32l-0.02,0.011c-0.708,0.354-1.294,0.64-2.012,0.054l-0.576-0.469
					c-0.199-0.162-0.23-0.457-0.069-0.656c0.162-0.2,0.457-0.229,0.658-0.068l0.576,0.469c0.252,0.205,0.588,0.044,0.999-0.158
					l0.026-0.015C44.604,28.656,44.886,28.516,45.213,28.41z"/>
				<path fill="#FFFFFF" d="M48.348,23.666c1.51,1.51,2.443,3.596,2.443,5.896c0,0.901-0.144,1.772-0.41,2.585
					c-0.273,0.846-0.682,1.629-1.194,2.331c-0.863,1.175-1.559,1.948-2.101,2.552c-0.975,1.078-1.403,1.549-1.403,3.129
					c0,0.258-0.209,0.469-0.469,0.469h-0.012h-2.73h-2.744c-0.26,0-0.471-0.211-0.471-0.469c0-1.564-0.435-2.039-1.406-3.102l0,0
					h-0.001c-0.547-0.6-1.252-1.375-2.136-2.579c-0.511-0.702-0.919-1.488-1.193-2.331c-0.265-0.812-0.41-1.684-0.41-2.585
					c0-1.125,0.227-2.202,0.636-3.188l0.006-0.018c0.424-1.016,1.04-1.93,1.801-2.689c0.769-0.767,1.687-1.387,2.71-1.81l0,0
					c0.983-0.41,2.061-0.636,3.188-0.636c1.126,0,2.201,0.226,3.188,0.636C46.661,22.277,47.581,22.899,48.348,23.666L48.348,23.666
					z M49.855,29.562c0-2.042-0.83-3.896-2.171-5.232c-0.684-0.686-1.501-1.236-2.404-1.608c-0.867-0.36-1.825-0.56-2.831-0.56
					c-1.005,0-1.962,0.199-2.83,0.56v-0.003l-0.002,0.003c-0.902,0.372-1.717,0.923-2.403,1.608
					c-0.676,0.677-1.224,1.485-1.597,2.379l-0.011,0.023c-0.358,0.868-0.559,1.827-0.559,2.83c0,0.803,0.128,1.575,0.362,2.297
					c0.246,0.747,0.606,1.447,1.058,2.068c0.847,1.157,1.537,1.911,2.071,2.499l0,0c1.043,1.143,1.562,1.711,1.644,3.264h2.285
					h2.288c0.08-1.562,0.587-2.127,1.636-3.287c0.523-0.577,1.194-1.324,2.041-2.476c0.452-0.618,0.813-1.315,1.058-2.067
					C49.725,31.137,49.855,30.365,49.855,29.562z"/>
				<path fill="#FFFFFF" d="M40.937,46.378c-0.259,0-0.47-0.21-0.47-0.469c0-0.258,0.211-0.469,0.47-0.469h3.026
					c0.258,0,0.468,0.211,0.468,0.469c0,0.259-0.21,0.469-0.468,0.469H40.937z"/>
				<path fill="#FFFFFF" d="M48.199,20.33c-0.126,0.221-0.415,0.299-0.636,0.17c-0.224-0.125-0.3-0.412-0.171-0.636l0.908-1.573
					c0.126-0.223,0.414-0.302,0.639-0.172c0.222,0.128,0.297,0.414,0.171,0.638L48.199,20.33z"/>
				<path fill="#FFFFFF" d="M37.507,19.864c0.127,0.224,0.052,0.511-0.172,0.636c-0.223,0.129-0.509,0.051-0.637-0.17l-0.91-1.573
					c-0.126-0.223-0.05-0.51,0.174-0.638c0.223-0.127,0.509-0.051,0.637,0.172L37.507,19.864z"/>
				<path fill="#FFFFFF" d="M33.422,23.605c0.224,0.129,0.3,0.413,0.171,0.639c-0.126,0.221-0.412,0.299-0.636,0.17l-1.572-0.908
					c-0.226-0.126-0.303-0.413-0.174-0.636c0.127-0.223,0.415-0.299,0.637-0.171L33.422,23.605z"/>
				<path fill="#FFFFFF" d="M51.942,24.414c-0.222,0.129-0.508,0.051-0.636-0.17c-0.128-0.226-0.052-0.51,0.171-0.639l1.574-0.908
					c0.222-0.129,0.51-0.05,0.638,0.173c0.129,0.223,0.051,0.51-0.173,0.636L51.942,24.414z"/>
				<path fill="#FFFFFF" d="M37.582,31.416c0.097,0.237-0.013,0.51-0.251,0.609s-0.511-0.01-0.611-0.248
					c-0.158-0.379-0.284-0.774-0.365-1.188c-0.082-0.401-0.125-0.817-0.125-1.233c0-0.258,0.212-0.469,0.47-0.469
					c0.259,0,0.467,0.211,0.467,0.469c0,0.366,0.036,0.721,0.104,1.054C37.341,30.76,37.445,31.097,37.582,31.416L37.582,31.416z
					 M37.582,27.297c-0.1,0.238-0.375,0.352-0.613,0.252c-0.237-0.1-0.348-0.375-0.25-0.612c0.156-0.372,0.35-0.724,0.569-1.052l0,0
					v-0.003c0.226-0.334,0.48-0.645,0.761-0.923c0.279-0.278,0.59-0.533,0.928-0.764l0,0c0.322-0.219,0.677-0.41,1.053-0.568
					c0.376-0.159,0.771-0.282,1.183-0.365c0.405-0.08,0.821-0.127,1.236-0.127c0.259,0,0.469,0.213,0.469,0.471
					s-0.21,0.469-0.469,0.469c-0.367,0-0.721,0.035-1.054,0.1c-0.349,0.072-0.686,0.179-1.004,0.313
					c-0.31,0.132-0.607,0.293-0.893,0.486l0,0l0,0c-0.277,0.183-0.541,0.401-0.783,0.646c-0.242,0.242-0.461,0.509-0.651,0.787l0,0
					C37.876,26.688,37.712,26.986,37.582,27.297z"/>
			</g>
		</g>
	</g>
</g>
</svg>
