<?xml version="1.0" encoding="utf-8"?>
<!-- Generator: Adobe Illustrator 16.0.0, SVG Export Plug-In . SVG Version: 6.00 Build 0)  -->
<!DOCTYPE svg PUBLIC "-//W3C//DTD SVG 1.1//EN" "http://www.w3.org/Graphics/SVG/1.1/DTD/svg11.dtd">
<svg version="1.1" id="Capa_1" xmlns="http://www.w3.org/2000/svg" xmlns:xlink="http://www.w3.org/1999/xlink" x="0px" y="0px"
	 width="90px" height="69.816px" viewBox="0 0 90 69.816" enable-background="new 0 0 90 69.816" xml:space="preserve">
<g>
	<defs>
		<rect id="SVGID_95_" x="-35.562" y="-399.551" width="1308.429" height="142"/>
	</defs>
	<clipPath id="SVGID_2_">
		<use xlink:href="#SVGID_95_"  overflow="visible"/>
	</clipPath>
	<g clip-path="url(#SVGID_2_)">
		
			<linearGradient id="SVGID_3_" gradientUnits="userSpaceOnUse" x1="1576.4219" y1="14.835" x2="-2.9917" y2="-662.0572" gradientTransform="matrix(-1 0 0 1 1237.3066 0)">
			<stop  offset="0" style="stop-color:#1180A3"/>
			<stop  offset="0.4909" style="stop-color:#20B8AC"/>
			<stop  offset="1" style="stop-color:#67E6DC"/>
		</linearGradient>
		<rect x="-194.346" y="-952.209" fill="url(#SVGID_3_)" width="1470" height="1180"/>
		<g>
			<defs>
				<rect id="SVGID_98_" x="-217.346" y="-961.209" width="1516" height="1189"/>
			</defs>
			<clipPath id="SVGID_5_">
				<use xlink:href="#SVGID_98_"  overflow="visible"/>
			</clipPath>
			<g opacity="0.7" clip-path="url(#SVGID_5_)">
				<g opacity="0.35">
					<g>
						<polygon fill="none" stroke="#FFFFFF" stroke-miterlimit="10" points="124.298,140.602 411.402,-102.312 -45.13,-166.189 
													"/>
						<polygon fill="none" stroke="#FFFFFF" stroke-miterlimit="10" points="124.298,140.602 -45.13,-166.189 -54.877,-170.059 
							618.337,-1023.192 						"/>
					</g>
					<g>
					</g>
				</g>
			</g>
		</g>
		<rect x="-219.261" y="-971.736" opacity="0.5" fill="#009BB5" width="1518.703" height="1199.36"/>
	</g>
</g>
<g>
	<path fill="#1E6679" d="M48.377,18.18v-2.419c1.621-1.114,2.575-2.919,2.575-4.901c0-3.281-2.67-5.951-5.953-5.951
		c-3.281,0-5.953,2.67-5.953,5.951c0,1.982,0.956,3.787,2.575,4.901v2.419c-11.356,1.646-20.108,11.438-20.108,23.243
		c0,12.949,10.535,23.485,23.486,23.485c12.949,0,23.486-10.536,23.486-23.485C68.486,29.62,59.733,19.825,48.377,18.18
		L48.377,18.18z M40.335,10.859c0-2.573,2.092-4.665,4.665-4.665c2.572,0,4.665,2.092,4.665,4.665c0,1.338-0.555,2.571-1.519,3.444
		c-0.491-1.26-1.715-2.157-3.146-2.157c-1.433,0-2.656,0.897-3.146,2.157C40.89,13.431,40.335,12.197,40.335,10.859L40.335,10.859z
		 M42.908,15.524c0-1.154,0.939-2.092,2.092-2.092s2.092,0.938,2.092,2.092v2.507c-0.689-0.061-1.389-0.095-2.092-0.095
		s-1.402,0.034-2.092,0.095V15.524z M45,63.622c-12.24,0-22.2-9.96-22.2-22.199c0-12.24,9.96-22.2,22.2-22.2
		s22.198,9.96,22.198,22.2C67.198,53.662,57.24,63.622,45,63.622L45,63.622z M45,63.622"/>
	<path fill="#1E6679" d="M45,23.238c-10.029,0-18.185,8.157-18.185,18.185c0,10.025,8.156,18.183,18.185,18.183
		c10.027,0,18.183-8.157,18.183-18.183C63.183,31.396,55.027,23.238,45,23.238L45,23.238z M45.644,58.306v-4.738
		c0-0.354-0.289-0.644-0.644-0.644s-0.644,0.29-0.644,0.644v4.738c-8.806-0.33-15.91-7.434-16.241-16.239h4.74
		c0.355,0,0.644-0.288,0.644-0.644s-0.289-0.645-0.644-0.645h-4.74c0.332-8.805,7.436-15.907,16.241-16.239v4.738
		c0,0.356,0.289,0.644,0.644,0.644s0.644-0.287,0.644-0.644v-4.738c8.806,0.332,15.91,7.435,16.24,16.239h-4.738
		c-0.356,0-0.642,0.289-0.642,0.645s0.286,0.644,0.642,0.644h4.738C61.553,50.872,54.449,57.976,45.644,58.306L45.644,58.306z
		 M45.644,58.306"/>
	<path fill="#1E6679" d="M51.385,29.435c0.174,0.096,0.347,0.191,0.514,0.291c0.104,0.062,0.215,0.089,0.329,0.089
		c0.219,0,0.435-0.112,0.554-0.315c0.18-0.308,0.08-0.7-0.227-0.881c-0.183-0.109-0.373-0.215-0.562-0.316
		c-0.313-0.168-0.703-0.05-0.87,0.264C50.954,28.88,51.072,29.27,51.385,29.435L51.385,29.435z M51.385,29.435"/>
	<path fill="#1E6679" d="M58.75,38.426c0.055,0,0.11-0.008,0.165-0.023c0.342-0.09,0.547-0.441,0.457-0.785
		c-0.634-2.405-1.882-4.634-3.607-6.445c-0.245-0.255-0.651-0.265-0.908-0.021c-0.258,0.245-0.268,0.653-0.023,0.91
		c1.577,1.654,2.714,3.689,3.293,5.885C58.205,38.234,58.466,38.426,58.75,38.426L58.75,38.426z M58.75,38.426"/>
	<path fill="#1E6679" d="M48.446,38.278c-0.062-0.134-0.169-0.241-0.303-0.304l-10.955-5.222c-0.247-0.116-0.539-0.065-0.732,0.127
		c-0.191,0.192-0.242,0.486-0.125,0.73l5.22,10.956c0.064,0.134,0.171,0.24,0.306,0.304l10.954,5.221
		c0.089,0.042,0.182,0.063,0.277,0.063h0.004c0.355-0.001,0.643-0.29,0.643-0.645c0-0.121-0.034-0.234-0.092-0.332L48.446,38.278z
		 M38.272,34.696l8.495,4.047l-4.446,4.447L38.272,34.696z M43.232,44.102l4.445-4.446l4.047,8.492L43.232,44.102z M43.232,44.102"
		/>
</g>
<g>
	<defs>
		<rect id="SVGID_1859_" x="-39.248" y="552.208" width="1315.8" height="255"/>
	</defs>
	<clipPath id="SVGID_6_">
		<use xlink:href="#SVGID_1859_"  overflow="visible"/>
	</clipPath>
	<g clip-path="url(#SVGID_6_)">
		<g>
			<defs>
				<rect id="SVGID_1862_" x="-64.346" y="204.791" width="1365" height="1072"/>
			</defs>
			<clipPath id="SVGID_7_">
				<use xlink:href="#SVGID_1862_"  overflow="visible"/>
			</clipPath>
			<g opacity="0.7" clip-path="url(#SVGID_7_)">
				<g opacity="0.35">
					<g>
					</g>
				</g>
			</g>
		</g>
	</g>
</g>
</svg>
