<?xml version="1.0" encoding="utf-8"?>
<!-- Generator: Adobe Illustrator 16.0.0, SVG Export Plug-In . SVG Version: 6.00 Build 0)  -->
<!DOCTYPE svg PUBLIC "-//W3C//DTD SVG 1.1//EN" "http://www.w3.org/Graphics/SVG/1.1/DTD/svg11.dtd">
<svg version="1.1" id="Capa_1" xmlns="http://www.w3.org/2000/svg" xmlns:xlink="http://www.w3.org/1999/xlink" x="0px" y="0px"
	 width="90px" height="69.816px" viewBox="0 0 90 69.816" enable-background="new 0 0 90 69.816" xml:space="preserve">
<g>
	<defs>
		<rect id="SVGID_95_" x="-212.206" y="-228.122" width="1308.429" height="142"/>
	</defs>
	<clipPath id="SVGID_2_">
		<use xlink:href="#SVGID_95_"  overflow="visible"/>
	</clipPath>
	<g clip-path="url(#SVGID_2_)">
		
			<linearGradient id="SVGID_3_" gradientUnits="userSpaceOnUse" x1="1399.7788" y1="186.2637" x2="-179.6348" y2="-490.6285" gradientTransform="matrix(-1 0 0 1 884.0205 0)">
			<stop  offset="0" style="stop-color:#1180A3"/>
			<stop  offset="0.4909" style="stop-color:#20B8AC"/>
			<stop  offset="1" style="stop-color:#67E6DC"/>
		</linearGradient>
		<rect x="-370.989" y="-780.78" fill="url(#SVGID_3_)" width="1470" height="1180"/>
		<g>
			<defs>
				<rect id="SVGID_98_" x="-393.989" y="-789.78" width="1516" height="1189"/>
			</defs>
			<clipPath id="SVGID_5_">
				<use xlink:href="#SVGID_98_"  overflow="visible"/>
			</clipPath>
			<g opacity="0.7" clip-path="url(#SVGID_5_)">
				<g opacity="0.35">
					<g>
						<polygon fill="none" stroke="#FFFFFF" stroke-miterlimit="10" points="691.205,-209.682 34.202,-335.361 234.759,69.126 
													"/>
						<polygon fill="none" stroke="#FFFFFF" stroke-miterlimit="10" points="234.759,69.117 -481.536,-805.317 -148.332,-159.868 
													"/>
						<polygon fill="none" stroke="#FFFFFF" stroke-miterlimit="10" points="-222.077,3.945 -221.773,5.239 234.759,69.117 
							55.375,-554.917 -231.191,0.809 						"/>
						<polygon fill="none" stroke="#FFFFFF" stroke-miterlimit="10" points="-52.345,312.03 234.759,69.117 -221.773,5.239 						
							"/>
						<polygon fill="none" stroke="#FFFFFF" stroke-miterlimit="10" points="-52.345,312.03 -221.773,5.239 -231.52,1.37 
							441.694,-851.763 						"/>
						<polygon fill="none" stroke="#FFFFFF" stroke-miterlimit="10" points="441.694,-851.763 -231.784,0.648 -231.191,0.809 
							-481.536,-805.317 441.694,-851.763 						"/>
						<polygon fill="none" stroke="#FFFFFF" stroke-miterlimit="10" points="-231.784,0.648 691.205,-209.682 441.694,-851.763 
							-457.042,-476.19 -457.858,-473.886 						"/>
						<polygon fill="none" stroke="#FFFFFF" stroke-miterlimit="10" points="441.694,-851.763 117.176,-87.303 -231.784,0.648 
							-457.858,-473.886 -464.005,-475.932 						"/>
						<polygon fill="none" stroke="#FFFFFF" stroke-miterlimit="10" points="344.065,367.691 234.759,69.117 -52.345,312.03 						
							"/>
					</g>
					<g>
					</g>
				</g>
				<polygon opacity="0.1" fill="#FFFFFF" points="55.375,-554.917 234.759,69.117 -231.191,5.239 				"/>
			</g>
		</g>
		<rect x="-395.904" y="-800.307" opacity="0.5" fill="#009BB5" width="1518.703" height="1199.36"/>
	</g>
</g>
<g>
	<circle fill="#FFFFFF" cx="45" cy="36.303" r="7.881"/>
	<circle fill="#FFFFFF" cx="26.006" cy="56.735" r="5.939"/>
	<circle fill="#FFFFFF" cx="33.984" cy="10.768" r="5.939"/>
	<path fill="#FFFFFF" d="M71.99,14.1c0-3.28-2.66-5.939-5.941-5.939c-3.279,0-5.938,2.659-5.938,5.939c0,3.279,2.66,5.94,5.938,5.94
		C69.33,20.04,71.99,17.379,71.99,14.1z M61.844,14.1c0-2.322,1.882-4.204,4.205-4.204c2.324,0,4.208,1.882,4.208,4.204
		s-1.884,4.205-4.208,4.205C63.726,18.305,61.844,16.422,61.844,14.1z"/>
	<path fill="#FFFFFF" d="M71.99,58.89c0-3.28-2.66-5.938-5.941-5.938c-3.279,0-5.938,2.658-5.938,5.938
		c0,3.281,2.66,5.939,5.938,5.939C69.33,64.829,71.99,62.171,71.99,58.89z M61.844,58.89c0-2.323,1.882-4.205,4.205-4.205
		c2.324,0,4.208,1.882,4.208,4.205c0,2.322-1.884,4.207-4.208,4.207C63.726,63.097,61.844,61.212,61.844,58.89z"/>
	<path fill="#FFFFFF" d="M22.711,25.5c0-3.281-2.66-5.938-5.938-5.938c-3.282,0-5.94,2.657-5.94,5.938
		c0,3.279,2.658,5.938,5.94,5.938C20.051,31.438,22.711,28.779,22.711,25.5z M12.564,25.5c0-2.324,1.884-4.206,4.208-4.206
		c2.321,0,4.205,1.882,4.205,4.206c0,2.322-1.884,4.205-4.205,4.205C14.448,29.705,12.564,27.822,12.564,25.5z"/>
	<path fill="#FFFFFF" d="M33.831,51.755c-0.432,0.429-1.131,0.429-1.561,0l0,0c-0.431-0.432-0.431-1.132,0-1.563l5.682-5.684
		c0.433-0.431,1.129-0.431,1.562,0l0,0c0.431,0.432,0.431,1.13,0,1.562L33.831,51.755z"/>
	<path fill="#FFFFFF" d="M37.239,19.169c-0.241-0.561,0.019-1.209,0.58-1.449l0,0c0.561-0.24,1.208,0.02,1.45,0.577l3.167,7.39
		c0.24,0.561-0.019,1.209-0.581,1.448l0,0c-0.561,0.24-1.208-0.019-1.449-0.577L37.239,19.169z"/>
	<path fill="#FFFFFF" d="M31.882,33.377c-0.567-0.227-0.842-0.869-0.615-1.436l0,0c0.227-0.566,0.869-0.841,1.436-0.614l3.384,1.452
		c0.566,0.228,0.843,0.869,0.617,1.434l0,0c-0.227,0.566-0.87,0.843-1.436,0.616L31.882,33.377z"/>
	<path fill="#FFFFFF" d="M25.052,30.551c-0.566-0.227-0.841-0.868-0.615-1.435l0,0c0.227-0.565,0.87-0.84,1.436-0.615l3.386,1.453
		c0.565,0.227,0.839,0.868,0.615,1.435l0,0c-0.227,0.565-0.87,0.841-1.436,0.616L25.052,30.551z"/>
	<path fill="#FFFFFF" d="M56.567,50.225c-0.428-0.435-0.423-1.132,0.012-1.561l0,0c0.435-0.428,1.132-0.421,1.56,0.013l2.516,2.688
		c0.428,0.434,0.422,1.134-0.01,1.561l0,0c-0.437,0.428-1.136,0.423-1.562-0.014L56.567,50.225z"/>
	<path fill="#FFFFFF" d="M51.444,44.896c-0.43-0.434-0.423-1.133,0.01-1.562l0,0c0.437-0.425,1.134-0.419,1.564,0.015l2.516,2.688
		c0.428,0.435,0.422,1.134-0.014,1.561l0,0c-0.434,0.426-1.133,0.422-1.561-0.014L51.444,44.896z"/>
	<path fill="#FFFFFF" d="M53.756,25.141c0.435-0.427,1.135-0.421,1.562,0.013l0,0c0.428,0.435,0.423,1.134-0.014,1.562l-2.688,2.517
		c-0.433,0.427-1.133,0.424-1.561-0.013l0,0c-0.427-0.433-0.422-1.133,0.012-1.561L53.756,25.141z"/>
	<path fill="#FFFFFF" d="M59.086,20.018c0.433-0.425,1.133-0.422,1.561,0.015l0,0c0.427,0.434,0.42,1.132-0.012,1.561l-2.689,2.517
		c-0.433,0.429-1.133,0.422-1.561-0.014l0,0c-0.428-0.434-0.422-1.132,0.014-1.558L59.086,20.018z"/>
</g>
</svg>
