<?xml version="1.0" encoding="utf-8"?>
<!-- Generator: Adobe Illustrator 16.0.0, SVG Export Plug-In . SVG Version: 6.00 Build 0)  -->
<!DOCTYPE svg PUBLIC "-//W3C//DTD SVG 1.1//EN" "http://www.w3.org/Graphics/SVG/1.1/DTD/svg11.dtd">
<svg version="1.1" id="Capa_1" xmlns="http://www.w3.org/2000/svg" xmlns:xlink="http://www.w3.org/1999/xlink" x="0px" y="0px"
	 width="90px" height="69.816px" viewBox="0 0 90 69.816" enable-background="new 0 0 90 69.816" xml:space="preserve">
<g>
	<defs>
		<rect id="SVGID_95_" x="-565.492" y="-399.551" width="1308.429" height="142"/>
	</defs>
	<clipPath id="SVGID_2_">
		<use xlink:href="#SVGID_95_"  overflow="visible"/>
	</clipPath>
	<g clip-path="url(#SVGID_2_)">
		
			<linearGradient id="SVGID_3_" gradientUnits="userSpaceOnUse" x1="1046.4927" y1="14.835" x2="-532.9209" y2="-662.0572" gradientTransform="matrix(-1 0 0 1 177.4482 0)">
			<stop  offset="0" style="stop-color:#1180A3"/>
			<stop  offset="0.4909" style="stop-color:#20B8AC"/>
			<stop  offset="1" style="stop-color:#67E6DC"/>
		</linearGradient>
		<rect x="-724.275" y="-952.209" fill="url(#SVGID_3_)" width="1470" height="1180"/>
		<g>
			<defs>
				<rect id="SVGID_98_" x="-747.275" y="-961.209" width="1516" height="1189"/>
			</defs>
			<clipPath id="SVGID_5_">
				<use xlink:href="#SVGID_98_"  overflow="visible"/>
			</clipPath>
			<g opacity="0.7" clip-path="url(#SVGID_5_)">
				<g opacity="0.35">
					<g>
						<polygon fill="none" stroke="#FFFFFF" stroke-miterlimit="10" points="-405.631,140.602 -575.06,-166.189 -584.806,-170.059 
							88.408,-1023.192 						"/>
						<polygon fill="none" stroke="#FFFFFF" stroke-miterlimit="10" points="255.603,26.041 337.918,-381.11 -118.527,-102.312 
													"/>
						<polygon fill="none" stroke="#FFFFFF" stroke-miterlimit="10" points="8.282,213.312 255.603,26.041 -118.527,-102.312 
							-9.221,196.263 						"/>
						<polygon fill="none" stroke="#FFFFFF" stroke-miterlimit="10" points="572.219,-229.799 88.408,-1023.192 46.551,-45.681 
							8.282,213.312 						"/>
						<polygon fill="none" stroke="#FFFFFF" stroke-miterlimit="10" points="-212.239,-700.076 -188.513,-693.606 337.918,-381.11 
							255.603,26.041 						"/>
						<polygon fill="none" stroke="#FFFFFF" stroke-miterlimit="10" points="438.647,2.978 441.562,-1.259 337.918,-381.11 
							-188.513,-693.606 						"/>
					</g>
					<g>
					</g>
				</g>
				
					<linearGradient id="SVGID_6_" gradientUnits="userSpaceOnUse" x1="-248.3516" y1="-344.5244" x2="381.7227" y2="-344.5244" gradientTransform="matrix(-1 0 0 1 193.21 0)">
					<stop  offset="0" style="stop-color:#0050AD"/>
					<stop  offset="0.4909" style="stop-color:#26AFF5"/>
					<stop  offset="1" style="stop-color:#67E6DC"/>
				</linearGradient>
				<polygon opacity="0.35" fill="url(#SVGID_6_)" points="441.562,4.557 337.918,-381.11 -188.513,-693.606 				"/>
				<polygon opacity="0.15" fill="#FFFFFF" points="260.407,4.791 186.386,4.791 -118.527,-101.064 337.918,-379.236 				"/>
			</g>
		</g>
		<rect x="-749.19" y="-971.736" opacity="0.5" fill="#009BB5" width="1518.703" height="1199.36"/>
	</g>
</g>
<path fill="#1E6679" d="M21.349,13.889c-5.269,5.359-8.545,12.686-8.614,20.762v0.518c0.069,8.076,3.345,15.402,8.614,20.762
	l0.366,0.366c5.36,5.269,12.685,8.545,20.761,8.612h0.519c8.076-0.067,15.402-3.344,20.762-8.612l0.366-0.366
	c4.631-4.711,7.722-10.94,8.45-17.861c0.13,0.012,0.258,0.02,0.39,0.02c1.843,0,3.396-1.234,3.883-2.92h0.162
	c0.143,0,0.259-0.116,0.259-0.258c0-0.144-0.116-0.26-0.259-0.26h-0.051c0.031-0.199,0.051-0.399,0.051-0.607
	c0-2.233-1.811-4.046-4.045-4.046c-0.21,0-0.417,0.023-0.619,0.054c-1.02-6.242-3.973-11.84-8.221-16.162l-0.366-0.366
	c-5.36-5.27-12.686-8.545-20.762-8.614h-0.519c-8.076,0.069-15.401,3.345-20.761,8.614L21.349,13.889L21.349,13.889z M13.252,34.65
	c0.069-7.935,3.285-15.131,8.462-20.398l3.805,3.808c-0.37,0.61-0.586,1.323-0.586,2.091c0,1.61,0.941,2.998,2.304,3.646
	L25.979,34.65H13.252L13.252,34.65z M28.553,35.168h2.29c0.067,3.085,1.313,5.883,3.305,7.963l-1.636,1.636l-2.392-3.062
	c0.415-0.638,0.658-1.396,0.658-2.213c0-1.608-0.941-2.996-2.305-3.645L28.553,35.168z M51.704,44.244
	c-0.165,0.441-0.259,0.917-0.259,1.416c0,0.722,0.19,1.396,0.52,1.981l-7.676,8.59c-0.401-0.172-0.839-0.272-1.295-0.303V46.8
	c3.085-0.065,5.882-1.312,7.963-3.303L51.704,44.244L51.704,44.244z M55.489,41.615c-1.538,0-2.875,0.858-3.558,2.123l-0.607-0.607
	c1.991-2.08,3.237-4.879,3.302-7.963h14.28l-10.957,7.287C57.267,41.931,56.416,41.615,55.489,41.615L55.489,41.615z M68.927,33.838
	c-0.003,0.067-0.01,0.137-0.01,0.205c0,0.208,0.02,0.408,0.05,0.607H54.626c-0.065-3.008-1.248-5.744-3.154-7.807L68.927,33.838
	L68.927,33.838z M42.476,34.286l-7.597-7.599c1.236-1.183,2.737-2.09,4.403-2.622c0.675,1.081,1.847,1.817,3.193,1.895V34.286z
	 M50.208,26.338c0.131,0.113,0.259,0.229,0.384,0.35l-7.598,7.596v-8.329c1.111-0.074,2.098-0.598,2.783-1.394L50.208,26.338z
	 M50.957,27.053c1.899,1.986,3.087,4.653,3.152,7.598h-10.75L50.957,27.053z M54.109,35.168c-0.065,2.942-1.253,5.611-3.152,7.596
	l-7.598-7.596H54.109z M50.592,43.131c-1.987,1.898-4.656,3.086-7.598,3.153v-10.75L50.592,43.131z M42.476,46.284
	c-2.94-0.067-5.61-1.255-7.597-3.153l7.597-7.597V46.284z M34.513,42.764c-1.898-1.984-3.087-4.653-3.152-7.596h10.75L34.513,42.764
	z M31.361,34.65c0.065-2.944,1.254-5.611,3.152-7.598l7.598,7.598H31.361z M31.499,23.307c0.459-0.369,0.838-0.833,1.103-1.369
	l6.148,0.794c0.062,0.306,0.161,0.596,0.287,0.872c-1.71,0.56-3.251,1.5-4.523,2.718L31.499,23.307z M42.476,55.925
	c-0.377,0.022-0.741,0.097-1.083,0.214l-8.56-10.961l1.681-1.681c2.081,1.991,4.879,3.237,7.962,3.303V55.925z M28.613,34.65
	l1.223-10.548c0.443-0.097,0.857-0.267,1.232-0.494l3.08,3.079c-1.991,2.08-3.237,4.877-3.305,7.963H28.613z M22.08,13.889
	c5.267-5.177,12.462-8.394,20.398-8.463V17.89c-1.49,0.087-2.761,0.979-3.389,2.247l-6.147-0.792
	c-0.375-1.849-2.006-3.239-3.964-3.239c-1.279,0-2.418,0.595-3.158,1.521L22.08,13.889L22.08,13.889z M42.994,5.426
	c7.935,0.069,15.13,3.286,20.396,8.463L52.744,24.534l-5.995-2.403c0.002-0.067,0.009-0.136,0.009-0.205
	c0-2.14-1.662-3.887-3.764-4.03V5.426L42.994,5.426z M63.756,14.252c4.18,4.256,7.083,9.768,8.081,15.91
	c-0.763,0.223-1.434,0.657-1.939,1.244l-16.633-6.663L63.756,14.252L63.756,14.252z M72.062,37.982
	c-0.711,6.814-3.75,12.945-8.306,17.582l-6.342-6.343c1.262-0.685,2.12-2.023,2.12-3.56c0-0.355-0.05-0.7-0.137-1.028l11.105-7.384
	C70.956,37.598,71.486,37.851,72.062,37.982L72.062,37.982z M63.39,55.93c-5.266,5.175-12.461,8.394-20.396,8.463v-0.403
	c2.103-0.144,3.764-1.89,3.764-4.031c0-0.719-0.19-1.396-0.52-1.979l7.675-8.589c0.483,0.202,1.016,0.317,1.576,0.317
	c0.499,0,0.977-0.095,1.418-0.26L63.39,55.93L63.39,55.93z M42.476,64.393c-7.934-0.069-15.128-3.288-20.396-8.463l8.887-8.889
	l8.362,10.708c-0.417,0.636-0.661,1.395-0.661,2.209c0,2.154,1.686,3.912,3.807,4.035V64.393L42.476,64.393z M21.714,55.564
	c-5.177-5.268-8.393-12.464-8.462-20.396h12.667l-0.044,0.374c-1.82,0.395-3.186,2.014-3.186,3.95c0,2.236,1.812,4.047,4.045,4.047
	c0.465,0,0.907-0.082,1.323-0.226l2.59,3.318L21.714,55.564L21.714,55.564z M21.714,55.564"/>
<g>
	<defs>
		<rect id="SVGID_1859_" x="-569.177" y="552.208" width="1315.8" height="255"/>
	</defs>
	<clipPath id="SVGID_7_">
		<use xlink:href="#SVGID_1859_"  overflow="visible"/>
	</clipPath>
	<g clip-path="url(#SVGID_7_)">
		<g>
			<defs>
				<rect id="SVGID_1862_" x="-594.275" y="204.791" width="1365" height="1072"/>
			</defs>
			<clipPath id="SVGID_9_">
				<use xlink:href="#SVGID_1862_"  overflow="visible"/>
			</clipPath>
			<g opacity="0.7" clip-path="url(#SVGID_9_)">
				<g opacity="0.35">
					<g>
					</g>
				</g>
			</g>
		</g>
	</g>
</g>
</svg>
