<?xml version="1.0" encoding="utf-8"?>
<!-- Generator: Adobe Illustrator 16.0.0, SVG Export Plug-In . SVG Version: 6.00 Build 0)  -->
<!DOCTYPE svg PUBLIC "-//W3C//DTD SVG 1.1//EN" "http://www.w3.org/Graphics/SVG/1.1/DTD/svg11.dtd">
<svg version="1.1" id="Capa_1" xmlns="http://www.w3.org/2000/svg" xmlns:xlink="http://www.w3.org/1999/xlink" x="0px" y="0px"
	 width="90px" height="69.816px" viewBox="0 0 90 69.816" enable-background="new 0 0 90 69.816" xml:space="preserve">
<g>
	<defs>
		<rect id="SVGID_95_" x="-565.492" y="-228.122" width="1308.429" height="142"/>
	</defs>
	<clipPath id="SVGID_2_">
		<use xlink:href="#SVGID_95_"  overflow="visible"/>
	</clipPath>
	<g clip-path="url(#SVGID_2_)">
		
			<linearGradient id="SVGID_3_" gradientUnits="userSpaceOnUse" x1="1046.4927" y1="186.2637" x2="-532.9209" y2="-490.6285" gradientTransform="matrix(-1 0 0 1 177.4482 0)">
			<stop  offset="0" style="stop-color:#1180A3"/>
			<stop  offset="0.4909" style="stop-color:#20B8AC"/>
			<stop  offset="1" style="stop-color:#67E6DC"/>
		</linearGradient>
		<rect x="-724.275" y="-780.78" fill="url(#SVGID_3_)" width="1470" height="1180"/>
		<g>
			<defs>
				<rect id="SVGID_98_" x="-747.275" y="-789.78" width="1516" height="1189"/>
			</defs>
			<clipPath id="SVGID_5_">
				<use xlink:href="#SVGID_98_"  overflow="visible"/>
			</clipPath>
			<g opacity="0.7" clip-path="url(#SVGID_5_)">
				<g opacity="0.35">
					<g>
						<polygon fill="none" stroke="#FFFFFF" stroke-miterlimit="10" points="337.918,-209.682 -319.084,-335.361 -118.527,69.126 
													"/>
						<polygon fill="none" stroke="#FFFFFF" stroke-miterlimit="10" points="-405.631,312.03 -575.06,5.239 -584.806,1.37 
							88.408,-851.763 						"/>
						<polygon fill="none" stroke="#FFFFFF" stroke-miterlimit="10" points="88.408,-851.763 -585.07,0.648 -584.477,0.809 
							-834.822,-805.317 88.408,-851.763 						"/>
						<polygon fill="none" stroke="#FFFFFF" stroke-miterlimit="10" points="-585.07,0.648 337.918,-209.682 88.408,-851.763 
							-810.328,-476.19 -811.144,-473.886 						"/>
						<polygon fill="none" stroke="#FFFFFF" stroke-miterlimit="10" points="88.408,-851.763 -236.11,-87.303 -585.07,0.648 
							-811.144,-473.886 -817.291,-475.932 						"/>
						<polygon fill="none" stroke="#FFFFFF" stroke-miterlimit="10" points="255.603,197.47 337.918,-209.682 -118.527,69.117 
													"/>
						<polygon fill="none" stroke="#FFFFFF" stroke-miterlimit="10" points="8.282,384.741 255.603,197.47 -118.527,69.117 
							-9.221,367.691 						"/>
						<polygon fill="none" stroke="#FFFFFF" stroke-miterlimit="10" points="572.219,-58.37 88.408,-851.763 46.551,125.748 
							8.282,384.741 						"/>
						<polygon fill="none" stroke="#FFFFFF" stroke-miterlimit="10" points="-212.239,-528.647 -188.513,-522.177 337.918,-209.682 
							255.603,197.47 						"/>
						<polygon fill="none" stroke="#FFFFFF" stroke-miterlimit="10" points="438.647,174.406 441.562,170.17 337.918,-209.682 
							-188.513,-522.177 						"/>
					</g>
					<g>
					</g>
				</g>
				
					<linearGradient id="SVGID_6_" gradientUnits="userSpaceOnUse" x1="-248.3516" y1="-173.0957" x2="381.7227" y2="-173.0957" gradientTransform="matrix(-1 0 0 1 193.21 0)">
					<stop  offset="0" style="stop-color:#0050AD"/>
					<stop  offset="0.4909" style="stop-color:#26AFF5"/>
					<stop  offset="1" style="stop-color:#67E6DC"/>
				</linearGradient>
				<polygon opacity="0.35" fill="url(#SVGID_6_)" points="441.562,175.985 337.918,-209.682 -188.513,-522.177 				"/>
				<polygon opacity="0.15" fill="#FFFFFF" points="260.407,176.22 186.386,176.22 -118.527,70.364 337.918,-207.808 				"/>
			</g>
		</g>
		<rect x="-749.19" y="-800.307" opacity="0.5" fill="#009BB5" width="1518.703" height="1199.36"/>
	</g>
</g>
<path fill="#FFFFFF" d="M45.002,9.829c-20.711,0-37.501,16.789-37.501,37.5c0,4.392,0.793,8.585,2.178,12.5h70.642
	c1.387-3.915,2.178-8.108,2.178-12.5C82.5,26.618,65.711,9.829,45.002,9.829z M38.081,54.83c1.036-2.889,3.674-5,6.921-5
	c3.247,0,5.884,2.111,6.918,5H38.081z M57.16,54.83l-0.587-2.188l14.643-21.074L50.357,46.084c0.061,0.029,0.112,0.074,0.17,0.104
	c-1.67-0.841-3.529-1.358-5.525-1.358c-6.026,0-10.997,4.312-12.16,10.001h-19.44c-0.399-1.654-0.617-3.328-0.751-5h7.349
	c1.382,0,2.501-1.118,2.501-2.501c0-1.382-1.119-2.5-2.501-2.5h-7.371c0.543-7.078,3.351-13.528,7.718-18.617l5.209,5.208
	c0.977,0.976,2.558,0.976,3.535,0c0.979-0.979,0.979-2.559,0-3.537l-5.207-5.206c5.089-4.369,11.538-7.176,18.617-7.721v7.373
	c0,1.382,1.119,2.5,2.501,2.5c1.38,0,2.5-1.118,2.5-2.5v-7.373c7.08,0.545,13.527,3.352,18.619,7.721l-5.208,5.206
	c-0.979,0.979-0.979,2.562,0,3.537c0.977,0.976,2.559,0.976,3.537,0l5.207-5.208c4.368,5.091,7.177,11.539,7.72,18.617h-7.375
	c-1.382,0-2.5,1.118-2.5,2.5c0,1.383,1.118,2.501,2.5,2.501h7.349c-0.133,1.672-0.353,3.346-0.751,5H57.16z"/>
</svg>
