<?xml version="1.0" encoding="utf-8"?>
<!-- Generator: Adobe Illustrator 16.0.0, SVG Export Plug-In . SVG Version: 6.00 Build 0)  -->
<!DOCTYPE svg PUBLIC "-//W3C//DTD SVG 1.1//EN" "http://www.w3.org/Graphics/SVG/1.1/DTD/svg11.dtd">
<svg version="1.1" id="Capa_1" xmlns="http://www.w3.org/2000/svg" xmlns:xlink="http://www.w3.org/1999/xlink" x="0px" y="0px"
	 width="63.58px" height="63.583px" viewBox="0 0 63.58 63.583" enable-background="new 0 0 63.58 63.583" xml:space="preserve">
<g>
	<g>
		<circle fill="#5FB0C0" cx="31.789" cy="31.793" r="19.81"/>
		<path fill="#5FB0C0" d="M31.789,0C14.26,0,0,14.261,0,31.79s14.26,31.793,31.789,31.793S63.58,49.319,63.58,31.79
			S49.318,0,31.789,0z M31.789,62.094c-16.71,0-30.304-13.593-30.304-30.304c0-16.707,13.593-30.301,30.304-30.301
			S62.094,15.083,62.094,31.79C62.094,48.501,48.5,62.094,31.789,62.094z"/>
	</g>
	<g>
		<path fill="#F3F3F3" d="M31.789,20.22c-6.39,0-11.571,5.181-11.571,11.572c0,6.391,5.181,11.572,11.571,11.572
			c6.392,0,11.573-5.182,11.573-11.572C43.362,25.4,38.181,20.22,31.789,20.22z M32.732,41.163v-5.2h-1.884v5.2
			c-4.45-0.441-7.987-3.98-8.43-8.43h5.201v-1.885h-5.201c0.443-4.449,3.98-7.987,8.43-8.43v5.201h1.884v-5.201
			c4.451,0.442,7.988,3.98,8.43,8.43h-5.201v1.885h5.201C40.72,37.183,37.183,40.722,32.732,41.163z"/>
	</g>
</g>
</svg>
