<?xml version="1.0" encoding="utf-8"?>
<!-- Generator: Adobe Illustrator 16.0.0, SVG Export Plug-In . SVG Version: 6.00 Build 0)  -->
<!DOCTYPE svg PUBLIC "-//W3C//DTD SVG 1.1//EN" "http://www.w3.org/Graphics/SVG/1.1/DTD/svg11.dtd">
<svg version="1.1" id="Capa_1" xmlns="http://www.w3.org/2000/svg" xmlns:xlink="http://www.w3.org/1999/xlink" x="0px" y="0px"
	 width="63.58px" height="63.583px" viewBox="0 0 63.58 63.583" enable-background="new 0 0 63.58 63.583" xml:space="preserve">
<g>
	<g>
		<circle fill="#5FB0C0" cx="31.789" cy="31.793" r="19.81"/>
		<path fill="#5FB0C0" d="M31.789,0C14.26,0,0,14.261,0,31.79s14.26,31.793,31.789,31.793S63.58,49.319,63.58,31.79
			S49.318,0,31.789,0z M31.789,62.094c-16.71,0-30.304-13.593-30.304-30.304c0-16.707,13.593-30.301,30.304-30.301
			S62.094,15.083,62.094,31.79C62.094,48.501,48.5,62.094,31.789,62.094z"/>
	</g>
	<g>
		<path fill="#F3F3F3" d="M43.453,26.475c-13.929,5.575-8.287-9.431-19.091-1.531l-2.259,0.812l4.475,17.594h2.465l-2.192-8.617
			c9.639-8.08,5.736,8.804,17.138-7.762C44.253,26.585,43.899,26.296,43.453,26.475z"/>
	</g>
</g>
</svg>
