<?xml version="1.0" encoding="utf-8"?>
<!-- Generator: Adobe Illustrator 16.0.0, SVG Export Plug-In . SVG Version: 6.00 Build 0)  -->
<!DOCTYPE svg PUBLIC "-//W3C//DTD SVG 1.1//EN" "http://www.w3.org/Graphics/SVG/1.1/DTD/svg11.dtd">
<svg version="1.1" id="Capa_1" xmlns="http://www.w3.org/2000/svg" xmlns:xlink="http://www.w3.org/1999/xlink" x="0px" y="0px"
	 width="91.574px" height="91.572px" viewBox="0 0 91.574 91.572" enable-background="new 0 0 91.574 91.572" xml:space="preserve">
<g>
	<g>
		<circle fill="#444644" cx="45.787" cy="45.786" r="45.786"/>
	</g>
</g>
<g>
	<circle fill="#FFFFFF" cx="49.217" cy="47.195" r="7.531"/>
	<circle fill="#FFFFFF" cx="31.064" cy="66.722" r="5.677"/>
	<circle fill="#FFFFFF" cx="38.689" cy="22.792" r="5.677"/>
	<path fill="#FFFFFF" d="M75.011,25.977c0-3.137-2.542-5.676-5.679-5.676c-3.133,0-5.675,2.539-5.675,5.676
		c0,3.135,2.542,5.676,5.675,5.676C72.468,31.652,75.011,29.111,75.011,25.977z M65.313,25.977c0-2.22,1.799-4.02,4.019-4.02
		c2.221,0,4.022,1.8,4.022,4.02c0,2.219-1.801,4.019-4.022,4.019C67.113,29.995,65.313,28.195,65.313,25.977z"/>
	<path fill="#FFFFFF" d="M75.011,68.78c0-3.134-2.542-5.675-5.679-5.675c-3.133,0-5.675,2.541-5.675,5.675
		c0,3.136,2.542,5.677,5.675,5.677C72.468,74.457,75.011,71.916,75.011,68.78z M65.313,68.78c0-2.219,1.799-4.019,4.019-4.019
		c2.221,0,4.022,1.8,4.022,4.019c0,2.22-1.801,4.021-4.022,4.021C67.113,72.801,65.313,71,65.313,68.78z"/>
	<path fill="#FFFFFF" d="M27.915,36.871c0-3.135-2.542-5.676-5.675-5.676c-3.136,0-5.676,2.541-5.676,5.676s2.541,5.676,5.676,5.676
		C25.373,42.547,27.915,40.006,27.915,36.871z M18.218,36.871c0-2.221,1.801-4.02,4.021-4.02c2.218,0,4.019,1.799,4.019,4.02
		c0,2.22-1.8,4.02-4.019,4.02C20.019,40.891,18.218,39.091,18.218,36.871z"/>
	<path fill="#FFFFFF" d="M38.542,61.962c-0.413,0.411-1.081,0.411-1.491,0l0,0c-0.412-0.413-0.412-1.081,0-1.493l5.43-5.432
		c0.414-0.412,1.079-0.412,1.493,0l0,0c0.412,0.412,0.412,1.079,0,1.491L38.542,61.962z"/>
	<path fill="#FFFFFF" d="M41.799,30.82c-0.229-0.535,0.019-1.155,0.555-1.385l0,0c0.536-0.23,1.155,0.019,1.385,0.552l3.027,7.062
		c0.23,0.535-0.019,1.155-0.555,1.385l0,0c-0.536,0.23-1.155-0.019-1.385-0.553L41.799,30.82z"/>
	<path fill="#FFFFFF" d="M36.68,44.399c-0.541-0.216-0.804-0.831-0.587-1.372l0,0c0.217-0.541,0.831-0.805,1.372-0.588l3.234,1.389
		c0.541,0.217,0.806,0.83,0.589,1.37l0,0c-0.217,0.542-0.831,0.805-1.372,0.588L36.68,44.399z"/>
	<path fill="#FFFFFF" d="M30.153,41.698c-0.542-0.216-0.804-0.831-0.587-1.372l0,0c0.217-0.539,0.83-0.803,1.372-0.588l3.235,1.389
		c0.542,0.217,0.803,0.831,0.588,1.373l0,0c-0.217,0.539-0.831,0.803-1.372,0.588L30.153,41.698z"/>
	<path fill="#FFFFFF" d="M60.271,60.5c-0.409-0.416-0.404-1.082,0.012-1.49l0,0c0.415-0.41,1.082-0.404,1.491,0.01l2.404,2.57
		c0.409,0.416,0.404,1.084-0.01,1.492l0,0c-0.417,0.408-1.085,0.402-1.493-0.014L60.271,60.5z"/>
	<path fill="#FFFFFF" d="M55.375,55.408c-0.411-0.414-0.404-1.082,0.01-1.493l0,0c0.417-0.407,1.084-0.401,1.495,0.013l2.405,2.57
		c0.409,0.415,0.404,1.083-0.013,1.492l0,0c-0.414,0.406-1.083,0.402-1.491-0.014L55.375,55.408z"/>
	<path fill="#FFFFFF" d="M57.585,36.527c0.415-0.408,1.084-0.402,1.493,0.012l0,0c0.409,0.416,0.404,1.084-0.014,1.494l-2.568,2.404
		c-0.414,0.408-1.082,0.404-1.491-0.012l0,0c-0.409-0.414-0.404-1.083,0.011-1.492L57.585,36.527z"/>
	<path fill="#FFFFFF" d="M62.679,31.633c0.414-0.408,1.082-0.404,1.491,0.012l0,0c0.409,0.415,0.401,1.083-0.012,1.492l-2.57,2.406
		c-0.414,0.408-1.083,0.402-1.491-0.014l0,0c-0.409-0.414-0.404-1.082,0.013-1.489L62.679,31.633z"/>
</g>
</svg>
