<?xml version="1.0" encoding="utf-8"?>
<!-- Generator: Adobe Illustrator 16.0.0, SVG Export Plug-In . SVG Version: 6.00 Build 0)  -->
<!DOCTYPE svg PUBLIC "-//W3C//DTD SVG 1.1//EN" "http://www.w3.org/Graphics/SVG/1.1/DTD/svg11.dtd">
<svg version="1.1" id="Capa_1" xmlns="http://www.w3.org/2000/svg" xmlns:xlink="http://www.w3.org/1999/xlink" x="0px" y="0px"
	 width="91.574px" height="91.572px" viewBox="0 0 91.574 91.572" enable-background="new 0 0 91.574 91.572" xml:space="preserve">
<g>
	<g>
		<circle fill="#444644" cx="45.787" cy="45.786" r="45.786"/>
	</g>
</g>
<path fill="#FFFFFF" d="M68.977,55.219c0-2.205-1.493-4.07-3.521-4.637v-8.148c2.028-0.566,3.521-2.43,3.521-4.637
	s-1.493-4.068-3.521-4.637v-4.721H47.081v-2.994c2.028-0.566,3.521-2.43,3.521-4.635c0-2.656-2.161-4.814-4.815-4.814
	c-2.654,0-4.814,2.158-4.814,4.814c0,2.205,1.492,4.068,3.52,4.635v2.994H26.116v4.721c-2.027,0.568-3.519,2.432-3.519,4.637
	c0,2.207,1.492,4.07,3.519,4.637v8.148c-2.027,0.566-3.519,2.432-3.519,4.637c0,2.654,2.16,4.814,4.814,4.814
	c2.655,0,4.814-2.16,4.814-4.814c0-2.205-1.493-4.07-3.521-4.637v-8.148c2.028-0.566,3.521-2.43,3.521-4.637
	s-1.493-4.068-3.521-4.637v-2.131h15.787v2.131c-2.027,0.568-3.52,2.43-3.52,4.637c0,2.656,2.161,4.814,4.814,4.814
	c2.655,0,4.815-2.158,4.815-4.814c0-2.205-1.493-4.068-3.521-4.637v-2.131h15.786v2.131c-2.028,0.568-3.519,2.43-3.519,4.637
	s1.491,4.07,3.519,4.637v8.148c-2.028,0.566-3.519,2.432-3.519,4.637c0,2.207,1.491,4.068,3.519,4.637v2.168H48.992v4.102
	c-2.029,0.566-3.52,2.43-3.52,4.637c0,2.654,2.158,4.814,4.813,4.814c2.655,0,4.814-2.16,4.814-4.814c0-2.207-1.49-4.07-3.519-4.637
	v-1.512h11.286v1.512c-2.028,0.566-3.519,2.43-3.519,4.637c0,2.654,2.16,4.814,4.814,4.814s4.814-2.16,4.814-4.814
	c0-2.207-1.493-4.07-3.521-4.637v-6.27C67.484,59.287,68.977,57.424,68.977,55.219L68.977,55.219z M43.562,20.811
	c0-1.227,0.999-2.227,2.227-2.227c1.226,0,2.225,0.998,2.225,2.227c0,1.227-0.999,2.225-2.225,2.225
	C44.56,23.035,43.562,22.037,43.562,20.811L43.562,20.811z M29.637,55.219c0,1.227-0.999,2.225-2.225,2.225
	c-1.226,0-2.225-0.998-2.225-2.225s0.996-2.227,2.225-2.227C28.638,52.992,29.637,53.992,29.637,55.219L29.637,55.219z
	 M29.637,37.797c0,1.229-0.999,2.227-2.225,2.227c-1.226,0-2.225-0.998-2.225-2.227c0-1.227,0.996-2.225,2.225-2.225
	C28.638,35.572,29.637,36.57,29.637,37.797L29.637,37.797z M48.013,37.797c0,1.229-0.999,2.227-2.226,2.227
	c-1.227,0-2.225-0.998-2.225-2.227c0-1.227,0.999-2.225,2.225-2.225C47.014,35.572,48.013,36.57,48.013,37.797L48.013,37.797z
	 M52.512,70.762c0,1.227-0.997,2.225-2.227,2.225c-1.226,0-2.225-0.998-2.225-2.225c0-1.229,0.999-2.225,2.225-2.225
	C51.515,68.537,52.512,69.533,52.512,70.762L52.512,70.762z M61.938,37.797c0-1.227,0.999-2.225,2.225-2.225
	c1.228,0,2.225,0.998,2.225,2.225c0,1.229-0.998,2.227-2.225,2.227C62.936,40.023,61.938,39.025,61.938,37.797L61.938,37.797z
	 M61.938,55.219c0-1.227,0.999-2.227,2.225-2.227c1.228,0,2.225,1,2.225,2.227s-0.998,2.225-2.225,2.225
	C62.936,57.443,61.938,56.445,61.938,55.219L61.938,55.219z M66.388,70.762c0,1.227-0.998,2.225-2.225,2.225
	c-1.227,0-2.225-0.998-2.225-2.225c0-1.229,0.996-2.225,2.225-2.225C65.39,68.537,66.388,69.533,66.388,70.762L66.388,70.762z
	 M66.388,70.762"/>
</svg>
