<?xml version="1.0" encoding="utf-8"?>
<!-- Generator: Adobe Illustrator 16.0.0, SVG Export Plug-In . SVG Version: 6.00 Build 0)  -->
<!DOCTYPE svg PUBLIC "-//W3C//DTD SVG 1.1//EN" "http://www.w3.org/Graphics/SVG/1.1/DTD/svg11.dtd">
<svg version="1.1" id="Capa_1" xmlns="http://www.w3.org/2000/svg" xmlns:xlink="http://www.w3.org/1999/xlink" x="0px" y="0px"
	 width="29.298px" height="25.941px" viewBox="0 0 29.298 25.941" enable-background="new 0 0 29.298 25.941" xml:space="preserve">
<g>
	<path fill="#1E6679" d="M11.438,5.169c0,0,1.742,0.372,2.612-0.374c0,0-6.111,11.669,8.193,14.406c0,0-0.709,0.771-1.002,1.244
		c-0.212,0.339-0.563,1.687-0.563,1.687s-9.983-10.62-16.579-0.543l-0.496-1.617C3.603,19.971,12.433,13.75,11.438,5.169z"/>
	<path fill="#1E8BA7" d="M29.298,22.396c0,1.958-1.586,3.545-3.544,3.545s-3.545-1.587-3.545-3.545c0-1.917,1.56-3.545,3.545-3.545
		C27.712,18.851,29.298,20.438,29.298,22.396z"/>
	
		<ellipse transform="matrix(0.8609 -0.5088 0.5088 0.8609 0.8116 7.1542)" fill="#60777C" cx="13.49" cy="2.093" rx="3.052" ry="1.63"/>
	
		<ellipse transform="matrix(0.1288 0.9917 -0.9917 0.1288 23.7631 17.9554)" fill="#60777C" cx="1.663" cy="22.502" rx="3.052" ry="1.628"/>
</g>
</svg>
