<?xml version="1.0" encoding="utf-8"?>
<!-- Generator: Adobe Illustrator 16.0.0, SVG Export Plug-In . SVG Version: 6.00 Build 0)  -->
<!DOCTYPE svg PUBLIC "-//W3C//DTD SVG 1.1//EN" "http://www.w3.org/Graphics/SVG/1.1/DTD/svg11.dtd">
<svg version="1.1" id="Capa_1" xmlns="http://www.w3.org/2000/svg" xmlns:xlink="http://www.w3.org/1999/xlink" x="0px" y="0px"
	 width="24.479px" height="29.785px" viewBox="0 0 24.479 29.785" enable-background="new 0 0 24.479 29.785" xml:space="preserve">
<g>
	<g>
		<linearGradient id="SVGID_1_" gradientUnits="userSpaceOnUse" x1="12.2402" y1="0" x2="12.2402" y2="29.7852">
			<stop  offset="0" style="stop-color:#57BDB6"/>
			<stop  offset="0.0093" style="stop-color:#57BDB6"/>
			<stop  offset="0.2809" style="stop-color:#57BDB6"/>
			<stop  offset="0.6685" style="stop-color:#34B1B9"/>
			<stop  offset="0.8876" style="stop-color:#30A1C1"/>
			<stop  offset="1" style="stop-color:#30A1C1"/>
		</linearGradient>
		<path fill="url(#SVGID_1_)" d="M24.459,9.506c-0.201-1.113-0.885-2.046-1.847-2.574c0.315-1.098,0.108-2.301-0.593-3.237
			c-0.694-0.926-1.8-1.479-2.957-1.479c-0.164,0-0.328,0.012-0.489,0.034C18.004,0.911,16.678,0,15.174,0
			c-1.191,0-2.252,0.567-2.928,1.446C11.57,0.567,10.51,0,9.318,0c-1.503,0-2.832,0.912-3.4,2.252
			C5.757,2.23,5.594,2.219,5.428,2.219c-1.175,0-2.252,0.539-2.955,1.477C1.771,4.632,1.564,5.836,1.88,6.933
			C0.917,7.462,0.234,8.395,0.033,9.509c-0.051,0.278-0.027,10.159-0.027,10.159c0,3.487,2.359,6.324,6.354,6.324h1.258
			c3.399,0,6.593,1.157,8.996,3.254l0.613,0.54v-5.375c0-0.031,0.005-0.062,0.013-0.092c0.137-0.091,0.265-0.192,0.387-0.301
			c0.018-0.001,0.036-0.002,0.055-0.002c0.25,0,0.453,0.177,0.453,0.396v1.562c3.783-0.206,6.289-2.952,6.289-6.306
			C24.424,19.667,24.52,9.833,24.459,9.506z M5.717,7.038C4.982,7.095,4.28,7.247,3.625,7.481l0.086-0.197L3.53,6.953
			C3.121,6.21,3.188,5.291,3.695,4.612c0.412-0.55,1.044-0.864,1.732-0.864c0.068,0,0.134,0.001,0.199,0.009
			c0.014,0.728,0.235,1.422,0.637,2.01C6.003,6.154,5.816,6.583,5.717,7.038z M7.321,7.013c0.106-0.26,0.267-0.5,0.471-0.705
			c0.409-0.409,0.952-0.633,1.531-0.633V4.146c-0.69,0-1.354,0.19-1.927,0.542C7.237,4.384,7.154,4.044,7.154,3.692
			c0-0.121,0.01-0.242,0.029-0.359l0.012-0.056c0.196-1.013,1.089-1.75,2.123-1.75c1.193,0,2.164,0.971,2.164,2.165v3.321H7.321z
			 M13.438,22.604c-1.614,0-2.792-0.653-2.792-2.441v-6.739H8.684v-1.767h1.963l0.437-2.551l2.05-0.458v3.009h2.682l-0.305,1.767
			h-2.377v6.454c0,0.742,0.479,0.895,0.98,0.895c0.83,0,1.701-0.305,1.701-0.305l0.414,1.636
			C16.25,22.104,15.073,22.604,13.438,22.604z M17.097,4.687c-0.573-0.352-1.236-0.542-1.927-0.542v1.529
			c0.578,0,1.121,0.224,1.53,0.633c0.206,0.205,0.365,0.445,0.472,0.705H13.01V3.692c0-1.194,0.972-2.165,2.164-2.165
			c1.035,0,1.928,0.737,2.124,1.75l0.011,0.054c0.02,0.118,0.031,0.24,0.031,0.361C17.34,4.044,17.256,4.384,17.097,4.687z
			 M20.963,6.952l-0.182,0.332l0.154,0.345l0.009,0.024c-0.681-0.276-1.408-0.471-2.159-0.569c-0.099-0.471-0.285-0.917-0.557-1.317
			c0.402-0.589,0.625-1.284,0.637-2.013c0.066-0.006,0.131-0.009,0.197-0.009c0.689,0,1.321,0.315,1.734,0.866
			C21.305,5.29,21.37,6.208,20.963,6.952z"/>
	</g>
</g>
</svg>
