<?xml version="1.0" encoding="utf-8"?>
<!-- Generator: Adobe Illustrator 16.0.0, SVG Export Plug-In . SVG Version: 6.00 Build 0)  -->
<!DOCTYPE svg PUBLIC "-//W3C//DTD SVG 1.1//EN" "http://www.w3.org/Graphics/SVG/1.1/DTD/svg11.dtd">
<svg version="1.1" id="Capa_1" xmlns="http://www.w3.org/2000/svg" xmlns:xlink="http://www.w3.org/1999/xlink" x="0px" y="0px"
	 width="17.181px" height="13.995px" viewBox="0 0 17.181 13.995" enable-background="new 0 0 17.181 13.995" xml:space="preserve">
<path fill="#9A9A99" d="M17.16,1.667c-0.025-0.029-0.064-0.039-0.101-0.024c-0.513,0.228-1.054,0.393-1.609,0.49
	c0.589-0.445,1.029-1.06,1.255-1.766c0.011-0.035,0-0.07-0.025-0.093c-0.028-0.021-0.069-0.025-0.099-0.006
	c-0.666,0.395-1.387,0.673-2.144,0.828C13.768,0.398,12.831,0,11.86,0C9.89,0,8.286,1.604,8.286,3.576
	c0,0.237,0.023,0.475,0.07,0.704C5.626,4.11,3.07,2.8,1.334,0.671C1.317,0.648,1.29,0.637,1.263,0.64
	C1.233,0.641,1.21,0.657,1.194,0.681C0.878,1.225,0.712,1.846,0.712,2.479c0,1.097,0.498,2.121,1.345,2.797
	C1.62,5.223,1.194,5.086,0.81,4.873c-0.027-0.015-0.057-0.015-0.084,0C0.7,4.888,0.683,4.916,0.683,4.945v0.045
	c0,1.575,1.037,2.957,2.514,3.416C2.808,8.469,2.403,8.465,2.007,8.388C1.979,8.383,1.948,8.393,1.928,8.416S1.9,8.47,1.911,8.499
	c0.442,1.381,1.672,2.351,3.102,2.472c-1.193,0.873-2.604,1.334-4.096,1.334c-0.274,0-0.551-0.017-0.822-0.048
	c-0.039-0.005-0.078,0.02-0.09,0.056c-0.014,0.039,0.001,0.08,0.033,0.102c1.614,1.033,3.48,1.581,5.396,1.581
	c6.268,0,10.016-5.091,10.016-10.015c0-0.137-0.004-0.274-0.01-0.41c0.676-0.495,1.258-1.101,1.725-1.801
	C17.188,1.737,17.184,1.696,17.16,1.667z"/>
</svg>
