<?xml version="1.0" encoding="utf-8"?>
<!-- Generator: Adobe Illustrator 16.0.0, SVG Export Plug-In . SVG Version: 6.00 Build 0)  -->
<!DOCTYPE svg PUBLIC "-//W3C//DTD SVG 1.1//EN" "http://www.w3.org/Graphics/SVG/1.1/DTD/svg11.dtd">
<svg version="1.1" xmlns="http://www.w3.org/2000/svg" xmlns:xlink="http://www.w3.org/1999/xlink" x="0px" y="0px"
	 width="192.41px" height="192.413px" viewBox="0 0 192.41 192.413" enable-background="new 0 0 192.41 192.413"
	 xml:space="preserve">
<g id="Capa_2">
	<rect fill="#24A3A4" width="192.41" height="192.413"/>
</g>
<g id="Capa_1">
	<g>
		<path fill="#FFFFFF" d="M144.883,109.037c-1.693,0-3.311,0.339-4.785,0.95l-22.58-34.77c1.133-1.127,1.836-2.686,1.836-4.408
			v-2.25h8.598c2.262,0,4.102-1.839,4.102-4.1v-8.466c0-2.261-1.84-4.1-4.102-4.1H39.062c-2.26,0-4.102,1.839-4.102,4.1v8.466
			c0,2.261,1.842,4.1,4.102,4.1h4.367v2.25c0,2.734,1.773,5.061,4.23,5.891v38.844c-5.988,0.955-10.582,6.156-10.582,12.408
			c0,6.93,5.637,12.566,12.566,12.566c4.439,0,8.346-2.315,10.58-5.801c2.238,3.485,6.145,5.801,10.584,5.801
			c4.441,0,8.346-2.315,10.582-5.801c2.236,3.485,6.143,5.801,10.582,5.801c6.93,0,12.566-5.637,12.566-12.566
			c0-6.252-4.592-11.453-10.582-12.408V76.7c2.457-0.83,4.232-3.156,4.232-5.891v-2.25h8.732v2.25c0,3.428,2.787,6.217,6.215,6.217
			c0.268,0,0.531-0.02,0.789-0.051l22.789,35.091c-2.689,2.306-4.396,5.726-4.396,9.537c0,6.929,5.635,12.566,12.564,12.566
			c6.928,0,12.566-5.638,12.566-12.566S151.811,109.037,144.883,109.037L144.883,109.037z M38.932,64.46v-8.466
			c0-0.072,0.059-0.132,0.131-0.132h88.889c0.074,0,0.133,0.06,0.133,0.132v8.466c0,0.074-0.059,0.133-0.133,0.133H39.062
			C38.99,64.593,38.932,64.534,38.932,64.46L38.932,64.46z M89.988,76.7v38.844c-3.605,0.575-6.701,2.689-8.598,5.645
			c-1.895-2.955-4.992-5.069-8.598-5.645V76.7c2.457-0.83,4.232-3.156,4.232-5.891v-2.25h8.732v2.25
			C85.758,73.544,87.531,75.87,89.988,76.7L89.988,76.7z M60.225,121.188c-1.895-2.955-4.99-5.069-8.598-5.645V76.7
			c2.459-0.83,4.234-3.156,4.234-5.891v-2.25h8.73v2.25c0,2.734,1.777,5.061,4.232,5.891v38.844
			C65.219,116.119,62.123,118.233,60.225,121.188L60.225,121.188z M73.057,68.56v2.25c0,1.24-1.008,2.249-2.248,2.249
			c-1.238,0-2.248-1.009-2.248-2.249v-2.25H73.057z M47.396,68.56h4.498v2.25c0,1.24-1.01,2.249-2.25,2.249
			c-1.238,0-2.248-1.009-2.248-2.249V68.56z M49.645,136.551c-4.74,0-8.598-3.856-8.598-8.599c0-4.74,3.857-8.598,8.598-8.598
			s8.598,3.857,8.598,8.598C58.242,132.694,54.385,136.551,49.645,136.551L49.645,136.551z M70.809,136.551
			c-4.74,0-8.598-3.856-8.598-8.599c0-4.74,3.857-8.598,8.598-8.598s8.598,3.857,8.598,8.598
			C79.406,132.694,75.549,136.551,70.809,136.551L70.809,136.551z M100.57,127.952c0,4.742-3.855,8.599-8.598,8.599
			s-8.6-3.856-8.6-8.599c0-4.74,3.857-8.598,8.6-8.598S100.57,123.212,100.57,127.952L100.57,127.952z M94.221,70.81
			c0,1.24-1.008,2.249-2.248,2.249c-1.238,0-2.246-1.009-2.246-2.249v-2.25h4.494V70.81z M110.889,70.81v-2.25h4.498v2.25
			c0,1.24-1.012,2.249-2.25,2.249C111.896,73.059,110.889,72.05,110.889,70.81L110.889,70.81z M144.883,130.202
			c-4.74,0-8.598-3.857-8.598-8.599c0-4.74,3.857-8.599,8.598-8.599s8.598,3.858,8.598,8.599
			C153.48,126.345,149.623,130.202,144.883,130.202L144.883,130.202z M144.883,130.202"/>
		<path fill="#FFFFFF" d="M49.645,123.853c-1.096,0-1.984,0.888-1.984,1.984c0,1.096,0.889,1.984,1.984,1.984
			c0.074,0,0.133,0.058,0.133,0.131c0,1.097,0.889,1.984,1.984,1.984s1.984-0.888,1.984-1.984
			C53.746,125.692,51.906,123.853,49.645,123.853L49.645,123.853z M49.645,123.853"/>
		<path fill="#FFFFFF" d="M70.809,123.853c-1.094,0-1.984,0.888-1.984,1.984c0,1.096,0.891,1.984,1.984,1.984
			c0.072,0,0.133,0.058,0.133,0.131c0,1.097,0.889,1.984,1.984,1.984s1.984-0.888,1.984-1.984
			C74.91,125.692,73.07,123.853,70.809,123.853L70.809,123.853z M70.809,123.853"/>
		<path fill="#FFFFFF" d="M89.988,125.837c0,1.096,0.889,1.984,1.984,1.984c0.074,0,0.133,0.058,0.133,0.131
			c0,1.097,0.889,1.984,1.984,1.984s1.984-0.888,1.984-1.984c0-2.26-1.84-4.1-4.102-4.1
			C90.877,123.853,89.988,124.74,89.988,125.837L89.988,125.837z M89.988,125.837"/>
		<path fill="#FFFFFF" d="M144.883,117.502c-1.096,0-1.984,0.89-1.984,1.984c0,1.098,0.889,1.983,1.984,1.983
			c0.074,0,0.135,0.061,0.135,0.134c0,1.097,0.887,1.983,1.982,1.983s1.984-0.887,1.984-1.983
			C148.984,119.342,147.145,117.502,144.883,117.502L144.883,117.502z M144.883,117.502"/>
	</g>
</g>
</svg>
