<?xml version="1.0" encoding="utf-8"?>
<!-- Generator: Adobe Illustrator 16.0.0, SVG Export Plug-In . SVG Version: 6.00 Build 0)  -->
<!DOCTYPE svg PUBLIC "-//W3C//DTD SVG 1.1//EN" "http://www.w3.org/Graphics/SVG/1.1/DTD/svg11.dtd">
<svg version="1.1" xmlns="http://www.w3.org/2000/svg" xmlns:xlink="http://www.w3.org/1999/xlink" x="0px" y="0px"
	 width="192.41px" height="192.412px" viewBox="0 0 192.41 192.412" enable-background="new 0 0 192.41 192.412"
	 xml:space="preserve">
<g id="Capa_1">
	<g>
		<path fill="#FFFFFF" d="M140.405,114.127l-5.406-5.407c-0.7-0.7-1.836-0.7-2.535,0l-13.055,13.054c-0.699,0.7-0.699,1.835,0,2.535
			l1.996,1.996l-3.348,3.349c-0.741,0.741-1.725,1.15-2.771,1.153l-7.995-0.153v-6.754l27.822-27.823c0.7-0.7,0.7-1.835,0-2.535
			l-5.406-5.407c-0.7-0.698-1.835-0.698-2.534,0l-26.383,26.383c-0.925-0.305-1.913-0.472-2.939-0.472
			c-2.398,0-4.592,0.902-6.259,2.383c-8.241-2.695-13.937-10.475-13.937-19.172c0-2.407,0.43-4.763,1.268-7.01
			c1.542-0.29,2.977-0.891,4.23-1.738l5.646,5.578c0.01,0.011,0.021,0.018,0.03,0.028c0.028,0.025,0.056,0.05,0.085,0.075
			c0.018,0.015,0.036,0.028,0.055,0.044c0.027,0.02,0.056,0.041,0.083,0.06c0.023,0.016,0.048,0.03,0.069,0.045
			c0.025,0.016,0.051,0.03,0.077,0.045c0.028,0.017,0.058,0.03,0.088,0.044c0.022,0.011,0.045,0.021,0.067,0.031
			c0.033,0.015,0.068,0.027,0.104,0.04c0.014,0.005,0.027,0.012,0.041,0.017l8.227,2.705l3.753,3.752
			c0.723,0.723,1.671,1.083,2.62,1.083c0.948,0,1.896-0.36,2.619-1.083l4.943-4.943c1.444-1.443,1.444-3.794,0-5.238l-3.745-3.745
			l-2.614-8.307c-0.006-0.021-0.016-0.044-0.023-0.066c-0.012-0.031-0.022-0.062-0.035-0.092c-0.014-0.033-0.029-0.064-0.046-0.096
			c-0.009-0.02-0.019-0.042-0.03-0.062c-0.02-0.037-0.042-0.071-0.064-0.106c-0.008-0.015-0.016-0.028-0.025-0.042
			c-0.025-0.037-0.053-0.073-0.08-0.108c-0.008-0.011-0.017-0.022-0.025-0.032c-0.028-0.036-0.061-0.069-0.093-0.103
			c-0.007-0.008-0.014-0.016-0.022-0.024l-0.021-0.021L82.653,55.91c-1.06-1.061-2.471-1.644-3.972-1.644
			c-1.462,0-2.838,0.557-3.889,1.566l-7.407-7.405c0.265-0.652,0.405-1.356,0.405-2.082c0-1.483-0.578-2.879-1.627-3.928
			c-1.049-1.05-2.443-1.628-3.928-1.628s-2.878,0.578-3.928,1.627l-5.202,5.202c-1.048,1.049-1.626,2.444-1.626,3.928
			s0.578,2.878,1.628,3.927c1.082,1.083,2.504,1.625,3.928,1.625c0.707,0,1.414-0.135,2.08-0.403l7.41,7.41
			c-2.109,2.195-2.088,5.696,0.075,7.858l0.628,0.629c0.057,0.058,0.119,0.108,0.182,0.156c-1.226,1.812-1.942,3.997-1.942,6.345
			c0,1.135,0.169,2.23,0.481,3.266c-2.221,4.725-3.35,9.732-3.35,14.896c0,8.027,2.645,15.591,7.645,21.875
			c4.631,5.816,11.051,10.067,18.168,12.053v9.206h-7.764c-4.15,0-7.529,3.377-7.529,7.528v1.911c0,0.989,0.804,1.793,1.793,1.793
			h45.877c0.99,0,1.793-0.804,1.793-1.793v-1.911c0-4.151-3.377-7.528-7.527-7.528h-7.765v-6.152l7.944,0.154
			c0.012,0.001,0.023,0.001,0.034,0.001c2.012,0,3.902-0.782,5.323-2.205l3.35-3.348l0.875,0.875
			c0.35,0.351,0.809,0.525,1.268,0.525s0.918-0.175,1.268-0.525l13.053-13.054C141.104,115.961,141.104,114.827,140.405,114.127
			L140.405,114.127z M128.44,91.937l2.871,2.872l-24.839,24.84c-0.567-1.271-1.409-2.396-2.45-3.296L128.44,91.937z M69.052,79.094
			c0-4.283,3.484-7.767,7.767-7.767s7.767,3.483,7.767,7.767c0,4.282-3.484,7.767-7.767,7.767S69.052,83.376,69.052,79.094
			L69.052,79.094z M102.771,82.635l1.533,4.869l-6.1,6.099l-4.816-1.584L102.771,82.635z M109.126,93.493l-4.942,4.944
			c-0.047,0.046-0.122,0.047-0.169,0l-2.788-2.788l5.112-5.112l2.787,2.787C109.173,93.371,109.173,93.446,109.126,93.493
			L109.126,93.493z M78.683,57.85c0.543,0,1.053,0.213,1.439,0.599l20.934,20.832L90.052,90.283l-4.279-4.228
			c1.5-1.924,2.396-4.339,2.396-6.962c0-6.26-5.092-11.352-11.351-11.352c-2.628,0-5.048,0.899-6.974,2.405
			c-0.025-0.03-0.053-0.062-0.081-0.09l-0.628-0.629c-0.792-0.792-0.792-2.081,0-2.872l8.109-8.112
			C77.631,58.062,78.141,57.85,78.683,57.85L78.683,57.85z M65.165,51.273l7.092,7.092l-3.201,3.201l-7.092-7.093L65.165,51.273z
			 M55.643,52.939c-0.372-0.372-0.577-0.867-0.577-1.393c0-0.526,0.205-1.021,0.577-1.394l5.2-5.202
			c0.373-0.371,0.867-0.576,1.394-0.576s1.021,0.205,1.394,0.577c0.371,0.372,0.577,0.867,0.577,1.394s-0.206,1.021-0.577,1.394
			l-5.202,5.2C57.66,53.707,56.41,53.707,55.643,52.939L55.643,52.939z M73.05,116.897c-4.491-5.642-6.864-12.435-6.864-19.642
			c0-3.729,0.656-7.368,1.952-10.86c1.736,2.062,4.191,3.499,6.977,3.921c-0.689,2.245-1.043,4.57-1.043,6.939
			c0,9.835,6.179,18.672,15.26,22.17c-0.588,1.23-0.918,2.606-0.918,4.06v3.954C82.404,125.553,77.001,121.863,73.05,116.897
			L73.05,116.897z M118.997,147.917v0.12H76.704v-0.12c0-2.174,1.771-3.943,3.944-3.943h34.405
			C117.228,143.974,118.997,145.743,118.997,147.917L118.997,147.917z M91.997,140.39v-16.904c0-3.229,2.625-5.855,5.854-5.855
			s5.855,2.627,5.855,5.855v16.904H91.997z M126.084,125.913l-2.872-2.872l10.52-10.52l2.871,2.873L126.084,125.913z
			 M126.084,125.913"/>
		<path fill="#FFFFFF" d="M76.823,80.886c0.99,0,1.792-0.803,1.792-1.792c0-0.99-0.802-1.793-1.792-1.793h-0.002
			c-0.99,0-1.791,0.803-1.791,1.793C75.03,80.083,75.833,80.886,76.823,80.886L76.823,80.886z M76.823,80.886"/>
		<path fill="#FFFFFF" d="M97.85,123.183c-0.47,0-0.931,0.191-1.266,0.526c-0.333,0.334-0.526,0.795-0.526,1.267
			c0,0.473,0.193,0.935,0.526,1.268s0.796,0.524,1.266,0.524c0.474,0,0.935-0.191,1.27-0.524c0.333-0.333,0.522-0.795,0.522-1.268
			c0-0.472-0.189-0.935-0.522-1.267C98.784,123.374,98.323,123.183,97.85,123.183L97.85,123.183z M97.85,123.183"/>
	</g>
</g>
<g id="Capa_2" display="none">
	<rect display="inline" fill="#3097B8" width="192.41" height="192.412"/>
</g>
</svg>
