<?xml version="1.0" encoding="utf-8"?>
<!-- Generator: Adobe Illustrator 16.0.0, SVG Export Plug-In . SVG Version: 6.00 Build 0)  -->
<!DOCTYPE svg PUBLIC "-//W3C//DTD SVG 1.1//EN" "http://www.w3.org/Graphics/SVG/1.1/DTD/svg11.dtd">
<svg version="1.1" xmlns="http://www.w3.org/2000/svg" xmlns:xlink="http://www.w3.org/1999/xlink" x="0px" y="0px"
	 width="192.411px" height="192.413px" viewBox="0 0 192.411 192.413" enable-background="new 0 0 192.411 192.413"
	 xml:space="preserve">
<g id="Capa_2">
	<rect fill="#3D8687" width="192.411" height="192.413"/>
</g>
<g id="Capa_1">
	<g>
		<g>
			<path fill-rule="evenodd" clip-rule="evenodd" fill="#FFFFFF" d="M151.368,133.18c-0.766,0.765-2.002,0.757-2.762-0.004
				c-0.764-0.764-0.775-2.005-0.012-2.77l16.178-16.177c0.764-0.764,2.012-0.76,2.775,0.004c0.762,0.761,0.762,2.006-0.002,2.77
				L151.368,133.18z M151.368,133.18"/>
			<path fill-rule="evenodd" clip-rule="evenodd" fill="#FFFFFF" d="M158.704,136.908c-0.764,0.764-2.023,0.75-2.787-0.014
				c-0.764-0.765-0.764-2.01,0-2.773l12.576-12.575c0.764-0.764,2.023-0.779,2.787-0.015s0.764,2.037,0,2.802L158.704,136.908z
				 M158.704,136.908"/>
			<path fill-rule="evenodd" clip-rule="evenodd" fill="#FFFFFF" d="M144.442,112.685c0.777,0.778,0.764,2.009,0,2.773
				c-0.768,0.768-1.998,0.781-2.777,0.003c-5.842-5.843-10.4-10.061-15.256-13.296c-4.805-3.205-9.943-5.479-17.061-7.531
				c-1.043-0.287-1.656-1.373-1.348-2.416c0.301-1.037,1.371-1.628,2.422-1.348c7.557,2.15,13.047,4.585,18.18,8.025
				C133.657,102.274,138.386,106.629,144.442,112.685L144.442,112.685z M144.442,112.685"/>
			<path fill-rule="evenodd" clip-rule="evenodd" fill="#FFFFFF" d="M149.829,107.298c0.779,0.777,0.766,2.009,0,2.773
				c-0.764,0.764-1.994,0.777-2.773,0c-6.041-6.07-10.4-10.768-13.781-15.848c-3.438-5.137-5.871-10.626-8.023-18.183
				c-0.311-1.046,0.299-2.136,1.346-2.419c1.031-0.297,2.121,0.312,2.42,1.344c2.037,7.131,4.314,12.268,7.512,17.078
				C139.769,96.897,143.985,101.454,149.829,107.298L149.829,107.298z M149.829,107.298"/>
			<path fill-rule="evenodd" clip-rule="evenodd" fill="#FFFFFF" d="M110.778,94.505c-0.959,0.479-2.139,0.101-2.643-0.865
				c-0.486-0.958-0.104-2.133,0.844-2.627c1.291-0.671,2.549-1.077,3.693-1.459l0.131-0.046c1.812-0.595,3.295-1.114,3.436-2.473
				l0.314-3.116c0.113-1.075,1.072-1.865,2.146-1.75c1.076,0.111,1.855,1.088,1.742,2.163l-0.301,3.103
				c-0.404,3.855-2.982,4.766-6.139,5.797l-0.102,0.047C112.886,93.614,111.782,93.982,110.778,94.505L110.778,94.505z
				 M110.778,94.505"/>
			<path fill-rule="evenodd" clip-rule="evenodd" fill="#FFFFFF" d="M125.38,74.612c0.494-0.977,1.684-1.345,2.646-0.863
				c0.961,0.509,1.344,1.684,0.848,2.66c-0.523,1.005-0.891,2.109-1.23,3.126l-0.014,0.1c-1.049,3.142-1.953,5.745-5.82,6.131
				l-3.092,0.318c-1.074,0.112-2.039-0.677-2.154-1.751c-0.113-1.075,0.65-2.038,1.729-2.152l3.111-0.31
				c1.359-0.142,1.883-1.628,2.49-3.453l0.029-0.113C124.317,77.146,124.728,75.885,125.38,74.612L125.38,74.612z M125.38,74.612"/>
			<path fill-rule="evenodd" clip-rule="evenodd" fill="#FFFFFF" d="M120.612,51.224c8.941,0,17.912,3.423,24.746,10.257
				c2.674,2.675,4.824,5.675,6.451,8.888c1.684,3.324,2.816,6.862,3.383,10.455c0.934,6.056,1.16,10.414,1.316,13.796
				c0.311,6.112,0.453,8.772,5.135,13.456c0.766,0.764,0.764,2.01-0.014,2.787l-16.275,16.275c-0.779,0.779-2.016,0.771-2.779,0.007
				c-4.643-4.641-7.344-4.761-13.393-5.028c-3.393-0.146-7.779-0.344-13.98-1.303c-3.594-0.565-7.145-1.684-10.449-3.389
				c-3.215-1.624-6.229-3.789-8.889-6.449c-3.354-3.354-5.889-7.213-7.588-11.344l-0.025-0.089
				c-1.768-4.258-2.641-8.818-2.645-13.313c0.002-4.56,0.908-9.117,2.678-13.403c1.707-4.142,4.24-8.007,7.58-11.346
				c3.338-3.338,7.197-5.866,11.348-7.583C111.485,52.114,116.056,51.224,120.612,51.224L120.612,51.224z M142.571,64.269
				c-6.07-6.069-14.021-9.098-21.959-9.111c-4.061,0.014-8.123,0.791-11.902,2.362c-3.664,1.515-7.088,3.751-10.072,6.735
				c-2.982,2.982-5.24,6.427-6.732,10.07c-1.572,3.781-2.355,7.847-2.367,11.904c0,4.018,0.779,8.051,2.322,11.801l0.037,0.102
				c1.5,3.651,3.75,7.09,6.736,10.074c2.377,2.378,5.055,4.284,7.881,5.73c2.957,1.486,6.098,2.504,9.281,3
				c5.961,0.916,10.248,1.1,13.576,1.252l0.016,0.015c6.463,0.3,9.689,0.441,14.537,4.817l13.574-13.572
				c-4.4-4.882-4.557-8.064-4.896-14.603c-0.17-3.282-0.381-7.485-1.301-13.413c-0.496-3.184-1.486-6.325-2.982-9.266
				C146.858,69.319,144.948,66.646,142.571,64.269L142.571,64.269z M142.571,64.269"/>
			<path fill-rule="evenodd" clip-rule="evenodd" fill="#FFFFFF" d="M166.005,140.616c-0.764,0.764-2.012,0.766-2.775,0.002
				s-0.758-2.008,0.006-2.771l8.982-8.982c0.777-0.778,2.02-0.782,2.785-0.018c0.764,0.764,0.764,2.01-0.016,2.788L166.005,140.616z
				 M166.005,140.616"/>
		</g>
		<g>
			<path fill-rule="evenodd" clip-rule="evenodd" fill="#FFFFFF" d="M24.866,117.003c-0.764-0.764-0.766-2.009-0.004-2.77
				c0.764-0.764,2.012-0.768,2.775-0.004l16.178,16.177c0.766,0.765,0.754,2.006-0.01,2.77c-0.762,0.761-1.998,0.769-2.764,0.004
				L24.866,117.003z M41.042,133.18"/>
			<path fill-rule="evenodd" clip-rule="evenodd" fill="#FFFFFF" d="M21.132,124.333c-0.766-0.765-0.766-2.037-0.002-2.802
				s2.023-0.749,2.789,0.015l12.574,12.575c0.764,0.764,0.764,2.009,0,2.773c-0.764,0.764-2.023,0.777-2.787,0.014L21.132,124.333z
				 M33.706,136.908"/>
			<path fill-rule="evenodd" clip-rule="evenodd" fill="#FFFFFF" d="M47.968,112.685c6.057-6.056,10.785-10.41,15.84-13.789
				c5.135-3.44,10.623-5.875,18.18-8.025c1.051-0.28,2.121,0.311,2.422,1.348c0.309,1.043-0.303,2.129-1.348,2.416
				c-7.117,2.052-12.256,4.326-17.059,7.531c-4.857,3.235-9.414,7.453-15.258,13.296c-0.779,0.778-2.008,0.765-2.777-0.003
				C47.204,114.693,47.19,113.463,47.968,112.685L47.968,112.685z M47.968,112.685"/>
			<path fill-rule="evenodd" clip-rule="evenodd" fill="#FFFFFF" d="M42.581,107.298c5.844-5.844,10.061-10.4,13.301-15.254
				c3.197-4.811,5.475-9.947,7.514-17.078c0.297-1.032,1.387-1.641,2.418-1.344c1.049,0.283,1.656,1.373,1.346,2.419
				c-2.152,7.557-4.586,13.046-8.023,18.183c-3.381,5.08-7.738,9.777-13.781,15.848c-0.779,0.777-2.01,0.764-2.773,0
				C41.817,109.307,41.804,108.075,42.581,107.298L42.581,107.298z M42.581,107.298"/>
			<path fill-rule="evenodd" clip-rule="evenodd" fill="#FFFFFF" d="M81.634,94.505c-1.006-0.522-2.109-0.891-3.123-1.227
				l-0.104-0.047c-3.156-1.031-5.734-1.941-6.139-5.797l-0.301-3.103c-0.111-1.075,0.668-2.052,1.742-2.163
				c1.074-0.115,2.033,0.675,2.146,1.75l0.314,3.116c0.141,1.358,1.623,1.878,3.436,2.473l0.131,0.046
				c1.146,0.382,2.402,0.788,3.693,1.459c0.947,0.494,1.33,1.669,0.844,2.627C83.771,94.605,82.591,94.983,81.634,94.505
				L81.634,94.505z M81.634,94.505"/>
			<path fill-rule="evenodd" clip-rule="evenodd" fill="#FFFFFF" d="M67.03,74.612c0.652,1.272,1.064,2.533,1.459,3.692l0.027,0.113
				c0.607,1.825,1.133,3.312,2.49,3.453l3.113,0.31c1.076,0.114,1.84,1.077,1.727,2.152c-0.115,1.074-1.08,1.863-2.154,1.751
				l-3.092-0.318c-3.867-0.386-4.771-2.989-5.82-6.131l-0.014-0.1c-0.34-1.017-0.707-2.121-1.23-3.126
				c-0.496-0.977-0.113-2.151,0.85-2.66C65.347,73.268,66.536,73.636,67.03,74.612L67.03,74.612z M67.03,74.612"/>
			<path fill-rule="evenodd" clip-rule="evenodd" fill="#FFFFFF" d="M71.8,51.224c4.557,0,9.127,0.891,13.398,2.674
				c4.15,1.717,8.01,4.245,11.348,7.583c3.34,3.339,5.873,7.204,7.582,11.346c1.768,4.286,2.674,8.844,2.678,13.403
				c-0.004,4.495-0.877,9.056-2.646,13.313l-0.023,0.089c-1.699,4.131-4.236,7.99-7.59,11.344c-2.66,2.66-5.674,4.825-8.889,6.449
				c-3.303,1.705-6.855,2.823-10.449,3.389c-6.201,0.959-10.588,1.156-13.979,1.303c-6.051,0.268-8.752,0.388-13.395,5.028
				c-0.764,0.765-2,0.772-2.779-0.007L30.78,110.862c-0.777-0.777-0.779-2.023-0.014-2.787c4.684-4.684,4.824-7.344,5.137-13.456
				c0.154-3.382,0.381-7.74,1.314-13.796c0.566-3.593,1.699-7.131,3.383-10.455c1.627-3.213,3.777-6.213,6.451-8.888
				C53.886,54.646,62.856,51.224,71.8,51.224L71.8,51.224z M49.841,64.269c-2.379,2.378-4.289,5.051-5.75,7.898
				c-1.496,2.94-2.486,6.082-2.98,9.266c-0.922,5.928-1.133,10.131-1.303,13.413c-0.34,6.538-0.494,9.721-4.895,14.603
				l13.572,13.572c4.85-4.376,8.074-4.518,14.537-4.817l0.016-0.015c3.328-0.152,7.615-0.336,13.576-1.252
				c3.184-0.496,6.326-1.514,9.281-3c2.828-1.446,5.504-3.353,7.883-5.73c2.984-2.984,5.234-6.423,6.734-10.074l0.039-0.102
				c1.543-3.75,2.32-7.783,2.32-11.801c-0.012-4.058-0.793-8.123-2.365-11.904c-1.494-3.644-3.752-7.088-6.734-10.07
				c-2.984-2.984-6.408-5.221-10.072-6.735c-3.779-1.571-7.84-2.349-11.9-2.362C63.86,55.171,55.909,58.199,49.841,64.269
				L49.841,64.269z M49.841,64.269"/>
			<path fill-rule="evenodd" clip-rule="evenodd" fill="#FFFFFF" d="M17.423,131.635c-0.777-0.778-0.777-2.024-0.014-2.788
				c0.764-0.765,2.006-0.761,2.785,0.018l8.98,8.982c0.764,0.764,0.77,2.008,0.006,2.771s-2.012,0.762-2.775-0.002L17.423,131.635z
				 M26.405,140.616"/>
		</g>
	</g>
</g>
</svg>
