<?xml version="1.0" encoding="utf-8"?>
<!-- Generator: Adobe Illustrator 16.0.0, SVG Export Plug-In . SVG Version: 6.00 Build 0)  -->
<!DOCTYPE svg PUBLIC "-//W3C//DTD SVG 1.1//EN" "http://www.w3.org/Graphics/SVG/1.1/DTD/svg11.dtd">
<svg version="1.1" xmlns="http://www.w3.org/2000/svg" xmlns:xlink="http://www.w3.org/1999/xlink" x="0px" y="0px"
	 width="192.41px" height="192.412px" viewBox="0 0 192.41 192.412" enable-background="new 0 0 192.41 192.412"
	 xml:space="preserve">
<g id="Capa_1">
	<g>
		<path fill="#FFFFFF" d="M65.657,55.196h9.165c1.265,0,2.29-1.024,2.29-2.291c0-1.266-1.025-2.292-2.29-2.292h-9.165
			c-1.264,0-2.29,1.026-2.29,2.292C63.367,54.172,64.394,55.196,65.657,55.196L65.657,55.196z M65.657,55.196"/>
		<path fill="#FFFFFF" d="M73.945,59.646l-6.839,2.833c-1.17,0.483-1.725,1.823-1.241,2.992c0.367,0.884,1.22,1.416,2.119,1.416
			c0.292,0,0.589-0.057,0.877-0.175l6.838-2.833c1.169-0.483,1.724-1.824,1.239-2.992C76.453,59.716,75.113,59.162,73.945,59.646
			L73.945,59.646z M73.945,59.646"/>
		<path fill="#FFFFFF" d="M67.106,43.331l6.839,2.834c0.287,0.119,0.583,0.174,0.877,0.174c0.897,0,1.751-0.532,2.116-1.414
			c0.484-1.17-0.07-2.509-1.239-2.994l-6.838-2.832c-1.171-0.486-2.512,0.07-2.996,1.239C65.382,41.508,65.937,42.848,67.106,43.331
			L67.106,43.331z M67.106,43.331"/>
		<path fill="#FFFFFF" d="M115.298,52.905c0,1.267,1.025,2.291,2.29,2.291h9.165c1.265,0,2.291-1.024,2.291-2.291
			c0-1.266-1.026-2.292-2.291-2.292h-9.165C116.323,50.613,115.298,51.64,115.298,52.905L115.298,52.905z M115.298,52.905"/>
		<path fill="#FFFFFF" d="M118.465,59.646c-1.168-0.484-2.509,0.07-2.993,1.241c-0.484,1.168,0.07,2.509,1.239,2.992l6.839,2.833
			c0.287,0.118,0.584,0.175,0.877,0.175c0.898,0,1.752-0.532,2.117-1.416c0.484-1.169-0.07-2.509-1.239-2.992L118.465,59.646z
			 M118.465,59.646"/>
		<path fill="#FFFFFF" d="M117.588,46.341c0.292,0,0.59-0.057,0.877-0.176l6.84-2.834c1.169-0.483,1.724-1.823,1.239-2.993
			c-0.483-1.169-1.824-1.724-2.994-1.239l-6.839,2.832c-1.169,0.485-1.724,1.824-1.239,2.994
			C115.838,45.808,116.691,46.341,117.588,46.341L117.588,46.341z M117.588,46.341"/>
		<path fill="#FFFFFF" d="M157.858,100.001c-0.419-0.485-1.021-0.774-1.664-0.794c-3.866-0.123-7.435-2.306-9.787-5.989
			c-0.42-0.659-1.148-1.059-1.932-1.059c-0.781,0-1.51,0.399-1.93,1.057c-2.437,3.815-6.132,6.004-10.142,6.004
			c-3.997,0-7.692-2.188-10.13-6.004c-0.423-0.659-1.15-1.057-1.93-1.057c-0.783,0-1.511,0.397-1.932,1.056
			c-0.266,0.418-0.568,0.839-0.896,1.248c-0.788,0.99-0.624,2.432,0.363,3.221c0.67,0.531,1.545,0.63,2.285,0.332
			c3.222,3.666,7.633,5.786,12.239,5.786c4.528,0,8.862-2.04,12.066-5.579c2.487,2.77,5.628,4.601,9.065,5.278
			c-1.848,11.663-7.335,22.682-15.6,31.24c-0.88,0.91-0.854,2.362,0.055,3.24c0.444,0.429,1.02,0.643,1.593,0.643
			c0.6,0,1.197-0.234,1.647-0.699c9.494-9.833,15.592-22.676,17.168-36.162C158.473,101.125,158.278,100.486,157.858,100.001
			L157.858,100.001z M157.858,100.001"/>
		<path fill="#FFFFFF" d="M131.349,140.604c-2.258,1.724-4.609,3.266-7.043,4.623l-1.445-26.39
			c-0.068-1.213-1.072-2.165-2.289-2.165h-7.094l-2.765-54.72c-0.062-1.219-1.068-2.176-2.289-2.176h-0.764v-4.581h0.764
			c1.267,0,2.293-1.024,2.293-2.291c0-1.266-1.026-2.292-2.293-2.292h-0.764V45.9c0.251,0.09,0.506,0.132,0.763,0.132
			c0.84,0,1.65-0.464,2.051-1.267c0.566-1.131,0.107-2.508-1.025-3.075l-12.219-6.109c-0.643-0.322-1.402-0.322-2.049,0
			L82.962,41.69c-1.132,0.567-1.59,1.942-1.025,3.075c0.524,1.047,1.739,1.516,2.813,1.134v4.714h-0.763
			c-1.265,0-2.291,1.026-2.291,2.292c0,1.267,1.026,2.291,2.291,2.291h0.763v4.581h-0.763c-1.221,0-2.227,0.957-2.29,2.176
			l-2.761,54.72h-6.834c-1.218,0-2.223,0.953-2.287,2.169l-1.417,26.56c-15.407-8.415-26.664-23.638-29.524-41.899
			c3.441-0.678,6.586-2.509,9.074-5.28c3.205,3.54,7.536,5.581,12.059,5.581c4.609,0,9.023-2.121,12.25-5.79
			c0.736,0.293,1.604,0.194,2.271-0.335c0.989-0.787,1.157-2.229,0.368-3.22c-0.325-0.408-0.624-0.825-0.891-1.242
			c-0.421-0.657-1.148-1.056-1.928-1.057c-0.782,0-1.51,0.397-1.931,1.056c-2.446,3.816-6.139,6.006-10.141,6.006
			c-3.998,0-7.693-2.189-10.133-6.005c-0.421-0.657-1.148-1.057-1.93-1.057c-0.783,0.001-1.511,0.399-1.932,1.059
			c-2.352,3.684-5.923,5.867-9.796,5.99c-0.643,0.019-1.245,0.308-1.663,0.793c-0.42,0.486-0.616,1.124-0.542,1.764
			c1.769,15.121,9.026,29.084,20.438,39.315c4.524,4.057,9.564,7.392,14.95,9.951c0.076,0.042,0.154,0.079,0.234,0.112
			c8.248,3.874,17.303,5.929,26.571,5.929c13.819,0,26.934-4.436,37.923-12.825c1.006-0.769,1.199-2.205,0.432-3.212
			C133.792,140.03,132.354,139.838,131.349,140.604L131.349,140.604z M86.163,64.359h20.084l0.727,14.384H85.438L86.163,64.359z
			 M89.333,43.63l6.872-3.438l6.874,3.438v6.983H89.333V43.63z M89.333,55.196h13.746v4.581H89.333V55.196z M84.249,102.289
			l16.927,0.001c1.266,0,2.293-1.025,2.293-2.29c0-1.267-1.027-2.292-2.293-2.292l-16.696-0.001l0.727-14.381h21.998l1.685,33.347
			H83.522L84.249,102.289z M72.87,147.601l1.403-26.346h44.13l1.435,26.213c-7.368,3.307-15.364,5.022-23.633,5.022
			C87.936,152.49,80.033,150.747,72.87,147.601L72.87,147.601z M72.87,147.601"/>
		<path fill="#FFFFFF" d="M96.816,141.95c0,1.266-1.026,2.291-2.29,2.291c-1.267,0-2.292-1.025-2.292-2.291
			c0-1.264,1.025-2.291,2.292-2.291C95.79,139.659,96.816,140.687,96.816,141.95L96.816,141.95z M96.816,141.95"/>
		<path fill="#FFFFFF" d="M87.652,132.786c0,1.267-1.026,2.29-2.29,2.29c-1.268,0-2.292-1.023-2.292-2.29
			c0-1.265,1.024-2.291,2.292-2.291C86.626,130.495,87.652,131.521,87.652,132.786L87.652,132.786z M87.652,132.786"/>
	</g>
</g>
<g id="Capa_2" display="none">
	<rect display="inline" fill="#75C19C" width="192.41" height="192.412"/>
</g>
</svg>
