<?xml version="1.0" encoding="utf-8"?>
<!-- Generator: Adobe Illustrator 16.0.0, SVG Export Plug-In . SVG Version: 6.00 Build 0)  -->
<!DOCTYPE svg PUBLIC "-//W3C//DTD SVG 1.1//EN" "http://www.w3.org/Graphics/SVG/1.1/DTD/svg11.dtd">
<svg version="1.1" xmlns="http://www.w3.org/2000/svg" xmlns:xlink="http://www.w3.org/1999/xlink" x="0px" y="0px"
	 width="192.411px" height="192.413px" viewBox="0 0 192.411 192.413" enable-background="new 0 0 192.411 192.413"
	 xml:space="preserve">
<g id="Capa_1">
	<g>
		<g>
			<path fill="#FFFFFF" d="M125.87,139.145c3.609-7.136,4.027-14.235,1.176-19.988c-1.543-3.116-3.932-5.617-7.098-7.435
				c-2.487-1.428-4.805-3.116-6.936-5.008c0.734,0.105,1.564,0.149,2.486,0.13c0.018,0.118,0.046,0.232,0.08,0.349
				c0.21,0.685,0.71,1.353,1.479,1.967c1.17,0.938,2.838,1.649,4.688,1.998c2.035,0.385,4.063,0.295,5.871-0.261
				c0.761-0.234,3.454-1.175,6.184-3.478c2.883-2.434,4.819-5.513,5.758-9.151c0.048-0.184-0.022-0.377-0.175-0.487
				c-0.152-0.111-0.358-0.118-0.519-0.017c-0.976,0.621-2.298,0.069-4.131-0.694c-2.758-1.15-6.533-2.724-11.713-1.133
				c-1.584,0.486-2.919,1.246-4.017,2.128c1.427-2.392,1.614-3.658,1.637-3.889c0.031-0.345-0.09-0.685-0.334-0.929l-3.493-3.493
				c-0.329-0.329-0.824-0.429-1.256-0.253s-0.716,0.594-0.722,1.059c-0.075,7.088-2.797,11.933-4.168,13.932
				c-2.391-2.478-4.479-5.246-6.206-8.253c-1.816-3.166-4.318-5.554-7.435-7.099c-5.753-2.85-12.853-2.434-19.988,1.178
				c-7.008,3.545-13.242,9.766-17.557,17.519c-5.284,9.494-6.901,20.105-4.326,28.387c1.657,5.332,4.898,9.322,9.387,11.547
				l0.02,0.01c1.685,0.829,3.013,2.158,3.84,3.839l0.018,0.036c0.838,1.688,1.926,3.201,3.245,4.52
				c2.174,2.176,4.977,3.822,8.297,4.854c8.281,2.576,18.892,0.958,28.387-4.325C116.103,152.388,122.324,146.152,125.87,139.145z
				 M117.013,93.227l1.192,1.192c-0.221,0.651-0.783,1.964-2.173,3.969C116.475,96.854,116.826,95.131,117.013,93.227z
				 M138.173,99.639c-1,2.759-2.665,5.134-4.965,7.075c-2.596,2.192-5.143,3.083-5.858,3.304c-3.638,1.116-7.722,0.021-9.718-1.578
				c-0.657-0.527-1.069-1.092-1.199-1.634c0.846-0.052,1.748-0.146,2.702-0.282c0.451,0.946,1.911,2.122,3.005,2.393
				c0.246,0.061,0.496-0.091,0.557-0.336c0.061-0.247-0.089-0.498-0.337-0.558c-0.795-0.198-1.816-1.018-2.254-1.653
				c0.782-0.132,1.59-0.291,2.418-0.477c0.003,0.003,0.003,0.006,0.004,0.009c0.95,1.833,3.381,2.591,4.727,2.523
				c0.254-0.012,0.45-0.228,0.438-0.481s-0.229-0.449-0.481-0.438c-1.095,0.055-2.944-0.555-3.75-1.83
				c1.105-0.269,2.242-0.578,3.4-0.933c0.497,0.547,1.273,0.957,2.191,1.158c1.073,0.234,2.334,0.181,3.64-0.159
				c0.247-0.062,0.394-0.314,0.329-0.562c-0.063-0.244-0.315-0.394-0.561-0.328c-2.195,0.569-3.752,0.177-4.582-0.43
				C132.327,102.985,136.052,101.242,138.173,99.639z M123.294,96.814c2.154-0.661,4.229-0.801,6.342-0.434
				c1.83,0.321,3.379,0.969,4.746,1.537c1.198,0.5,2.246,0.938,3.188,1.022c-2.101,1.571-5.955,3.342-10.435,4.754
				c-0.175,0.055-0.349,0.108-0.523,0.162c0.217-0.858,0.79-1.749,1.642-2.547c0.882-0.822,2.022-1.503,3.052-1.819
				c0.244-0.073,0.38-0.332,0.306-0.574c-0.075-0.243-0.332-0.38-0.576-0.306c-1.173,0.361-2.415,1.1-3.407,2.027
				c-1.472,1.371-1.903,2.667-2.007,3.513c-1.134,0.326-2.245,0.611-3.317,0.85c0.111-2.479,2.676-5.388,3.811-5.977
				c0.224-0.117,0.312-0.396,0.195-0.621c-0.118-0.226-0.396-0.313-0.622-0.195c-0.827,0.431-1.956,1.572-2.81,2.84
				c-0.979,1.453-1.502,2.912-1.498,4.15c-0.893,0.182-1.754,0.331-2.577,0.447c-0.214-1.394,0.734-3.943,2.214-5.079
				c0.202-0.154,0.24-0.443,0.086-0.646c-0.155-0.201-0.444-0.24-0.646-0.085c-1.499,1.149-2.863,3.973-2.566,5.923
				c-0.57,0.065-1.118,0.112-1.641,0.14c-0.318-0.759-0.227-1.899,0.262-3.109C117.375,100.642,119.61,97.946,123.294,96.814z
				 M115.286,105.93c-0.891,0.01-1.689-0.043-2.383-0.159c-0.01-0.002-0.019,0.002-0.027,0.001c1.01-1.059,1.889-2.039,2.652-2.946
				C115.13,103.98,115.036,105.069,115.286,105.93z M107.225,154.678c-8.953,4.982-18.887,6.529-26.573,4.139
				c-4.714-1.465-8.225-4.298-10.151-8.186l-0.017-0.032c-0.527-1.074-1.215-2.032-2.037-2.855c-0.825-0.825-1.785-1.514-2.86-2.042
				l-0.026-0.014c-3.893-1.928-6.725-5.439-8.19-10.153c-2.39-7.688-0.844-17.62,4.137-26.573
				c8.384-15.058,23.856-23.019,34.496-17.747c2.698,1.338,4.868,3.415,6.454,6.176c1.995,3.476,4.448,6.649,7.28,9.445
				c0.044,0.081,0.095,0.158,0.158,0.229c0.014,0.015,0.029,0.031,0.044,0.046c0.014,0.014,0.028,0.026,0.044,0.041
				c0.079,0.072,0.167,0.131,0.26,0.177c2.571,2.461,5.442,4.615,8.554,6.401c2.76,1.586,4.84,3.758,6.176,6.455
				C130.245,130.824,122.283,146.297,107.225,154.678z"/>
			<path fill="#FFFFFF" d="M67.021,109.356c0.436-0.685,0.896-1.364,1.373-2.02c0.375-0.518,0.26-1.242-0.258-1.617
				c-0.518-0.377-1.242-0.263-1.617,0.257c-0.502,0.693-0.992,1.412-1.453,2.139c-0.297,0.466-0.216,1.062,0.159,1.438
				c0.058,0.059,0.123,0.112,0.196,0.158C65.96,110.057,66.677,109.896,67.021,109.356z"/>
			<path fill="#FFFFFF" d="M64.604,113.736c0.274-0.577,0.026-1.269-0.552-1.54c-0.577-0.274-1.268-0.026-1.541,0.552
				c-3.143,6.654-4.324,13.818-3.241,19.655c0.044,0.238,0.159,0.447,0.319,0.608c0.261,0.26,0.641,0.391,1.029,0.319
				c0.631-0.116,1.045-0.722,0.928-1.351C60.55,126.611,61.665,119.961,64.604,113.736z"/>
			<path fill="#FFFFFF" d="M123.776,124.965c-0.106-0.63-0.7-1.057-1.332-0.952c-0.629,0.105-1.057,0.701-0.952,1.332
				c0.174,1.047,0.21,2.161,0.104,3.316c-0.031,0.356,0.1,0.688,0.336,0.923c0.186,0.185,0.433,0.309,0.715,0.334
				c0.635,0.058,1.198-0.412,1.256-1.049C124.023,127.519,123.983,126.205,123.776,124.965z"/>
			<path fill="#FFFFFF" d="M120.41,133.567c-2.481,6.465-8.31,12.743-15.588,16.794c-0.835,0.466-1.694,0.903-2.552,1.304
				c-0.58,0.271-0.831,0.959-0.561,1.538c0.059,0.127,0.137,0.237,0.229,0.33c0.334,0.334,0.854,0.441,1.309,0.23
				c0.908-0.423,1.817-0.887,2.699-1.378c7.739-4.308,13.954-11.031,16.624-17.989c0.23-0.597-0.068-1.267-0.667-1.496
				C121.309,132.672,120.639,132.971,120.41,133.567z"/>
		</g>
		<path fill="#FFFFFF" d="M55.074,91.696c0,0.618-0.502,1.119-1.118,1.119l0,0c-0.618,0-1.119-0.501-1.119-1.119V31.302
			c0-0.618,0.501-1.119,1.119-1.119l0,0c0.616,0,1.118,0.501,1.118,1.119V91.696z"/>
		<path fill="#FFFFFF" d="M69.731,65.413c0,0.619-0.501,1.119-1.119,1.119l0,0c-0.617,0-1.117-0.5-1.117-1.119V31.302
			c0-0.618,0.5-1.119,1.117-1.119l0,0c0.618,0,1.119,0.501,1.119,1.119V65.413z"/>
		<path fill="#FFFFFF" d="M86.559,76.876c0,0.618-0.5,1.119-1.119,1.119l0,0c-0.617,0-1.119-0.501-1.119-1.119v-7.923
			c0-0.618,0.502-1.119,1.119-1.119l0,0c0.619,0,1.119,0.501,1.119,1.119V76.876z"/>
		<path fill="#FFFFFF" d="M110.046,39.225c0,0.619-0.502,1.119-1.119,1.119l0,0c-0.618,0-1.118-0.5-1.118-1.119v-7.923
			c0-0.618,0.5-1.119,1.118-1.119l0,0c0.617,0,1.119,0.501,1.119,1.119V39.225z"/>
		<path fill="#FFFFFF" d="M86.559,55.627c0,0.618-0.5,1.119-1.119,1.119l0,0c-0.617,0-1.119-0.5-1.119-1.119V31.302
			c0-0.618,0.502-1.119,1.119-1.119l0,0c0.619,0,1.119,0.501,1.119,1.119V55.627z"/>
		<path fill="#FFFFFF" d="M110.046,91.696c0,0.618-0.502,1.119-1.119,1.119l0,0c-0.618,0-1.118-0.501-1.118-1.119V44.023
			c0-0.618,0.5-1.119,1.118-1.119l0,0c0.617,0,1.119,0.501,1.119,1.119V91.696z"/>
		<path fill="#FFFFFF" d="M135.21,74.08c0,0.619-0.502,1.119-1.12,1.119l0,0c-0.615,0-1.117-0.5-1.117-1.119V31.302
			c0-0.618,0.502-1.119,1.117-1.119l0,0c0.618,0,1.12,0.501,1.12,1.119V74.08z"/>
	</g>
</g>
<g id="Capa_2" display="none">
	<rect display="inline" fill="#68C1B8" width="192.411" height="192.413"/>
</g>
</svg>
