<?xml version="1.0" encoding="utf-8"?>
<!-- Generator: Adobe Illustrator 16.0.0, SVG Export Plug-In . SVG Version: 6.00 Build 0)  -->
<!DOCTYPE svg PUBLIC "-//W3C//DTD SVG 1.1//EN" "http://www.w3.org/Graphics/SVG/1.1/DTD/svg11.dtd">
<svg version="1.1" xmlns="http://www.w3.org/2000/svg" xmlns:xlink="http://www.w3.org/1999/xlink" x="0px" y="0px"
	 width="192.411px" height="192.412px" viewBox="0 0 192.411 192.412" enable-background="new 0 0 192.411 192.412"
	 xml:space="preserve">
<g id="Capa_1">
	<g>
		<g>
			<path fill="#FFFFFF" d="M121.454,81.771V58.666c0-13.922-11.326-25.249-25.248-25.249S70.958,44.744,70.958,58.666v23.104
				c-10.605,7.787-17.501,20.339-17.501,34.474c0,23.572,19.178,42.75,42.749,42.75s42.748-19.178,42.748-42.75
				C138.954,102.109,132.058,89.558,121.454,81.771L121.454,81.771z M74.965,58.666c0-11.712,9.53-21.24,21.241-21.24
				s21.24,9.528,21.24,21.24v20.488c-6.262-3.599-13.514-5.659-21.24-5.659s-14.979,2.061-21.241,5.659V58.666z M96.206,154.987
				c-21.361,0-38.742-17.38-38.742-38.743c0-21.361,17.381-38.742,38.742-38.742s38.742,17.38,38.742,38.742
				C134.948,137.607,117.567,154.987,96.206,154.987L96.206,154.987z M96.206,154.987"/>
			<path fill="#FFFFFF" d="M116.804,88.296c-0.057-0.053-0.116-0.104-0.182-0.151c-0.062-0.045-0.129-0.087-0.196-0.124
				c-5.698-4.096-12.682-6.51-20.22-6.51c-7.537,0-14.521,2.415-20.221,6.509c-0.066,0.038-0.133,0.079-0.195,0.125
				c-0.064,0.047-0.126,0.1-0.186,0.153c-8.566,6.331-14.133,16.5-14.133,27.947c0,11.447,5.566,21.616,14.133,27.948
				c0.06,0.053,0.121,0.105,0.186,0.153c0.051,0.036,0.104,0.065,0.156,0.095c5.706,4.113,12.703,6.539,20.256,6.539
				c7.561,0,14.56-2.426,20.266-6.539c0.052-0.032,0.105-0.059,0.154-0.095c0.065-0.047,0.125-0.098,0.182-0.151
				c8.569-6.331,14.135-16.502,14.135-27.949C130.938,104.798,125.373,94.627,116.804,88.296L116.804,88.296z M115.841,139.861
				l-3.488-4.8c-0.65-0.895-1.902-1.093-2.797-0.443c-0.896,0.651-1.095,1.905-0.444,2.8l3.489,4.802
				c-4.217,2.672-9.125,4.343-14.391,4.685v-5.945c0-1.106-0.898-2.004-2.004-2.004c-1.107,0-2.004,0.898-2.004,2.004v5.945
				c-5.268-0.342-10.175-2.013-14.391-4.685l3.488-4.802c0.65-0.895,0.451-2.149-0.445-2.8c-0.894-0.65-2.146-0.451-2.797,0.443
				l-3.488,4.8c-3.9-3.251-6.987-7.448-8.904-12.236l5.654-1.837c1.053-0.342,1.629-1.473,1.287-2.524
				c-0.344-1.053-1.474-1.629-2.525-1.286l-5.657,1.838c-0.616-2.424-0.944-4.959-0.944-7.571s0.328-5.146,0.944-7.569l5.657,1.838
				c0.205,0.067,0.415,0.098,0.619,0.098c0.846,0,1.632-0.538,1.906-1.384c0.342-1.053-0.234-2.184-1.285-2.525l-5.656-1.837
				c1.917-4.789,5.004-8.985,8.906-12.235l3.486,4.798c0.393,0.541,1.003,0.827,1.622,0.827c0.409,0,0.821-0.125,1.178-0.383
				c0.894-0.651,1.093-1.903,0.442-2.799l-3.488-4.802c4.216-2.671,9.125-4.343,14.391-4.684v5.944c0,1.106,0.897,2.004,2.004,2.004
				c1.105,0,2.004-0.897,2.004-2.004v-5.945c5.266,0.342,10.175,2.014,14.391,4.685l-3.489,4.802
				c-0.65,0.896-0.451,2.148,0.444,2.799c0.355,0.259,0.766,0.383,1.176,0.383c0.618,0,1.23-0.288,1.621-0.827l3.488-4.798
				c3.901,3.25,6.989,7.447,8.904,12.235l-5.653,1.837c-1.054,0.342-1.63,1.472-1.286,2.525c0.273,0.847,1.061,1.386,1.904,1.386
				c0.206,0,0.413-0.033,0.619-0.1l5.659-1.838c0.615,2.423,0.944,4.958,0.944,7.569s-0.329,5.147-0.944,7.57l-5.659-1.839
				c-1.05-0.341-2.182,0.235-2.523,1.287c-0.343,1.053,0.232,2.184,1.286,2.526l5.655,1.837
				C122.83,132.413,119.742,136.61,115.841,139.861L115.841,139.861z M115.841,139.861"/>
			<path fill="#FFFFFF" d="M109.431,58.666v11.256c0,1.106,0.896,2.004,2.004,2.004c1.106,0,2.004-0.897,2.004-2.004V58.666
				c0-9.503-7.73-17.233-17.232-17.233s-17.232,7.73-17.232,17.233v11.256c0,1.106,0.896,2.004,2.003,2.004
				c1.108,0,2.005-0.897,2.005-2.004V58.666c0-7.293,5.934-13.225,13.225-13.225C103.498,45.441,109.431,51.373,109.431,58.666
				L109.431,58.666z M109.431,58.666"/>
			<path fill="#FFFFFF" d="M96.206,97.542c-10.312,0-18.703,8.39-18.703,18.703c0,8.62,5.846,16.085,14.214,18.155
				c1.075,0.266,2.159-0.39,2.427-1.464c0.266-1.075-0.391-2.162-1.464-2.426c-6.576-1.627-11.169-7.492-11.169-14.265
				c0-8.103,6.592-14.695,14.695-14.695c8.103,0,14.695,6.592,14.695,14.695c0,6.773-4.592,12.638-11.169,14.265
				c-1.074,0.265-1.73,1.351-1.464,2.426c0.225,0.913,1.044,1.522,1.944,1.522c0.159,0,0.321-0.019,0.482-0.058
				c8.369-2.07,14.214-9.536,14.214-18.155C114.909,105.932,106.52,97.542,96.206,97.542L96.206,97.542z M96.206,97.542"/>
		</g>
		<g>
			<path fill="#FFFFFF" d="M94.34,110.602c0,0,1.015,0.216,1.519-0.218c0,0-3.557,6.791,4.767,8.382c0,0-0.411,0.448-0.581,0.725
				c-0.125,0.196-0.33,0.979-0.33,0.979s-5.809-6.178-9.647-0.314l-0.286-0.941C89.78,119.214,94.916,115.593,94.34,110.602z"/>
			<path fill="#FFFFFF" d="M105.495,121.39c0,1.139-0.922,2.062-2.062,2.062c-1.138,0-2.063-0.924-2.063-2.062
				c0-1.116,0.908-2.062,2.063-2.062C104.573,119.328,105.495,120.25,105.495,121.39z"/>
			<path fill="#FFFFFF" d="M97.062,106.376c0.266,0.45-0.203,1.22-1.046,1.72c-0.846,0.498-1.744,0.538-2.011,0.087
				c-0.27-0.451,0.2-1.222,1.043-1.719C95.894,105.964,96.794,105.925,97.062,106.376z"/>
			
				<ellipse transform="matrix(0.1287 0.9917 -0.9917 0.1287 197.0181 18.6677)" fill="#FFFFFF" cx="87.886" cy="121.452" rx="1.776" ry="0.948"/>
		</g>
	</g>
</g>
<g id="Capa_2" display="none">
	<rect display="inline" fill="#35B8BC" width="192.411" height="192.412"/>
</g>
</svg>
